<svg width="31" height="30" viewBox="0 0 31 30" fill="none" xmlns="http://www.w3.org/2000/svg">
<g filter="url(#filter0_d_189_6793)">
<path d="M6.86829 3.58996C7.58772 3.61183 8.24657 3.8593 8.78236 4.25988C8.8365 4.28726 8.9061 4.32325 8.99622 4.36828C9.36671 4.55336 10.0676 4.89837 10.6681 5.29015C12.0297 6.17859 13.6347 7.62638 14.6212 8.52257C15.1686 9.0198 15.7056 9.48809 16.1701 9.87218C17.0241 8.89705 17.7751 8.10789 18.7472 7.23742C19.7315 6.35134 20.5881 5.63381 21.4884 4.99425L21.6974 4.84582L21.9269 4.73058C22.3646 4.51062 22.7758 4.37891 22.9396 4.32433C24.7069 3.73523 26.6179 4.68992 27.2072 6.45714C27.794 8.21763 26.848 10.1198 25.0939 10.7169C24.577 11.1046 24.0073 11.581 23.2618 12.2521L23.254 12.2589C22.5136 12.9215 21.9409 13.5191 21.174 14.3986C21.1438 14.4337 20.4163 15.3439 19.9201 15.8273C19.4748 16.2609 17.9475 17.6958 15.7413 17.3116C15.1327 17.2056 14.6736 16.9759 14.4669 16.8673C14.3539 16.8079 14.2531 16.7497 14.2013 16.7198C14.1341 16.6811 14.1166 16.6708 14.0958 16.6593C12.7748 15.9298 11.0664 14.4072 10.0851 13.5157C9.0048 12.5344 7.80731 11.4794 6.98158 10.9405C6.76794 10.8011 6.43686 10.6314 5.9806 10.4034C5.8037 10.3151 5.53718 10.1836 5.32142 10.0626C5.22611 10.0092 5.01576 9.88943 4.79603 9.72472C4.69554 9.64939 4.46433 9.46956 4.22669 9.19445C4.09971 9.04743 3.3531 8.19888 3.39368 6.85949L3.40345 6.68664C3.54765 4.90779 5.0643 3.53529 6.86829 3.58996ZM10.1349 6.8341C10.1342 6.81507 10.133 6.79622 10.132 6.77746C10.133 6.79631 10.1342 6.81516 10.1349 6.8341Z" fill="white"/>
<path d="M6.91357 2.09033C7.89562 2.12019 8.79883 2.44513 9.54639 2.96631C9.58105 2.984 9.61737 3.00231 9.6665 3.02686C10.0198 3.20335 10.8019 3.58619 11.4878 4.03369C12.9681 4.99961 14.6628 6.53448 15.6294 7.4126C15.7684 7.5389 15.9085 7.66083 16.0444 7.78174C16.5737 7.22129 17.1147 6.68547 17.7466 6.11963C18.7505 5.21605 19.6541 4.45687 20.6196 3.771L20.8286 3.62256L20.9224 3.55713L21.0239 3.50537L21.2534 3.39014L21.6519 3.20557C22.0329 3.04163 22.348 2.93999 22.4653 2.90088C25.0179 2.05015 27.779 3.42936 28.6304 5.98291C29.4492 8.43965 28.2015 11.0853 25.8325 12.0405C25.4028 12.372 24.9098 12.7864 24.2651 13.3667L24.2573 13.3735L24.2495 13.3813L24.2417 13.3882C23.5689 13.9912 23.0423 14.5366 22.312 15.3735L22.313 15.3745C22.3552 15.3254 21.5261 16.3566 20.9663 16.9019C20.5145 17.3419 18.6049 19.1906 15.7622 18.8315L15.4839 18.7896C14.6481 18.6439 14.0269 18.3303 13.769 18.1948C13.6274 18.1204 13.5036 18.049 13.4517 18.019C13.4344 18.0091 13.4202 18.0013 13.4087 17.9946C13.3969 17.9878 13.389 17.9829 13.3823 17.979C13.3697 17.9717 13.369 17.9713 13.3706 17.9722C11.8664 17.1415 10.0244 15.4874 9.07666 14.6265C8.11173 13.7499 7.14457 12.8995 6.44482 12.3921L6.16162 12.1968C6.03534 12.1144 5.79031 11.9855 5.31006 11.7456C5.14811 11.6647 4.843 11.5133 4.58838 11.3706C4.47705 11.3082 4.19662 11.1506 3.896 10.9253C3.7547 10.8194 3.42856 10.5657 3.09131 10.1753C2.91174 9.9674 1.83552 8.74538 1.89404 6.81396L1.896 6.7749L1.90576 6.60205L1.90674 6.5835L1.90869 6.56592C2.11712 3.99475 4.30712 2.01143 6.91357 2.09033Z" stroke="black" stroke-width="3" stroke-linecap="round"/>
</g>
<defs>
<filter id="filter0_d_189_6793" x="0.39209" y="0.588379" width="29.99" height="28.7896" filterUnits="userSpaceOnUse" color-interpolation-filters="sRGB">
<feFlood flood-opacity="0" result="BackgroundImageFix"/>
<feColorMatrix in="SourceAlpha" type="matrix" values="0 0 0 0 0 0 0 0 0 0 0 0 0 0 0 0 0 0 127 0" result="hardAlpha"/>
<feOffset dy="9"/>
<feComposite in2="hardAlpha" operator="out"/>
<feColorMatrix type="matrix" values="0 0 0 0 0.0392157 0 0 0 0 0.227451 0 0 0 0 0.572549 0 0 0 0.85 0"/>
<feBlend mode="normal" in2="BackgroundImageFix" result="effect1_dropShadow_189_6793"/>
<feBlend mode="normal" in="SourceGraphic" in2="effect1_dropShadow_189_6793" result="shape"/>
</filter>
</defs>
</svg>
