<svg width="36" height="22" viewBox="0 0 36 22" fill="none" xmlns="http://www.w3.org/2000/svg">
<g filter="url(#filter0_d_189_6792)">
<path d="M26.2657 3.2655C27.0114 3.22063 28.0952 3.22533 29.4298 3.47156C31.2618 3.80956 32.4728 5.56828 32.1349 7.40027C31.7969 9.23224 30.0381 10.4432 28.2062 10.1053C27.5094 9.97678 26.9842 9.98103 26.671 9.99988C26.3175 10.0212 26.423 10.0299 25.9435 10.0975L25.8829 10.1063L25.8224 10.1122C25.4436 10.1516 23.5331 10.586 20.0792 10.6923C17.5722 10.7694 15.4915 10.8576 13.9669 10.9286C12.4976 10.997 11.4311 11.056 11.1193 11.0663C10.267 11.0944 9.22284 11.0576 8.1134 10.9843L6.98645 10.8993L6.8136 10.8807C5.04515 10.6425 3.75553 9.05609 3.9054 7.25769C4.05541 5.45942 5.58975 4.10907 7.37317 4.16687L7.547 4.17663L8.57825 4.25378C9.55182 4.31772 10.3448 4.34133 10.8966 4.32312C11.157 4.31452 12.0466 4.26419 13.6534 4.18933C15.205 4.11704 17.3216 4.02752 19.8712 3.94909C23.0521 3.85126 23.6553 3.56893 25.0167 3.41589C25.1165 3.39674 25.6514 3.3025 26.2657 3.2655Z" fill="white"/>
<path d="M26.1758 1.76807C27.0182 1.71738 28.2264 1.7243 29.7021 1.99658C32.2658 2.46969 33.9879 4.86876 33.6494 7.42432L33.6104 7.67236C33.1221 10.3188 30.5811 12.0684 27.9346 11.5806H27.9336C27.3791 11.4783 26.9782 11.4845 26.7607 11.4976C26.6803 11.5024 26.6449 11.5047 26.6289 11.5063C26.6218 11.5071 26.6206 11.508 26.6074 11.5103C26.5512 11.5199 26.4215 11.5447 26.1533 11.5825L26.1523 11.5815L26.0986 11.5903L26.0635 11.5962L26.0273 11.5991L25.9766 11.603L25.9775 11.604C25.9718 11.6049 25.9387 11.6095 25.8545 11.6235C25.7449 11.6418 25.6673 11.6557 25.498 11.6841C25.2014 11.7337 24.8012 11.7974 24.3008 11.8638C23.299 11.9965 21.9071 12.1371 20.125 12.1919C17.628 12.2687 15.5557 12.3565 14.0371 12.4272C12.598 12.4943 11.4926 12.5552 11.1689 12.5659C10.2449 12.5964 9.14448 12.5557 8.01465 12.481L8.00098 12.48L6.87402 12.395L6.84961 12.3931L6.82617 12.3911L6.65332 12.3726L6.63379 12.3696L6.61328 12.3677C4.05703 12.0233 2.19375 9.73152 2.41016 7.1333C2.62016 4.61587 4.70778 2.70622 7.18164 2.66553L7.42188 2.66748L7.45703 2.66943L7.63086 2.6792L7.64551 2.68018L7.65918 2.68115L8.67871 2.7583C9.63257 2.8209 10.3679 2.83951 10.8467 2.82373C11.0958 2.8155 11.9458 2.76724 13.584 2.69092C15.1415 2.61836 17.2662 2.52842 19.8252 2.44971C22.9257 2.35434 23.2671 2.10636 24.8193 1.9292C25.0445 1.88962 25.5742 1.80429 26.1758 1.76807Z" stroke="black" stroke-width="3" stroke-linecap="round"/>
</g>
<defs>
<filter id="filter0_d_189_6792" x="0.893311" y="0.243652" width="34.2986" height="20.832" filterUnits="userSpaceOnUse" color-interpolation-filters="sRGB">
<feFlood flood-opacity="0" result="BackgroundImageFix"/>
<feColorMatrix in="SourceAlpha" type="matrix" values="0 0 0 0 0 0 0 0 0 0 0 0 0 0 0 0 0 0 127 0" result="hardAlpha"/>
<feOffset dy="7"/>
<feComposite in2="hardAlpha" operator="out"/>
<feColorMatrix type="matrix" values="0 0 0 0 0.0379145 0 0 0 0 0.227877 0 0 0 0 0.57127 0 0 0 1 0"/>
<feBlend mode="normal" in2="BackgroundImageFix" result="effect1_dropShadow_189_6792"/>
<feBlend mode="normal" in="SourceGraphic" in2="effect1_dropShadow_189_6792" result="shape"/>
</filter>
</defs>
</svg>
