<svg width="36" height="28" viewBox="0 0 36 28" fill="none" xmlns="http://www.w3.org/2000/svg">
<path d="M27.0156 6.10964C25.8047 7.49476 24.8691 8.65055 24.2086 9.57702C23.5115 10.5952 22.3924 12.0767 20.8513 14.0213C21.8145 15.3606 22.7777 16.7044 23.7408 18.0528C24.8783 19.6214 25.9011 20.9194 26.8092 21.9468C27.1486 22.332 27.3183 22.7448 27.3183 23.1851C27.3183 23.6988 27.1211 24.1437 26.7266 24.5198C26.3414 24.8959 25.8827 25.0839 25.3507 25.0839C24.4426 25.0839 23.2547 24.0382 21.787 21.9468C21.3925 21.3414 20.7825 20.4424 19.957 19.2499C19.5717 18.7179 18.9892 17.9244 18.2095 16.8695C17.0812 18.1446 15.6503 19.7132 13.9166 21.5753C13.3662 22.199 12.5177 23.1072 11.3711 24.2996C10.9675 24.6849 10.5042 24.8775 9.98136 24.8775C9.44933 24.8775 8.98609 24.6895 8.59166 24.3134C8.19722 23.9465 8 23.5062 8 22.9925C8 22.5522 8.16053 22.1486 8.48158 21.7817C9.04113 21.1946 9.87587 20.3094 10.9858 19.1261C12.1966 17.8235 13.8157 16.0348 15.8429 13.7599C14.9164 12.5858 13.9395 11.4116 12.9121 10.2375C12.8296 10.1457 12.3067 9.47612 11.3435 8.22859C10.7106 7.4122 10.1281 6.79761 9.5961 6.38483C9.07324 5.96287 8.81181 5.46753 8.81181 4.89881C8.81181 4.41264 8.99527 3.97692 9.36219 3.59166C9.73828 3.19722 10.2061 3 10.7657 3C11.261 3 11.9123 3.34857 12.7195 4.04572C13.3066 4.55941 13.7927 5.07768 14.178 5.60054C14.5633 6.11422 15.1366 6.85723 15.8979 7.82957C16.7785 8.82942 17.627 9.84304 18.4434 10.8704C19.5992 9.3477 20.7504 7.82498 21.8971 6.30227C23.6766 4.10076 24.892 3 25.5433 3C26.0753 3 26.5386 3.18805 26.933 3.56414C27.3275 3.93106 27.5247 4.37136 27.5247 4.88505C27.5247 5.31618 27.355 5.72437 27.0156 6.10964Z" fill="black"/>
</svg>
