<svg width="36" height="28" viewBox="0 0 36 28" fill="none" xmlns="http://www.w3.org/2000/svg">
<path d="M2 4C2.52446 4 10.137 4 21.6552 4.13111C26.6176 4.52446 28.2148 4.5324 29.8001 4.2662C30.5987 4.26223 31.3854 4.52446 32.9906 4.79463" stroke="black" stroke-width="3" stroke-linecap="round"/>
<path d="M2 13.7946C2.52446 13.7946 10.137 13.7946 21.6552 13.9257C26.6176 14.3191 28.2148 14.327 29.8001 14.0608C30.5987 14.0569 31.3854 14.3191 32.9906 14.5893" stroke="black" stroke-width="3" stroke-linecap="round"/>
<path d="M2 23.5893C2.52446 23.5893 10.137 23.5893 21.6552 23.7204C26.6176 24.1137 28.2148 24.1217 29.8001 23.8555C30.5987 23.8515 31.3854 24.1137 32.9906 24.3839" stroke="black" stroke-width="3" stroke-linecap="round"/>
</svg>
