<svg width="20" height="23" viewBox="0 0 20 23" fill="none" xmlns="http://www.w3.org/2000/svg">
<path d="M19.4712 3.1815C18.2603 4.56662 17.3247 5.72242 16.6642 6.64889C15.9671 7.66709 14.848 9.14852 13.3069 11.0932C14.2701 12.4324 15.2333 13.7763 16.1964 15.1247C17.3339 16.6933 18.3567 17.9913 19.2648 19.0186C19.6042 19.4039 19.7739 19.8167 19.7739 20.257C19.7739 20.7707 19.5767 21.2156 19.1822 21.5917C18.797 21.9677 18.3383 22.1558 17.8063 22.1558C16.8981 22.1558 15.7102 21.1101 14.2426 19.0186C13.8481 18.4132 13.2381 17.5143 12.4126 16.3218C12.0273 15.7898 11.4448 14.9963 10.6651 13.9414C9.53684 15.2164 8.10585 16.785 6.37216 18.6471C5.82178 19.2709 4.97328 20.179 3.82666 21.3715C3.42305 21.7568 2.95982 21.9494 2.43696 21.9494C1.90493 21.9494 1.44169 21.7614 1.04725 21.3853C0.652815 21.0183 0.455596 20.578 0.455596 20.0644C0.455596 19.6241 0.616123 19.2204 0.937177 18.8535C1.49673 18.2665 2.33147 17.3813 3.4414 16.1979C4.65223 14.8954 6.27126 13.1067 8.29849 10.8318C7.37202 9.65762 6.3951 8.48348 5.36772 7.30934C5.28517 7.21761 4.76231 6.54798 3.79914 5.30046C3.16621 4.48406 2.58373 3.86948 2.05169 3.45669C1.52883 3.03473 1.2674 2.53939 1.2674 1.97067C1.2674 1.4845 1.45086 1.04879 1.81778 0.663522C2.19387 0.269084 2.6617 0.0718651 3.22125 0.0718651C3.71659 0.0718651 4.36787 0.420438 5.17509 1.11758C5.76216 1.63127 6.24833 2.14954 6.63359 2.6724C7.01886 3.18609 7.59217 3.9291 8.35352 4.90143C9.23413 5.90129 10.0826 6.9149 10.899 7.94227C12.0548 6.41956 13.206 4.89685 14.3526 3.37413C16.1322 1.17262 17.3476 0.0718651 17.9989 0.0718651C18.5309 0.0718651 18.9942 0.259911 19.3886 0.636003C19.783 1.00292 19.9803 1.44322 19.9803 1.95691C19.9803 2.38804 19.8106 2.79624 19.4712 3.1815Z" fill="black"/>
</svg>
