<svg width="40" height="41" viewBox="0 0 40 41" fill="none" xmlns="http://www.w3.org/2000/svg">
<path d="M36.3181 18.725L32.4373 19.4262L29.7128 19.9187L29.5916 19.9398L25.8516 20.5942C25.8552 20.5809 25.8534 20.5661 25.8527 20.5516C25.8833 19.6555 25.7165 18.767 25.3648 17.9523L25.2438 17.1773L28.9813 16.5019L31.7458 16.0023L35.6607 15.2947C35.77 15.6562 35.8644 16.0213 35.944 16.3899L36.3025 18.6755L36.3181 18.725Z" fill="black"/>
<path d="M34.3571 28.2572C33.8007 29.3085 33.1376 30.2975 32.3792 31.2077L22.1194 26.4158L22.3854 25.8307C23.3479 25.3838 24.1773 24.6771 24.7839 23.787L34.3571 28.2572Z" fill="black"/>
<path d="M14.4705 24.8037L9.26535 26.8113L5.54424 28.2467C5.02658 27.2104 4.61687 26.1197 4.32184 24.9922L8.02379 23.5636L10.6246 22.5599L13.3141 21.5229L14.4705 24.8037Z" fill="black"/>
<path d="M18.6378 10.9594L16.4603 13.6941L14.735 12.2541L12.55 10.4308L9.47429 7.86261C10.3777 7.05565 11.363 6.35147 12.4126 5.76269L15.7689 8.56361L18.3346 10.7074L18.6378 10.9594Z" fill="black"/>
<path d="M30.8061 26.5979C29.7137 28.563 28.1382 30.2038 26.2401 31.3533C24.342 32.5027 22.1889 33.1199 20 33.1419C17.8112 33.1639 15.6646 32.59 13.7789 31.4786C11.8932 30.3671 10.3356 28.7579 9.26467 26.8145C8.7065 25.7984 8.28862 24.706 8.02282 23.568L4.32086 24.9966C5.15843 28.2143 6.91945 31.0856 9.3768 33.2403C11.8341 35.3949 14.8751 36.734 18.1076 37.0849C21.34 37.4358 24.6156 36.7824 27.512 35.2089C30.4083 33.6354 32.7926 31.2141 34.3573 28.2571L30.8061 26.5979Z" fill="black"/>
<path d="M15.7688 8.56361C17.5802 7.84749 19.5229 7.57336 21.4421 7.76307C23.3613 7.95278 25.2038 8.60109 26.8229 9.6563C28.4419 10.7115 29.7926 12.1445 30.7673 13.8409C31.742 15.5373 32.3137 17.4502 32.4369 19.4272L36.3177 18.726C36.3157 18.7076 36.3148 18.6895 36.3125 18.6722L35.954 16.3865C35.8706 16.0177 35.7762 15.6527 35.6707 15.2914C34.8795 12.6464 33.4569 10.2552 31.5309 8.33344C29.6049 6.41167 27.2361 5.01968 24.638 4.2829C22.0399 3.54612 19.2941 3.48771 16.6481 4.11293C14.0021 4.73814 11.5389 6.02734 9.48069 7.86435L12.5564 10.4325C13.5334 9.65066 14.6161 9.02079 15.7688 8.56361Z" fill="black"/>
<path d="M8.98599 14.9175C9.30545 14.2547 9.67937 13.6204 10.1036 13.0216L7.08348 10.5006C4.77788 13.6621 3.60968 17.5353 3.78133 21.4491L7.69577 19.9394C7.78686 18.1975 8.22605 16.4881 8.98599 14.9175Z" fill="black"/>
<path d="M32.3925 18.9052L29.6875 19.4971L29.5694 19.5238L25.8592 20.334" fill="black"/>
<path d="M13.1335 21.5674L10.6179 22.538C10.3746 21.3202 10.3598 20.0625 10.5743 18.8318L11.977 18.2914L13.1335 21.5674Z" fill="black"/>
<path d="M16.8392 14.0905L14.6616 16.8251L12.2219 14.7843C12.8909 13.808 13.7246 12.9614 14.6827 12.2855L16.8392 14.0905Z" fill="black"/>
<path d="M28.3129 25.4343C27.3069 27.1508 25.8253 28.5242 24.0613 29.3756C22.2973 30.2269 20.3327 30.5166 18.4234 30.207C16.5142 29.8974 14.749 29.0028 13.3578 27.6398C11.9666 26.2768 11.014 24.5087 10.6242 22.5658C10.6211 22.5573 10.6192 22.5484 10.6186 22.5393C10.2397 20.6254 10.4236 18.6303 11.1471 16.8063C11.8706 14.9823 13.1012 13.4112 14.6834 12.2916L14.7358 12.2556C16.1652 11.2595 17.8216 10.6686 19.5342 10.5439C21.2468 10.4191 22.9538 10.7649 24.4794 11.5458C26.0049 12.3266 27.294 13.5142 28.2138 14.9863C29.1335 16.4584 29.6508 18.1618 29.7122 19.921L29.5913 19.9409L25.8516 20.5943C25.8552 20.5809 25.8534 20.5661 25.8527 20.5516C25.9043 19.1241 25.4541 17.733 24.5845 16.6327C23.7149 15.5325 22.4839 14.7965 21.1166 14.5593C19.7492 14.3221 18.3368 14.5995 17.1375 15.3409C15.9382 16.0823 15.032 17.2381 14.5847 18.597C14.1374 19.9559 14.1788 21.4273 14.7014 22.7421C15.2239 24.0569 16.1927 25.1274 17.4306 25.7578C18.6685 26.3883 20.0929 26.5366 21.4434 26.1758C22.794 25.8149 23.9804 24.9689 24.786 23.7924L28.3129 25.4343Z" fill="black"/>
</svg>
