<svg width="260" height="463" viewBox="0 0 260 463" fill="none" xmlns="http://www.w3.org/2000/svg">
<path d="M28 16.5212L46.5 17.5212H54L108 21.521L157.5 23.021L222 24.521L236 25.021C239.333 26.021 246.2 28.021 247 28.021C247.8 28.021 253.667 30.021 256.5 31.021L254.5 25.021L241.5 10.521L215 9.521L163 7.521L127 5.021L111.5 4.021L71 2.52115C65.6667 2.35449 54.8 2.12115 54 2.52115C53 3.02115 36 10.5212 35 10.5212C34.2 10.5212 30 14.5212 28 16.5212Z" fill="#747474"/>
<path d="M26.0002 18.021L30.5002 16.9035L249 27.9439L254.5 31.521L257.144 38.021L237.033 436.021L233.5 456.021L216.5 461.424L25.0002 451.748L7.50021 446.021L1.83463 434.021L22.2228 30.521L26.0002 18.021Z" fill="#D9D9D9"/>
<path d="M16 408.265L16.5379 394.074L18.1518 348.346C17.9725 346.244 17.7214 341.829 18.1518 340.988C18.6897 339.936 18.6897 311.028 19.2277 309.977C19.7656 308.926 20.3036 248.481 21.3795 248.481C22.2402 248.481 23.1726 202.227 23.5313 179.101L27.2969 139.155L29.4487 91.8499L27.8348 61.8903L29.4487 37.1868L36.9799 25.6234C39.4903 24.9226 44.6188 23.521 45.0491 23.521C45.4795 23.521 61.7255 24.9226 69.7947 25.6234L133.81 30.8795C148.694 31.2299 178.675 31.9307 179.536 31.9307H207.509H238.71C240.862 32.8067 245.488 34.769 246.779 35.61C248.393 36.6612 248.393 44.5453 248.931 45.5965C249.361 46.4375 247.676 80.6369 246.779 97.6316C246.241 108.845 245.165 131.481 245.165 132.322C245.165 133.163 242.296 172.618 240.862 192.241L237.634 219.572C236.558 238.319 234.406 275.917 234.406 276.338C234.406 276.864 231.717 313.13 231.717 314.182C231.717 315.023 228.848 370.947 227.413 398.804L226.337 430.341C225.979 434.02 225.261 441.589 225.261 442.43C225.261 443.271 223.109 448.737 222.034 451.365C215.758 451.891 202.99 452.837 202.13 452.416C201.269 451.996 177.743 450.839 166.087 450.314C159.273 450.489 145.43 450.734 144.569 450.314C143.709 449.893 126.638 449.087 118.21 448.737H83.2433C74.8155 448.211 57.7447 447.055 56.8839 446.635C55.8081 446.109 33.7522 444.007 32.6763 443.481C31.8156 443.06 24.4278 438.4 20.8415 436.122L16 424.033V408.265Z" fill="white"/>
<path d="M21.0651 51.896C20.9401 50.231 21.0226 49.6485 21.0857 48.3597C21.1333 47.3875 21.3976 46.7335 21.5438 46.0447C21.7566 45.0427 21.7726 44.441 21.8357 43.7941C21.919 42.9399 22.0226 41.7735 21.9613 41.2729C21.9401 41.1472 21.9401 41.0235 21.9194 40.8979C21.8988 40.7722 21.8576 40.6485 21.8151 40.521" stroke="black" stroke-width="4" stroke-linecap="round"/>
<path d="M35 16.5202C36.7784 16.2736 35.16 16.1459 35.8731 16.2496C36.3724 16.3223 37.12 16.3959 37.7481 16.5203C38.8933 16.747 40.7475 16.7284 41.3725 16.8746C41.9853 17.018 43.57 17.0209 44.9744 17.1246C46.745 17.2554 48.98 17.2709 50.435 17.3746C51.3312 17.4385 53.6475 17.5209 55.4331 17.4171C56.6631 17.3457 59.145 17.5209 60.685 17.6246C61.4993 17.6795 61.9975 17.7709 62.9338 17.9784C63.6124 18.1288 64.1225 18.1459 64.8306 18.2496C65.5388 18.3534 66.3725 18.5209 66.8731 18.6246C67.1182 18.6754 67.4563 18.6871 68.6763 18.7496C71.5014 18.8944 73.4988 18.8121 73.8513 18.8746C74.8599 19.0535 75.62 19.0209 76.3925 19.1246C77.0693 19.2155 77.6238 19.1871 78.5744 19.2496C82.6155 19.5153 83.1225 19.3959 84.4913 19.4996C87.8647 19.7553 88.5375 19.6459 89.66 19.7496C92.363 19.9995 92.8725 19.9784 93.4144 20.0415C93.7901 20.0853 94.165 20.1871 95.7763 20.2496C97.2216 20.3057 99.945 20.2709 101.409 20.2915C102.999 20.3139 104.486 20.3959 106.611 20.4165C107.918 20.4292 108.83 20.6034 112.548 20.6665C114.126 20.6933 115.12 20.8534 115.851 21.0203C116.975 21.2768 117.748 21.2284 118.912 21.2915C119.416 21.3188 121.523 21.3959 124.459 21.4165C125.623 21.4784 125.874 21.5621 126.185 21.6246C126.373 21.6459 126.62 21.6459 126.875 21.5209" stroke="black" stroke-width="4" stroke-linecap="round"/>
<path d="M127.5 21.521C129.147 22.001 130.722 22.3283 132.574 22.4495C137.17 22.7504 138.456 22.6119 139.46 22.4913C139.836 22.446 141.091 22.3695 142.9 22.3895C145.301 22.416 148.241 22.5707 149.075 22.7325C150.365 22.9828 152.158 22.9343 153.692 23.0761C157.66 23.4428 159.25 22.8543 160.351 22.7537C161.198 22.6764 161.896 22.6931 164.417 22.6325C166.745 22.5766 171.202 22.6119 173.619 22.6319C176.82 22.6584 177.99 22.8931 178.849 22.9955C179.704 23.0974 180.781 23.1768 182.466 23.238C183.96 23.2923 185.919 23.4192 186.677 23.4804C187.731 23.5655 188.708 23.5016 189.32 23.4404C190.139 23.3585 191.007 23.138 194.106 23.1168C196.287 23.1018 198.837 23.298 199.57 23.3592C201.607 23.529 204.855 23.5404 205.589 23.6016C206.905 23.7113 208.671 23.7828 209.893 23.844C212.18 23.9587 215.717 24.0252 216.305 24.0865C217.185 24.1781 218.359 24.2677 218.947 24.3289C219.59 24.3958 220.268 24.5101 221.099 24.5713C221.297 24.5859 221.442 24.6313 223.14 24.6519C224.837 24.6725 228.083 24.6725 229.827 24.6925C232.209 24.7198 233.282 24.8737 234.114 24.9349C235.386 25.0285 236.561 25.1161 237.637 25.1774C238.029 25.2374 238.47 25.2786 238.983 25.2986" stroke="black" stroke-width="4" stroke-linecap="round"/>
<path d="M256.812 35.271C256.812 37.4779 256.771 37.9772 256.698 38.2701C256.637 38.5148 256.625 39.3885 256.573 40.0713C256.528 40.6651 256.5 41.5347 256.448 42.2785C256.399 42.9893 256.417 43.5822 256.386 44.0379C256.283 45.5378 256.313 45.9972 256.261 46.5079C256.144 47.6605 256.188 48.3285 256.136 48.8938C256.052 49.8083 256.063 50.516 256.011 51.1126C255.939 51.9341 255.938 52.7647 255.886 53.4563C255.834 54.1441 255.813 54.931 255.761 55.571C255.723 56.0346 255.729 56.4366 255.698 57.8097C255.669 59.0795 255.688 61.5135 255.677 62.8085C255.666 64.1863 255.625 64.436 255.615 64.7272C255.59 65.435 255.48 66.6422 255.427 67.1341C255.353 67.8271 255.334 68.9147 255.302 70.0894C255.291 70.5234 255.209 70.7697 255.177 72.2754C255.165 72.8763 255.084 73.2072 255.052 73.5613C255.028 73.8367 254.959 74.0822 254.927 74.4466C254.874 75.059 254.834 75.936 254.823 77.5563C254.833 77.8954 254.854 77.9572 254.854 78.0201C254.854 78.0829 254.834 78.1447 254.75 78.271" stroke="black" stroke-width="4" stroke-linecap="round"/>
<path d="M254.688 79.7085C254.708 81.1729 254.729 82.6372 254.739 83.6701C254.756 85.2597 254.729 85.9779 254.698 86.3101C254.659 86.7231 254.646 87.2885 254.584 87.9844C254.471 89.2447 254.5 89.6235 254.448 89.9882C254.382 90.4542 254.375 91.0785 254.323 91.6444C254.285 92.061 254.209 92.5185 254.177 93.1541C254.153 93.6463 254.084 94.2272 254.052 94.8935C254.032 95.3144 253.959 95.686 253.927 97.2129C253.913 97.9165 253.834 98.5397 253.802 99.206C253.791 99.4378 253.75 100.14 253.74 101.118C253.735 101.562 253.688 101.873 253.667 102.413C253.64 103.119 253.562 103.975 253.573 104.714C253.585 105.581 253.584 106.54 253.552 107.361C253.521 108.166 253.541 108.79 253.573 109.311C253.623 110.141 253.584 111.435 253.552 112.206C253.525 112.874 253.459 113.623 253.427 113.968C253.386 114.417 253.293 114.997 253.24 115.758C253.223 116 253.188 116.723 253.177 117.723C253.173 118.146 253.125 118.972 253.115 120.19C253.108 120.96 253.021 121.207 252.979 121.488C252.875 121.916 252.854 122.187 252.823 122.467C252.812 122.643 252.812 122.891 252.75 123.146" stroke="black" stroke-width="4" stroke-linecap="round"/>
<path d="M252.75 123.021C252.544 125.64 252.337 128.26 252.118 131.073C251.898 133.887 251.671 136.816 251.565 138.376C251.451 140.038 251.5 140.228 251.51 140.405C251.522 140.604 251.562 141.595 251.573 143.011C251.578 143.685 251.625 144.7 251.635 146.043C251.639 146.583 251.687 147.595 251.677 149.073C251.673 149.687 251.625 150.142 251.635 150.767C251.642 151.145 251.687 151.828 251.677 152.733C251.673 153.082 251.646 153.206 251.636 153.981C251.625 154.757 251.625 156.18 251.615 156.975C251.6 158.084 251.521 158.332 251.479 158.759C251.438 159.177 251.334 159.457 251.302 159.718C251.265 160.023 251.209 160.27 251.125 160.676C251.062 161.267 251.083 162.083 251.114 162.208C251.125 162.27 251.125 162.332 251.125 162.396" stroke="black" stroke-width="4" stroke-linecap="round"/>
<path d="M251 162.208C250.667 165.583 250.625 165.832 250.573 166.548C250.505 167.486 250.521 168.434 250.459 169.357C250.367 170.711 250.417 171.583 250.375 171.749C250.242 172.28 250.25 172.831 250.198 173.238C250.134 173.745 250.25 174.495 250.198 175.082C250.139 175.747 250.125 176.206 250.073 177.047C249.986 178.458 250.042 179.499 250.011 179.707C249.948 180.121 249.938 180.952 249.886 181.943C249.826 183.088 249.854 183.957 249.823 184.258C249.744 185.016 249.75 185.518 249.698 186.256C249.631 187.215 249.667 187.978 249.636 188.661C249.569 190.126 249.604 191.228 249.573 191.498C249.523 191.935 249.5 192.352 249.448 192.893C249.393 193.47 249.417 194.019 249.386 194.589C249.333 195.55 249.354 196.27 249.323 196.787C249.215 198.58 249.209 198.915 249.177 199.373C249.151 199.752 249.084 200.082 249.052 200.333C249 201.222 248.979 202.708 248.948 202.884C248.938 202.998 248.938 203.163 248.938 203.333" stroke="black" stroke-width="4" stroke-linecap="round"/>
<path d="M248.688 203.333C248.605 205.478 248.523 207.623 248.49 209.244C248.458 210.865 248.479 211.896 248.386 214.438C248.294 216.98 248.088 221.002 247.971 223.126C247.849 225.353 247.813 225.727 247.823 226.205C247.84 226.999 247.834 227.707 247.74 228.144C247.623 228.69 247.563 229.227 247.511 229.665C247.447 230.204 247.438 230.582 247.386 230.926C247.309 231.432 247.313 231.852 247.261 232.342C247.209 232.83 247.313 233.247 247.364 233.665C247.375 233.893 247.396 234.083 247.427 234.373C247.438 234.6 247.438 234.992 247.375 235.458" stroke="black" stroke-width="4" stroke-linecap="round"/>
<path d="M247.312 235.771C247.292 237.029 247.271 238.287 247.188 239.544C247.106 240.8 246.961 242.017 246.887 242.696C246.801 243.476 246.771 243.872 246.647 244.918C246.557 245.675 246.44 246.892 246.376 247.612C246.296 248.516 246.292 248.791 246.261 249.256C246.189 250.317 246.229 251.207 246.198 251.57C246.169 251.912 246.167 252.187 246.136 252.745C246.065 254.003 246.104 254.978 246.073 255.362C246.027 255.929 246.083 256.333 246.114 256.788C246.191 257.9 246.104 258.77 246.073 259.06C246.033 259.432 246.042 259.811 246.011 260.36C245.955 261.341 245.979 262.082 245.948 262.424C245.862 263.371 245.875 264.243 245.823 264.905C245.786 265.374 245.75 265.831 245.698 266.29C245.639 266.809 245.625 267.186 245.521 268.028C245.441 268.683 245.438 269.102 245.386 269.705C245.354 271.062 245.292 271.333 245.261 271.788C245.25 272.18 245.25 272.902 245.188 273.708" stroke="black" stroke-width="4" stroke-linecap="round"/>
<path d="M245.062 274.146C244.98 276.435 244.897 278.725 244.803 281.647C244.709 284.569 244.606 288.055 244.522 290.046C244.438 292.038 244.376 292.43 244.344 292.704C244.264 293.392 244.25 293.893 244.198 295.106C244.164 295.902 244.188 297.346 244.177 298.183C244.165 299.205 244.125 299.582 244.115 299.945C244.086 300.954 244.021 302.165 243.99 302.582C243.95 303.103 243.896 303.686 243.865 304.072C243.838 304.398 243.771 304.81 243.74 306.753C243.688 307.353 243.667 307.624 243.636 307.925C243.625 308.122 243.625 308.411 243.5 308.771" stroke="black" stroke-width="4" stroke-linecap="round"/>
<path d="M243.875 310.021C243.459 314.52 243.375 316.091 243.271 317.268C243.187 318.227 243 320.548 242.896 321.892C242.8 323.143 242.75 324.138 242.646 325.39C242.439 327.887 242.5 328.723 242.396 329.684C242.289 330.68 242.5 332.588 242.396 333.81C242.336 334.52 242.167 335.431 242.104 338.364C242.079 339.524 241.917 340.183 241.771 341.885C241.538 344.601 241.709 346.561 241.646 347.203C241.434 349.385 241.5 350.058 241.292 351.578C241.187 352.35 241.042 353.018 240.896 354.037C240.721 355.258 240.75 356.266 240.646 357.163C240.538 358.098 240.5 359.016 240.396 359.768C240.299 360.473 240.25 362.958 240.146 365.076C239.996 368.14 240 369.883 239.896 371.08C239.761 372.639 239.75 373.971 239.646 375.883C239.579 377.121 239.625 379.473 239.604 380.767C239.581 382.227 239.5 383.757 239.479 385.943C239.469 387.018 239.375 388.343 239.354 390.051C239.345 390.853 239.25 392.918 239.229 395.897C239.217 397.688 239.042 398.848 238.979 400.058C238.957 400.48 238.875 402.09 238.854 404.401C238.847 405.269 238.792 405.516 238.771 406.86C238.75 408.205 238.75 410.638 238.729 411.975C238.7 413.855 238.542 414.601 238.479 415.787C238.42 416.894 238.292 418.143 238.229 418.976C238.169 419.773 238.042 420.601 237.979 422.638C237.933 424.143 237.792 425.643 237.729 428.157C237.71 428.936 237.625 429.723 237.604 430.66C237.594 431.147 237.5 433.292 237.479 436.437C237.462 439.012 237.292 441.683 237.126 442.29C236.94 442.964 236.917 443.643 236.854 445.908C236.834 446.395 236.792 446.518 236.771 447.16M236.771 447.16C236.75 447.801 236.771 445.97 236.771 447.16Z" stroke="black" stroke-width="4" stroke-linecap="round"/>
<path d="M237.625 26.146C241.374 26.146 242.12 26.311 242.81 26.4166C243.627 26.5417 244.452 26.7285 245.267 26.8122C246.517 26.9407 247.08 27.2285 248.204 27.7272C249.086 28.119 249.705 28.1035 250.373 28.291C251.03 28.4756 251.497 28.7285 252.143 29.1647C253.074 29.7935 253.747 30.4785 254.269 30.8735C254.818 31.2897 255.248 31.686 255.52 32.1441C255.84 32.6817 256.082 33.351 256.249 33.9147C256.442 34.5658 256.625 35.226 256.729 35.9135C256.913 37.1325 256.875 37.8085 256.999 38.9716C257.041 39.6747 257.083 40.9535 257.042 42.0041C257.001 43.0547 256.877 43.8385 256.75 44.646" stroke="black" stroke-width="4" stroke-linecap="round"/>
<path d="M37.5 16.896C34.2825 16.566 31.8 16.396 30.4056 16.4372C29.1026 16.4758 28.6275 16.8535 27.4006 17.4766C26.6689 17.8483 26.0875 18.5585 25.3775 19.1647C24.5292 19.8891 24.21 21.391 24.0006 22.1229C23.8391 22.6875 23.75 23.2685 23.6256 23.8104C23.4554 24.5521 23.4175 25.226 23.2506 25.9766C23.1296 26.5208 22.96 27.3485 22.8544 29.0566C22.7998 29.9392 22.6675 30.851 22.6044 31.6222C22.5751 31.9802 22.5 33.796 22.4794 36.3785C22.4682 37.7736 22.2925 38.2685 22.2294 39.3291C22.2088 39.6022 22.1675 39.8085 22.105 40.0179C22.0425 40.2272 21.96 40.4335 21.75 40.771" stroke="black" stroke-width="4" stroke-linecap="round"/>
<path d="M4.625 395.396C4.58375 395.437 4.5425 395.478 4.45938 397.542C4.37625 399.605 4.2525 403.688 4.16813 405.875C4.08375 408.061 4.0425 408.226 4.02125 409.899C4 411.572 4 414.748 3.97938 416.508C3.94849 419.144 3.7925 420.226 3.72938 422.014C3.68945 423.145 3.5425 424.476 3.47938 427.882C3.33375 429.352 3.25 432.163 3.14625 433.81C3.125 433.977 3.125 434.183 2.875 434.271" stroke="black" stroke-width="4" stroke-linecap="round"/>
<path d="M2.875 435.271C3.79 439.016 4.29 440.351 4.52 440.915C5.09207 442.317 6.6225 444.473 7.01937 445.123C7.34775 445.661 8.205 445.811 8.8725 446.269C9.51286 446.709 10.1625 447.143 10.9762 447.748C11.67 448.263 12.2475 448.686 12.7481 448.916C13.2655 449.154 13.83 449.436 15.3069 449.542C16.0524 449.595 16.6225 449.853 17.1644 450C17.8519 450.185 18.3725 450.228 18.8731 450.395C19.5157 450.61 20.455 450.603 20.9981 450.77C21.5026 450.925 22.1625 451.021 22.7481 451.145C23.2643 451.255 24.49 451.396 25.3731 451.52C25.9239 451.598 26.4975 451.728 27.2262 451.812C27.9158 451.891 28.3725 452.146 29.0175 452.25C30.2333 452.445 31.2425 452.146 31.9981 452.27C32.4988 452.437 32.9975 452.603 34.2244 452.605C34.4987 452.563 34.6225 452.481 34.75 452.396" stroke="black" stroke-width="4" stroke-linecap="round"/>
<path d="M21.5 50.771C21.17 54.401 21 57.756 20.9588 60.3772C20.9291 62.2598 20.75 65.496 20.7088 69.411C20.6901 71.1852 20.5 72.2635 20.4588 73.5535C20.4304 74.4392 20.25 78.4835 20.2088 84.2322C20.1739 89.0854 19.835 94.266 19.7088 95.6822C19.5453 97.5156 19.335 100.016 19.2088 101.058C19.0318 102.52 18.835 104.181 18.7088 105.723C18.5618 107.52 18.335 109.516 18.2088 113.422C18.1732 114.522 18 118.648 17.9588 124.647C17.9316 128.596 17.585 131.766 17.335 133.93C17.17 134.353 16.84 134.436 16.835 134.396C16.83 134.356 17.16 134.191 17.5 134.021" stroke="black" stroke-width="4" stroke-linecap="round"/>
<path d="M17.25 135.021C17.25 137.991 17.25 140.676 17.2087 142.55C17.1218 146.498 16.835 152.516 16.5425 153.725C16.4148 154.252 16.4175 154.851 16.2925 157.537C16.183 159.891 16.25 164.266 16.2087 166.683C16.1377 170.848 15.835 173.681 15.7087 175.597C15.5822 177.518 15.335 180.016 15.2087 182.677C15.1017 184.933 14.835 187.766 14.7087 190.136C14.5862 192.437 14.335 194.431 14.2087 196.14C14.0761 197.936 13.835 200.266 13.7088 202.802C13.5697 205.595 13.335 208.931 13.2088 210.266C13.0662 211.774 12.835 213.596 12.7088 218.128C12.6329 220.85 12.665 223.516 12.7088 230.576C12.7321 234.344 12.335 238.016 12.2088 239.722C12.0331 242.096 11.835 244.766 11.7088 246.057C11.5253 247.934 11.335 249.931 11.2088 251.1C10.9226 253.749 10.835 257.431 10.7088 261.671C10.6675 262.601 10.585 262.931 10.4187 263.142C10.2525 263.353 10.005 263.436 9.75 263.521" stroke="black" stroke-width="4" stroke-linecap="round"/>
<path d="M11.5 264.021C11.335 270.291 11.25 274.841 11.2087 276.965C11.1464 280.175 10.835 285.011 10.7087 288.342C10.6735 289.274 10.5 292.491 10.4587 297.156C10.4319 300.188 10.085 302.016 9.95875 303.64C9.77461 306.008 9.585 309.516 9.45875 311.97C9.39116 313.283 9.085 314.266 8.95875 316.387C8.78786 319.258 8.585 322.766 8.45875 324.265C8.31071 326.022 8.085 327.516 7.95875 330.093C7.84394 332.437 7.585 334.266 7.45875 342.405C7.42471 344.599 7.25 348.073 7.20875 352.863C7.19378 354.601 7.085 354.931 7.0425 357.37C7 359.808 7 364.346 6.95875 366.89C6.88913 371.183 6.585 373.681 6.45875 375.39C6.1867 379.072 6.085 385.266 5.7925 386.516C5.50571 387.742 5.5 389.261 5.2925 391.466C5.25 394.811 5.1675 397.268 4.96 397.767C4.835 398.018 4.67 398.266 4.5 398.521" stroke="black" stroke-width="4" stroke-linecap="round"/>
<path d="M237.375 442.521C235.959 449.811 235.71 450.476 235.376 451.288C234.978 452.259 234.09 453.926 233.169 455.33C232.705 456.037 232.045 456.393 231.212 456.935C230.154 457.623 229.502 457.978 228.462 458.353C227.775 458.6 227.252 458.603 226.69 458.687C225.77 458.824 224.88 459.186 224.231 459.375C223.647 459.545 223.127 459.603 222.606 459.77C222.009 459.962 221.502 460.021 221.002 460.125C220.508 460.227 220.002 460.353 218.568 460.417C217.46 460.465 216.045 460.438 215.461 460.292C214.77 460.119 212.932 460.146 211.566 460.25C210.129 460.359 209.627 460.396 209.127 460.52C208.998 460.552 208.877 460.603 208.731 460.563C208.585 460.522 208.42 460.398 208.397 460.397C208.374 460.395 208.497 460.518 208.625 460.646" stroke="black" stroke-width="4" stroke-linecap="round"/>
<path d="M35.25 453.146C37.725 453.146 39.2475 453.105 41.19 453.042C42.8843 452.988 46.02 453.021 47.7587 453.062C50.1323 453.118 50.9525 453.353 52.9719 453.375C54.0015 453.386 54.9975 453.353 55.9956 453.603C57.1317 453.888 57.9975 453.771 58.7869 453.667C60.8139 453.401 62.24 453.771 63.2881 453.667C64.0292 453.594 64.7062 453.605 66.7512 453.542C68.5893 453.486 72.055 453.521 73.9019 453.542C76.8267 453.574 79.0775 453.728 79.9556 453.895C80.6223 454.022 81.785 454.103 83.0581 454.25C83.9525 454.352 84.705 454.396 85.2894 454.52C86.3134 454.738 87.6625 454.728 88.2481 454.792C88.8775 454.859 89.6225 454.978 90.4344 455.042C91.5776 455.13 93.2475 455.228 94.6194 455.292C95.832 455.347 97.08 455.478 97.8512 455.542C98.9128 455.628 100.248 455.728 102.823 455.792C104.288 455.827 105.873 455.978 108.884 456.042C110.332 456.072 111.498 456.228 112.558 456.312C113.333 456.373 114.204 456.521 114.994 456.542C115.541 456.556 116.987 456.646 119.027 456.667C120.874 456.685 121.872 456.853 123.348 456.917C123.707 456.932 123.913 456.978 125.236 457C126.559 457.021 128.993 457.021 130.329 457.042C132.127 457.069 132.623 457.228 133.206 457.312C134.257 457.463 135.162 457.603 136.121 457.75C137.072 457.895 138.655 457.896 139.974 457.792C140.985 457.713 141.79 457.73 142.741 457.667C144.925 457.524 146.54 457.605 147.244 457.542C148.684 457.414 149.79 457.562 151.36 457.625C152.764 457.681 155.405 457.646 156.93 457.667C158.455 457.687 158.785 457.728 159.883 457.75C162.837 457.807 164.956 457.812 165.372 457.895C166.199 458.061 166.955 458.103 167.705 458.25C167.955 458.271 168.285 458.271 168.393 458.271C168.501 458.271 207.877 460.521 208 460.521" stroke="black" stroke-width="4" stroke-linecap="round"/>
<path d="M18.1305 409.6C17.8639 416.264 18.0399 418.931 18.3517 421.087C18.8804 424.741 18.8395 426.224 19.2394 427.508C19.7453 429.133 19.9964 430.536 20.7481 431.82C21.5861 433.252 22.3902 434.946 23.679 436.389C24.7438 437.581 25.8555 438.137 26.9231 438.854C27.9918 439.573 29.0542 440.188 30.3431 441.01C31.4599 441.723 32.5196 442.14 33.8524 442.551C35.2121 442.971 36.4274 443.477 37.5856 443.732C38.7282 443.985 39.9833 444.093 41.4481 444.348C43.4332 444.695 45.7464 444.709 47.6684 444.964C49.8386 445.253 50.9124 445.528 52.024 445.684C53.3414 445.868 54.7296 446.249 56.1104 446.504C57.8457 446.658 59.6131 446.865 61.0871 447.12C61.399 447.173 61.7509 447.173 61.5803 447.173" stroke="black" stroke-width="4" stroke-linecap="round"/>
<path d="M45.9761 25.521C46.7688 25.7819 48.3648 25.9541 50.4011 26.0859C52.7989 26.2411 55.8076 26.476 59.6607 26.5216C62.6414 26.557 65.8307 26.476 67.2512 26.8243C68.8212 27.2093 70.6188 27.2587 71.7746 27.3905C72.9411 27.5235 74.694 27.7806 77.4432 27.9124C78.5154 27.9637 82.9987 28.1302 89.2924 28.1733C92.7947 28.1972 94.5593 28.5634 95.7151 28.6951C97.7445 28.9265 101.119 29.0852 102.586 29.3905C103.766 29.6359 106.077 29.6958 108.171 29.9123C109.548 30.0547 111.312 30.2176 113.048 30.4342C114.596 30.6273 115.664 30.7395 118.356 30.956C125.574 31.5367 127.188 31.4335 129.582 31.5653C131.296 31.6597 133.04 32.0441 134.505 32.2606C136.661 32.5792 138.62 32.5659 140.709 32.7825C144.642 33.1904 146.074 33.0878 147.54 33.3043C149.695 33.6228 154.113 33.6096 158.213 33.8262C162.688 34.0625 165.942 33.9566 167.438 34.0871C173.368 34.6041 174.803 34.3924 176.709 34.6089C178.589 34.8226 180.04 34.7394 182.063 34.8699C187.06 35.1921 190.768 34.8281 192.661 34.6977C199.974 34.1936 201.403 34.3924 203.044 34.1758C206.084 33.7747 210.857 33.8705 214.568 33.654C215.581 33.6096 217.337 33.6096 217.978 33.6096C218.619 33.6096 218.092 33.6096 217.55 33.6096" stroke="black" stroke-width="4" stroke-linecap="round"/>
<path d="M45.71 25.782C43.7655 25.782 41.9912 25.9543 40.9259 26.5192C39.9247 27.05 38.7992 27.2589 37.7338 28.0834C36.7085 28.8769 35.7827 29.6907 35.0724 30.7357C34.388 31.7427 33.9206 32.8217 33.6959 33.8667C33.4668 34.9316 33.0322 35.9528 32.721 38.0324C31.9337 43.2926 32.4097 45.5965 32.145 47.4334C31.7899 48.8268 31.5239 49.7844 31.3909 50.391C31.3457 50.7393 31.3457 51.1699 31.3457 51.6134" stroke="black" stroke-width="4" stroke-linecap="round"/>
<path d="M31.3462 53.7006C31.3462 66.2197 31.6973 68.3019 31.7904 82.9527C31.83 89.1804 30.995 95.083 30.7264 99.3465C30.5324 102.424 29.931 105.176 29.6624 125.201C29.6065 129.364 29.399 129.88 29.3086 134.451C29.0478 147.631 29.0426 157.021 28.7766 158.234C28.1393 161.141 28.1541 163.278 27.7125 165.54C27.1426 168.46 27.0901 171.617 26.6485 175.017C26.1421 178.916 26.0261 181.365 25.5845 184.754C24.8295 190.55 24.962 195.778 24.5205 204.024C24.2391 209.277 24.43 219.272 24.3423 224.762C24.2434 230.945 23.898 236.3 23.8102 243.603C23.7783 246.258 23.5469 246.773 23.4565 251.861C23.366 256.949 23.366 266.593 23.2782 271.905C23.179 277.911 22.834 282.06 22.7462 287.623C22.7017 290.442 22.302 294.413 22.2142 299.715C22.169 302.445 21.77 309.859 21.6822 320.294C21.6217 327.484 20.8868 333.4 20.6182 336.789C20.5129 338.118 20.1739 346.378 20.0862 358.378C20.0334 365.585 19.2908 370.451 19.0221 374.359C18.7755 377.947 18.929 381.754 19.0221 387.486C18.5779 393.903 18.4023 402.81 18.1363 404.282C18.0459 405.237 18.0459 406.615 18.0459 408.034" stroke="black" stroke-width="4" stroke-linecap="round"/>
<path d="M216.353 33.7399C217.769 33.8273 218.829 33.7399 220.115 33.6101C222.507 33.3685 223.923 33.3485 225.193 33.4568C226.853 33.5984 227.916 33.6094 229.006 33.7177C230.09 33.8252 230.98 33.9564 231.645 34.1091C232.814 34.3777 233.55 34.2617 234.283 34.3915C234.857 34.4931 235.369 34.7392 236.034 34.8051C236.75 34.876 237.452 35.0001 238.536 35.1528C240.538 35.4347 241.176 35.3915 241.776 35.5657C242.457 35.7634 243.171 35.9134 244.08 36.3256C244.724 36.6176 245.211 37.1293 245.722 37.6733C246.269 38.2553 246.499 38.9557 246.809 39.4782C247.149 40.0524 247.43 40.6517 247.608 41.1742C247.79 41.711 248.095 42.3034 248.273 43C248.437 43.6468 248.494 44.1742 248.561 44.6967C248.636 45.2777 248.805 46.1285 248.916 47.6451C249.122 50.4814 248.894 52.5681 248.806 52.9151C248.717 53.2621 248.672 54.1715 248.65 55.345C248.64 55.9193 248.539 57.9431 248.517 60.8994C248.502 62.9596 248.318 64.5262 248.251 65.6984C248.194 66.7027 248.052 67.9182 247.985 68.549C247.917 69.1856 247.786 70.0473 247.719 71.4165C247.681 72.1872 247.52 72.9618 247.453 74.1132C247.396 75.098 247.254 75.8763 247.099 76.832C247 77.439 246.943 77.9637 246.811 78.9409C246.644 80.1738 246.589 81.9193 246.522 83.0498C246.46 84.1006 246.323 84.6173 246.256 85.616C246.18 86.7492 246.057 87.9649 245.99 91.7803C245.974 92.708 245.879 94.7763 245.857 97.8193C245.844 99.6666 245.702 100.491 245.636 102.194C245.578 103.682 245.613 106.438 245.591 107.922C245.562 109.889 245.259 110.751 245.236 112.229C245.258 112.537 245.302 112.667 245.325 113.077C245.347 113.488 245.347 114.177 245.347 114.887" stroke="black" stroke-width="4" stroke-linecap="round"/>
<path d="M62.7344 446.651C66.9479 446.823 70.0402 446.912 71.722 446.955C73.0588 446.989 73.8162 447.173 74.3236 447.237C75.1548 447.343 77.4791 447.65 80.3599 447.759C81.3968 447.798 81.5729 447.739 82.9142 447.717C84.2556 447.695 86.7573 447.695 88.6826 447.608C90.6078 447.522 91.8806 447.35 93.8311 447.261C95.7816 447.173 98.3711 447.173 99.8368 447.151C101.972 447.12 102.587 446.999 104.787 446.934C106.635 446.879 109.972 446.912 111.8 446.89C113.848 446.866 115.039 446.781 116.568 446.803C117.973 446.823 119.479 446.998 120.586 447.064C121.979 447.147 123.115 447.564 123.758 447.672C124.572 447.809 125.642 447.955 126.219 448.085C127.347 448.339 128.877 448.303 131.089 448.368C132.258 448.403 133.221 448.608 133.911 448.716C134.593 448.823 136.096 448.869 139.212 448.977C141.212 449.047 144.943 448.999 146.953 449.021C149.139 449.044 150.329 449.13 152.297 449.065C155.449 448.962 156.674 448.652 157.629 448.629C158.282 448.614 158.981 448.824 159.669 448.89C160.361 448.957 161.329 449.085 165.043 449.151C166.258 449.173 167.4 449.432 168.601 449.543C169.754 449.648 170.73 449.738 172.079 449.803C174.309 449.912 177.776 449.826 178.599 449.674C179.376 449.695 179.907 449.868 180.704 450.021C181.014 450.043 181.453 450.043 181.905 450.173" stroke="black" stroke-width="4" stroke-linecap="round"/>
<path d="M182.171 450.173C186.121 450.216 190.071 450.26 192.413 450.282C195.37 450.31 196.223 450.347 197.938 450.434C199.432 450.509 202.198 450.52 203.689 450.521C205.756 450.522 207.606 450.262 209.276 450.152C211.286 450.019 213.778 450.129 215.481 450.152C216.795 450.17 218.3 449.957 218.9 449.891C219.678 449.805 220.561 449.696 221.271 449.262C222.048 448.788 222.426 448.089 222.978 447.22C223.429 446.511 223.623 446.001 223.91 445.479C224.181 444.988 224.288 444.436 224.465 443.913C224.669 443.313 224.82 442.437 224.997 441.804C225.194 441.101 225.219 440.305 225.286 437.746C225.316 436.597 225.53 436.086 225.64 435.542C225.619 434.911 225.442 434.132 225.199 432.895C225.088 432.183 224.913 430.891 224.732 429.561" stroke="black" stroke-width="4" stroke-linecap="round"/>
<path d="M245.081 114.626C244.95 118.372 244.818 122.117 244.684 124.499C244.551 126.88 244.419 127.784 244.329 128.767C244.145 130.779 244.107 132.148 244.04 132.82C243.961 133.618 243.974 134.366 243.841 135.964C243.734 137.259 243.621 139.542 243.531 140.846C243.424 142.411 243.352 143.149 243.265 144.491C243.125 146.619 242.82 148.97 242.842 150.709C242.853 151.588 242.953 153.831 242.931 157.048C242.921 158.543 242.82 159.154 242.777 159.912C242.715 160.977 242.554 162.367 242.532 163.714C242.498 165.848 242.334 168.11 242.245 169.393C242.133 170.995 241.935 171.677 241.867 172.656C241.803 173.596 241.669 174.547 241.601 176.631C241.56 177.901 241.403 179.025 241.335 180.114C241.242 181.634 241.137 183.635 241.069 184.572C240.993 185.641 240.871 186.766 240.803 187.833C240.714 189.246 240.605 190.552 240.537 192.591C240.497 193.815 240.339 195.29 240.162 196.915C240.065 197.806 239.767 199.309 239.631 200.881C239.359 204.039 239.451 205.99 239.385 206.575C239.274 207.553 239.142 209.542 238.964 210.925C238.919 211.207 238.876 211.637 238.765 211.988C238.655 212.339 238.479 212.597 238.298 212.864" stroke="black" stroke-width="4" stroke-linecap="round"/>
<path d="M238.032 213.386C237.593 220.36 237.155 227.335 236.819 232.155C236.483 236.974 236.263 239.428 235.777 246.462C235.291 253.495 234.545 265.033 234.139 271.084C233.732 277.136 233.688 277.351 233.666 277.634C233.557 279.001 233.51 281.513 233.4 282.919C233.373 283.266 233.333 283.659 233.245 284.738C233.051 287.103 233.067 288.92 233.001 289.678C232.805 291.914 232.845 292.876 232.735 294.673C232.556 297.578 232.668 299.792 232.58 300.377C232.426 301.399 232.358 302.183 232.291 303.551C232.222 304.966 232.092 306.619 231.893 307.683C231.826 307.968 231.739 308.226 231.606 308.488C231.473 308.75 231.297 309.009 231.116 309.275" stroke="black" stroke-width="4" stroke-linecap="round"/>
<path d="M231.249 309.666C231.249 309.709 231.249 309.752 231.183 311.992C231.117 314.231 230.986 318.665 230.94 321.058C230.894 323.45 230.938 323.665 230.917 325.605C230.895 327.546 230.807 331.205 230.718 333.414C230.603 336.27 230.451 337.062 230.429 337.451C230.392 338.101 230.318 340.479 230.296 343.544C230.285 345.156 230.052 346.19 229.831 348.965C229.523 352.837 229.653 353.54 229.543 354.325C229.409 355.275 229.387 357.786 229.277 359.585C229.196 360.891 229.121 361.846 229.011 362.826C228.925 363.585 228.855 365.921 228.745 367.63C228.627 369.456 228.589 370.759 228.479 372.151C228.296 374.454 228.323 376.705 228.213 378.264C228.125 379.504 228.057 380.457 227.947 381.718C227.741 384.063 227.791 386.143 227.659 387.549C227.592 388.255 227.437 389.112 227.37 391.435C227.349 392.16 227.259 392.939 227.237 393.873C227.188 395.977 227.038 399.03 226.971 399.985C226.955 400.206 226.905 400.334 226.883 401.649C226.86 402.965 226.86 405.462 226.838 406.812C226.798 409.246 226.639 411.163 226.572 413.309C226.553 413.906 226.461 416.188 226.439 419.514C226.426 421.513 226.24 422.99 226.173 425.506C226.128 427.206 225.974 429.383 225.951 430.924C225.973 431.255 226.017 431.384 226.039 431.515C226.062 431.646 226.062 431.776 225.796 432.17" stroke="black" stroke-width="4" stroke-linecap="round"/>
<path d="M31.0995 94.7691C33.5967 95.31 38.6982 96.5 39.1263 96.9327L41.2668 95.8509C50.364 96.7524 68.5583 98.6636 68.5583 99.0964C68.5583 99.5291 78.1905 99.2767 83.0067 99.0964C91.9254 99.0964 109.87 98.9882 110.298 98.5555C110.833 98.0146 152.573 102.883 153.108 102.883C153.643 102.883 186.286 102.342 187.356 102.342C188.212 102.342 214.112 102.702 226.955 102.883C233.377 103.424 246.434 104.506 247.29 104.506C248.146 104.506 251.215 103.424 252.642 102.883C253.533 98.6231 255.424 89.9549 255.852 89.3599C256.28 88.7649 255.674 74.6876 255.317 67.7234L249.431 60.6915L237.658 57.9869L215.718 57.446L193.778 56.3642L151.503 53.6596L111.903 51.4959L92.6389 49.8732L61.6016 50.955C55.8936 50.4141 44.3706 49.3323 43.9425 49.3323H32.1697C31.6346 49.3323 29.4941 53.1187 29.4941 53.6596C29.4941 54.2005 28.4238 66.6415 28.4238 68.2643C28.4238 69.5625 29.1373 82.869 29.4941 89.3599L31.0995 94.7691Z" fill="white"/>
<path d="M37.7886 48.521C34.2568 48.6995 32.1725 48.8807 31.6387 49.0606C29.8474 49.6641 29.3176 53.7408 28.9604 59.273C28.816 61.5093 28.5149 63.2988 28.2018 65.2366C27.9343 66.8929 27.8888 70.4875 28.3329 73.8899C28.479 75.009 28.5122 76.1022 28.646 78.9217C28.9446 85.215 28.7798 89.8063 28.9577 90.6163C29.2914 92.1354 29.3149 93.6846 29.5811 94.1796C30.1737 95.2812 33.925 95.3101 36.4013 95.759C37.6868 95.9921 41.9465 96.1214 44.8723 96.3905C48.9061 96.7616 54.811 97.0194 57.001 97.2479C58.8363 97.4394 60.2585 97.6522 61.3743 97.7888C62.6789 97.9485 63.7369 98.1931 65.559 98.5096C70.3601 99.3434 72.2025 98.826 74.1678 98.6015C77.8969 98.1756 80.7539 98.826 83.7104 98.6015C85.3039 98.4805 87.0122 98.7341 90.0263 99.0045C95.8436 99.5265 99.8605 99.1857 100.968 99.321C104.916 99.8029 107.601 99.0965 109.936 99.3656C111.638 99.5618 114.124 99.8159 115.866 99.9525C117.527 100.083 119.299 100.357 120.906 100.718C123.519 101.305 128.391 101.347 130.269 101.755C132.63 102.268 135.872 102.072 138.119 102.296C139.547 102.439 143.444 102.612 146.102 102.837C146.681 102.886 147.572 103.061 150.584 103.332C157.102 103.917 161.756 103.335 162.512 103.155C163.351 102.955 166.106 102.883 169.805 102.838C171.209 102.821 171.65 102.704 176.381 102.658C181.111 102.612 190.118 102.612 194.934 102.657C200.104 102.705 202.763 102.883 206.462 102.927C210.004 102.97 213.214 102.975 219.35 102.838C223.993 102.735 229.358 102.791 230.874 102.927C232.662 103.089 234.977 103.332 236.937 103.468C239.515 103.694 243.007 103.783 244.379 103.919C245.487 103.965 247.429 103.965 249.966 103.694" stroke="black" stroke-width="4" stroke-linecap="round"/>
<path d="M37.521 49.6027C42.4656 49.4242 47.3967 49.4215 51.2296 49.6014C54.0262 49.7326 55.9721 50.2302 60.2036 50.863C61.8582 51.1105 63.6405 51.404 66.6225 51.7204C71.1504 52.2009 74.5303 51.8556 75.6835 51.9909C77.7066 52.2281 79.6996 51.8583 82.6241 51.5879C88.5266 51.042 93.6958 51.2282 95.9674 50.8225C98.4908 50.3718 101.538 50.4141 103.826 50.863C105.284 51.1492 107.253 51.2255 109.708 51.4499C112.694 51.723 114.477 51.7664 116.312 51.9909C117.414 52.1257 118.322 52.1261 121.063 52.2613C123.537 52.3833 128.219 52.3073 130.939 52.3519C135.19 52.4217 136.6 52.8482 138.605 53.0727C142.645 53.525 145.156 53.3891 147.127 53.6582C148.566 53.8548 150.16 54.1085 153.895 54.2451C156.855 54.3534 158.984 54.6494 160.461 54.786C162.909 55.0124 165.94 55.1904 167.729 55.5514C170.527 56.1162 175.043 56.0017 177.579 56.1383C179.604 56.2473 180.573 56.4534 184.156 56.5886C187.295 56.7071 193.125 56.6346 196.259 56.59C200.379 56.5313 202.329 56.5426 206.116 56.59C206.887 56.5996 207.151 56.4561 209.803 56.4101C212.456 56.3641 217.489 56.3641 220.258 56.4088C224.11 56.4708 225.521 56.9051 227.128 57.1742C228.733 57.4429 230.696 57.6245 232.256 57.9855C233.717 58.3237 235.154 58.4358 236.76 58.5724C237.94 58.6727 238.991 58.9768 240.284 59.1133C240.599 59.158 240.863 59.2472 241.75 59.2932C242.637 59.3392 244.138 59.3392 245.685 59.3392" stroke="black" stroke-width="4" stroke-linecap="round"/>
<path d="M248.628 57.1755C250.499 59.6962 251.566 60.9565 253.926 65.8545C255.268 68.6404 255.227 69.8816 255.362 71.054C255.58 72.9465 255.762 74.9283 255.808 82.8379C255.831 86.6458 255.408 90.7934 255.051 92.7339C254.777 94.2218 254.606 95.8455 254.471 97.0179C254.159 98.5528 253.98 100.524 253.758 102.47C253.712 102.967 253.712 103.591 253.712 103.965" stroke="black" stroke-width="4" stroke-linecap="round"/>
<path d="M59.5 419.021L65 423.021" stroke="black" stroke-width="2" stroke-linecap="round"/>
<path d="M160.5 431.521C162.15 434.326 163.8 437.131 164.898 438.658C165.995 440.186 166.49 440.351 166.992 440.353C167.495 440.356 167.99 440.191 168.5 439.521" stroke="black" stroke-width="2" stroke-linecap="round"/>
<path d="M172.5 424.021L176.5 428.521" stroke="black" stroke-width="2" stroke-linecap="round"/>
<path d="M25.25 17.271C29.825 13.776 31.995 12.606 33.2038 12.0647C34.4544 11.5047 38.8 9.291 41.2463 7.981C42.2868 7.42379 43.575 6.526 44.995 5.52475C46.2475 4.6885 47.245 4.356 48.1187 4.0235C48.4975 3.856 48.745 3.691 49.25 3.521" stroke="black" stroke-width="4" stroke-linecap="round"/>
<path d="M256.25 33.521C256.25 29.191 256.085 28.026 255.544 27.0247C254.968 25.9591 254.17 24.776 253.336 23.7747C252.62 22.9143 251.84 21.611 250.837 20.401C249.385 18.6481 248.67 17.526 247.546 16.4835C246.42 15.4385 245.67 14.361 244.754 13.5647C243.753 13.106 242.755 12.606 242.125 12.521C242.245 12.521 242.74 12.521 243.25 12.521" stroke="black" stroke-width="4" stroke-linecap="round"/>
<path d="M47.25 5.0208C49.23 3.8658 50.4975 3.1058 50.9962 2.7733C51.2475 2.6058 51.495 2.4408 51.7463 2.2733C51.9975 2.1058 52.245 1.9408 52.75 2.0208" stroke="black" stroke-width="4" stroke-linecap="round"/>
<path d="M52.25 2.52083C57.325 2.02083 59.495 2.18583 66.3062 2.51958C68.755 2.63957 70.41 2.93583 74.11 2.97958C75.4954 2.99596 77.7325 2.77083 80.5225 2.81208C84.8945 2.87672 90.91 3.18583 92.4113 3.31208C94.1637 3.45946 96.495 3.68583 99.3638 3.81208C100.843 3.8772 101.995 4.18583 103.245 4.31208C104.589 4.44786 105.58 4.60333 109.545 4.72833C113.178 4.84288 120.11 4.77083 123.927 4.72958C128.242 4.68296 131.143 4.52083 134.933 4.56208C137.832 4.59364 140.16 4.93583 144.44 5.10333C147.524 5.224 148.495 5.68583 150.656 5.97833C153.72 6.39292 156.235 6.27083 159.48 6.47833C164.59 6.80507 168.33 6.60333 169.738 6.72833C174.812 7.17896 175.995 7.10333 179.426 7.22833C182.361 7.33524 187.725 7.27083 190.652 7.31208C194.915 7.37214 196.91 7.68583 200.279 7.81208C202.252 7.88604 204.575 8.18583 206.866 8.31208C210.149 8.49297 214.825 8.68583 218.071 8.81208C219.512 8.8681 220.248 9.10333 223.345 9.22833C226.193 9.34326 231.64 9.27083 234.569 9.31208C238.335 9.36513 239.495 9.68583 240.496 10.0196C241.497 10.3533 242.33 11.0158 243.164 11.6021C243.333 11.7683 243.415 12.0158 243.5 12.2708" stroke="black" stroke-width="4" stroke-linecap="round"/>
</svg>
