<svg width="259" height="463" viewBox="0 0 259 463" fill="none" xmlns="http://www.w3.org/2000/svg">
<path d="M231.63 16.5212L213.13 17.5212H205.63L151.63 21.521L102.13 23.021L37.6304 24.521L23.6304 25.021C20.297 26.021 13.4304 28.021 12.6304 28.021C11.8304 28.021 5.9637 30.021 3.13037 31.021L5.13037 25.021L18.1304 10.521L44.6304 9.521L96.6304 7.521L132.63 5.021L148.13 4.021L188.63 2.52115C193.964 2.35449 204.83 2.12115 205.63 2.52115C206.63 3.02115 223.63 10.5212 224.63 10.5212C225.43 10.5212 229.63 14.5212 231.63 16.5212Z" fill="#747474"/>
<path d="M233.63 18.021L229.13 16.9035L10.6302 27.9439L5.13015 31.521L2.48675 38.021L22.597 436.021L26.1302 456.021L43.1302 461.424L234.63 451.748L252.13 446.021L257.796 434.021L237.408 30.521L233.63 18.021Z" fill="#D9D9D9"/>
<path d="M243.63 408.265L243.092 394.074L241.479 348.346C241.658 346.244 241.909 341.829 241.479 340.988C240.941 339.936 240.941 311.028 240.403 309.977C239.865 308.926 239.327 248.481 238.251 248.481C237.39 248.481 236.458 202.227 236.099 179.101L232.333 139.155L230.182 91.8499L231.796 61.8903L230.182 37.1868L222.65 25.6234C220.14 24.9226 215.012 23.521 214.581 23.521C214.151 23.521 197.905 24.9226 189.836 25.6234L125.82 30.8795C110.937 31.2299 80.9553 31.9307 80.0946 31.9307H52.1213H20.9204C18.7686 32.8067 14.1423 34.769 12.8512 35.61C11.2374 36.6612 11.2374 44.5453 10.6994 45.5965C10.2691 46.4375 11.9547 80.6369 12.8512 97.6316C13.3892 108.845 14.4651 131.481 14.4651 132.322C14.4651 133.163 17.3341 172.618 18.7686 192.241L21.9963 219.572C23.0722 238.319 25.224 275.917 25.224 276.338C25.224 276.864 27.9137 313.13 27.9137 314.182C27.9137 315.023 30.7828 370.947 32.2173 398.804L33.2932 430.341C33.6518 434.02 34.3691 441.589 34.3691 442.43C34.3691 443.271 36.5209 448.737 37.5968 451.365C43.8728 451.891 56.6401 452.837 57.5008 452.416C58.3615 451.996 81.8877 450.839 93.5432 450.314C100.357 450.489 114.2 450.734 115.061 450.314C115.922 449.893 132.993 449.087 141.421 448.737H176.387C184.815 448.211 201.886 447.055 202.746 446.635C203.822 446.109 225.878 444.007 226.954 443.481C227.815 443.06 235.203 438.4 238.789 436.122L243.63 424.033V408.265Z" fill="white"/>
<path d="M238.565 51.896C238.69 50.231 238.608 49.6485 238.545 48.3597C238.497 47.3875 238.233 46.7335 238.087 46.0447C237.874 45.0427 237.858 44.441 237.795 43.7941C237.711 42.9399 237.608 41.7735 237.669 41.2729C237.69 41.1472 237.69 41.0235 237.711 40.8979C237.732 40.7722 237.773 40.6485 237.815 40.521" stroke="black" stroke-width="4" stroke-linecap="round"/>
<path d="M224.63 16.5202C222.852 16.2736 224.47 16.1459 223.757 16.2496C223.258 16.3223 222.51 16.3959 221.882 16.5203C220.737 16.747 218.883 16.7284 218.258 16.8746C217.645 17.018 216.06 17.0209 214.656 17.1246C212.885 17.2554 210.65 17.2709 209.195 17.3746C208.299 17.4385 205.983 17.5209 204.197 17.4171C202.967 17.3457 200.485 17.5209 198.945 17.6246C198.131 17.6795 197.633 17.7709 196.697 17.9784C196.018 18.1288 195.508 18.1459 194.8 18.2496C194.092 18.3534 193.258 18.5209 192.757 18.6246C192.512 18.6754 192.174 18.6871 190.954 18.7496C188.129 18.8944 186.132 18.8121 185.779 18.8746C184.77 19.0535 184.01 19.0209 183.238 19.1246C182.561 19.2155 182.007 19.1871 181.056 19.2496C177.015 19.5153 176.508 19.3959 175.139 19.4996C171.766 19.7553 171.093 19.6459 169.97 19.7496C167.267 19.9995 166.758 19.9784 166.216 20.0415C165.84 20.0853 165.465 20.1871 163.854 20.2496C162.409 20.3057 159.685 20.2709 158.221 20.2915C156.632 20.3139 155.144 20.3959 153.02 20.4165C151.712 20.4292 150.8 20.6034 147.083 20.6665C145.505 20.6933 144.51 20.8534 143.779 21.0203C142.655 21.2768 141.883 21.2284 140.718 21.2915C140.215 21.3188 138.108 21.3959 135.171 21.4165C134.008 21.4784 133.757 21.5621 133.445 21.6246C133.258 21.6459 133.01 21.6459 132.755 21.5209" stroke="black" stroke-width="4" stroke-linecap="round"/>
<path d="M132.13 21.521C130.483 22.001 128.908 22.3283 127.057 22.4495C122.46 22.7504 121.174 22.6119 120.171 22.4913C119.794 22.446 118.539 22.3695 116.73 22.3895C114.329 22.416 111.389 22.5707 110.555 22.7325C109.266 22.9828 107.473 22.9343 105.938 23.0761C101.97 23.4428 100.38 22.8543 99.279 22.7537C98.4324 22.6764 97.7348 22.6931 95.2129 22.6325C92.8857 22.5766 88.4284 22.6119 86.0115 22.6319C82.81 22.6584 81.6408 22.8931 80.7814 22.9955C79.9264 23.0974 78.8489 23.1768 77.1645 23.238C75.6703 23.2923 73.7113 23.4192 72.9531 23.4804C71.8993 23.5655 70.9223 23.5016 70.3102 23.4404C69.4909 23.3585 68.6236 23.138 65.5249 23.1168C63.3431 23.1018 60.7939 23.298 60.0599 23.3592C58.0233 23.529 54.7755 23.5404 54.0416 23.6016C52.7259 23.7113 50.959 23.7828 49.7377 23.844C47.4502 23.9587 43.9131 24.0252 43.3252 24.0865C42.4452 24.1781 41.2709 24.2677 40.683 24.3289C40.0401 24.3958 39.3627 24.5101 38.5311 24.5713C38.333 24.5859 38.1884 24.6313 36.4907 24.6519C34.7931 24.6725 31.5476 24.6725 29.803 24.6925C27.4214 24.7198 26.3483 24.8737 25.5161 24.9349C24.244 25.0285 23.0691 25.1161 21.9939 25.1774C21.6012 25.2374 21.1608 25.2786 20.6478 25.2986" stroke="black" stroke-width="4" stroke-linecap="round"/>
<path d="M2.81787 35.271C2.81787 37.4779 2.85912 37.9772 2.93225 38.2701C2.99337 38.5148 3.00537 39.3885 3.05725 40.0713C3.10236 40.6651 3.13037 41.5347 3.18225 42.2785C3.23183 42.9893 3.2135 43.5822 3.24475 44.0379C3.34762 45.5378 3.31787 45.9972 3.36975 46.5079C3.48684 47.6605 3.44287 48.3285 3.49475 48.8938C3.57866 49.8083 3.56787 50.516 3.61975 51.1126C3.69119 51.9341 3.69287 52.7647 3.74475 53.4563C3.79634 54.1441 3.81787 54.931 3.86975 55.571C3.90732 56.0346 3.901 56.4366 3.93225 57.8097C3.96114 59.0795 3.94287 61.5135 3.95318 62.8085C3.96416 64.1863 4.00537 64.436 4.01568 64.7272C4.04074 65.435 4.15037 66.6422 4.20318 67.1341C4.27759 67.8271 4.29662 68.9147 4.32818 70.0894C4.33984 70.5234 4.42162 70.7697 4.45318 72.2754C4.46578 72.8763 4.54662 73.2072 4.57818 73.5613C4.60274 73.8367 4.67162 74.0822 4.70318 74.4466C4.75623 75.059 4.79662 75.936 4.80756 77.5563C4.79725 77.8954 4.77662 77.9572 4.77631 78.0201C4.776 78.0829 4.79662 78.1447 4.88037 78.271" stroke="black" stroke-width="4" stroke-linecap="round"/>
<path d="M4.94287 79.7085C4.92225 81.1729 4.90162 82.6372 4.891 83.6701C4.87464 85.2597 4.901 85.9779 4.93225 86.3101C4.9711 86.7231 4.98412 87.2885 5.04662 87.9844C5.15981 89.2447 5.13037 89.6235 5.18225 89.9882C5.24854 90.4542 5.25537 91.0785 5.30725 91.6444C5.34543 92.061 5.42162 92.5185 5.45318 93.1541C5.47762 93.6463 5.54662 94.2272 5.57818 94.8935C5.59812 95.3144 5.67162 95.686 5.70318 97.2129C5.71773 97.9165 5.79662 98.5397 5.82818 99.206C5.83917 99.4378 5.88037 100.14 5.89068 101.118C5.89536 101.562 5.94287 101.873 5.9635 102.413C5.99051 103.119 6.06787 103.975 6.05756 104.714C6.04546 105.581 6.04662 106.54 6.07818 107.361C6.10909 108.166 6.08912 108.79 6.05756 109.311C6.00724 110.141 6.04662 111.435 6.07818 112.206C6.10553 112.874 6.17162 113.623 6.20318 113.968C6.24437 114.417 6.33787 114.997 6.39068 115.758C6.40749 116 6.44287 116.723 6.45318 117.723C6.45755 118.146 6.50537 118.972 6.51568 120.19C6.5222 120.96 6.60912 121.207 6.651 121.488C6.75537 121.916 6.776 122.187 6.80725 122.467C6.81787 122.643 6.81787 122.891 6.88037 123.146" stroke="black" stroke-width="4" stroke-linecap="round"/>
<path d="M6.88038 123.021C7.08663 125.64 7.29288 128.26 7.51256 131.073C7.73225 133.887 7.95913 136.816 8.06569 138.376C8.17918 140.038 8.13038 140.228 8.12006 140.405C8.10843 140.604 8.06788 141.595 8.05756 143.011C8.05265 143.685 8.00538 144.7 7.99506 146.043C7.99092 146.583 7.94288 147.595 7.95319 149.073C7.95747 149.687 8.00538 150.142 7.99506 150.767C7.98882 151.145 7.94288 151.828 7.95319 152.733C7.95716 153.082 7.98413 153.206 7.99475 153.981C8.00538 154.757 8.00538 156.18 8.01569 156.975C8.03008 158.084 8.10913 158.332 8.151 158.759C8.19207 159.177 8.29663 159.457 8.32819 159.718C8.36509 160.023 8.42163 160.27 8.50506 160.676C8.56788 161.267 8.54725 162.083 8.516 162.208C8.50538 162.27 8.50538 162.332 8.50538 162.396" stroke="black" stroke-width="4" stroke-linecap="round"/>
<path d="M8.63037 162.208C8.9635 165.583 9.00537 165.832 9.05725 166.548C9.12526 167.486 9.10912 168.434 9.17162 169.357C9.26325 170.711 9.2135 171.583 9.25506 171.749C9.38819 172.28 9.38037 172.831 9.43225 173.238C9.49683 173.745 9.38037 174.495 9.43225 175.082C9.49108 175.747 9.50537 176.206 9.55725 177.047C9.64436 178.458 9.5885 179.499 9.61975 179.707C9.68196 180.121 9.69287 180.952 9.74475 181.943C9.80469 183.088 9.776 183.957 9.80725 184.258C9.88597 185.016 9.88037 185.518 9.93225 186.256C9.99965 187.215 9.9635 187.978 9.99475 188.661C10.0618 190.126 10.026 191.228 10.0572 191.498C10.1077 191.935 10.1304 192.352 10.1822 192.893C10.2375 193.47 10.2135 194.019 10.2447 194.589C10.2974 195.55 10.276 196.27 10.3072 196.787C10.4155 198.58 10.4216 198.915 10.4532 199.373C10.4792 199.752 10.5466 200.082 10.5782 200.333C10.6304 201.222 10.651 202.708 10.6822 202.884C10.6929 202.998 10.6929 203.163 10.6929 203.333" stroke="black" stroke-width="4" stroke-linecap="round"/>
<path d="M10.9428 203.333C11.0253 205.478 11.1078 207.623 11.14 209.244C11.1722 210.865 11.1516 211.896 11.2441 214.438C11.3366 216.98 11.5428 221.002 11.6594 223.126C11.7817 225.353 11.8178 225.727 11.8075 226.205C11.7904 226.999 11.7966 227.707 11.8903 228.144C12.0075 228.69 12.0678 229.227 12.1197 229.665C12.1836 230.204 12.1928 230.582 12.2447 230.926C12.3212 231.432 12.3178 231.852 12.3697 232.342C12.4214 232.83 12.3178 233.247 12.266 233.665C12.2553 233.893 12.2347 234.083 12.2035 234.373C12.1928 234.6 12.1928 234.992 12.2553 235.458" stroke="black" stroke-width="4" stroke-linecap="round"/>
<path d="M12.3179 235.771C12.3385 237.029 12.3591 238.287 12.4419 239.544C12.5247 240.8 12.6691 242.017 12.7435 242.696C12.8291 243.476 12.8591 243.872 12.9835 244.918C13.0734 245.675 13.1904 246.892 13.2541 247.612C13.3342 248.516 13.3385 248.791 13.3697 249.256C13.441 250.317 13.401 251.207 13.4322 251.57C13.4616 251.912 13.4635 252.187 13.4947 252.745C13.5651 254.003 13.526 254.978 13.5572 255.362C13.6035 255.929 13.5472 256.333 13.516 256.788C13.4396 257.9 13.526 258.77 13.5572 259.06C13.5972 259.432 13.5885 259.811 13.6197 260.36C13.6756 261.341 13.651 262.082 13.6822 262.424C13.7687 263.371 13.7554 264.243 13.8072 264.905C13.844 265.374 13.8804 265.831 13.9322 266.29C13.9909 266.809 14.0054 267.186 14.1091 268.028C14.1899 268.683 14.1929 269.102 14.2447 269.705C14.276 271.062 14.3385 271.333 14.3697 271.788C14.3804 272.18 14.3804 272.902 14.4429 273.708" stroke="black" stroke-width="4" stroke-linecap="round"/>
<path d="M14.5679 274.146C14.6504 276.435 14.7329 278.725 14.8269 281.647C14.921 284.569 15.0241 288.055 15.1082 290.046C15.1922 292.038 15.2541 292.43 15.286 292.704C15.366 293.392 15.3804 293.893 15.4322 295.106C15.4663 295.902 15.4429 297.346 15.4532 298.183C15.4658 299.205 15.5054 299.582 15.5157 299.945C15.5443 300.954 15.6091 302.165 15.6407 302.582C15.6801 303.103 15.7341 303.686 15.7657 304.072C15.7924 304.398 15.8591 304.81 15.8907 306.753C15.9429 307.353 15.9635 307.624 15.9947 307.925C16.0054 308.122 16.0054 308.411 16.1304 308.771" stroke="black" stroke-width="4" stroke-linecap="round"/>
<path d="M15.7555 310.021C16.1717 314.52 16.2555 316.091 16.3592 317.268C16.4437 318.227 16.6305 320.548 16.7342 321.892C16.8308 323.143 16.8805 324.138 16.9842 325.39C17.1913 327.887 17.1305 328.723 17.2342 329.684C17.3418 330.68 17.1305 332.588 17.2342 333.81C17.2945 334.52 17.463 335.431 17.5261 338.364C17.5511 339.524 17.713 340.183 17.8592 341.885C18.0927 344.601 17.9217 346.561 17.9842 347.203C18.1967 349.385 18.1305 350.058 18.338 351.578C18.4434 352.35 18.588 353.018 18.7342 354.037C18.9094 355.258 18.8805 356.266 18.9842 357.163C19.0923 358.098 19.1305 359.016 19.2342 359.768C19.3314 360.473 19.3805 362.958 19.4842 365.076C19.6344 368.14 19.6305 369.883 19.7342 371.08C19.8695 372.639 19.8805 373.971 19.9842 375.883C20.0514 377.121 20.0055 379.473 20.0261 380.767C20.0494 382.227 20.1305 383.757 20.1511 385.943C20.1612 387.018 20.2555 388.343 20.2761 390.051C20.2858 390.853 20.3805 392.918 20.4011 395.897C20.4135 397.688 20.588 398.848 20.6511 400.058C20.6731 400.48 20.7555 402.09 20.7761 404.401C20.7839 405.269 20.838 405.516 20.8592 406.86C20.8805 408.205 20.8805 410.638 20.9011 411.975C20.9301 413.855 21.088 414.601 21.1511 415.787C21.21 416.894 21.338 418.143 21.4011 418.976C21.4615 419.773 21.588 420.601 21.6511 422.638C21.6977 424.143 21.838 425.643 21.9011 428.157C21.9207 428.936 22.0055 429.723 22.0261 430.66C22.0368 431.147 22.1305 433.292 22.1511 436.437C22.168 439.012 22.338 441.683 22.5049 442.29C22.6903 442.964 22.713 443.643 22.7761 445.908C22.7967 446.395 22.838 446.518 22.8592 447.16M22.8592 447.16C22.8805 447.801 22.8592 445.97 22.8592 447.16Z" stroke="black" stroke-width="4" stroke-linecap="round"/>
<path d="M22.0054 26.146C18.2566 26.146 17.5104 26.311 16.8204 26.4166C16.0032 26.5417 15.1779 26.7285 14.3629 26.8122C13.1131 26.9407 12.5504 27.2285 11.4266 27.7272C10.5439 28.119 9.92537 28.1035 9.25787 28.291C8.60083 28.4756 8.13287 28.7285 7.48725 29.1647C6.55679 29.7935 5.88287 30.4785 5.36162 30.8735C4.81242 31.2897 4.38287 31.686 4.11037 32.1441C3.79059 32.6817 3.54787 33.351 3.381 33.9147C3.18829 34.5658 3.00537 35.226 2.90162 35.9135C2.71766 37.1325 2.75537 37.8085 2.631 38.9716C2.58912 39.6747 2.54787 40.9535 2.5885 42.0041C2.62912 43.0547 2.75287 43.8385 2.88037 44.646" stroke="black" stroke-width="4" stroke-linecap="round"/>
<path d="M222.13 16.896C225.348 16.566 227.83 16.396 229.225 16.4372C230.528 16.4758 231.003 16.8535 232.23 17.4766C232.961 17.8483 233.543 18.5585 234.253 19.1647C235.101 19.8891 235.42 21.391 235.63 22.1229C235.791 22.6875 235.88 23.2685 236.005 23.8104C236.175 24.5521 236.213 25.226 236.38 25.9766C236.501 26.5208 236.67 27.3485 236.776 29.0566C236.831 29.9392 236.963 30.851 237.026 31.6222C237.055 31.9802 237.13 33.796 237.151 36.3785C237.162 37.7736 237.338 38.2685 237.401 39.3291C237.422 39.6022 237.463 39.8085 237.525 40.0179C237.588 40.2272 237.67 40.4335 237.88 40.771" stroke="black" stroke-width="4" stroke-linecap="round"/>
<path d="M255.005 395.396C255.047 395.437 255.088 395.478 255.171 397.542C255.254 399.605 255.378 403.688 255.462 405.875C255.547 408.061 255.588 408.226 255.609 409.899C255.63 411.572 255.63 414.748 255.651 416.508C255.682 419.144 255.838 420.226 255.901 422.014C255.941 423.145 256.088 424.476 256.151 427.882C256.297 429.352 256.38 432.163 256.484 433.81C256.505 433.977 256.505 434.183 256.755 434.271" stroke="black" stroke-width="4" stroke-linecap="round"/>
<path d="M256.755 435.271C255.84 439.016 255.34 440.351 255.11 440.915C254.538 442.317 253.008 444.473 252.611 445.123C252.283 445.661 251.425 445.811 250.758 446.269C250.118 446.709 249.468 447.143 248.654 447.748C247.96 448.263 247.383 448.686 246.882 448.916C246.365 449.154 245.8 449.436 244.323 449.542C243.578 449.595 243.008 449.853 242.466 450C241.778 450.185 241.258 450.228 240.757 450.395C240.115 450.61 239.175 450.603 238.632 450.77C238.128 450.925 237.468 451.021 236.882 451.145C236.366 451.255 235.14 451.396 234.257 451.52C233.706 451.598 233.133 451.728 232.404 451.812C231.715 451.891 231.258 452.146 230.613 452.25C229.397 452.445 228.388 452.146 227.632 452.27C227.132 452.437 226.633 452.603 225.406 452.605C225.132 452.563 225.008 452.481 224.88 452.396" stroke="black" stroke-width="4" stroke-linecap="round"/>
<path d="M238.13 50.771C238.46 54.401 238.63 57.756 238.672 60.3772C238.701 62.2598 238.88 65.496 238.922 69.411C238.94 71.1852 239.13 72.2635 239.172 73.5535C239.2 74.4392 239.38 78.4835 239.422 84.2322C239.456 89.0854 239.795 94.266 239.922 95.6822C240.085 97.5156 240.295 100.016 240.422 101.058C240.599 102.52 240.795 104.181 240.922 105.723C241.069 107.52 241.295 109.516 241.422 113.422C241.457 114.522 241.63 118.648 241.672 124.647C241.699 128.596 242.045 131.766 242.295 133.93C242.46 134.353 242.79 134.436 242.795 134.396C242.8 134.356 242.47 134.191 242.13 134.021" stroke="black" stroke-width="4" stroke-linecap="round"/>
<path d="M242.38 135.021C242.38 137.991 242.38 140.676 242.422 142.55C242.509 146.498 242.795 152.516 243.088 153.725C243.216 154.252 243.213 154.851 243.338 157.537C243.447 159.891 243.38 164.266 243.422 166.683C243.493 170.848 243.795 173.681 243.922 175.597C244.048 177.518 244.295 180.016 244.422 182.677C244.529 184.933 244.795 187.766 244.922 190.136C245.044 192.437 245.295 194.431 245.422 196.14C245.554 197.936 245.795 200.266 245.922 202.802C246.061 205.595 246.295 208.931 246.422 210.266C246.564 211.774 246.795 213.596 246.922 218.128C246.997 220.85 246.965 223.516 246.922 230.576C246.898 234.344 247.295 238.016 247.422 239.722C247.597 242.096 247.795 244.766 247.922 246.057C248.105 247.934 248.295 249.931 248.422 251.1C248.708 253.749 248.795 257.431 248.922 261.671C248.963 262.601 249.045 262.931 249.212 263.142C249.378 263.353 249.625 263.436 249.88 263.521" stroke="black" stroke-width="4" stroke-linecap="round"/>
<path d="M248.13 264.021C248.295 270.291 248.38 274.841 248.422 276.965C248.484 280.175 248.795 285.011 248.922 288.342C248.957 289.274 249.13 292.491 249.172 297.156C249.198 300.188 249.545 302.016 249.672 303.64C249.856 306.008 250.045 309.516 250.172 311.97C250.239 313.283 250.545 314.266 250.672 316.387C250.843 319.258 251.045 322.766 251.172 324.265C251.32 326.022 251.545 327.516 251.672 330.093C251.786 332.437 252.045 334.266 252.172 342.405C252.206 344.599 252.38 348.073 252.422 352.863C252.437 354.601 252.545 354.931 252.588 357.37C252.63 359.808 252.63 364.346 252.672 366.89C252.741 371.183 253.045 373.681 253.172 375.39C253.444 379.072 253.545 385.266 253.838 386.516C254.125 387.742 254.13 389.261 254.338 391.466C254.38 394.811 254.463 397.268 254.67 397.767C254.795 398.018 254.96 398.266 255.13 398.521" stroke="black" stroke-width="4" stroke-linecap="round"/>
<path d="M22.2554 442.521C23.6716 449.811 23.9204 450.476 24.2541 451.288C24.6528 452.259 25.5404 453.926 26.461 455.33C26.925 456.037 27.5854 456.393 28.4185 456.935C29.476 457.623 30.1279 457.978 31.1679 458.353C31.8556 458.6 32.3779 458.603 32.9404 458.687C33.8607 458.824 34.7504 459.186 35.3991 459.375C35.9832 459.545 36.5029 459.603 37.0241 459.77C37.6219 459.962 38.1279 460.021 38.6285 460.125C39.1225 460.227 39.6279 460.353 41.0623 460.417C42.1705 460.465 43.5854 460.438 44.1698 460.292C44.8606 460.119 46.6979 460.146 48.0641 460.25C49.5014 460.359 50.0029 460.396 50.5035 460.52C50.632 460.552 50.7529 460.603 50.8991 460.563C51.0454 460.522 51.2104 460.398 51.2335 460.397C51.2566 460.395 51.1329 460.518 51.0054 460.646" stroke="black" stroke-width="4" stroke-linecap="round"/>
<path d="M224.38 453.146C221.905 453.146 220.383 453.105 218.44 453.042C216.746 452.988 213.61 453.021 211.872 453.062C209.498 453.118 208.678 453.353 206.658 453.375C205.629 453.386 204.633 453.353 203.635 453.603C202.499 453.888 201.633 453.771 200.843 453.667C198.816 453.401 197.39 453.771 196.342 453.667C195.601 453.594 194.924 453.605 192.879 453.542C191.041 453.486 187.575 453.521 185.728 453.542C182.804 453.574 180.553 453.728 179.675 453.895C179.008 454.022 177.845 454.103 176.572 454.25C175.678 454.352 174.925 454.396 174.341 454.52C173.317 454.738 171.968 454.728 171.382 454.792C170.753 454.859 170.008 454.978 169.196 455.042C168.053 455.13 166.383 455.228 165.011 455.292C163.798 455.347 162.55 455.478 161.779 455.542C160.718 455.628 159.383 455.728 156.807 455.792C155.342 455.827 153.758 455.978 150.747 456.042C149.298 456.072 148.133 456.228 147.073 456.312C146.298 456.373 145.427 456.521 144.636 456.542C144.09 456.556 142.643 456.646 140.603 456.667C138.756 456.685 137.758 456.853 136.282 456.917C135.924 456.932 135.718 456.978 134.395 457C133.072 457.021 130.638 457.021 129.302 457.042C127.504 457.069 127.008 457.228 126.425 457.312C125.373 457.463 124.468 457.603 123.509 457.75C122.558 457.895 120.975 457.896 119.656 457.792C118.646 457.713 117.84 457.73 116.889 457.667C114.705 457.524 113.09 457.605 112.387 457.542C110.946 457.414 109.84 457.562 108.27 457.625C106.866 457.681 104.225 457.646 102.7 457.667C101.175 457.687 100.845 457.728 99.7472 457.75C96.7933 457.807 94.6741 457.812 94.2585 457.895C93.4311 458.061 92.6754 458.103 91.9254 458.25C91.6754 458.271 91.3454 458.271 91.2372 458.271C91.1291 458.271 51.7529 460.521 51.6304 460.521" stroke="black" stroke-width="4" stroke-linecap="round"/>
<path d="M241.5 409.6C241.766 416.264 241.591 418.931 241.279 421.087C240.75 424.741 240.791 426.224 240.391 427.508C239.885 429.133 239.634 430.536 238.882 431.82C238.044 433.252 237.24 434.946 235.951 436.389C234.887 437.581 233.775 438.137 232.707 438.854C231.639 439.573 230.576 440.188 229.287 441.01C228.17 441.723 227.111 442.14 225.778 442.551C224.418 442.971 223.203 443.477 222.045 443.732C220.902 443.985 219.647 444.093 218.182 444.348C216.197 444.695 213.884 444.709 211.962 444.964C209.792 445.253 208.718 445.528 207.606 445.684C206.289 445.868 204.901 446.249 203.52 446.504C201.785 446.658 200.017 446.865 198.543 447.12C198.231 447.173 197.879 447.173 198.05 447.173" stroke="black" stroke-width="4" stroke-linecap="round"/>
<path d="M213.654 25.521C212.862 25.7819 211.266 25.9541 209.229 26.0859C206.831 26.2411 203.823 26.476 199.97 26.5216C196.989 26.557 193.8 26.476 192.379 26.8243C190.809 27.2093 189.012 27.2587 187.856 27.3905C186.689 27.5235 184.936 27.7806 182.187 27.9124C181.115 27.9637 176.632 28.1302 170.338 28.1733C166.836 28.1972 165.071 28.5634 163.915 28.6951C161.886 28.9265 158.511 29.0852 157.044 29.3905C155.865 29.6359 153.553 29.6958 151.46 29.9123C150.083 30.0547 148.318 30.2176 146.582 30.4342C145.034 30.6273 143.966 30.7395 141.274 30.956C134.057 31.5367 132.443 31.4335 130.049 31.5653C128.334 31.6597 126.591 32.0441 125.125 32.2606C122.969 32.5792 121.01 32.5659 118.922 32.7825C114.989 33.1904 113.556 33.0878 112.091 33.3043C109.935 33.6228 105.518 33.6096 101.417 33.8262C96.9426 34.0625 93.6884 33.9566 92.1922 34.0871C86.2622 34.6041 84.8278 34.3924 82.9219 34.6089C81.0413 34.8226 79.5901 34.7394 77.5672 34.8699C72.5702 35.1921 68.8621 34.8281 66.9695 34.6977C59.6566 34.1936 58.2272 34.3924 56.586 34.1758C53.5461 33.7747 48.7734 33.8705 45.0626 33.654C44.0491 33.6096 42.2935 33.6096 41.6524 33.6096C41.0114 33.6096 41.538 33.6096 42.0807 33.6096" stroke="black" stroke-width="4" stroke-linecap="round"/>
<path d="M213.92 25.782C215.865 25.782 217.639 25.9543 218.704 26.5192C219.706 27.05 220.831 27.2589 221.897 28.0834C222.922 28.8769 223.848 29.6907 224.558 30.7357C225.242 31.7427 225.71 32.8217 225.935 33.8667C226.164 34.9316 226.598 35.9528 226.909 38.0324C227.697 43.2926 227.221 45.5965 227.485 47.4334C227.84 48.8268 228.106 49.7844 228.239 50.391C228.285 50.7393 228.285 51.1699 228.285 51.6134" stroke="black" stroke-width="4" stroke-linecap="round"/>
<path d="M228.285 53.7006C228.285 66.2197 227.934 68.3019 227.84 82.9527C227.801 89.1804 228.636 95.083 228.904 99.3465C229.098 102.424 229.7 105.176 229.968 125.201C230.024 129.364 230.232 129.88 230.322 134.451C230.583 147.631 230.588 157.021 230.854 158.234C231.492 161.141 231.477 163.278 231.918 165.54C232.488 168.46 232.541 171.617 232.982 175.017C233.489 178.916 233.605 181.365 234.046 184.754C234.801 190.55 234.669 195.778 235.11 204.024C235.392 209.277 235.201 219.272 235.289 224.762C235.387 230.945 235.733 236.3 235.821 243.603C235.853 246.258 236.084 246.773 236.174 251.861C236.265 256.949 236.265 266.593 236.353 271.905C236.452 277.911 236.797 282.06 236.885 287.623C236.929 290.442 237.329 294.413 237.417 299.715C237.462 302.445 237.861 309.859 237.949 320.294C238.009 327.484 238.744 333.4 239.013 336.789C239.118 338.118 239.457 346.378 239.545 358.378C239.597 365.585 240.34 370.451 240.609 374.359C240.855 377.947 240.702 381.754 240.609 387.486C241.053 393.903 241.229 402.81 241.495 404.282C241.585 405.237 241.585 406.615 241.585 408.034" stroke="black" stroke-width="4" stroke-linecap="round"/>
<path d="M43.2773 33.7399C41.8609 33.8273 40.8008 33.7399 39.5154 33.6101C37.1227 33.3685 35.7068 33.3485 34.4373 33.4568C32.7764 33.5984 31.7141 33.6094 30.6235 33.7177C29.5403 33.8252 28.6497 33.9564 27.9854 34.1091C26.8161 34.3777 26.0801 34.2617 25.3466 34.3915C24.7729 34.4931 24.2606 34.7392 23.5956 34.8051C22.8804 34.876 22.1778 35.0001 21.0938 35.1528C19.0916 35.4347 18.4537 35.3915 17.8539 35.5657C17.1729 35.7634 16.4587 35.9134 15.5496 36.3256C14.9057 36.6176 14.4184 37.1293 13.9077 37.6733C13.3613 38.2553 13.1309 38.9557 12.821 39.4782C12.4805 40.0524 12.1999 40.6517 12.0224 41.1742C11.8399 41.711 11.5349 42.3034 11.3573 43C11.1925 43.6468 11.1359 44.1742 11.0687 44.6967C10.994 45.2777 10.8247 46.1285 10.7143 47.6451C10.5078 50.4814 10.7356 52.5681 10.824 52.9151C10.9124 53.2621 10.9577 54.1715 10.9796 55.345C10.9904 55.9193 11.0907 57.9431 11.1126 60.8994C11.1279 62.9596 11.3115 64.5262 11.3786 65.6984C11.4362 66.7027 11.5775 67.9182 11.6446 68.549C11.7124 69.1856 11.8435 70.0473 11.9106 71.4165C11.9484 72.1872 12.1095 72.9618 12.1766 74.1132C12.2341 75.098 12.3755 75.8763 12.5311 76.832C12.6299 77.439 12.6867 77.9637 12.819 78.9409C12.986 80.1738 13.0405 81.9193 13.1077 83.0498C13.1701 84.1006 13.3065 84.6173 13.3737 85.616C13.4499 86.7492 13.5725 87.9649 13.6397 91.7803C13.656 92.708 13.7507 94.7763 13.7727 97.8193C13.786 99.6666 13.9276 100.491 13.9941 102.194C14.0522 103.682 14.0167 106.438 14.0387 107.922C14.0678 109.889 14.3705 110.751 14.3938 112.229C14.3719 112.537 14.328 112.667 14.3053 113.077C14.2827 113.488 14.2827 114.177 14.2827 114.887" stroke="black" stroke-width="4" stroke-linecap="round"/>
<path d="M196.896 446.651C192.682 446.823 189.59 446.912 187.908 446.955C186.571 446.989 185.814 447.173 185.306 447.237C184.475 447.343 182.151 447.65 179.27 447.759C178.233 447.798 178.057 447.739 176.716 447.717C175.374 447.695 172.873 447.695 170.947 447.608C169.022 447.522 167.749 447.35 165.799 447.261C163.848 447.173 161.259 447.173 159.793 447.151C157.658 447.12 157.043 446.999 154.843 446.934C152.995 446.879 149.658 446.912 147.83 446.89C145.782 446.866 144.591 446.781 143.062 446.803C141.657 446.823 140.151 446.998 139.044 447.064C137.651 447.147 136.515 447.564 135.872 447.672C135.058 447.809 133.988 447.955 133.411 448.085C132.283 448.339 130.753 448.303 128.541 448.368C127.372 448.403 126.409 448.608 125.719 448.716C125.037 448.823 123.534 448.869 120.418 448.977C118.418 449.047 114.686 448.999 112.677 449.021C110.491 449.044 109.301 449.13 107.333 449.065C104.181 448.962 102.956 448.652 102.001 448.629C101.348 448.614 100.649 448.824 99.9611 448.89C99.2685 448.957 98.3006 449.085 94.5865 449.151C93.3719 449.173 92.2303 449.432 91.0293 449.543C89.8759 449.648 88.8999 449.738 87.5506 449.803C85.3208 449.912 81.8534 449.826 81.0308 449.674C80.2534 449.695 79.7227 449.868 78.926 450.021C78.6161 450.043 78.1772 450.043 77.725 450.173" stroke="black" stroke-width="4" stroke-linecap="round"/>
<path d="M77.459 450.173C73.5088 450.216 69.5586 450.26 67.2164 450.282C64.2598 450.31 63.4072 450.347 61.6922 450.434C60.1979 450.509 57.4314 450.52 55.9411 450.521C53.8744 450.522 52.0235 450.262 50.3537 450.152C48.3435 450.019 45.8522 450.129 44.1484 450.152C42.8351 450.17 41.3301 449.957 40.7303 449.891C39.9518 449.805 39.0691 449.696 38.3588 449.262C37.5823 448.788 37.2044 448.089 36.6517 447.22C36.2011 446.511 36.0073 446.001 35.7194 445.479C35.4488 444.988 35.3423 444.436 35.1648 443.913C34.9607 443.313 34.8103 442.437 34.6328 441.804C34.4354 441.101 34.4113 440.305 34.3441 437.746C34.314 436.597 34.1001 436.086 33.9897 435.542C34.011 434.911 34.1879 434.132 34.4313 432.895C34.5416 432.183 34.7172 430.891 34.8981 429.561" stroke="black" stroke-width="4" stroke-linecap="round"/>
<path d="M14.5489 114.626C14.6806 118.372 14.8122 122.117 14.9459 124.499C15.0796 126.88 15.2112 127.784 15.301 128.767C15.4849 130.779 15.5238 132.148 15.5903 132.82C15.6692 133.618 15.6568 134.366 15.7891 135.964C15.8964 137.259 16.0093 139.542 16.099 140.846C16.2067 142.411 16.2779 143.149 16.3657 144.491C16.5049 146.619 16.8099 148.97 16.788 150.709C16.7769 151.588 16.6769 153.831 16.6989 157.048C16.7091 158.543 16.8099 159.154 16.8538 159.912C16.9155 160.977 17.0759 162.367 17.0979 163.714C17.1327 165.848 17.2967 168.11 17.3858 169.393C17.4972 170.995 17.6957 171.677 17.7629 172.656C17.8274 173.596 17.9617 174.547 18.0289 176.631C18.0699 177.901 18.2277 179.025 18.2949 180.114C18.3886 181.634 18.4938 183.635 18.5609 184.572C18.6376 185.641 18.7598 186.766 18.8269 187.833C18.916 189.246 19.0258 190.552 19.0929 192.591C19.1333 193.815 19.2918 195.29 19.4687 196.915C19.5656 197.806 19.8637 199.309 19.9993 200.881C20.2717 204.039 20.1789 205.99 20.2454 206.575C20.3563 207.553 20.4888 209.542 20.6664 210.925C20.7109 211.207 20.7548 211.637 20.8652 211.988C20.9756 212.339 21.1511 212.597 21.332 212.864" stroke="black" stroke-width="4" stroke-linecap="round"/>
<path d="M21.5985 213.386C22.0374 220.36 22.4763 227.335 22.8122 232.155C23.148 236.974 23.3674 239.428 23.8536 246.462C24.3397 253.495 25.0858 265.033 25.4922 271.084C25.8985 277.136 25.9424 277.351 25.965 277.634C26.0742 279.001 26.1206 281.513 26.231 282.919C26.2582 283.266 26.2975 283.659 26.3859 284.738C26.5797 287.103 26.5635 288.92 26.63 289.678C26.8263 291.914 26.7856 292.876 26.896 294.673C27.0744 297.578 26.9625 299.792 27.051 300.377C27.2052 301.399 27.2724 302.183 27.3396 303.551C27.409 304.966 27.5384 306.619 27.7379 307.683C27.8044 307.968 27.8922 308.226 28.0252 308.488C28.1582 308.75 28.3338 309.009 28.5146 309.275" stroke="black" stroke-width="4" stroke-linecap="round"/>
<path d="M28.3814 309.666C28.3814 309.709 28.3814 309.752 28.4472 311.992C28.513 314.231 28.6447 318.665 28.6906 321.058C28.7365 323.45 28.6926 323.665 28.7139 325.605C28.7351 327.546 28.8229 331.205 28.912 333.414C29.0273 336.27 29.1794 337.062 29.2013 337.451C29.2379 338.101 29.3124 340.479 29.3343 343.544C29.3459 345.156 29.5784 346.19 29.7992 348.965C30.1073 352.837 29.9774 353.54 30.0878 354.325C30.2216 355.275 30.2434 357.786 30.3538 359.585C30.4339 360.891 30.5094 361.846 30.6198 362.826C30.7053 363.585 30.7754 365.921 30.8858 367.63C31.0038 369.456 31.0414 370.759 31.1518 372.151C31.3345 374.454 31.3074 376.705 31.4178 378.264C31.5057 379.504 31.5734 380.457 31.6838 381.718C31.8891 384.063 31.8394 386.143 31.9718 387.549C32.0382 388.255 32.1932 389.112 32.2604 391.435C32.2813 392.16 32.3714 392.939 32.3934 393.873C32.4428 395.977 32.5922 399.03 32.6594 399.985C32.6749 400.206 32.7252 400.334 32.7478 401.649C32.7705 402.965 32.7705 405.462 32.7924 406.812C32.8319 409.246 32.9912 411.163 33.0584 413.309C33.0771 413.906 33.1695 416.188 33.1914 419.514C33.2046 421.513 33.3902 422.99 33.4574 425.506C33.5028 427.206 33.6562 429.383 33.6795 430.924C33.6576 431.255 33.6137 431.384 33.5911 431.515C33.5685 431.646 33.5685 431.776 33.8345 432.17" stroke="black" stroke-width="4" stroke-linecap="round"/>
<path d="M228.531 94.7691C226.034 95.31 220.932 96.5 220.504 96.9327L218.364 95.8509C209.266 96.7524 191.072 98.6636 191.072 99.0964C191.072 99.5291 181.44 99.2767 176.624 99.0964C167.705 99.0964 149.76 98.9882 149.332 98.5555C148.797 98.0146 107.057 102.883 106.522 102.883C105.987 102.883 73.3445 102.342 72.2742 102.342C71.418 102.342 45.5179 102.702 32.6749 102.883C26.2534 103.424 13.1963 104.506 12.3401 104.506C11.4839 104.506 8.41586 103.424 6.98886 102.883C6.09698 98.6231 4.20621 89.9549 3.77811 89.3599C3.35001 88.7649 3.95648 74.6876 4.31323 67.7234L10.1996 60.6915L21.9724 57.9869L43.9125 57.446L65.8527 56.3642L108.128 53.6596L147.727 51.4959L166.991 49.8732L198.029 50.955C203.737 50.4141 215.26 49.3323 215.688 49.3323H227.461C227.996 49.3323 230.136 53.1187 230.136 53.6596C230.136 54.2005 231.207 66.6415 231.207 68.2643C231.207 69.5625 230.493 82.869 230.136 89.3599L228.531 94.7691Z" fill="white"/>
<path d="M221.842 48.521C225.374 48.6995 227.458 48.8807 227.992 49.0606C229.783 49.6641 230.313 53.7408 230.67 59.273C230.814 61.5093 231.115 63.2988 231.429 65.2366C231.696 66.8929 231.742 70.4875 231.297 73.8899C231.151 75.009 231.118 76.1022 230.984 78.9217C230.686 85.215 230.851 89.8063 230.673 90.6163C230.339 92.1354 230.315 93.6846 230.049 94.1796C229.457 95.2812 225.705 95.3101 223.229 95.759C221.944 95.9921 217.684 96.1214 214.758 96.3905C210.724 96.7616 204.819 97.0194 202.629 97.2479C200.794 97.4394 199.372 97.6522 198.256 97.7888C196.951 97.9485 195.894 98.1931 194.071 98.5096C189.27 99.3434 187.428 98.826 185.463 98.6015C181.733 98.1756 178.877 98.826 175.92 98.6015C174.326 98.4805 172.618 98.7341 169.604 99.0045C163.787 99.5265 159.77 99.1857 158.662 99.321C154.715 99.8029 152.029 99.0965 149.695 99.3656C147.992 99.5618 145.506 99.8159 143.764 99.9525C142.103 100.083 140.331 100.357 138.725 100.718C136.111 101.305 131.24 101.347 129.361 101.755C127.001 102.268 123.759 102.072 121.511 102.296C120.083 102.439 116.187 102.612 113.528 102.837C112.949 102.886 112.058 103.061 109.047 103.332C102.528 103.917 97.8745 103.335 97.1187 103.155C96.2789 102.955 93.5239 102.883 89.8249 102.838C88.4209 102.821 87.98 102.704 83.2495 102.658C78.519 102.612 69.5129 102.612 64.6967 102.657C59.5259 102.705 56.8678 102.883 53.1688 102.927C49.6261 102.97 46.4168 102.975 40.2803 102.838C35.6378 102.735 30.2721 102.791 28.7563 102.927C26.9688 103.089 24.6533 103.332 22.6934 103.468C20.1154 103.694 16.6237 103.783 15.2511 103.919C14.1434 103.965 12.2009 103.965 9.66439 103.694" stroke="black" stroke-width="4" stroke-linecap="round"/>
<path d="M222.109 49.6027C217.165 49.4242 212.234 49.4215 208.401 49.6014C205.604 49.7326 203.658 50.2302 199.427 50.863C197.772 51.1105 195.99 51.404 193.008 51.7204C188.48 52.2009 185.1 51.8556 183.947 51.9909C181.924 52.2281 179.931 51.8583 177.006 51.5879C171.104 51.042 165.935 51.2282 163.663 50.8225C161.14 50.3718 158.092 50.4141 155.805 50.863C154.347 51.1492 152.377 51.2255 149.922 51.4499C146.936 51.723 145.153 51.7664 143.319 51.9909C142.217 52.1257 141.308 52.1261 138.567 52.2613C136.093 52.3833 131.411 52.3073 128.691 52.3519C124.441 52.4217 123.031 52.8482 121.025 53.0727C116.985 53.525 114.474 53.3891 112.504 53.6582C111.064 53.8548 109.471 54.1085 105.736 54.2451C102.775 54.3534 100.647 54.6494 99.1696 54.786C96.7214 55.0124 93.6899 55.1904 91.9012 55.5514C89.1036 56.1162 84.5874 56.0017 82.0509 56.1383C80.0267 56.2473 79.0569 56.4534 75.4742 56.5886C72.3349 56.7071 66.5055 56.6346 63.371 56.59C59.2516 56.5313 57.3013 56.5426 53.514 56.59C52.7435 56.5996 52.4798 56.4561 49.827 56.4101C47.1741 56.3641 42.1412 56.3641 39.372 56.4088C35.5203 56.4708 34.109 56.9051 32.5023 57.1742C30.8977 57.4429 28.9343 57.6245 27.3744 57.9855C25.9136 58.3237 24.4767 58.4358 22.87 58.5724C21.6903 58.6727 20.6399 58.9768 19.3462 59.1133C19.0318 59.158 18.7669 59.2472 17.88 59.2932C16.993 59.3392 15.492 59.3392 13.9454 59.3392" stroke="black" stroke-width="4" stroke-linecap="round"/>
<path d="M11.002 57.1755C9.13169 59.6962 8.06411 60.9565 5.70421 65.8545C4.36193 68.6404 4.40385 69.8816 4.26873 71.054C4.05063 72.9465 3.86873 74.9283 3.8219 82.8379C3.79936 86.6458 4.22191 90.7934 4.57911 92.7339C4.85299 94.2218 5.0246 95.8455 5.15972 97.0179C5.47143 98.5528 5.6507 100.524 5.87277 102.47C5.91826 102.967 5.91826 103.591 5.91826 103.965" stroke="black" stroke-width="4" stroke-linecap="round"/>
<path d="M200.13 419.021L194.63 423.021" stroke="black" stroke-width="2" stroke-linecap="round"/>
<path d="M99.1304 431.521C97.4804 434.326 95.8304 437.131 94.7329 438.658C93.6354 440.186 93.1404 440.351 92.6379 440.353C92.1354 440.356 91.6404 440.191 91.1304 439.521" stroke="black" stroke-width="2" stroke-linecap="round"/>
<path d="M87.1304 424.021L83.1304 428.521" stroke="black" stroke-width="2" stroke-linecap="round"/>
<path d="M234.38 17.271C229.805 13.776 227.635 12.606 226.427 12.0647C225.176 11.5047 220.83 9.291 218.384 7.981C217.344 7.42379 216.055 6.526 214.635 5.52475C213.383 4.6885 212.385 4.356 211.512 4.0235C211.133 3.856 210.885 3.691 210.38 3.521" stroke="black" stroke-width="4" stroke-linecap="round"/>
<path d="M3.38037 33.521C3.38037 29.191 3.54537 28.026 4.08662 27.0247C4.66269 25.9591 5.46037 24.776 6.29412 23.7747C7.01063 22.9143 7.79037 21.611 8.79287 20.401C10.2451 18.6481 10.9604 17.526 12.0841 16.4835C13.2105 15.4385 13.9604 14.361 14.8766 13.5647C15.8779 13.106 16.8754 12.606 17.5054 12.521C17.3854 12.521 16.8904 12.521 16.3804 12.521" stroke="black" stroke-width="4" stroke-linecap="round"/>
<path d="M212.38 5.0208C210.4 3.8658 209.133 3.1058 208.634 2.7733C208.383 2.6058 208.135 2.4408 207.884 2.2733C207.633 2.1058 207.385 1.9408 206.88 2.0208" stroke="black" stroke-width="4" stroke-linecap="round"/>
<path d="M207.38 2.52083C202.305 2.02083 200.135 2.18583 193.324 2.51958C190.875 2.63957 189.22 2.93583 185.52 2.97958C184.135 2.99596 181.898 2.77083 179.108 2.81208C174.736 2.87672 168.72 3.18583 167.219 3.31208C165.467 3.45946 163.135 3.68583 160.267 3.81208C158.787 3.8772 157.635 4.18583 156.385 4.31208C155.041 4.44786 154.05 4.60333 150.085 4.72833C146.452 4.84288 139.52 4.77083 135.703 4.72958C131.389 4.68296 128.488 4.52083 124.698 4.56208C121.798 4.59364 119.47 4.93583 115.19 5.10333C112.107 5.224 111.135 5.68583 108.974 5.97833C105.911 6.39292 103.395 6.27083 100.15 6.47833C95.0406 6.80507 91.3004 6.60333 89.8929 6.72833C84.8188 7.17896 83.6354 7.10333 80.2041 7.22833C77.2695 7.33524 71.9054 7.27083 68.9779 7.31208C64.7157 7.37214 62.7204 7.68583 59.3516 7.81208C57.3782 7.88604 55.0554 8.18583 52.7641 8.31208C49.4812 8.49297 44.8054 8.68583 41.5591 8.81208C40.1188 8.8681 39.3829 9.10333 36.2854 9.22833C33.4374 9.34326 27.9904 9.27083 25.0616 9.31208C21.295 9.36513 20.1354 9.68583 19.1341 10.0196C18.1329 10.3533 17.3004 11.0158 16.4666 11.6021C16.2979 11.7683 16.2154 12.0158 16.1304 12.2708" stroke="black" stroke-width="4" stroke-linecap="round"/>
</svg>
