<svg width="43" height="43" viewBox="0 0 43 43" fill="none" xmlns="http://www.w3.org/2000/svg">
<g clip-path="url(#clip0_195_26730)">
<rect width="43" height="43" rx="21.5" fill="#FFE38F"/>
<path d="M32.8042 27.6828C32.5046 27.6828 32.3332 27.7398 31.9939 27.9027C31.8297 27.9815 31.733 28.1452 31.526 28.5061C31.4055 28.7161 31.3975 29.0004 31.3929 29.4848C31.391 29.6826 31.4938 29.926 31.5383 30.1078C31.5946 30.3383 31.8103 30.6569 31.9483 30.8798C32.0289 31.01 32.1554 31.1178 32.2613 31.2458C32.3709 31.3781 32.5517 31.5322 32.7374 31.6428C32.8855 31.7311 33.0021 31.7444 33.0906 31.7579C33.2569 31.7833 32.9587 31.3835 32.9014 31.2556C32.8534 31.1484 32.8089 31.0046 32.7383 30.7181C32.6923 30.5318 32.6412 30.4309 32.6278 30.3249C32.613 30.2071 32.5793 29.79 32.6056 29.5224C32.6205 29.3706 32.6671 29.2666 32.7158 29.1606C32.7711 29.0403 32.8523 28.9226 32.9274 28.8166C33.0087 28.7017 33.108 28.5876 33.1876 28.4726C33.267 28.358 33.3726 28.1822 33.4259 28.0493C33.4466 27.9976 33.4612 27.9433 33.4744 27.8905C33.4873 27.8391 33.4615 27.7845 33.4219 27.7361C33.3452 27.6422 33.2149 27.6345 32.9551 27.6299C32.9268 27.6343 32.9019 27.6402 32.8809 27.6466C32.8395 27.6593 32.8131 27.6739 32.8042 27.6828Z" fill="#84DC00"/>
<path d="M20.393 27.9318C20.0935 27.9318 19.922 27.9888 19.5828 28.1517C19.4185 28.2306 19.3219 28.3942 19.1148 28.7551C18.9944 28.9651 18.9864 29.2494 18.9817 29.7338C18.9798 29.9316 19.0827 30.1751 19.1271 30.3568C19.1835 30.5873 19.3992 30.9059 19.5372 31.1288C19.6178 31.2591 19.7442 31.3669 19.8502 31.4948C19.9598 31.6271 20.1406 31.7812 20.3262 31.8919C20.4744 31.9801 20.591 31.9935 20.6795 32.007C20.8458 32.0323 20.5476 31.6325 20.4903 31.5046C20.4423 31.3974 20.3978 31.2536 20.3272 30.9672C20.2812 30.7808 20.23 30.6799 20.2167 30.574C20.2018 30.4561 20.1681 30.039 20.1945 29.7714C20.2094 29.6196 20.256 29.5156 20.3047 29.4097C20.3599 29.2893 20.4412 29.1716 20.5162 29.0657C20.5976 28.9507 20.6968 28.8366 20.7765 28.7217C20.8559 28.607 20.9614 28.4313 21.0148 28.2983C21.0355 28.2466 21.0501 28.1923 21.0633 28.1395C21.0762 28.0881 21.0503 28.0335 21.0108 27.9851C20.9341 27.8912 20.8037 27.8835 20.544 27.8789C20.5156 27.8833 20.4908 27.8892 20.4698 27.8956C20.4284 27.9083 20.402 27.9229 20.393 27.9318Z" fill="#84DC00"/>
<path d="M85.0957 78.7293L84.0531 78.3122L82.5935 78.8335L79.0487 79.7718L79.1529 80.3974L80.6126 82.3783C81.7942 82.7258 84.1782 83.4417 84.2616 83.5252C84.3659 83.6294 85.3042 84.1507 85.4084 84.3592C85.4919 84.526 86.4858 85.9579 86.9723 86.6529C86.6248 86.8614 85.9089 87.2993 85.8255 87.3827C85.7212 87.487 83.3233 87.1742 83.219 87.2785C83.1148 87.3827 79.7785 86.8614 79.6742 86.8614C79.57 86.8614 76.755 85.9231 76.5465 85.8188C76.3797 85.7354 75.2954 85.2975 74.7741 85.089L74.0443 84.255L71.5421 81.0229C71.0903 80.9187 70.1658 80.731 70.0824 80.8144C69.9782 80.9187 63.8269 79.5633 63.6184 79.4591C63.4516 79.3757 61.1162 78.7988 59.9694 78.5207L56.9459 77.6867C55.9728 77.3739 54.0058 76.7275 53.9224 76.6441C53.8181 76.5398 52.567 75.6015 52.4627 75.4972C52.3585 75.393 51.2116 73.7248 51.1074 73.6206C51.024 73.5372 50.6556 73.0298 50.4818 72.7865L47.8754 72.578L44.7476 71.0141C43.8788 70.2496 42.1203 68.7204 42.0369 68.7204C41.9326 68.7204 41.0986 66.948 41.0986 66.8438C41.0986 66.7395 40.6815 65.8012 40.5773 65.8012C40.4939 65.8012 39.8475 66.4963 39.5347 66.8438L39.6389 68.929L39.1177 72.578L37.658 74.976C37.1367 75.254 36.0525 75.81 35.8856 75.81C35.7188 75.81 35.4686 76.0185 35.3643 76.1228C35.5034 76.9916 35.7605 78.7501 35.6771 78.8335C35.5937 78.9169 34.8778 80.8144 34.5303 81.7528L34.9473 84.0464C35.1211 83.8379 35.1975 84.0256 34.1132 86.4444C33.029 88.8632 29.1436 89.8849 27.3364 90.0934V88.321L27.545 84.0464L27.3364 81.7528C27.1279 81.4052 26.69 80.7102 26.6066 80.7102C26.5232 80.7102 24.9037 80.1541 24.1044 79.8761L22.2278 79.7718C20.9072 79.9109 18.2451 80.1889 18.1617 80.1889C18.0574 80.1889 15.7637 80.8144 15.6595 80.7102C15.5761 80.6268 15.3467 82.2741 15.2424 83.1081L15.0339 85.089C14.9644 85.4366 14.8046 86.1525 14.7212 86.2359C14.6377 86.3193 13.9913 87.5217 13.6786 88.1125L15.2424 90.0934L17.2234 92.0744C17.3276 92.1786 19.3085 93.1169 19.4128 93.1169C19.4962 93.1169 21.1852 94.368 22.0192 94.9936L22.9576 95.9319C23.041 96.0153 23.0618 96.5922 23.0618 96.8702C22.7838 97.2178 22.2069 97.9337 22.1235 98.0171C22.0401 98.1005 21.3242 98.2604 20.9767 98.3299L21.7065 99.1639L23.2704 100.102V100.519L22.6448 101.353C22.332 101.562 21.6856 101.979 21.6022 101.979C21.498 101.979 20.0383 102.604 20.0383 102.709C20.0383 102.792 19.5518 102.813 19.3085 102.813C19.5518 103.091 20.0383 103.668 20.0383 103.751C20.0383 103.835 20.3164 104.342 20.4554 104.585C20.3859 104.863 20.226 105.44 20.1426 105.524C20.0383 105.628 19.3085 105.732 19.2043 105.732C19.1 105.732 16.3893 105.941 16.1808 105.941C15.9723 105.941 14.6169 105.628 14.5126 105.628C14.4084 105.628 11.3849 104.377 11.2806 104.377C11.1764 104.377 10.0295 103.647 9.92525 103.647C9.84185 103.647 9.05643 103.021 8.67416 102.709L7.63157 101.353L6.7975 99.7895L4.2953 97.8086C3.91302 97.6001 3.1276 97.183 3.04419 97.183C2.93993 97.183 2.62716 96.766 2.5229 96.766C2.43949 96.766 0.124954 96.6965 -1.02189 96.6617C-2.27299 96.2794 -4.79605 95.5149 -4.87946 95.5149C-4.96286 95.5149 -5.88729 95.1674 -6.33907 94.9936C-6.6171 94.8546 -7.194 94.5557 -7.2774 94.4723C-7.36081 94.3889 -10.3704 93.1864 -11.8648 92.5956L-14.784 91.2403L-16.5564 90.1977C-16.8692 89.8502 -17.5156 89.1551 -17.599 89.1551C-17.7033 89.1551 -19.1629 88.0083 -19.3714 87.904C-19.5799 87.7998 -20.7261 86.6535 -21.0393 86.3404L-21.0395 86.3401C-21.3523 86.0274 -21.9779 84.4635 -22.0821 84.255C-22.1864 84.0464 -23.0204 82.0655 -23.0204 81.857C-23.0204 81.6485 -23.4375 80.3974 -23.4375 80.2931C-23.4375 80.1889 -23.646 78.625 -23.646 78.5207C-23.646 78.4165 -24.2715 77.6867 -24.3758 77.5824C-24.4801 77.4782 -25.5227 75.81 -25.6269 75.7058C-25.7312 75.6015 -26.3567 73.3078 -26.461 73.0993C-26.5652 72.8908 -26.878 69.6588 -26.9823 69.4503C-27.0865 69.2417 -26.461 65.1757 -26.461 64.8629C-26.461 64.5501 -25.9397 60.5883 -25.9397 60.484C-25.9397 60.3798 -25.5227 58.6074 -25.5227 58.3988C-25.5227 58.1903 -25.4184 57.4605 -25.4184 57.3563C-25.4184 57.252 -26.1482 55.6881 -26.1482 55.4796C-26.1482 55.2711 -26.0439 52.1433 -26.1482 51.9348C-26.2525 51.7263 -25.2099 48.2858 -25.2099 48.0773C-25.2099 47.8687 -23.8545 45.4708 -23.7503 45.2623C-23.646 45.0538 -21.3523 42.0303 -21.3523 41.8217C-21.3523 41.6132 -18.5373 39.7366 -18.3288 39.5281C-18.1203 39.3195 -14.4712 37.6514 -14.367 37.6514C-14.2627 37.6514 -13.3244 37.2344 -13.2201 37.1301C-13.1159 37.0258 -11.2392 34.5236 -11.135 34.4194C-11.0516 34.336 -9.64059 33.342 -8.94554 32.8555L-6.0263 31.9172L-3.62836 31.3959H-2.79429L-1.7517 30.7703C-0.431091 30.5271 2.23098 30.0405 2.31438 30.0405C2.41864 30.0405 6.27621 30.1448 6.38047 30.1448C6.46387 30.1448 8.98693 30.5618 10.238 30.7703C10.7941 30.9093 11.927 31.2082 12.0104 31.2916C12.0938 31.375 14.8949 31.8824 16.285 32.1257C17.9184 32.5427 21.206 33.3768 21.2894 33.3768C21.3937 33.3768 25.2513 34.7322 25.3555 34.7322C25.4389 34.7322 28.379 35.9833 29.8386 36.6088C30.638 36.9911 32.2574 37.7765 32.3408 37.8599C32.4243 37.9433 34.5303 38.7287 35.5729 39.111L38.2836 39.3195L41.9326 39.0068L44.2263 39.111L45.9987 39.5281L48.2924 40.6749L50.1691 42.4473L51.5244 44.0112L52.3585 45.6793C52.6713 46.6524 53.2968 48.6402 53.2968 48.8071C53.2968 48.9739 53.5053 50.4752 53.6096 51.205L53.8181 52.0391C54.5132 52.5256 55.9241 53.5195 56.0075 53.603C56.1118 53.7072 57.4672 55.1668 57.5714 55.2711C57.6548 55.3545 58.7878 56.7655 59.3438 57.4605L60.5949 60.5883L60.8034 61.8394V63.299C60.8034 63.4033 60.6992 64.1331 60.5949 64.2373C60.5115 64.3207 61.7418 64.6196 62.3673 64.7586C63.3404 65.0714 65.2865 65.7178 65.2865 65.8012C65.2865 65.9055 67.9973 66.7395 68.2058 66.8438C68.3726 66.9272 70.1519 67.7126 71.0208 68.0949C71.7158 68.6509 73.1268 69.763 73.2102 69.763C73.3145 69.763 74.8783 71.6397 74.8783 71.7439C74.8783 71.8482 76.4422 72.6823 76.5465 72.6823C76.6507 72.6823 77.4848 72.4737 77.5891 72.4737C77.6725 72.4737 79.3615 72.0567 80.1955 71.8482C80.6821 71.7092 81.676 71.4312 81.7594 71.4312C81.8428 71.4312 82.9062 71.2226 83.4275 71.1184C84.1921 71.0489 85.7629 70.9099 85.9297 70.9099C86.1383 70.9099 88.4319 70.9099 88.5362 71.0141C88.6196 71.0975 89.8916 71.2574 90.5171 71.3269C90.8646 71.5354 91.5806 71.9525 91.664 71.9525C91.7474 71.9525 92.1853 73.1341 92.3938 73.7248L92.9151 74.6632L93.9577 75.1845L95.4173 76.6441C95.73 77.1306 96.3764 78.1037 96.4599 78.1037C96.5641 78.1037 97.0854 79.3548 97.0854 79.4591C97.0854 79.5425 97.3634 80.3279 97.5024 80.7102V81.5442C97.5024 81.6276 97.2244 81.6485 97.0854 81.6485V82.5868L95.0002 83.4209C94.618 83.4556 93.8325 83.546 93.7491 83.6294C93.6657 83.7128 92.8803 83.5947 92.498 83.5252L91.0384 82.8996L90.6214 82.0655C90.4476 81.7528 90.1001 81.1064 90.1001 81.0229C90.1001 80.9187 89.4746 80.2932 89.3703 80.1889L89.3703 80.1889C89.2869 80.1055 88.5015 79.8761 88.1192 79.7718L86.7638 79.2506L85.0957 78.7293Z" fill="#FEBC13"/>
<path d="M33.3575 37.1291C33.3575 37.0114 33.2398 36.8937 33.2398 36.7761L31.239 35.7168L21.3526 37.1291C19.1557 37.5999 14.6911 38.5415 14.4086 38.5415C14.0555 38.5415 12.9963 39.6007 12.8786 40.0715C12.7844 40.4481 10.6424 41.4054 9.58313 41.8369L5.46381 42.4254L3.69838 43.0139C2.87452 43.7201 1.15617 45.1324 0.873703 45.1324C0.591236 45.1324 -0.185551 45.6032 -0.538635 45.8386L-1.95098 46.427L-1.00942 49.9579L-2.89254 48.4279L-2.06867 51.6056L-2.18637 52.3118C-2.34329 53.0964 -2.68069 54.6657 -2.77484 54.6657C-2.869 54.6657 -3.75563 56.9411 -4.18718 58.0789C-4.22641 58.5104 -4.30488 59.397 -4.30488 59.4912C-4.30488 59.5854 -4.06949 60.9428 -3.95179 61.6097L-3.48101 64.4344C-3.28485 65.3367 -2.89254 67.1885 -2.89254 67.3768C-2.89254 67.5651 -3.12793 70.0445 -3.24562 71.2607L-3.95179 73.6146C-4.22641 74.2031 -4.77566 75.4036 -4.77566 75.4977C-4.77566 75.5919 -5.16798 76.0077 -5.36413 76.2039C-4.93258 76.3608 -4.06949 76.6982 -4.06949 76.7924C-4.06949 76.8865 -2.65715 78.0085 -1.95098 78.5578L-0.0678558 81.5002L1.93296 84.0895C2.63913 84.6779 4.07501 85.8784 4.16916 85.9726C4.28686 86.0903 6.28767 87.1495 6.40537 87.1495C6.52306 87.1495 8.40619 87.738 8.40619 87.6203C8.40619 87.5026 11.4663 86.5611 11.584 86.5611C11.6781 86.5611 12.8786 86.0118 13.4671 85.7372L14.7617 85.8549C14.9186 84.7564 15.2325 82.5359 15.2325 82.4417C15.2325 82.324 15.5856 81.1471 15.7033 81.0294C15.821 80.9117 17.351 80.2055 17.5864 80.2055C17.7747 80.2055 21.1957 79.8917 22.8827 79.7347C23.9812 79.9701 26.1781 80.4645 26.1781 80.5586C26.1781 80.6528 26.8058 81.0686 27.1197 81.2648L27.5905 83.501L27.4728 87.2672L27.3551 90.2096C27.9436 90.1311 29.144 89.9507 29.2382 89.8565C29.3324 89.7624 30.6113 89.3465 31.239 89.1503L33.2398 87.738C33.5145 87.3065 34.0402 86.4434 33.946 86.4434C33.8283 86.4434 34.7699 85.2664 34.7699 85.1487C34.7699 85.0546 34.8483 84.0895 34.8876 83.6187C34.7306 83.1087 34.4168 82.0651 34.4168 81.9709C34.4168 81.8533 35.2406 79.9701 35.3583 79.7347C35.4525 79.5464 35.5545 78.5578 35.5937 78.087C35.5153 77.5378 35.3583 76.3922 35.3583 76.2039C35.3583 76.0156 36.6138 75.5762 37.2415 75.38C37.5945 74.9092 38.3243 73.9677 38.4184 73.9677C38.5126 73.9677 39.0854 72.32 39.36 71.4961L39.7131 68.3183L39.4777 66.906L39.9484 66.6706L41.5962 65.0229C41.7139 64.9052 42.7731 62.9044 42.7731 62.669C42.7731 62.4336 43.8324 60.3151 43.8324 60.1974C43.8324 60.1032 44.1462 58.1181 44.3032 57.1373L44.1855 51.3702L43.597 49.2517C43.8716 49.0948 44.3738 48.7103 44.1855 48.4279C43.9501 48.0748 43.2439 47.2509 43.3616 47.0155C43.4558 46.8272 43.9501 45.6816 44.1855 45.1324H42.7731L41.7139 42.8962C42.6947 42.9747 44.6562 43.108 44.6562 43.0139C44.6562 42.9197 42.8516 41.0131 41.9493 40.0715L40.1838 39.6007L40.7723 39.13H39.7131C39.6189 39.13 38.34 39.2084 37.7122 39.2476C37.1238 39.2084 35.9233 39.13 35.8291 39.13C35.7114 39.13 34.5345 38.5415 34.4168 38.5415C34.2991 38.5415 33.5929 38.3061 33.4752 38.1884C33.3575 38.0707 33.3575 37.2468 33.3575 37.1291Z" fill="#EEDAAE"/>
<path d="M35.7029 40.6802C35.9391 40.4144 36.1536 40.161 36.7123 39.4846C36.7718 39.4351 36.7126 39.1803 36.7422 39.1706C36.7718 39.1609 36.8009 39.1609 36.8305 39.1659C37.0283 39.1903 37.3022 39.2005 37.4731 39.2248C37.6451 39.2492 37.8239 39.2413 38.096 39.2836C38.253 39.308 38.4093 39.3296 38.542 39.3424C38.7944 39.3669 39.1245 39.3912 39.2924 39.4209C39.4899 39.4557 39.7468 39.4956 40.1068 39.5484C40.2732 39.5728 40.4088 39.6006 40.597 39.6318C40.7734 39.6611 40.8878 39.6975 41.0332 39.7151C41.1559 39.73 41.3112 39.7844 41.4551 39.9118C41.6267 40.0636 42.0502 39.7449 42.185 39.8376C42.3273 39.9355 42.1529 40.3755 42.323 40.4804C42.6206 40.6639 43.0677 40.9174 43.191 40.9855C43.3333 41.064 43.4794 41.1061 43.5685 41.2063C43.6863 41.3388 43.8018 41.4579 43.897 41.5741C44.01 41.7119 44.1063 41.8601 44.1618 42.011C44.2648 42.291 45.4265 42.6002 45.4805 42.78C45.5246 42.9271 44.5256 43.0373 44.8324 43.6513C45.0469 44.0806 45.4256 44.8573 45.6299 45.2657C45.8343 45.6741 45.8634 45.713 45.933 45.8675C46.0026 46.0219 46.1094 46.2841 46.2228 46.6703C46.3363 47.0565 46.4528 47.5517 46.5711 48.6846C46.6893 49.8176 46.8059 51.5362 46.8341 52.6807C46.8623 53.8251 46.8041 54.3786 46.7199 54.8404C46.6358 55.3022 46.529 55.6614 46.4155 55.9611C46.3021 56.2608 46.1918 56.4975 46.0773 56.6854C45.8719 57.0226 45.7138 57.2572 45.5478 57.4148C45.352 57.6008 45.1745 57.7665 45.0137 57.8357C44.7638 57.9433 44.4057 58.0778 44.3132 57.9231C44.2839 57.8741 44.2699 57.8123 44.2397 57.7563C44.176 57.6384 44.1085 57.5243 44.0681 57.4032C44.0288 57.2853 43.9935 57.1661 43.9209 57.0255C43.8523 56.8928 43.7837 56.7406 43.7199 56.5842C43.6658 56.4515 43.5875 56.3147 43.5089 56.1968C43.4304 56.079 43.1903 55.7882 42.8537 55.4683C42.3585 54.9976 41.9502 54.6457 41.7664 54.4792C41.5069 54.2441 41.3168 54.0832 41.178 53.9544C40.9085 53.7045 40.6714 53.5311 40.6697 53.4454C40.6651 53.2243 40.7319 52.7688 40.9604 52.3404C41.2736 51.7531 41.5465 51.4468 41.582 51.2242C41.5867 51.1946 41.5802 51.1636 41.5621 51.1359C41.4784 51.0081 41.3435 50.7906 41.1987 50.6107C40.9976 50.3608 40.8256 50.0427 40.2763 49.5316C40.1349 49.4001 39.9491 49.1819 39.5884 48.9178C39.241 48.6636 39.0569 48.5155 39.0712 48.4584C39.0859 48.3997 39.0758 48.2572 39.1557 47.8402C39.2157 47.5267 39.3078 47.0137 39.4305 46.6843C39.6941 45.9766 40.0043 45.7191 39.8604 45.6191C39.8112 45.585 39.4557 45.4746 38.7111 45.4329C38.2806 45.4087 37.7459 45.4076 37.4245 45.4333C36.9957 45.4676 36.8255 45.4683 36.5764 45.522C35.6913 45.713 35.5222 45.7923 35.2045 45.885C34.6521 46.0461 34.4665 46.1614 34.3043 46.0605C34.2802 46.0455 34.2922 46.017 34.2997 45.9868C34.329 45.8689 34.3501 45.706 34.4716 45.3733C34.545 45.1722 34.6539 44.8929 35.0558 44.1422C35.3606 43.5727 35.9235 42.5087 36.2499 41.9451C36.6246 41.2982 36.7532 41.1582 36.7662 41.0436C36.7706 41.0046 36.7417 40.9923 36.7069 40.99C36.6335 40.9852 36.4945 40.9922 36.3292 41.0196C36.1821 41.044 36.0218 41.0676 35.8534 41.1129C35.6719 41.1617 35.2133 41.3042 35.325 41.1461C35.4186 41.0137 35.5693 40.8306 35.7029 40.6802Z" fill="#FEBC13"/>
<path d="M43.3026 38.9438C44.6574 39.0481 45.2783 39.2201 45.7084 39.4039C46.0565 39.5526 46.4814 39.7425 46.967 39.9335C47.3301 40.0764 48.2121 40.6589 48.7754 41.0718C49.2548 41.4232 49.8876 42.1227 50.1998 42.5045C50.3964 42.7449 50.5653 42.9568 50.8686 43.3037C51.2665 43.7587 51.4681 44.1026 51.7898 44.4768C52.0686 44.8013 52.1979 45.1107 52.3379 45.3808C52.4303 45.5591 52.6666 46.2878 52.9705 47.2606C53.1437 47.815 53.2416 48.1509 53.3026 48.4306C53.3583 48.6863 53.398 49.0038 53.4243 49.4979C53.4453 49.8923 53.5022 50.0985 53.5285 50.4543C53.5421 50.6378 53.5721 51.0691 53.5979 51.6248C53.6241 52.1904 54.5761 52.5996 54.9699 52.8444C55.1946 52.984 55.5165 53.2429 55.8212 53.5043C56.1804 53.8126 56.4381 54.1124 56.7762 54.4072C57.5686 55.0982 57.9488 55.7618 58.3836 56.318C58.8344 56.8947 59.0446 57.2047 59.3227 57.622C59.551 57.9646 59.8265 58.5768 59.9834 58.865C60.1691 59.2062 60.3478 59.879 60.5827 60.6703C60.7372 61.191 60.7659 61.619 60.8092 62.0256C60.818 62.7231 60.8008 63.2356 60.7748 63.3396C60.7659 63.392 60.7659 63.4436 60.7659 63.4967" stroke="black" stroke-width="0.904754" stroke-linecap="round"/>
<path d="M-2.93806 31.5412C-1.94812 31.0027 -1.67132 30.899 -1.42709 30.7684C-1.18246 30.6376 -0.647496 30.5341 0.64531 30.3255C1.20918 30.2346 1.97356 30.238 2.61997 30.1947C3.59295 30.1296 4.35379 30.1337 4.89749 30.177C5.24559 30.2047 5.69455 30.238 6.28596 30.2812C7.3804 30.3613 7.79745 30.3422 8.2163 30.3855C8.56339 30.4213 8.87652 30.4809 9.19816 30.5072C9.48539 30.5507 9.72831 30.5851 10.1352 30.6459C10.3513 30.6889 10.7125 30.7749 11.0847 30.8635" stroke="black" stroke-width="0.904754" stroke-linecap="round"/>
<path d="M43.3542 39.0488C41.8404 39.0832 40.6993 39.1353 40.0659 39.2047C39.6191 39.2536 39.2897 39.3094 39.0121 39.318C38.8019 39.3245 37.9406 39.3444 36.6817 39.3011C36.1965 39.2844 36.0249 39.2406 35.4804 39.0423C34.9359 38.8439 34.0242 38.4827 33.5201 38.2708C32.9387 38.0264 32.7903 37.9197 32.4535 37.7557C32.1997 37.6322 31.7899 37.4025 30.8289 37.0035C29.8679 36.6044 28.3713 36.0368 27.5573 35.7185C26.651 35.3642 26.0353 35.0546 25.1843 34.6811C24.869 34.5428 24.7806 34.5313 24.3148 34.3934C23.0038 34.0053 22.0688 33.6972 21.8441 33.6107C21.4571 33.4616 21.1305 33.3844 20.7768 33.2549C19.4016 32.7512 18.9598 32.7245 18.4385 32.5767C17.9271 32.4317 17.5868 32.3418 16.7542 32.1424C16.3024 32.0342 15.8164 31.9425 15.414 31.8985C15.1308 31.8675 14.8239 31.8028 14.4931 31.7596C14.2671 31.73 13.9898 31.6986 13.7023 31.6467C13.4613 31.6032 13.1902 31.5078 12.9637 31.4814C12.7477 31.4563 12.4781 31.3858 12.2253 31.3339C11.9728 31.2821 11.765 31.2471 11.5562 31.1775C11.4522 31.1429 11.2958 31.1251 11.1136 31.1165C11.0346 31.1079 10.983 31.0907 10.982 30.9688" stroke="black" stroke-width="0.904754" stroke-linecap="round"/>
<path d="M34.7397 24.9317C34.7397 25.036 34.427 26.2871 34.427 26.3913L34.3227 27.3297L33.6972 30.1447L33.3844 31.917L32.9674 34.4193V35.2533C32.9674 35.3576 33.2801 36.6087 33.2801 36.7129V37.3385C33.0716 38.1031 32.5712 39.6322 32.2375 39.6322C31.8205 39.6322 17.1201 43.6983 16.3902 43.6983C15.6604 43.6983 -13.3234 46.3047 -13.3234 46.2005C-13.3234 46.0962 -12.5936 44.8451 -12.4894 44.7408L-10.4042 42.6557C-10.2999 42.5514 -7.58922 40.9875 -7.58922 40.8833C-7.58922 40.779 -6.96367 39.7364 -6.85941 39.6322C-6.75515 39.5279 -4.66998 38.1726 -4.66998 38.0683C-4.66998 37.9849 -0.777664 35.6008 1.1685 34.4193L2.00257 34.2107C2.38485 33.2029 3.17026 31.1664 3.25367 31.083C3.35793 30.9787 4.81755 28.3723 4.92181 28.1637C5.00521 27.9969 6.20766 25.6615 6.79846 24.5147L8.98789 20.7614C9.68295 19.8578 11.0731 18.0298 11.0731 17.9464C11.0731 17.863 11.9766 16.313 12.4284 15.5485C12.4979 15.0619 12.6369 14.068 12.6369 13.9846C12.6369 13.9012 12.7064 11.3781 12.7412 10.127L13.1582 8.35462L14.0966 7.20777L15.1391 7.10352L16.3902 7.93758C16.8073 8.45888 17.6622 9.54317 17.7456 9.70998C17.829 9.87679 18.6839 11.2391 19.101 11.8994L20.6648 11.7951L25.565 11.8994L26.2948 10.8568L29.1098 8.25036L29.7353 8.04184L30.1524 8.87591L29.7353 10.544C29.6658 11.0306 29.506 12.0245 29.4226 12.1079C29.3183 12.2122 29.7353 12.525 29.7353 12.6292C29.7353 12.7335 30.1524 13.5675 30.1524 13.6718C30.1524 13.7761 31.7162 15.0272 31.7162 15.1314C31.7162 15.2148 32.8283 16.1393 33.3844 16.591L33.9057 18.0507L34.2185 20.3443L34.6355 23.0551C34.6702 23.6459 34.7397 24.8483 34.7397 24.9317Z" fill="#FEBC13"/>
<path d="M13.8116 25.2837L15.0195 24.8587L15.5169 25.142L18.6433 26.2043L22.6223 25.7086L25.0382 24.8587C26.2935 24.6463 28.8183 24.2072 28.8751 24.1505C28.9461 24.0797 30.6515 24.0089 30.7225 24.0089C30.7794 24.0089 32.4515 23.82 33.2805 23.7256L33.7778 23.9381L34.5981 25.3338L34.4909 26.406C34.4672 26.6657 34.2674 26.8861 34.2765 26.9421C34.4548 28.0378 34.1805 28.2306 34.0621 28.4431C33.8489 28.8208 33.7404 29.8875 33.7404 29.9441C33.7404 30.0008 33.405 31.9399 33.0971 32.6245C32.9076 32.9314 32.9395 34.7183 32.8827 34.6616C32.8116 34.5908 32.9899 35.663 32.9899 35.7338C32.9899 35.7904 33.5122 37.2132 33.2043 37.4492L32.7755 36.9132C32.7044 37.1256 31.0096 37.5564 30.9528 37.5564C30.896 37.5564 29.7597 37.8692 29.4518 38.1997L27.8435 39.7008L26.2353 39.808L25.2704 38.843L24.8415 38.8106C24.5573 38.8342 23.3973 39.0575 23.3405 39.0575C23.2694 39.0575 22.9827 39.1647 22.9116 39.1647C22.8405 39.1647 22.6223 39.023 22.4802 39.023C22.3665 39.023 21.5751 39.6172 21.1961 39.5936L20.3384 39.808L19.4807 40.0224L17.8725 40.3441C17.4224 40.226 16.5355 40.3441 16.4786 40.3441C16.4218 40.3441 13.853 39.7332 13.0477 39.3791L13.9537 36.9692C13.4326 36.6151 12.3763 35.8927 12.3194 35.8361C12.2626 35.7794 12.0589 35.6236 11.9642 35.5528C11.8694 35.4584 11.6657 35.2695 11.6089 35.2695C11.5378 35.2695 11.3957 34.9862 11.3957 34.9154C11.3957 34.8587 11.2062 34.7029 11.1115 34.6321L10.7562 34.278C10.6378 34.1836 10.3867 33.9805 10.3299 33.9239C10.2588 33.8531 10.1167 33.5698 10.1167 33.499C10.1167 33.4423 10.0694 33.2865 10.0457 33.2157L12.7458 26.9834L13.8116 25.2837Z" fill="#EEDAAE"/>
<path d="M13.1961 30.4304C13.1764 30.0676 13.1563 29.8036 12.8233 27.1961C12.921 27.1384 12.9015 27.127 12.9018 27.1961C12.9215 27.3429 12.981 27.4806 13.0993 27.568C13.2952 27.5972 13.4709 27.5744 13.5892 27.538C13.8449 27.4595 14.1299 27.2847 14.4525 27.3718C14.7076 27.4406 14.9669 27.4817 15.3255 27.7449C15.6903 28.0126 16.0717 28.7228 16.4038 29.2561C16.6307 29.6203 17.2105 29.9327 17.6499 30.8161C17.7665 31.0503 17.7509 31.2291 17.6973 31.4437C17.5699 31.9542 17.2961 32.323 17.4922 33.4166C17.6099 34.0727 17.7127 34.4204 17.7668 34.8663C17.8253 35.3497 17.6017 35.9638 17.8065 36.6611C17.8465 36.7974 17.9246 36.8154 17.993 36.8365C18.1201 36.8756 18.979 36.9116 20.2239 36.8851C20.6924 36.8751 20.8477 36.8556 22.0258 36.8459C23.204 36.8362 25.3408 36.8054 26.4482 36.8462C27.7717 36.8951 28.0101 37.0433 29.3632 36.9439C30.0279 36.8951 30.3033 36.8768 30.7929 36.8262C31.2661 36.7774 31.8383 36.7622 32.0673 36.9054C32.303 37.0528 32.8105 36.4615 33.0768 36.8262C33.263 37.0813 33.2976 38.0021 33.2925 38.3395C33.2822 39.0148 33.2117 39.2837 33.1842 39.5441C33.1257 40.0999 32.9684 41.0001 33.0768 42.2926C33.1062 42.6433 33.2247 43.2683 33.1157 44.0877C33.0468 44.6053 33.0665 44.9481 32.87 45.1246C32.772 45.2126 32.6647 45.3154 32.5363 45.3597C32.2806 45.448 31.8857 45.4731 31.5847 45.5459C31.2602 45.6245 30.912 45.69 30.6329 45.9193C30.2009 46.2742 29.9182 46.7288 29.6819 46.9789C29.5154 47.1551 29.1445 47.3415 28.7295 47.2322C27.9789 47.0345 27.1006 46.5812 26.0966 46.5752C24.5716 46.5661 24.2804 46.524 23.7365 46.6841C23.0015 46.9003 22.622 47.1132 22.3065 47.302C22.0612 47.4488 21.8357 47.6191 21.5907 47.7824C21.355 47.9396 21.1025 48.1751 20.7174 48.3612C20.4134 48.508 20.1324 48.5491 19.8741 48.6157C19.5295 48.7046 19.1366 48.7746 18.7363 48.8905C18.4314 48.9788 18.1266 49.0813 17.725 49.1948C16.9567 49.4119 16.0364 49.9068 15.4688 50.2946C14.7229 50.8043 14.1717 51.065 13.7734 51.0085C13.4294 50.9596 12.9758 51.007 12.6347 50.8708C11.817 50.5442 10.8916 49.9789 10.6059 49.5952C10.3493 49.2507 10.2141 48.6815 8.97582 47.6321C8.52622 47.251 8.28006 47.0715 8.05574 46.8986C7.80005 46.7014 7.56002 46.4226 7.10153 46.1118C6.03227 45.3868 5.13223 45.2226 4.84884 44.8777C4.8 44.8183 4.77003 44.7398 4.78087 44.6718C4.82001 44.4264 4.86431 44.193 4.938 43.9359C5.09659 43.3824 5.25892 42.7148 5.34993 42.2881C5.40848 42.0136 5.14729 41.1054 5.69419 40.9058C5.88044 40.8378 6.14169 41.0674 6.9597 40.8567C7.11506 40.8167 7.11247 40.7386 7.12506 40.6701C7.17391 40.4047 7.19221 39.9562 7.35163 39.51C7.70471 38.5216 8.48959 37.9182 8.06604 37.718C7.81888 37.6012 7.39386 37.6423 7.08475 37.4632C7.0162 37.4235 6.96052 37.3655 6.96794 37.3061C6.99736 37.0704 7.05217 36.7106 7.33427 35.7558C7.51405 35.1473 7.84763 34.0803 8.01925 33.5052C8.21374 32.8534 8.25304 32.2795 8.64598 31.8924C8.70512 31.8342 8.76346 31.8337 8.82252 31.8442C9.09822 31.893 9.53223 31.9558 9.86295 32.0307C10.294 32.1284 11.051 32.6998 11.2356 32.0472C11.3521 31.6353 11.3721 31.2233 11.4112 30.9494C11.4309 30.8114 11.4432 30.6318 11.7302 30.6075C12.5343 30.5395 13.2025 30.5483 13.1961 30.4304Z" fill="#EEDAAE"/>
<path d="M31.9183 30.9088C31.7039 31.1232 31.2322 31.5521 31.0606 31.5521L30.8462 31.7665L29.774 32.1953L29.1307 32.6242C28.5589 32.8029 27.3938 33.1817 27.3081 33.2675C27.2008 33.3747 26.3431 32.8386 26.2359 32.8386C26.1287 32.8386 25.271 32.6242 25.1637 32.6242C25.0565 32.6242 23.8771 32.3026 23.7699 32.3026C23.6627 32.3026 22.4833 31.8737 22.3761 31.7665C22.2689 31.6593 21.7328 31.3376 21.6256 31.3376C21.5184 31.3376 20.7679 30.6943 20.6607 30.5871C20.5534 30.4799 20.2318 29.9438 20.1246 29.8366C20.0174 29.7294 19.8029 29.1933 19.6957 29.0861C19.5885 28.9789 19.8029 28.4428 19.6957 28.4428C19.5885 28.4428 19.4813 27.4778 19.4813 27.1562C19.4813 26.8989 19.7672 26.6916 19.9102 26.6201L20.7679 26.7273H21.7328C22.0902 26.8703 22.805 27.1776 22.805 27.2634C22.805 27.3492 23.8771 27.5851 24.4132 27.6923L26.2359 28.1211L27.9514 27.9067C28.3802 27.7995 29.2594 27.5851 29.3452 27.5851C29.4309 27.585 29.8812 27.4421 30.0957 27.3706L30.739 27.4778C31.0606 27.5136 31.7254 27.5636 31.8111 27.4779C31.9183 27.3706 32.1328 27.4779 32.1328 27.5851C32.1328 27.6923 32.24 28.3356 32.1328 28.3356C32.0256 28.3356 32.24 29.3005 32.24 29.4077C32.24 29.515 32.1328 30.1583 32.1328 30.2655C32.1328 30.3512 31.9898 30.7301 31.9183 30.9088Z" fill="white"/>
<path d="M13.4742 28.2521C13.2053 27.7374 12.9684 27.3708 12.805 27.0589L12.805 27.0589C12.8112 27.0836 12.8173 27.1076 12.8172 27.1103C12.811 27.095 12.7925 27.0585 12.7681 27.0222C12.7191 26.9432 12.6644 26.8649 12.6029 26.8011C12.5356 26.7312 12.4749 26.5951 12.3244 26.5284C12.2905 26.5134 12.2507 26.5071 12.2298 26.5227C12.1933 26.55 12.1777 26.6201 12.1136 26.6835C12.0095 26.7865 11.8821 26.8553 11.7343 27.0321C11.6304 27.1563 11.5631 27.233 11.5017 27.403C11.3369 27.8595 11.2833 28.0203 11.2116 28.1592C11.1472 28.2842 11.0466 28.5308 10.9792 28.6501C10.909 28.7744 10.8354 28.9746 10.6779 29.2713C10.5813 29.4533 10.4011 29.784 10.3027 29.9575C10.1935 30.1498 10.1516 30.2442 10.1017 30.3378C10.0467 30.4408 10.018 30.5103 10.004 30.6317C9.99168 30.7383 9.97756 30.8599 9.9581 30.9954C9.94287 31.1015 9.94083 31.2356 9.92141 31.4016C9.90618 31.5317 9.89858 31.6291 9.88471 31.7288C9.86325 31.8833 9.83296 31.9909 9.83582 32.0801C9.83903 32.1804 9.80501 32.3847 9.88802 32.6411C9.937 32.7923 9.98764 32.8758 10.0501 32.9831C10.1084 33.0832 10.0931 33.1411 10.0501 33.2763C10.002 33.4277 10.3741 33.7231 10.4394 33.7859C10.5406 33.8832 10.6368 33.9409 10.6779 34.0223C10.7147 34.0951 10.909 34.2586 10.9792 34.323C11.0586 34.3958 11.1682 34.3967 11.2116 34.4799C11.2576 34.5678 11.316 34.7637 11.316 34.6218C11.316 34.535 11.4811 34.8187 11.4811 34.8187C11.4811 34.8187 11.5381 34.8786 11.6095 34.8765C11.6187 34.8762 11.6242 34.8579 11.634 34.8399C11.6737 34.7671 11.7107 34.6971 11.7195 34.6218C11.7288 34.5428 11.618 34.1064 11.7809 34.1069C11.8144 34.107 11.8524 34.1062 11.891 34.1161C11.9985 34.1435 12.1926 34.1986 12.2947 34.1461C12.3834 34.1006 12.473 34.0503 12.487 33.9672C12.4993 33.8944 12.5002 33.7227 12.5299 33.5702C12.5471 33.4817 12.5641 33.4137 12.5817 33.3438L12.5849 33.3309C12.6032 33.2581 12.5797 33.1386 12.6462 33.1069C12.6586 33.101 12.6764 33.1082 12.6983 33.1131C12.8057 33.1374 13.0379 33.1751 13.4012 33.3753C13.5686 33.4676 13.8269 33.6211 13.9684 33.6956C14.163 33.7981 14.4695 34.0125 14.4685 33.8673C14.4683 33.8401 14.4335 33.7844 14.3701 33.679C14.2665 33.5065 14.1905 33.3919 14.1472 33.2763C14.0948 33.1359 13.9391 32.7512 13.8377 32.4471C13.7216 32.0987 13.6332 31.8469 13.6089 31.7668C13.5447 31.5549 13.3479 31.2006 13.4381 30.9402C13.4475 30.9132 13.4659 30.9118 13.4841 30.9163C13.5207 30.9253 13.5588 30.9243 13.5973 30.9344C13.7484 30.9743 14.0918 31.0845 14.0771 30.9978C14.0647 30.9248 14.0429 30.7978 13.9637 30.6218C13.9117 30.5063 13.7482 30.2526 13.8601 30.2373C13.9245 30.2285 14.0014 30.2412 14.1143 30.2831C14.261 30.3376 14.5703 30.4291 14.5479 30.3099C14.5417 30.2767 14.515 30.2412 14.3087 29.8484C14.1124 29.4747 13.743 28.7668 13.4742 28.2521Z" fill="#FEBC13"/>
<path d="M33.6331 23.5824V25.4408L33.4194 26.6559C33.4431 26.3938 33.2911 25.6409 32.4933 24.726C31.6955 23.8111 30.3562 24.1066 29.7864 24.3686L27.0794 24.7975C26.2721 25.0596 24.6432 25.5552 24.5862 25.4408C24.515 25.2978 20.0984 27.7281 17.249 26.6559C14.9695 25.7982 13.2123 26.4891 12.6187 26.9418C12.6187 26.2985 12.8467 24.5974 13.7585 22.9391C14.8982 20.8663 17.5339 22.5817 19.3148 24.3686C21.0957 26.1556 24.0876 24.9405 24.8711 24.2257C25.6547 23.5109 28.2904 24.0827 30.285 23.8683C31.8807 23.6968 31.7097 21.4142 31.4248 20.2944H32.2084L33.0632 21.9384L33.6331 23.5824Z" fill="#FDF1E0"/>
<path d="M19.1012 11.9248C18.7324 11.2999 18.445 10.8069 18.2955 10.5698C18.1557 10.3479 18.0031 10.1285 17.7006 9.62626C17.4691 9.24196 17.1417 8.8258 16.9297 8.55682C16.7384 8.31403 16.372 7.96309 16.1388 7.70428C15.9807 7.52882 15.8051 7.41651 15.6306 7.26261C15.5164 7.162 15.3737 7.12873 15.2197 7.06203C15.0742 6.99903 14.9017 7.00549 14.5989 7.0001C14.3829 6.99625 14.2029 7.10778 14.0795 7.17957C13.9532 7.25307 13.8437 7.39494 13.7149 7.54391C13.6093 7.66609 13.5146 7.81582 13.4273 7.95477C13.3128 8.1368 13.2268 8.31927 13.1601 8.52955C13.1008 8.7165 13.0728 8.88372 13.0367 9.02807C12.9989 9.17943 12.9699 9.36684 12.9187 9.56695C12.8814 9.71296 12.8571 9.96149 12.816 10.1883C12.7679 10.4532 12.7748 10.5891 12.7645 11.0525C12.7644 11.4651 12.7745 12.2378 12.7442 13.0172C12.7138 13.7965 12.6427 14.5591 12.5693 15.3448" stroke="black" stroke-width="0.930418" stroke-linecap="round"/>
<path d="M19.6543 11.8327C20.3254 11.8225 20.9964 11.8124 21.9268 11.8326C22.8571 11.8527 24.0264 11.9036 24.6592 11.9349C25.3535 11.9692 25.5583 11.9868 25.779 11.9715C25.8575 11.9563 25.8676 11.9258 25.8779 11.8795C25.8883 11.8333 25.8984 11.7723 25.9089 11.7095" stroke="black" stroke-width="0.930418" stroke-linecap="round"/>
<path d="M25.5693 11.7704C25.8235 11.4857 26.0777 11.201 26.4171 10.8307C26.7565 10.4603 27.1734 10.013 27.688 9.53848C28.2027 9.06399 28.8026 8.57594 29.1269 8.30928C29.5589 7.95406 29.6977 7.90889 29.7592 7.90365C29.9014 7.89153 29.9747 8.21546 30.0368 8.49275C30.0636 8.61284 30.0573 8.81873 30.0523 9.06075C30.0474 9.30277 30.0271 9.5773 29.9149 10.1508C29.8028 10.7244 29.5994 11.5886 29.4794 12.0745C29.2873 12.7662 29.2565 12.8996 29.236 12.9919C29.2257 13.0334 29.2155 13.0639 29.205 13.0953" stroke="black" stroke-width="0.930418" stroke-linecap="round"/>
<path d="M29.7603 12.6333C30.0043 13.1213 30.2483 13.6094 30.5011 13.9625C30.7539 14.3156 31.0081 14.5189 31.3526 14.7813C31.697 15.0436 32.1241 15.3588 32.3898 15.567C32.7569 15.8545 32.9837 16.1337 33.235 16.4515C33.5894 16.8999 33.7441 17.4675 33.8271 17.7678C33.8776 17.9502 33.9093 18.1786 33.9248 18.3532C33.9369 18.489 33.9709 18.6507 33.9864 18.795C33.9999 18.9203 34.0325 19.082 34.0685 19.4356C34.1286 20.0245 34.1046 20.2122 34.2425 20.6726C34.4206 21.2674 34.4638 21.383 34.4999 21.792C34.5758 22.6532 34.5359 22.8619 34.5615 23.0056C34.6013 23.229 34.6179 23.4159 34.6335 23.5707C34.6522 23.7576 34.69 24.4696 34.7156 25.0278C34.7319 25.3844 34.7106 25.686 34.6902 25.8245C34.677 25.9136 34.527 26.4418 34.3267 27.2119C34.2279 27.5919 34.2278 27.7608 34.2023 27.9403C34.1594 28.241 34.1459 28.4079 34.1303 28.5313C34.1118 28.6783 34.0128 28.9206 33.92 29.1114C33.8791 29.1781 33.7971 29.3926 33.6132 30.2799C33.4902 30.9843 33.3072 32.2044 33.1186 33.4615" stroke="black" stroke-width="0.930418" stroke-linecap="round"/>
<path d="M33.1793 32.8145C33.1082 33.4753 33.037 34.1362 33.0054 34.5682C32.9605 35.1819 33.025 35.5446 33.0712 35.8319C33.1439 36.2841 33.2718 36.8193 33.2973 36.9528C33.3026 37.0448 33.3128 37.1277 33.3282 37.1993C33.3334 37.2404 33.3282 38.1367 33.3282 38.1891" stroke="black" stroke-width="0.930418" stroke-linecap="round"/>
<path d="M12.7222 14.9438C12.4375 15.4929 12.1528 16.0419 11.9248 16.4824C11.5338 17.2378 11.336 17.6034 11.1881 17.8176C10.8608 18.2916 10.546 18.7324 10.3308 18.9884C10.1132 19.2473 9.9705 19.5029 9.81691 19.7128C9.48219 20.17 9.35397 20.366 9.20546 20.5504C8.8266 21.0208 8.72728 21.3211 8.62992 21.5212C8.50843 21.7709 8.32674 22.0812 8.06207 22.5344C7.82468 22.9409 7.35003 23.6892 7.07859 24.1429C6.73274 24.721 6.67312 24.9056 6.59671 25.0791C6.30642 25.7381 6.11944 26.0031 5.96493 26.2556C5.85535 26.4347 5.69857 26.7629 5.49845 27.0914C5.39534 27.2606 5.12456 27.6956 4.76007 28.3218C4.59981 28.5971 4.4458 28.9089 4.21995 29.3194C4.10825 29.5225 3.86131 29.9857 3.5019 30.6223C3.28761 31.0018 3.21213 31.2625 3.09428 31.5805C3.01446 31.7958 2.81282 32.3884 2.65769 32.8287C2.58048 33.0478 2.50348 33.2961 2.30382 33.8391C2.2215 34.063 2.12389 34.2814 2.02606 34.4619C1.91538 34.6662 1.84659 34.8773 1.75385 35.1395C1.71853 35.2393 1.55974 35.7061 1.34422 36.3836C1.21162 36.8005 1.03565 37.0538 0.744328 37.6771C0.549226 38.0945 0.280162 38.7274 0.118405 39.0877C-0.0433523 39.4481 -0.0840227 39.5192 -0.135477 39.5966C-0.186931 39.6739 -0.247937 39.7553 -0.310791 39.8391" stroke="black" stroke-width="0.930418" stroke-linecap="round"/>
<path d="M28.2666 22.9093C28.5767 22.8127 28.8868 22.7161 29.166 22.6486C29.4453 22.581 29.6842 22.5455 29.9802 22.522C30.2761 22.4986 30.6218 22.4885 30.9371 22.4985C31.2525 22.5085 31.527 22.539 31.7116 22.5623C31.8963 22.5857 31.9827 22.6009 32.1009 22.6316C32.5673 22.7529 32.6723 22.8526 32.7058 22.9091C32.7417 22.9694 32.7699 23.0424 32.8008 23.1195C32.8255 23.1811 32.842 23.2784 32.8344 23.3912C32.8156 23.6694 32.5496 23.936 32.4702 24.0513C32.4268 24.1049 32.3506 24.1914 32.3037 24.241C32.2568 24.2906 32.2415 24.3008 32.2258 24.3112" stroke="black" stroke-width="0.930418" stroke-linecap="round"/>
<path d="M28.5279 23.001C28.3754 23.6212 28.3172 23.9661 28.3607 24.0148C28.4558 24.0997 28.5886 24.2122 28.8581 24.3459C28.9279 24.3719 28.9889 24.3872 29.0671 24.4029" stroke="black" stroke-width="0.930418" stroke-linecap="round"/>
<path d="M28.989 24.8354C29.2432 25.0743 29.4974 25.3132 29.7046 25.4922C29.9118 25.6713 30.0643 25.7831 30.1886 25.8534C30.3941 25.9697 30.5598 25.9754 30.6827 25.9703C30.9018 25.9612 31.0575 25.8477 31.2928 25.6662C31.4357 25.556 31.6095 25.3881 31.7444 25.256C31.9717 25.0333 32.0852 24.8719 32.1416 24.7592C32.1878 24.6465 32.2138 24.5431 32.2215 24.4458C32.2242 24.3943 32.2242 24.3384 32.2242 24.2808" stroke="black" stroke-width="0.930418" stroke-linecap="round"/>
<path d="M30.7006 25.9746C30.4973 26.6253 30.3874 26.9809 30.3594 27.0447C30.2633 27.2635 30.1414 27.3401 30.0053 27.4173C29.9611 27.4424 29.8949 27.4688 29.8077 27.497C29.7495 27.5158 29.5216 27.5661 29.1957 27.6201C29.0174 27.6496 28.8939 27.664 28.783 27.6718C28.6185 27.6833 28.3553 27.8174 28.2232 27.8719C28.1882 27.8864 27.9403 27.9562 27.5427 28.046C27.3797 28.0829 27.2926 28.0901 27.0549 28.0979C26.8172 28.1056 26.4308 28.1107 26.1886 28.1083C25.8597 28.1049 25.7455 28.0852 25.6231 28.0699C25.5256 28.0578 25.3583 28.0242 25.1905 27.9856C24.8582 27.9091 24.6671 27.8439 24.593 27.8209C24.3827 27.7555 24.1958 27.7157 24.0458 27.6719C24.02 27.6643 23.9946 27.659 23.6892 27.542C23.3838 27.425 22.7992 27.1963 22.4446 27.0454C22.09 26.8945 21.9833 26.8284 21.8733 26.7603" stroke="black" stroke-width="0.930418" stroke-linecap="round"/>
<path d="M30.1138 27.3616C30.3273 27.3413 30.4525 27.3308 30.529 27.3384C30.6977 27.3553 30.9799 27.4228 31.2494 27.4921C31.4196 27.5359 31.5563 27.5311 31.8022 27.4698C31.9826 27.3824 31.8166 27.7507 31.9882 27.5972C32.1596 27.4437 31.9829 27.3773 31.9882 27.3616" stroke="black" stroke-width="0.930418" stroke-linecap="round"/>
<path d="M21.8291 26.8883C21.1327 26.817 20.9188 26.781 20.6953 26.7365C20.5618 26.7274 20.3828 26.7097 20.16 26.6829C20.0434 26.6738 19.9196 26.6738 19.792 26.6738" stroke="black" stroke-width="0.930418" stroke-linecap="round"/>
<path d="M19.4736 27.5971C20.17 28.3648 19.1484 28.0675 19.7901 29.1359C20.2823 29.9555 20.346 30.2118 20.943 30.7648C21.1977 31.0008 21.4536 31.0878 21.7573 31.3556C21.9676 31.541 22.3638 31.6593 22.704 31.8471C23.5128 32.2939 24.3838 32.4108 24.7411 32.4642C25.152 32.5255 25.4024 32.5534 25.6886 32.625C25.9795 32.6977 26.2601 32.8215 26.493 32.893C26.7093 32.9595 26.9216 33.0005 27.1363 33.045C27.3482 33.0889 27.8126 33.1077 28.1725 33.0632C28.4951 33.0234 28.7443 32.9115 28.9501 32.7333C29.1468 32.563 29.334 32.4291 29.5487 32.3487C29.7773 32.263 29.9773 32.1256 30.3161 31.9916C31.0338 31.7077 31.4064 31.447 31.7905 30.9749C32.423 30.1978 32.1226 29.6243 32.1671 29.2943C32.1939 28.6417 32.2299 28.1603 32.1856 27.7676C32.1414 27.6049 32.053 27.5164 31.9618 27.4253" stroke="black" stroke-width="0.930418" stroke-linecap="round"/>
<path d="M19.8169 26.7734C19.4985 27.0211 19.362 26.9588 19.3797 27.2799C19.4043 27.7275 19.6472 27.9956 19.8171 28.2285C19.8822 28.3177 19.8622 28.4432 19.9243 28.559C19.9688 28.6218 20.0396 28.6925 20.138 28.729C20.2363 28.7654 19.9324 29.245 20.06 29.245" stroke="black" stroke-width="0.930418" stroke-linecap="round"/>
<path d="M20.0073 29.248C20.6501 29.5156 21.0763 29.871 21.7118 30.2655C22.0257 30.3379 22.5944 30.2677 23.1329 30.2218C23.2233 30.2307 23.2763 30.2484 23.4382 30.3202" stroke="black" stroke-width="0.479519" stroke-linecap="round"/>
<path d="M23.8149 30.1592C24.1178 30.2482 24.4036 30.32 24.7775 30.3645C24.9906 30.3736 25.3621 30.3736 25.5977 30.3648C25.8333 30.3559 25.9217 30.3382 26.0129 30.2664" stroke="black" stroke-width="0.479519" stroke-linecap="round"/>
<path d="M26.4387 30.3731C26.5095 30.2846 26.5802 30.1962 26.6344 30.1241C26.6885 30.052 26.7239 29.9989 26.751 29.9273C26.7781 29.8558 26.7957 29.7673 26.814 29.6226" stroke="black" stroke-width="0.479519" stroke-linecap="round"/>
<path d="M28.5837 29.9441C29.2619 30.1586 29.5476 30.1939 29.9403 30.2033C30.0306 30.1945 30.0837 30.1768 30.1641 30.1146C30.2445 30.0524 30.3507 29.9463 30.46 29.8369" stroke="black" stroke-width="0.479519" stroke-linecap="round"/>
<path d="M30.9451 29.8374C31.1043 29.8374 31.2635 29.8374 31.3632 29.802C31.4629 29.7666 31.4983 29.6959 31.5348 29.5693" stroke="black" stroke-width="0.479519" stroke-linecap="round"/>
<path d="M23.0642 27.2104C23.0642 27.6173 23.0642 28.0242 23.0731 28.2604C23.0819 28.4965 23.0996 28.5496 23.1714 28.6579" stroke="black" stroke-width="0.479519" stroke-linecap="round"/>
<path d="M21.4551 26.6738C21.1334 28.6568 21.2749 29.1537 21.5079 29.5676C21.6712 29.8579 21.8121 29.997 21.848 30.1039C21.759 30.354 21.7231 30.6928 21.7319 30.9606C21.7408 31.0691 21.7585 31.1222 21.8839 31.1233" stroke="black" stroke-width="0.479519" stroke-linecap="round"/>
<path d="M22.9014 30.159L23.0086 29.5693" stroke="black" stroke-width="0.479519" stroke-linecap="round"/>
<path d="M30.8887 27.8525C30.9594 28.3833 31.0302 28.914 31.0578 29.2228C31.0854 29.5315 31.0677 29.6023 31.0498 29.6741C31.0318 29.746 31.0141 29.8167 30.9423 29.8896" stroke="black" stroke-width="0.479519" stroke-linecap="round"/>
<path d="M31.0515 30.2656V31.2842" stroke="black" stroke-width="0.479519" stroke-linecap="round"/>
<path d="M30.0299 15.4692C29.0296 16.2187 28.9224 16.6465 28.7441 17.1828C28.6902 17.2914 28.6372 17.3444 28.5656 17.3629C28.494 17.3814 28.4056 17.3637 28.3145 17.3455" stroke="black" stroke-width="0.479519" stroke-linecap="round"/>
<path d="M31.1046 18.1244C30.9006 18.0068 30.8239 17.9675 30.7034 17.9306C30.6693 17.9182 30.5693 17.8629 30.5128 17.8272C30.4601 17.7938 30.4056 17.8272 30.3513 17.815C30.2981 17.803 30.232 17.8265 30.1508 17.821C30.0406 17.8134 29.8941 17.8127 29.8501 17.8272C29.7337 17.8654 29.5876 17.9042 29.534 17.9244C29.4733 17.9472 29.4153 17.9852 29.3547 18.0034C29.3092 18.0171 29.2675 18.0238 29.221 18.0521C29.1784 18.078 29.1365 18.1089 29.098 18.1342C29.0446 18.1692 28.9815 18.2011 28.9445 18.2253C28.9049 18.2512 28.8618 18.2868 28.8244 18.3181C28.7772 18.3575 28.7298 18.3958 28.6816 18.4244C28.6405 18.4487 28.5912 18.4562 28.5128 18.5141C28.449 18.5612 28.4039 18.6009 28.3547 18.651C28.2758 18.7315 28.2306 18.7841 28.1984 18.8332C28.1695 18.8774 28.1466 18.9264 28.1255 18.97C28.1056 19.0111 28.0841 19.055 28.0449 19.1205C28.0176 19.1661 28.0011 19.209 27.9857 19.2542C27.966 19.3121 27.9595 19.3857 27.9493 19.432C27.9293 19.5222 27.9116 19.698 27.9129 19.8494C27.9144 20.0271 27.92 20.1537 27.922 20.1904C27.9266 20.2784 27.9294 20.4189 27.9402 20.5184C27.9448 20.5611 27.9778 20.6236 28.0041 20.6872C28.03 20.7496 28.0588 20.8024 28.1075 20.9411C28.1396 21.0326 28.1974 21.1447 28.331 21.3027C28.3642 21.342 28.4063 21.4031 28.483 21.4607C28.5437 21.5062 28.5883 21.5392 28.6379 21.573C28.7142 21.6249 28.8291 21.6922 28.8977 21.7325C28.9574 21.7677 29.0307 21.8222 29.1304 21.8572C29.2125 21.886 29.2904 21.9129 29.3567 21.9346C29.4499 21.9652 29.552 22.0034 29.6272 22.0258C29.6987 22.0471 29.7532 22.059 29.7943 22.0637C29.86 22.0713 29.9391 22.0715 30.0131 22.082C30.0665 22.0895 30.1263 22.1073 30.208 22.1063C30.3398 22.1047 30.3881 22.0962 30.4493 22.091C30.5039 22.0864 30.552 22.0756 30.6044 22.0728C30.6894 22.0682 30.741 22.0713 30.8021 22.0453C30.9264 21.9922 30.9721 21.9666 31.016 21.9542C31.0756 21.9375 31.1418 21.9125 31.1908 21.8965C31.2609 21.8736 31.3134 21.8451 31.361 21.8266C31.4438 21.7943 31.5704 21.7275 31.6162 21.6898C31.6589 21.6546 31.7214 21.6146 31.7654 21.5649C31.8748 21.4415 31.9583 21.2797 31.9884 21.2034C32.0083 21.1532 32.0623 21.0288 32.0949 20.9542C32.1207 20.895 32.1393 20.8526 32.1556 20.8098C32.1754 20.7582 32.1911 20.7085 32.2103 20.6655C32.2301 20.6214 32.2998 20.4913 32.3075 20.3935C32.3121 20.3355 32.3255 20.2753 32.3364 20.2019C32.3486 20.1198 32.3512 20.0167 32.347 19.9207C32.3424 19.816 32.3369 19.7674 32.3272 19.7188C32.3181 19.6732 32.2548 19.5233 32.2041 19.3433C32.1874 19.2841 32.1748 19.2271 32.1447 19.1654C32.0809 19.0348 32.0552 18.9778 32.0323 18.9423C32.0019 18.8951 31.977 18.8472 31.9381 18.7995C31.9046 18.7583 31.8542 18.6997 31.7933 18.6395C31.6493 18.497 31.6069 18.4546 31.5704 18.4226C31.5338 18.3907 31.4977 18.3601 31.4257 18.3069C31.3086 18.2204 31.2276 18.1953 31.1046 18.1244Z" fill="white"/>
<path d="M30.677 17.9228C30.8137 17.9623 30.8861 17.9985 31.1046 18.1244C31.2276 18.1953 31.3086 18.2204 31.4257 18.3069C31.4977 18.3601 31.5338 18.3907 31.5704 18.4226C31.6069 18.4546 31.6493 18.497 31.7933 18.6395C31.8542 18.6997 31.9046 18.7583 31.9381 18.7995C31.977 18.8472 32.0019 18.8951 32.0323 18.9423C32.0552 18.9778 32.0809 19.0348 32.1447 19.1654C32.1748 19.2271 32.1874 19.2841 32.2041 19.3433C32.2548 19.5233 32.3181 19.6732 32.3272 19.7188C32.3369 19.7674 32.3424 19.816 32.347 19.9207C32.3512 20.0167 32.3486 20.1198 32.3364 20.2019C32.3255 20.2753 32.3121 20.3355 32.3075 20.3935C32.2998 20.4913 32.2301 20.6214 32.2103 20.6655C32.1911 20.7085 32.1754 20.7582 32.1556 20.8098C32.1393 20.8526 32.1207 20.895 32.0949 20.9542C32.0623 21.0288 32.0083 21.1532 31.9884 21.2035C31.9583 21.2797 31.8748 21.4415 31.7654 21.5649C31.7214 21.6146 31.6589 21.6546 31.6162 21.6898C31.5704 21.7275 31.4438 21.7943 31.361 21.8266C31.3134 21.8451 31.2609 21.8736 31.1908 21.8965C31.1418 21.9125 31.0756 21.9375 31.016 21.9542C30.9721 21.9666 30.9264 21.9922 30.8021 22.0453C30.741 22.0713 30.6894 22.0682 30.6044 22.0728C30.552 22.0756 30.5039 22.0864 30.4493 22.091C30.3881 22.0962 30.3398 22.1047 30.208 22.1063C30.1263 22.1073 30.0665 22.0895 30.0131 22.082C29.9391 22.0715 29.86 22.0713 29.7943 22.0637C29.7532 22.059 29.6987 22.0471 29.6272 22.0258C29.552 22.0034 29.4499 21.9652 29.3567 21.9346C29.2904 21.9129 29.2125 21.886 29.1304 21.8572C29.0307 21.8222 28.9574 21.7677 28.8977 21.7325C28.8291 21.6922 28.7142 21.6249 28.6379 21.573C28.5883 21.5392 28.5437 21.5062 28.483 21.4607C28.4063 21.4031 28.3642 21.342 28.331 21.3027C28.1974 21.1447 28.1396 21.0326 28.1075 20.9411C28.0588 20.8024 28.03 20.7496 28.0041 20.6872C27.9778 20.6236 27.9448 20.5611 27.9402 20.5184C27.9294 20.4189 27.9266 20.2784 27.922 20.1904C27.92 20.1537 27.9144 20.0271 27.9129 19.8494C27.9116 19.698 27.9293 19.5222 27.9493 19.432C27.9595 19.3857 27.966 19.3121 27.9857 19.2542C28.0011 19.209 28.0176 19.1661 28.0449 19.1205C28.0841 19.055 28.1056 19.0111 28.1255 18.97C28.1466 18.9264 28.1695 18.8774 28.1984 18.8332C28.2306 18.7841 28.2758 18.7315 28.3547 18.651C28.4039 18.6009 28.449 18.5612 28.5128 18.5141C28.5912 18.4562 28.6405 18.4487 28.6816 18.4244C28.7298 18.3958 28.7772 18.3575 28.8244 18.3181C28.8618 18.2868 28.9049 18.2512 28.9445 18.2253C28.9815 18.2011 29.0446 18.1692 29.098 18.1342C29.1365 18.1089 29.1784 18.078 29.221 18.0521C29.2675 18.0238 29.3092 18.0171 29.3547 18.0034C29.4153 17.9852 29.4733 17.9472 29.534 17.9244C29.5876 17.9042 29.7337 17.8654 29.8501 17.8272C29.8941 17.8127 30.0406 17.8134 30.1508 17.821C30.232 17.8265 30.2981 17.803 30.3513 17.815C30.4056 17.8272 30.4601 17.7938 30.5128 17.8272C30.5693 17.8629 30.6693 17.9182 30.7034 17.9306" stroke="black" stroke-width="0.485291" stroke-linecap="round"/>
<path d="M29.3171 19.2552C29.5109 19.3068 29.5717 19.3371 29.7204 19.5194C29.8679 19.9991 29.9503 21.0828 29.1005 21.58C29.0729 21.6044 29.0639 21.6104 29.0485 21.6165C29.0121 21.6286 28.9631 21.6347 28.9179 21.6331C28.8723 21.6255 28.8366 21.6165 28.7903 21.6073C28.7447 21.5982 28.7089 21.5909 28.6718 21.5723C28.6322 21.5524 28.5792 21.5218 28.5213 21.4719C28.4772 21.4339 28.3996 21.3914 28.3527 21.3504C28.3162 21.3185 28.2781 21.2947 28.2524 21.2561C28.2128 21.1967 28.1771 21.1419 28.1566 21.0995C28.1125 21.0079 28.0652 20.9264 28.0382 20.8061C28.0215 20.7318 28.0097 20.6771 28.0048 20.6269C27.9972 20.5491 27.9988 20.464 28.0079 20.3929C28.0186 20.3092 27.9959 20.2189 28.1298 19.9973C28.2224 19.8442 28.3098 19.7376 28.4002 19.6391C28.4684 19.5648 28.5126 19.5158 28.5917 19.466C28.6326 19.4403 28.7496 19.3789 28.9097 19.3261C29.0525 19.2791 29.1725 19.2167 29.3171 19.2552Z" fill="black" stroke="black" stroke-width="0.485291" stroke-linecap="round"/>
<path d="M23.2282 18.7013C23.1965 18.6989 23.1036 18.6984 22.9422 18.6984C22.9172 18.694 22.894 18.6903 22.8738 18.6876C22.7845 18.6801 22.7209 18.6862 22.6524 18.6908C22.5715 18.6983 22.4865 18.7005 22.4337 18.709C22.3866 18.7166 22.3435 18.7192 22.3045 18.7272C22.268 18.7348 22.1757 18.7558 22.0932 18.782C22.031 18.8017 21.9948 18.8085 21.9382 18.8261C21.8698 18.8473 21.797 18.86 21.7133 18.8716L21.711 18.8719C21.6472 18.8808 21.6106 18.8859 21.5675 18.9081C21.5264 18.9294 21.4774 18.9526 21.4337 18.975C21.3745 19.0054 21.3298 19.025 21.291 19.0464C21.2438 19.0723 21.1204 19.1232 21.0001 19.24C20.8969 19.3402 20.8333 19.4121 20.8138 19.431C20.7636 19.4795 20.7148 19.5218 20.6725 19.557C20.6267 19.5951 20.5726 19.6327 20.5067 19.7169C20.4139 19.8355 20.3233 19.9405 20.2743 20.0131C20.2075 20.1119 20.1739 20.1715 20.1358 20.3137C20.1126 20.4002 20.0708 20.547 20.0524 20.6322C20.0191 20.7868 20.0061 20.8836 19.9979 20.9369C19.9888 20.9961 19.9816 21.0323 19.969 21.0981C19.9524 21.1849 19.9632 21.2507 19.9691 21.3107C19.9737 21.3579 19.9922 21.4058 19.9964 21.4935C20.0041 21.653 20.0247 21.7367 20.0878 21.9036C20.1229 21.9965 20.1809 22.183 20.2397 22.2939C20.2687 22.3488 20.3268 22.4318 20.3597 22.4975C20.3904 22.5587 20.434 22.6428 20.4586 22.7091C20.5087 22.8441 20.5637 22.8903 20.606 22.9291C20.679 22.996 20.7466 23.0708 20.8051 23.1038C20.8891 23.1512 20.9803 23.2281 21.1273 23.2998C21.1896 23.3302 21.2673 23.3714 21.3355 23.3864C21.4113 23.403 21.4594 23.4115 21.5071 23.4213C21.5663 23.4335 21.6037 23.4345 21.6621 23.4486C21.7124 23.4608 21.7973 23.4856 21.852 23.4957C21.9099 23.5064 21.9953 23.5151 22.0846 23.5032C22.153 23.4942 22.2018 23.48 22.2624 23.4866C22.3322 23.4942 22.3873 23.497 22.4387 23.5048C22.5086 23.5155 22.6119 23.5198 22.6817 23.5139C22.7365 23.5093 22.7798 23.5044 22.8459 23.4926C22.8884 23.4851 22.9266 23.4971 23.0618 23.4744C23.1254 23.4637 23.1618 23.4516 23.2075 23.4394C23.2531 23.4273 23.288 23.4047 23.3275 23.3938L23.3315 23.3928C23.3738 23.3811 23.4105 23.3709 23.4689 23.3498C23.5237 23.3299 23.5921 23.304 23.6619 23.2753C23.7212 23.2509 23.7724 23.2386 23.8477 23.2006C24.0007 23.1233 24.0463 23.0978 24.1118 23.0533C24.1924 22.9985 24.2461 22.9673 24.3153 22.9242C24.3715 22.8892 24.4199 22.836 24.4624 22.7891L24.4627 22.7888C24.5235 22.7219 24.5842 22.653 24.639 22.5608C24.6968 22.4635 24.7363 22.4107 24.7635 22.3497C24.7817 22.3087 24.8058 22.2452 24.8349 22.1855C24.8698 22.1141 24.9107 22.022 24.9459 21.9545C24.9976 21.8554 25.0448 21.7747 25.0659 21.6977C25.0917 21.6032 25.1014 21.5182 25.1129 21.4592C25.1251 21.397 25.1399 21.3493 25.157 21.2967C25.1769 21.2356 25.2189 21.1697 25.2208 21.0165C25.2223 20.8973 25.2223 20.6777 25.2208 20.557C25.2192 20.4363 25.2165 20.4152 25.2147 20.3954C25.207 20.3116 25.2 20.2161 25.1629 20.1431C25.1189 20.0567 25.0474 19.8882 24.9866 19.7738C24.9366 19.6798 24.912 19.6156 24.8787 19.5657C24.8208 19.479 24.7697 19.4213 24.7405 19.3896C24.7053 19.3515 24.6619 19.3013 24.5095 19.2095C24.42 19.1555 24.2692 19.0687 24.1897 19.0215C24.1008 18.9688 23.992 18.9152 23.8327 18.8622C23.7603 18.8381 23.6737 18.7978 23.5346 18.7604C23.4165 18.7286 23.3099 18.7076 23.2282 18.7013Z" fill="white"/>
<path d="M21.3171 20.012C21.5109 20.0636 21.5717 20.094 21.7204 20.2762C21.8679 20.7559 21.9503 21.8396 21.1005 22.3368C21.0729 22.3612 21.0639 22.3672 21.0485 22.3734C21.0121 22.3855 20.9631 22.3915 20.9179 22.39C20.8723 22.3824 20.8366 22.3733 20.7903 22.3641C20.7447 22.355 20.7089 22.3478 20.6718 22.3291C20.6322 22.3093 20.5792 22.2786 20.5213 22.2288C20.4772 22.1907 20.3996 22.1482 20.3527 22.1072C20.3162 22.0753 20.2781 22.0515 20.2524 22.0129C20.2128 21.9535 20.1771 21.8988 20.1566 21.8563C20.1125 21.7648 20.0652 21.6832 20.0382 21.5629C20.0215 21.4887 20.0097 21.4339 20.0048 21.3838C19.9972 21.306 19.9988 21.2208 20.0079 21.1497C20.0186 21.066 19.9959 20.9757 20.1298 20.7541C20.2224 20.601 20.3098 20.4944 20.4002 20.3959C20.4684 20.3216 20.5126 20.2726 20.5917 20.2228C20.6326 20.1971 20.7496 20.1358 20.9097 20.083C21.0525 20.0359 21.1725 19.9735 21.3171 20.012Z" fill="black" stroke="black" stroke-width="0.485291" stroke-linecap="round"/>
<path d="M21.3429 20.34C21.3306 20.3058 21.2858 20.2713 21.2081 20.2324C21.1637 20.2374 21.0903 20.2423 21.0755 20.2472C21.0461 20.257 21.0165 20.2718 20.9922 20.2939C20.9776 20.3208 20.9539 20.3982 20.9777 20.4928C20.9924 20.5514 21.0151 20.6023 21.0613 20.6224C21.1004 20.6395 21.1472 20.6563 21.1887 20.6419C21.2525 20.6196 21.3572 20.5729 21.3651 20.4895C21.3699 20.4381 21.3587 20.3844 21.3429 20.34Z" fill="white" stroke="white" stroke-width="0.452377" stroke-linecap="round"/>
<path d="M22.8153 18.6983C23.056 18.6983 23.189 18.6983 23.2282 18.7013C23.3099 18.7076 23.4165 18.7286 23.5346 18.7604C23.6737 18.7978 23.7603 18.8381 23.8327 18.8622C23.992 18.9152 24.1008 18.9688 24.1897 19.0215C24.2692 19.0687 24.42 19.1555 24.5095 19.2095C24.6619 19.3013 24.7053 19.3515 24.7405 19.3896C24.7697 19.4213 24.8208 19.479 24.8787 19.5657C24.912 19.6156 24.9366 19.6798 24.9866 19.7738C25.0474 19.8882 25.1189 20.0567 25.1629 20.1431C25.2 20.2161 25.207 20.3116 25.2147 20.3954C25.2165 20.4152 25.2192 20.4363 25.2208 20.557C25.2223 20.6777 25.2223 20.8973 25.2208 21.0165C25.2189 21.1697 25.1769 21.2356 25.157 21.2967C25.1399 21.3493 25.1251 21.397 25.1129 21.4592C25.1014 21.5182 25.0917 21.6032 25.0659 21.6977C25.0448 21.7747 24.9976 21.8554 24.9459 21.9545C24.9107 22.022 24.8698 22.1141 24.8349 22.1855C24.8058 22.2452 24.7817 22.3087 24.7635 22.3497C24.7363 22.4107 24.6968 22.4635 24.639 22.5608C24.5842 22.653 24.5235 22.7219 24.4627 22.7888C24.4201 22.8358 24.3716 22.8891 24.3153 22.9242C24.2461 22.9673 24.1924 22.9985 24.1118 23.0533C24.0463 23.0978 24.0007 23.1233 23.8477 23.2006C23.7724 23.2386 23.7212 23.2509 23.6619 23.2753C23.5921 23.304 23.5237 23.3299 23.4689 23.3498C23.4087 23.3716 23.3716 23.3817 23.3275 23.3938C23.288 23.4047 23.2531 23.4273 23.2075 23.4394C23.1618 23.4516 23.1254 23.4637 23.0618 23.4744C22.9266 23.4971 22.8884 23.4851 22.8459 23.4926C22.7798 23.5044 22.7365 23.5093 22.6817 23.5139C22.6119 23.5198 22.5086 23.5155 22.4387 23.5048C22.3873 23.497 22.3322 23.4942 22.2624 23.4866C22.2018 23.48 22.153 23.4942 22.0846 23.5032C21.9953 23.5151 21.9099 23.5064 21.852 23.4957C21.7973 23.4856 21.7124 23.4608 21.6621 23.4486C21.6037 23.4345 21.5663 23.4335 21.5071 23.4213C21.4594 23.4115 21.4113 23.403 21.3355 23.3864C21.2673 23.3714 21.1896 23.3302 21.1273 23.2998C20.9803 23.2281 20.8891 23.1512 20.8051 23.1038C20.7466 23.0708 20.679 22.996 20.606 22.9291C20.5637 22.8903 20.5087 22.8441 20.4586 22.7091C20.434 22.6428 20.3904 22.5587 20.3597 22.4975C20.3268 22.4318 20.2687 22.3488 20.2397 22.2939C20.1809 22.183 20.1229 21.9965 20.0878 21.9036C20.0247 21.7367 20.0041 21.653 19.9964 21.4935C19.9922 21.4058 19.9737 21.3579 19.9691 21.3107C19.9632 21.2507 19.9524 21.1849 19.969 21.0981C19.9816 21.0323 19.9888 20.9961 19.9979 20.9369C20.0061 20.8836 20.0191 20.7868 20.0524 20.6322C20.0708 20.547 20.1126 20.4002 20.1358 20.3137C20.1739 20.1715 20.2075 20.1119 20.2743 20.0131C20.3233 19.9405 20.4139 19.8355 20.5067 19.7169C20.5726 19.6327 20.6267 19.5951 20.6725 19.557C20.7148 19.5218 20.7636 19.4795 20.8138 19.431C20.8333 19.4121 20.8969 19.3402 21.0001 19.24C21.1204 19.1232 21.2438 19.0723 21.291 19.0464C21.3298 19.025 21.3745 19.0054 21.4337 18.975C21.4774 18.9526 21.5264 18.9294 21.5675 18.9081C21.6111 18.8856 21.648 18.8807 21.7133 18.8716C21.797 18.86 21.8698 18.8473 21.9382 18.8261C21.9948 18.8085 22.031 18.8017 22.0932 18.782C22.1757 18.7558 22.268 18.7348 22.3045 18.7272C22.3435 18.7192 22.3866 18.7166 22.4337 18.709C22.4865 18.7005 22.5715 18.6983 22.6524 18.6908C22.7209 18.6862 22.7845 18.6801 22.8738 18.6876C22.93 18.6951 23.0082 18.7102 23.0888 18.7257" stroke="black" stroke-width="0.485291" stroke-linecap="round"/>
<path d="M32.8826 23.1902C32.8826 23.2759 32.7396 23.5833 32.6681 23.7263L32.2393 24.1551C32.2035 24.3695 32.1321 24.8199 32.1321 24.9056C32.1321 24.9914 31.7747 25.2988 31.596 25.4417L30.9527 25.9778C30.7382 25.9778 30.3094 25.9563 30.3094 25.8706C30.3094 25.7634 29.7733 25.5489 29.6661 25.4417C29.5589 25.3345 29.13 24.9056 29.0228 24.9056C28.9156 24.9056 28.9156 24.3695 28.8084 24.3695C28.7011 24.3695 28.4867 23.9407 28.3795 23.9407C28.2723 23.9407 28.4867 22.9757 28.5939 22.8685C28.7011 22.7613 29.13 22.5469 29.2372 22.5469H31.7032L32.5609 22.7613C32.6681 22.8685 32.8826 23.1044 32.8826 23.1902Z" fill="black"/>
<path d="M-0.948166 41.3076C0.50831 41.7154 1.96478 42.1232 2.76364 42.343C3.56249 42.5628 3.65959 42.5823 4.44756 42.6408C5.23553 42.6994 6.71143 42.7965 7.51057 42.8562C8.6241 42.9394 9.24893 42.9942 10.1608 43.0239C10.7243 43.0423 11.1909 43.1119 11.5363 43.1807C11.8361 43.2405 12.309 43.2884 12.8987 43.3181C13.3328 43.34 13.8014 43.4061 14.3401 43.475C14.8386 43.5387 15.2714 43.5827 15.7428 43.6221C16.5323 43.6881 16.7638 43.7592 17.2136 43.8378C18.069 43.9871 18.9741 43.9169 19.7641 43.7895C20.7886 43.6243 22.2166 43.798 22.5405 43.9843C22.9263 44.2061 23.0793 44.8926 23.189 45.396C23.2182 45.64 23.2576 45.8383 23.287 45.9945C23.297 46.0925 23.297 46.2284 23.2382 46.4274" stroke="black" stroke-width="0.678565" stroke-linecap="round"/>
<path d="M40.4175 39.5425C38.5532 40.0862 37.4957 40.4052 37.1641 40.5126C35.9452 40.9074 35.3189 41.3067 35.1121 41.5521C35.0047 41.6987 34.9252 41.8564 34.8764 42.0032C34.847 42.0723 34.8081 42.1306 34.7093 42.2495" stroke="black" stroke-width="0.678565" stroke-linecap="round"/>
<path d="M32.8284 42.6616C31.7991 42.8752 30.7699 43.0889 30.0066 43.228C29.2434 43.3672 28.7773 43.4255 28.2362 43.5429C26.3456 43.9531 26.0232 44.2305 25.7676 44.4165C25.5339 44.5864 25.2971 44.8955 25.1688 45.2986C25.1394 45.3874 25.1005 45.4651 25.0611 45.5343C25.0217 45.6034 24.9828 45.6617 24.884 45.7217" stroke="black" stroke-width="0.678565" stroke-linecap="round"/>
<path d="M33.3079 61.3486L33.5834 60.6597L33.4457 58.731V55.9154C33.4457 55.8379 33.1701 54.7358 33.1701 54.598C33.1701 54.4878 33.0783 54.2765 33.0324 54.1847L32.2058 53.9092L30.0015 53.7714C29.0371 53.9092 27.1084 54.1571 27.1084 54.0469C27.1084 53.9092 27.2461 53.3581 27.3839 53.3581C27.4941 53.3581 28.0727 53.0826 28.3483 52.9448L29.7259 51.8426C29.8178 51.613 30.0015 51.1814 30.0015 51.2916C30.0015 51.4018 30.3689 51.3375 30.5526 51.2915L31.8255 50.1343L31.7925 50.1894L32.068 49.9138L31.8255 50.1343L33.0324 48.1229C33.0783 48.2147 33.1977 48.3984 33.3079 48.3984C33.4457 48.3984 33.9967 47.9851 34.1345 47.9851C34.2447 47.9851 34.9152 46.6074 35.2366 45.9186L35.5122 45.2298L35.3744 44.6787L35.0989 44.5409L34.41 44.6787L34.6856 44.1276L35.0989 42.75L34.9611 41.6478L35.6499 41.9234L36.0632 41.3723V40.5457C36.0632 40.4355 35.9714 38.571 35.9255 37.6526L35.5122 37.2393L35.2394 37.0126L35.2026 36.9194C35.2146 36.8953 35.2245 36.8776 35.2327 36.8652L35.2809 36.8934C35.293 36.9467 35.31 37.0231 35.3744 37.0326L35.282 36.894L35.2809 36.8934C35.2704 36.8471 35.2636 36.8182 35.2327 36.8652L35.1658 36.826L35.2026 36.9194C35.2026 36.9194 35.2026 36.9194 35.2026 36.9194C35.0924 37.1398 35.1676 36.848 35.1217 36.8939C35.1217 36.8939 34.9611 36.7158 34.9611 36.826L34.8233 37.2393L34.6856 37.6526V38.0659C34.6856 38.2955 34.7131 38.7548 34.8233 38.7548C34.9611 38.7548 34.9611 38.8925 34.9611 39.0303C34.9611 39.1405 34.8693 39.811 34.8233 40.1324V40.8213H34.5478L33.7212 40.959L33.4457 40.8213L33.3079 40.2702L33.0324 38.4792V37.9282V37.5149L32.3435 37.9282C32.2058 38.2037 31.9302 38.7823 31.9302 38.8925C31.9302 39.0027 31.8384 39.3058 31.7925 39.4436L31.9302 41.0968L32.068 41.6479L32.4813 41.9234C32.5272 42.0152 32.6466 42.1989 32.7568 42.1989H33.1701L33.3079 42.6122L33.1701 43.5766L32.8946 44.541L33.1701 45.092H33.5834H33.9967L33.5834 45.9186C33.4457 46.0564 33.1701 46.3595 33.1701 46.4697C33.1701 46.5799 33.0783 46.5156 33.0324 46.4697L32.7568 46.0564L33.0324 45.3676C32.9405 45.092 32.7568 44.5685 32.7568 44.6787C32.7568 44.789 32.2976 44.9084 32.068 44.9543L31.5169 45.092L30.9659 45.9186L30.6903 46.883C30.7211 47.0063 30.7851 47.2125 30.8571 47.3346C30.7289 47.2727 30.5526 47.2184 30.5526 47.2963C30.5526 47.4341 30.1392 47.7096 30.1392 47.8474C30.1392 47.9576 29.2208 48.9036 28.7616 49.3628L26.9706 51.1538L26.5573 51.8426L25.7307 51.4293L24.6286 51.2916L23.5264 51.1538H22.5621L21.8732 50.6027L17.878 48.9495H16.9136C16.8218 49.1332 16.6381 49.473 16.6381 49.3628C16.6381 49.2526 16.3625 48.7658 16.2248 48.5362L15.5359 48.2607L14.7093 48.1229L14.296 47.4341C13.8368 47.1126 12.9963 46.4099 12.9184 46.332C12.5051 45.9186 11.7244 45.3676 11.1274 44.9543L9.8875 44.541C9.65788 44.3114 9.19866 43.8246 9.19866 43.7144C9.19866 43.5766 8.09653 43.4388 8.09653 43.3011C8.09653 43.1909 7.54546 42.7959 7.26992 42.6122C7.13216 42.5663 6.82907 42.4469 6.71885 42.3367C6.60864 42.2265 6.21371 41.4642 6.03002 41.0968L5.06565 40.1324L4.23905 39.7191L4.10128 39.0303C3.34451 38.318 1.88004 36.9153 1.89144 36.8301C1.90797 36.8274 1.91092 36.826 1.89701 36.826C1.89363 36.826 1.8918 36.8274 1.89144 36.8301C1.74421 36.8538 0.519337 36.9777 0.519337 37.1016C0.519337 37.2393 1.07041 38.4792 1.07041 38.617C1.07041 38.7548 1.75924 39.4436 1.89701 39.5814L2.86138 40.5457C2.86138 40.7294 2.88893 41.0968 2.99914 41.0968C3.13691 41.0968 3.55021 41.6479 3.55021 41.7856C3.55021 41.9234 4.51458 42.4745 4.51458 42.6122C4.51458 42.7225 5.34118 43.3011 5.75448 43.5766L6.03002 43.8521L6.44332 44.6787L8.37206 46.1942C8.32614 46.5156 8.26184 47.1586 8.37206 47.1586C8.48227 47.1586 8.78536 47.7096 8.92313 47.9852L10.5763 49.0873L12.5051 50.3272L12.9184 50.465H13.745L14.4338 50.8783L15.5359 51.4293L15.8115 52.1182L17.0514 53.0825L18.4291 53.7714L19.5312 54.0469L21.0466 53.4958C21.3681 53.5877 22.0385 53.7714 22.1488 53.7714C22.259 53.7714 23.8479 53.8632 24.6286 53.9091L25.3174 53.3581L25.4552 54.0469C25.0878 54.1387 24.3255 54.3224 24.2153 54.3224H23.3887L22.6998 54.598C22.2406 54.6439 21.2946 54.7357 21.1844 54.7357C21.0466 54.7357 19.3934 54.8735 19.3934 55.0113C19.3934 55.149 18.4291 55.149 18.4291 55.2868C18.4291 55.397 17.878 55.792 17.6024 55.9756L17.3269 56.8022L17.1891 58.4555C17.281 59.0065 17.4647 60.1362 17.4647 60.2464C17.4647 60.3842 17.6025 62.4507 17.7402 62.5885C17.8504 62.6987 18.1535 63.1855 18.2913 63.4151C18.4015 63.4151 19.1638 63.5069 19.5312 63.5528H20.22C21.1844 63.4151 23.1407 63.1395 23.2509 63.1395C23.3887 63.1395 26.4195 62.864 26.5573 62.864C26.6951 62.864 29.7259 62.5885 29.8637 62.5885C29.9739 62.5885 31.9302 62.1293 32.8946 61.8996L33.3079 61.3486Z" fill="#FFEF3F"/>
<path d="M2.75409 30.5391L3.10718 31.0098C3.02871 31.2452 2.87179 31.6925 2.87179 31.5983C2.87179 31.5042 2.47947 31.7945 2.28331 31.9514L1.69484 32.3045C1.57714 32.5399 1.34175 33.0342 1.34175 33.1284C1.34175 33.246 1.22406 33.7168 1.10636 33.8934C1.01221 34.0346 0.910204 34.5407 0.870972 34.7761L0.635582 35.3646L1.10636 36.0707L0.870972 36.6592L0.517887 37.3654C0.36096 37.2477 0.0235679 36.9888 -0.0705881 36.8946C-0.188283 36.7769 -0.305978 36.4238 -0.305978 36.3061C-0.305978 36.1884 -0.423673 35.3646 -0.305978 35.1292C-0.188283 34.8938 -0.0705881 34.423 -0.0705881 34.3053C-0.0705881 34.1876 0.0471067 33.4814 0.0471067 33.3637C0.0471067 33.2696 0.204034 32.5399 0.282497 32.1868L1.10636 31.2452L1.57714 30.6568L2.75409 30.5391Z" fill="#FFEF3F"/>
<path d="M33.8275 37.6C33.7098 37.6 33.4744 37.3646 33.4744 37.2469L33.239 37.0115C33.1213 36.8938 33.1213 36.3054 33.0036 36.07C32.9095 35.8817 32.9644 35.3638 33.0036 35.1284C33.239 35.2853 33.7098 35.6227 33.7098 35.7169C33.7098 35.811 34.1806 36.2269 34.416 36.4231L34.6514 36.8938L34.2983 37.3646C34.1806 37.4431 33.9217 37.6 33.8275 37.6Z" fill="#F5C707"/>
<path d="M6.05029 42.4262L5.8926 42.4344V42.5722L5.8149 42.6616L4.87334 41.8377L3.96386 40.7785L3.69639 40.4254L3.96386 40.3679L4.16717 39.8369C4.76416 40.2043 5.46182 41.2567 5.46182 41.3669C5.46182 41.4772 5.91253 42.2884 6.05029 42.4262Z" fill="#FEBC13"/>
<path d="M6.58691 42.3986C7.08385 43.0271 7.43484 43.4459 7.5934 43.6117C7.69535 43.7184 7.74553 43.8009 7.81175 43.8744C7.89924 43.9715 8.12775 44.2347 8.42294 44.5446C8.58333 44.713 8.65347 44.7898 8.82288 44.9704C8.93952 45.0948 9.0667 45.2181 9.15539 45.2956C9.2418 45.3711 9.35458 45.4174 9.56075 45.5867C9.79419 45.7784 10.069 45.9697 10.2771 46.1663C10.4945 46.3714 10.5283 46.5096 10.5913 46.6095C10.6223 46.6587 10.6173 46.7459 10.61 46.8344C10.5991 46.9661 10.3896 47.1438 10.2633 47.2261C10.1791 47.2809 10.0495 47.2705 9.9423 47.2375C9.75719 47.1805 9.64335 47.0641 9.49952 46.9866C9.33484 46.8979 9.13402 46.7687 9.00857 46.684C8.88947 46.6036 8.73541 46.5251 8.44454 46.2897C8.29904 46.172 8.18179 46.0676 8.01227 45.9424C7.84379 45.8179 7.63658 45.5964 7.4034 45.3999C7.19905 45.2278 7.11883 45.145 7.03014 45.082C6.8571 44.9591 6.59489 44.7021 6.47309 44.6063C6.23678 44.4202 6.15199 44.2818 6.09253 44.1706C6.04028 44.0728 5.98192 43.9935 5.94482 43.8864C5.90197 43.7628 5.90795 43.5803 5.90408 42.8408C5.90327 42.6867 5.91504 42.6648 5.92977 42.6426C6.00224 42.533 6.19495 42.5169 6.36846 42.4653C6.46778 42.4358 6.5424 42.4062 6.57927 42.3731C6.59422 42.3546 6.60153 42.3326 6.60906 42.3101" stroke="black" stroke-width="0.814278" stroke-linecap="round"/>
<path d="M9.6201 44.6132C9.63472 44.6205 9.64933 44.6278 9.65686 44.6097C9.71191 44.4769 9.61302 44.3333 9.53916 44.2187C9.47293 44.1159 9.30387 43.8474 9.14443 43.6467C9.06456 43.5462 8.94158 43.4621 8.83806 43.3991C8.70728 43.3195 8.52836 43.3142 8.40623 43.303C8.38021 43.2994 8.35829 43.2921 8.33238 43.2883C8.30647 43.2845 8.27724 43.2845 8.22497 43.2402" stroke="black" stroke-width="0.814278" stroke-linecap="round"/>
<path d="M5.9663 42.8193C5.13985 42.0593 5.03665 41.9854 4.92958 41.897C4.83826 41.8216 4.73416 41.7347 4.65266 41.6423C4.56056 41.538 4.46133 41.3445 4.35371 41.2031C4.26652 41.0885 3.98256 40.8134 3.81492 40.6752C3.7066 40.5858 3.5091 40.5313 3.33914 40.4795C3.28916 40.4643 3.22166 40.472 3.17316 40.4866C3.12467 40.5012 3.09543 40.5304 3.07672 40.5601C2.99884 40.6836 3.02103 40.848 3.04306 40.9808C3.0744 41.1696 3.19774 41.3719 3.25333 41.4791C3.34146 41.6491 3.46348 41.7705 3.55583 41.8668C3.65546 41.9706 3.7806 42.0952 4.00924 42.2614C4.20386 42.4029 4.37807 42.5381 4.58158 42.6786C4.74092 42.7886 4.93213 42.9221 5.06522 43.022C5.21286 43.1327 5.32365 43.1807 5.43072 43.2399C5.54453 43.3027 5.71429 43.4314 5.89189 43.5387C5.95832 43.5647 6.03229 43.5796 6.10968 43.576C6.14323 43.5652 6.16516 43.5359 6.18774 43.5058" stroke="black" stroke-width="0.814278" stroke-linecap="round"/>
<path d="M34.5105 41.3032C34.826 41.6187 34.8835 41.699 34.9322 41.7963C35.0391 42.0103 35.0385 42.1123 35.0472 42.1841C35.0608 42.2959 35.0502 42.4336 35.0415 42.5598C35.0246 42.8056 35.0158 43.1283 35.0071 43.1973C34.9967 43.2794 34.9641 43.3807 34.924 43.507C34.8854 43.6284 34.8494 43.7534 34.8063 43.8517C34.7737 43.9259 34.7289 44.0179 34.6972 44.0956C34.6627 44.1802 34.6256 44.2704 34.5967 44.3511C34.5728 44.418 34.5567 44.4887 34.525 44.5577C34.4923 44.629 34.4534 44.6954 34.3902 44.7615C34.3559 44.7874 34.3213 44.8047 34.2869 44.8134C34.2696 44.8163 34.2526 44.8163 34.235 44.8163" stroke="black" stroke-width="0.814278" stroke-linecap="round"/>
<path d="M34.116 44.9015C33.8407 45.0105 33.681 45.0447 33.5223 45.0593C33.4436 45.0665 33.3531 45.085 33.2153 45.0852C33.1276 45.0853 33.0659 45.0165 32.9969 44.9677C32.9254 44.917 32.9278 44.742 32.9449 44.6005C32.9607 44.47 32.9794 44.3797 32.9966 44.2876C33.0199 44.1621 33.0252 44.0924 33.0454 43.9806C33.0593 43.9036 33.0769 43.8114 33.0856 43.7279C33.0956 43.6316 33.1172 43.53 33.1515 43.4095C33.2033 43.2273 33.2319 43.0881 33.2549 42.9645C33.2695 42.8862 33.2836 42.7953 33.3037 42.6947C33.3235 42.5956 33.3239 42.4912 33.3096 42.4047C33.2982 42.3361 33.2894 42.2329 33.2751 42.1264C33.2617 42.0263 33.255 41.8434 33.2864 41.6987C33.3055 41.6107 33.3466 41.5437 33.3897 41.4719C33.4356 41.3955 33.4558 41.3199 33.4959 41.2509C33.5392 41.1764 33.6049 41.1132 33.6652 41.03C33.7181 40.9568 33.7885 40.9121 33.8574 40.8891C33.9321 40.8718 34.0464 40.8604 34.4959 40.8745C34.6034 40.8831 34.6602 40.8945 34.7188 40.9062" stroke="black" stroke-width="0.814278" stroke-linecap="round"/>
<path d="M8.09619 43.2484C7.9257 43.0665 7.76968 42.9274 7.58396 42.813C7.30769 42.6429 7.08068 42.5425 6.98329 42.5081C6.83889 42.4572 6.7478 42.4448 6.66712 42.4361C6.64968 42.4343 6.63276 42.4276 6.61261 42.4247C6.59246 42.4218 6.56973 42.4218 6.55802 42.4445C6.54631 42.4672 6.54631 42.5127 6.54631 42.5423" stroke="black" stroke-width="0.814278" stroke-linecap="round"/>
<path d="M6.71729 42.4575C6.46517 41.8899 6.3615 41.7174 6.31569 41.6256C6.30073 41.5956 6.27574 41.5627 6.18731 41.4088C6.09888 41.2548 5.94545 40.982 5.85788 40.8301C5.7299 40.6082 5.59311 40.4895 5.49486 40.3941C5.43176 40.3328 5.35718 40.2594 5.26246 40.1703C5.19406 40.106 5.12194 40.0524 5.03282 40.0323C4.95524 40.018 4.89204 39.9892 4.85485 39.9721C4.8347 39.9607 4.81197 39.9436 4.7541 39.8916" stroke="black" stroke-width="0.814278" stroke-linecap="round"/>
<path d="M4.3755 39.8037C4.43853 40.0675 4.51844 40.1705 4.59912 40.2369C4.66989 40.2951 4.79362 40.4113 4.86328 40.5095C4.92499 40.5965 5.04057 40.7784 5.13296 40.9341C5.25516 41.14 5.44871 41.4335 5.56581 41.5822C5.7654 41.8356 5.92504 42.0421 5.99091 42.1136C6.10752 42.2403 6.24569 42.4313 6.35849 42.5473C6.37863 42.5646 6.40137 42.5873 6.41876 42.6075C6.43615 42.6278 6.44752 42.6448 6.45923 42.6796" stroke="black" stroke-width="0.814278" stroke-linecap="round"/>
<path d="M4.16748 39.5122C4.03109 39.9782 3.89832 40.258 3.79508 40.3211C3.68923 40.3858 3.56509 40.4132 3.4876 40.4306C3.36252 40.4586 3.20414 40.4765 3.10004 40.4965C3.06102 40.504 3.03107 40.5339 2.99388 40.5368C2.90289 40.544 2.84182 40.4424 2.76432 40.3792C2.64617 40.2829 2.60072 40.2127 2.40312 40.0238C2.281 39.9071 2.16435 39.7708 2.07282 39.682C1.84604 39.4621 1.7631 39.3293 1.66796 39.2198C1.5173 39.0466 1.4297 38.9501 1.36358 38.8753C1.27884 38.7794 1.16554 38.6515 1.06815 38.5054C0.955282 38.3362 0.930299 38.2213 0.895599 38.1291C0.860242 38.0351 0.849706 37.9513 0.815264 37.8336C0.793189 37.7581 0.769456 37.6416 0.740611 37.5321C0.71647 37.4404 0.683352 37.3485 0.648824 37.268C0.597075 37.1703 0.585537 37.113 0.588379 37.07C0.59122 37.0498 0.596903 37.0327 0.602758 37.0151" stroke="black" stroke-width="0.814278" stroke-linecap="round"/>
<path d="M35.0116 38.7894C34.9599 39.6325 34.9486 39.8391 34.9399 39.9742C34.936 40.0349 34.9255 40.1262 34.9226 40.2437C34.9202 40.3444 34.9083 40.5841 34.9054 40.8911C34.9037 41.0806 34.8625 41.1596 34.8423 41.2885C34.8181 41.4433 34.8507 41.5618 34.8736 41.5961C34.919 41.6641 34.994 41.7052 35.063 41.7512C35.1385 41.8015 35.2293 41.8488 35.3756 41.8518C35.4615 41.8536 35.5392 41.8089 35.6284 41.8002C35.7026 41.7929 35.769 41.7458 35.8379 41.6999C35.9059 41.6545 35.947 41.5454 35.9759 41.456C36.0072 41.3591 36.0045 41.2296 36.0247 40.9893C36.0509 40.6772 36.0333 40.4429 36.0419 40.3657C36.0524 40.2719 36.0505 40.1789 36.0591 39.8629C36.0667 39.5868 36.0621 39.0752 36.0592 38.8004C36.0557 38.4621 36.0335 38.3709 36.0248 38.1759C36.0204 38.0768 35.999 37.9748 35.9589 37.857C35.9187 37.739 35.8957 37.6704 35.8556 37.5985C35.8039 37.5152 35.7352 37.4351 35.6805 37.3546C35.6662 37.3316 35.6491 37.3032 35.6315 37.2739" stroke="black" stroke-width="0.814278" stroke-linecap="round"/>
<path d="M34.8736 38.7371C34.782 38.1752 34.7245 37.9915 34.7044 37.871C34.6598 37.6044 34.73 37.4979 34.753 37.4057C34.7827 37.2867 34.7989 37.1704 34.8191 37.0871C34.8279 37.0508 34.8334 37.0152 34.8563 36.9809C34.8678 36.9635 34.8792 36.9465 34.9163 36.9377C35.0925 36.896 35.1661 36.9575 35.2578 37.0004C35.2978 37.0261 35.3603 37.0715 35.4152 37.1205C35.4702 37.1695 35.5156 37.2207 35.5969 37.2906" stroke="black" stroke-width="0.814278" stroke-linecap="round"/>
<path d="M33.5112 40.9077C33.4942 40.8848 33.4027 40.8164 33.2878 40.653C33.1498 40.4568 33.1727 40.3056 33.164 40.0476C33.1581 39.8748 33.1382 39.6681 33.1295 39.5706C33.1218 39.4835 33.1038 39.3926 33.0951 39.2379C33.087 39.094 33.0693 38.899 33.0606 38.7128C33.0527 38.5427 33.0349 38.3941 33.0262 38.3076C33.0118 38.1988 33.0005 38.0494 33.0031 37.5573C33.0117 37.4578 33.0287 37.4521 33.0463 37.4463" stroke="black" stroke-width="0.814278" stroke-linecap="round"/>
<path d="M33.2029 42.1302C32.8817 42.199 32.699 42.1536 32.5604 42.0931C32.4272 42.0349 32.3308 41.9411 32.2446 41.8551C32.1078 41.7185 32.0384 41.4947 31.9803 41.3498C31.9362 41.24 31.9285 41.1317 31.9114 41.0456C31.8918 40.9472 31.8655 40.8334 31.8454 40.7185C31.8264 40.6105 31.8138 40.5062 31.8051 40.3484C31.7964 40.1902 31.7794 40.0068 31.7764 39.6403C31.7753 39.5063 31.8021 39.4041 31.8108 39.3234C31.8309 39.2431 31.8481 39.1627 31.8624 39.1169C31.871 39.0938 31.8824 39.071 31.9285 39.0132" stroke="black" stroke-width="0.814278" stroke-linecap="round"/>
<path d="M4.09309 39.5722C4.22902 39.3391 4.29905 39.1948 4.2942 39.141C4.28344 39.0219 4.21578 38.9838 4.03843 38.8064C3.8732 38.6411 3.54551 38.3328 3.35852 38.1582C3.13622 37.9506 3.07326 37.905 2.94916 37.7955C2.65966 37.5399 2.4455 37.3704 2.38945 37.3217C2.14733 37.1113 2.02401 36.949 1.89903 36.8215C1.83148 36.7525 1.75419 36.7133 1.68799 36.6716C1.57203 36.5986 1.42582 36.5662 1.3107 36.544C1.08151 36.4998 1.0186 36.5659 0.959676 36.6026C0.890317 36.6458 0.876186 36.7325 0.854118 36.7938C0.825522 36.8733 0.778205 36.9384 0.753563 36.9974C0.748634 37.0121 0.743779 37.0267 0.741278 37.0463C0.738777 37.066 0.738777 37.0903 0.753489 37.13" stroke="black" stroke-width="0.723803" stroke-linecap="round"/>
<path d="M2.32959 33.3921C1.70713 33.2008 1.57987 33.2105 1.50109 33.2277C1.45812 33.2371 1.40789 33.24 1.3614 33.2692C1.14208 33.4073 1.18206 33.882 1.165 33.9509C1.14889 34.016 1.1038 34.0879 1.09136 34.1617C1.07495 34.2592 1.06937 34.3675 1.06194 34.4657C1.05484 34.5596 1.03995 34.6276 1.03252 34.7353C1.02774 34.8046 0.966387 34.8483 0.934536 34.9072C0.904604 34.9625 0.892828 35.0248 0.873188 35.0837C0.853547 35.1426 0.84369 35.2013 0.831479 35.3258C0.809414 35.5507 0.833833 35.7164 0.850899 35.7579C0.965652 35.9462 1.10836 36.1235 1.14256 36.1455C1.1622 36.1578 1.18648 36.1723 1.2262 36.202" stroke="black" stroke-width="0.723803" stroke-linecap="round"/>
<path d="M0.459571 37.3656C0.0905968 36.9869 -0.109191 36.7773 -0.143322 36.7163C-0.272133 36.4865 -0.276023 36.3802 -0.302872 36.2627C-0.318375 36.1949 -0.320159 36.1398 -0.322586 36.1007C-0.325051 36.0609 -0.334871 35.7793 -0.332443 35.3724C-0.33114 35.1539 -0.310449 35.027 -0.271315 34.8823C-0.236272 34.7527 -0.144205 34.6351 -0.0922719 34.5192C-0.0228031 34.3642 0.037634 34.2078 0.0671313 34.1415C0.108947 34.0474 0.209174 34.0016 0.275378 33.9844C0.324987 33.9715 0.371152 33.9867 0.398075 34.0013C0.420143 34.0257 0.449567 34.0892 0.49841 34.4444C0.527834 34.751 0.566673 35.3142 0.606689 35.8944" stroke="black" stroke-width="0.723803" stroke-linecap="round"/>
<path d="M1.28207 33.3189C1.48597 32.9014 1.61529 32.6474 1.71519 32.5206C1.90173 32.2838 2.10049 32.1178 2.20082 32.0493C2.28244 31.9935 2.53052 31.9413 2.85646 31.8751C3.01477 31.843 3.06691 31.7989 3.10362 31.7573C3.18999 31.6595 3.19461 31.4078 3.16291 31.1913C3.14204 31.0487 3.11134 30.9559 3.10391 30.8769C3.09684 30.8018 3.07692 30.7055 3.06228 30.6416C3.05537 30.6114 3.03293 30.5875 2.99872 30.5704C2.95795 30.5499 2.91523 30.5531 2.76937 30.5701C2.63786 30.5854 2.39046 30.621 2.17795 30.6434C1.79628 30.6836 1.56704 30.7 1.47884 30.727C1.37891 30.7575 1.29707 30.8323 1.24551 30.8985C1.20504 30.9505 1.16937 30.9943 1.12311 31.0746C1.01941 31.2546 0.914712 31.4352 0.841226 31.5356C0.744876 31.6672 0.635039 31.7836 0.559126 31.8938C0.486405 31.9993 0.385085 32.1362 0.306744 32.2952C0.195402 32.5213 0.144839 32.7531 0.117402 32.892C0.102969 32.9651 0.0856978 33.1121 0.0659839 33.2253C0.0312631 33.4246 0.0071363 33.5293 0.00456172 33.6715C0.00248177 33.7863 0.0559797 33.9218 0.0634092 33.9807C0.0658367 33.9955 0.0706916 34.0101 0.0756201 34.0248C0.0805486 34.0396 0.0854036 34.0542 0.105118 34.0398" stroke="black" stroke-width="0.723803" stroke-linecap="round"/>
<path d="M33.1765 35.1733C33.4096 35.387 33.6426 35.6006 33.8039 35.747C34.0467 35.9675 34.1959 36.1142 34.2964 36.2318C34.3819 36.3319 34.5241 36.5304 34.623 36.7591C34.6651 36.8565 34.6086 36.9238 34.5865 37.0071C34.5682 37.0762 34.5253 37.1297 34.4543 37.1935C34.3677 37.2714 34.3096 37.3016 34.18 37.3675C34.0419 37.4378 33.986 37.5075 33.8979 37.5247C33.7484 37.5539 33.6673 37.4931 33.5619 37.449C33.4661 37.3851 33.4024 37.3411 33.3607 37.2971C33.3434 37.2773 33.3337 37.2627 33.3236 37.2477" stroke="black" stroke-width="0.723803" stroke-linecap="round"/>
<path d="M32.9448 37.2764C32.4693 37.5068 32.4008 37.5459 32.1855 37.7341C32.0998 37.8092 32.0721 37.8987 32.0231 37.9798C31.98 38.051 31.9936 38.1588 31.9861 38.2177C31.9784 38.2786 31.9591 38.3353 31.9347 38.4431C31.9161 38.5251 31.9053 38.6149 31.8881 38.7495C31.8771 38.8353 31.8611 38.9429 31.8439 39.0415C31.8414 39.0612 31.8414 39.0806 31.839 39.0979C31.8366 39.1152 31.8317 39.1298 31.8267 39.1448" stroke="black" stroke-width="0.723803" stroke-linecap="round"/>
<path d="M32.8986 34.9092C32.8986 35.4138 32.9083 35.5512 32.9157 35.6396C32.9217 35.7102 32.9621 36.0099 32.9966 36.2595C33.0292 36.4959 33.026 36.5566 33.0334 36.6155C33.0411 36.6764 33.0604 36.7429 33.0726 36.8433C33.0961 37.036 33.0898 37.1545 33.1143 37.2945C33.1193 37.3218 33.1193 37.3363 33.1241 37.3584C33.129 37.3805 33.1387 37.4096 33.1487 37.4396" stroke="black" stroke-width="0.723803" stroke-linecap="round"/>
<path d="M30.4121 35.6587C29.4023 37.1346 28.8238 37.9143 28.6967 37.9437C28.6289 37.9594 28.5502 37.9537 28.4907 37.9246C28.3726 37.8667 28.3524 37.6995 28.333 37.611C28.1377 37.796 27.7075 38.1868 27.2555 38.5119C27.1567 38.5616 27.079 38.5811 26.9401 38.6011" stroke="black" stroke-width="0.723803" stroke-linecap="round"/>
<path d="M26.6462 38.1299L25.7635 38.6595" stroke="black" stroke-width="0.904754" stroke-linecap="round"/>
<path d="M22.9409 38.6593L20.9989 37.9531" stroke="black" stroke-width="0.904754" stroke-linecap="round"/>
<path d="M20.762 37.4256C20.2959 38.0471 19.9975 38.3866 19.8801 38.3966C19.587 38.4216 19.2731 37.9764 19.0171 37.6916C18.8282 37.4814 18.644 37.3279 18.5169 37.2885C18.3723 37.2437 18.2321 37.4056 18.1147 37.4645C18.0082 37.5178 17.879 37.4651 17.7325 37.3677C17.5277 37.1538 17.2911 36.7612 17.1049 36.3496" stroke="black" stroke-width="0.678565" stroke-linecap="round"/>
<path d="M29.3429 19.5832C29.3306 19.549 29.2858 19.5144 29.2081 19.4756C29.1637 19.4806 29.0903 19.4854 29.0755 19.4904C29.0461 19.5002 29.0165 19.515 28.9922 19.5371C28.9776 19.564 28.9539 19.6414 28.9777 19.736C28.9924 19.7945 29.0151 19.8455 29.0613 19.8656C29.1004 19.8827 29.1472 19.8995 29.1887 19.885C29.2525 19.8628 29.3572 19.8161 29.3651 19.7327C29.3699 19.6813 29.3587 19.6276 29.3429 19.5832Z" fill="white" stroke="white" stroke-width="0.452377" stroke-linecap="round"/>
<path d="M17.583 12.9285L17.583 12.9285C17.583 12.9275 17.5824 12.9267 17.5814 12.9263C17.2567 12.4512 16.932 11.9764 16.6532 11.6032C16.3739 11.2294 16.1506 10.9721 15.9555 10.7619C15.7603 10.5517 15.6001 10.3963 15.486 10.292C15.3133 10.1341 15.2195 10.0649 15.1584 10.0087C14.9666 9.8321 14.8027 9.70191 14.7414 9.6772C14.7248 9.67053 14.7047 9.70132 14.6899 9.72104C14.675 9.74075 14.6653 9.76017 14.5826 10.2994C14.4999 10.8386 14.3446 11.8969 14.2646 12.4567C14.1845 13.0165 14.1845 13.0456 14.1748 13.1335C14.149 13.3673 14.1257 13.5995 14.1232 13.7391C14.12 13.9286 14.1207 14.1634 14.1281 14.3915C14.1321 14.5128 14.1501 14.6004 14.1868 14.657C14.1946 14.6691 14.2137 14.6645 14.2309 14.6572C14.3092 14.6241 14.3899 14.5327 14.4857 14.4198C14.6334 14.2459 14.7871 14.0572 14.8757 13.9709C14.9467 13.9016 15.0469 13.846 15.1527 13.782C15.2327 13.7337 15.2876 13.6888 15.3636 13.6861C15.5128 13.6808 15.6645 14.0063 15.7706 14.1418C15.7964 14.1747 15.8364 14.2126 15.8637 14.2229C15.891 14.2332 15.9055 14.2138 15.9154 14.194C15.9588 14.108 15.9597 14.0028 15.9769 13.895C15.9916 13.8027 15.9941 13.5385 16.0086 13.259C16.0136 13.1629 16.0523 13.1639 16.1086 13.1785C16.3531 13.2418 16.4543 13.3204 16.5576 13.3648C16.7335 13.4403 16.8809 13.4873 16.9941 13.5169C17.0809 13.5397 17.1413 13.5414 17.7009 13.544C17.8182 13.5445 17.8328 13.5367 17.8354 13.5221C17.8502 13.4405 17.7792 13.3849 17.7303 13.304C17.6916 13.24 17.6371 13.1936 17.5856 13.1469C17.5438 13.0905 17.5047 13.0318 17.4825 12.9729C17.4802 12.9592 17.5686 12.9203 17.5814 12.9263C17.5819 12.927 17.5825 12.9278 17.583 12.9285Z" fill="#785C12" stroke="black" stroke-width="0.226188" stroke-linecap="round"/>
<path d="M24.4971 16.9748C23.9533 16.6544 23.4096 16.334 22.911 16.1446C22.4124 15.9553 21.9755 15.9067 21.6144 15.8963C20.9815 15.878 20.5752 15.9741 20.2577 16.0911C20.0664 16.1789 19.814 16.3246 19.6111 16.4773C19.4082 16.63 19.2626 16.7853 19.0831 16.9748" stroke="black" stroke-width="0.452377" stroke-linecap="round"/>
<path d="M19.9641 15.1509C19.1291 15.5004 18.6698 15.7291 18.6062 15.8657C18.4416 16.2197 18.4735 16.3761 18.4586 16.5284C18.4553 16.5631 18.4441 16.5921 18.4391 16.5828C18.4341 16.5735 18.4341 16.525 18.4341 16.5242C18.4341 16.5235 18.4341 16.572 18.4341 16.6221" stroke="black" stroke-width="0.452377" stroke-linecap="round"/>
<path d="M32.5251 23.2422C32.4908 23.0981 32.4588 23.0604 32.4331 23.0301L32.4323 23.0291C32.4018 22.9931 32.3564 22.9703 32.2768 22.9213C32.214 22.8826 32.1628 22.8673 32.1222 22.85C32.0736 22.8294 32.0352 22.8182 31.9593 22.7888C31.8997 22.7658 31.849 22.757 31.7973 22.7421C31.7533 22.7295 31.6749 22.7103 31.6024 22.687C31.5366 22.6658 31.4223 22.6416 31.3645 22.6269C31.3057 22.6119 31.2211 22.6023 31.1892 22.5962C31.148 22.5884 31.1035 22.5828 31.036 22.5729C30.9754 22.5641 30.8974 22.5508 30.8181 22.5447C30.7053 22.5361 30.6179 22.5411 30.5084 22.5374C30.4136 22.5342 30.2388 22.5361 30.1414 22.5373C29.9805 22.5394 29.897 22.5483 29.8566 22.5521C29.8012 22.5571 29.7282 22.5679 29.6739 22.5802C29.632 22.5897 29.593 22.5998 29.5342 22.6145C29.5 22.6231 29.4704 22.6366 29.4397 22.655C29.4002 22.6786 29.3674 22.7003 29.3196 22.7261C29.3007 22.7363 29.2718 22.7639 29.2375 22.8019C29.2175 22.824 29.2201 22.8523 29.2225 22.878C29.226 22.9152 29.2592 22.9406 29.2874 22.9773C29.3165 23.0153 29.3572 23.0288 29.4014 23.0571C29.4343 23.0781 29.4749 23.0902 29.5081 23.1025C29.5601 23.1218 29.6319 23.105 29.6675 23.1013C29.701 23.0978 29.7349 23.0903 29.8522 23.0866C29.9335 23.084 30.007 23.0756 30.1232 23.0719C30.2056 23.0693 30.2939 23.0609 30.4736 23.0572C30.5146 23.0563 30.5292 23.0536 30.6495 23.0523C30.7699 23.051 30.9957 23.051 31.1168 23.0523C31.2772 23.0539 31.3554 23.0633 31.434 23.067C31.4714 23.0687 31.5003 23.078 31.5493 23.0817C31.5894 23.0847 31.6326 23.1 31.689 23.1148C31.7371 23.1273 31.8163 23.1465 31.873 23.1687C31.9119 23.1839 31.949 23.2079 32.0126 23.2422C32.068 23.272 32.1107 23.2985 32.1538 23.3244C32.2013 23.3529 32.2432 23.4162 32.2727 23.4555C32.3001 23.492 32.329 23.5265 32.3463 23.5585C32.3608 23.5852 32.3586 23.61 32.3696 23.6198C32.3745 23.6243 32.383 23.62 32.3892 23.6151C32.4148 23.5948 32.4223 23.5588 32.4346 23.5293C32.4395 23.5146 32.442 23.4489 32.4335 23.3412C32.4256 23.295 32.5277 23.2836 32.5269 23.2497C32.5269 23.2473 32.5263 23.2448 32.5251 23.2422Z" fill="#466067"/>
</g>
<rect x="1" y="1" width="41" height="41" rx="20.5" stroke="#7B6CFF" stroke-width="2"/>
<defs>
<clipPath id="clip0_195_26730">
<rect width="43" height="43" rx="21.5" fill="white"/>
</clipPath>
</defs>
</svg>
