<svg width="429" height="246" viewBox="0 0 429 246" fill="none" xmlns="http://www.w3.org/2000/svg">
<path d="M13.2404 207.457L8.23499 206.189C7.98996 204.435 7.60023 200.877 8.0016 200.678C8.40296 200.479 9.51188 198.261 10.0162 197.177L13.5359 192.93C13.6227 191.845 13.8968 189.625 14.2981 189.426C14.7998 189.177 15.8226 182.418 15.072 182.165C14.4715 181.963 19.3281 182.763 21.8314 183.188C23.2497 183.526 26.1866 184.153 26.5879 183.954C26.9893 183.755 30.4292 183.715 32.0989 183.721L36.8632 181.982L40.8768 179.991L44.1515 173.99C44.9047 173.408 46.5114 172.194 46.9128 171.995C47.3141 171.795 49.748 173.089 50.9148 173.76L53.155 178.276C53.3541 178.677 54.5629 181.953 55.1424 183.542C56.8951 183.714 60.62 183.997 61.4974 183.749C62.3748 183.501 64.1368 184.029 64.9082 184.323L68.6535 188.092C69.4054 187.927 71.0096 187.548 71.4109 187.349C71.9127 187.1 74.1684 186.606 74.919 186.859C75.5195 187.061 77.0023 188.118 77.6687 188.621L77.6609 191.125L79.4072 193.385L78.9016 194.886L79.6444 197.644L77.6376 198.639L75.1252 201.136L71.1116 203.127L69.1009 205.375L65.8301 210.124L66.3202 213.632L65.8107 216.386L65.0485 219.89L61.7893 220.882L56.0294 220.613L53.0308 218.35L50.5301 217.09L40.4999 220.816L36.739 222.056L32.2392 219.287L29.999 214.772L28.5172 208.005L26.0242 204.24L23.7762 202.229L16.7484 206.966L13.2404 207.457Z" fill="#FDFDFA"/>
<path d="M46.7728 171.803C51.0015 173.472 51.4066 174.887 52.0871 175.814C52.5832 176.49 52.9729 177.293 53.146 178.317C53.4007 179.823 54.3762 181.319 54.7327 182.483C55.0104 183.389 55.3187 184.408 55.4492 185.415C55.5911 186.509 54.9837 187.602 55.0963 189.246C55.3895 190.212 55.653 190.895 56.0209 191.118C56.2427 191.194 56.5358 191.195 56.8377 191.196" stroke="black" stroke-width="1.75648" stroke-linecap="round"/>
<path d="M55.2588 184.443C59.2816 184.07 60.8195 184.194 62.2566 184.036C64.019 183.843 66.3221 186.044 67.1212 186.535C67.4871 186.76 67.742 187.261 68.1679 187.677C69.1358 188.623 70.7561 187.098 71.9155 186.819C72.7833 186.61 73.9255 186.927 75.1105 187.153C76.7935 187.473 77.2414 188.239 77.6102 188.61C78.1879 189.189 77.416 190.075 77.4727 190.562C77.6353 191.961 79.094 192.568 79.3003 192.908C79.8051 193.739 78.7927 194.932 78.8614 196.116C78.8829 196.486 79.1668 196.884 79.2129 197.198C79.3493 198.127 77.8697 198.72 77.0781 199.37C76.3535 199.965 76.1112 200.993 74.5739 201.834C73.048 202.668 71.288 202.872 70.4028 203.789C69.6978 204.519 69.4364 205.413 68.9593 206.315C68.3756 207.419 67.918 208.162 67.1763 208.901C66.4337 209.642 65.9569 210.465 65.9365 211.324C65.9113 212.385 66.33 213.308 66.3727 214.139C66.4222 215.1 65.6428 216.088 65.6524 217.008C65.6628 218.005 65.8703 218.638 65.7513 219.066C65.4339 220.208 63.3522 220.408 62.5951 220.672C61.8278 220.939 60.8652 221.052 59.2242 221.092C56.5279 221.156 55.6551 220.533 54.8853 219.882C54.0991 219.217 53.2654 218.398 52.1981 217.889C51.3953 217.506 50.7217 216.703 49.9553 215.383C49.4095 214.444 48.2761 213.704 47.3132 213.182C46.1163 212.483 44.937 211.299 44.1827 210.375C44.0194 210.196 43.8733 210.049 43.811 210.075" stroke="black" stroke-width="1.75648" stroke-linecap="round"/>
<path d="M49.3849 217.729C39.8722 221.34 39.2206 221.81 38.2015 222.061C35.6027 222.703 34.2538 220.736 33.0415 219.861C29.9226 217.609 29.7189 213.838 29.0938 212.207C28.6421 211.029 28.3898 209.971 28.0547 208.625C27.417 206.064 26.2186 204.397 25.6276 203.802C24.9926 203.163 24.3596 202.437 24.0323 201.858C23.1059 200.219 28.1463 200.257 29.3482 199.773C31.4669 198.907 32.9528 198.023 33.5614 197.829C33.6662 197.96 33.6945 198.311 33.7235 198.674" stroke="black" stroke-width="1.75648" stroke-linecap="round"/>
<path d="M24.3898 202.197C18.9366 204.754 17.8718 205.869 16.933 206.745C16.2784 207.356 11.4782 207.219 8.74719 206.637C7.76101 206.426 8.21968 204.61 8.00136 202.982C7.71224 200.825 9.08991 198.929 9.73098 198.127C10.7725 196.826 12.7423 194.824 13.4752 193.612C14.434 192.025 14.0954 189.795 14.439 188.552C14.7958 187.262 15.1748 185.419 15.2674 184.335C15.304 183.907 15.2699 183.372 15.4338 182.811C15.5068 182.561 15.685 182.426 16.0681 182.454C18.0325 182.599 18.9669 183.232 20.3276 183.369C21.5825 183.496 22.4599 183.57 23.5989 183.705C24.5947 183.823 25.537 183.963 26.4413 183.922C27.6998 183.865 29.1187 183.738 30.2311 183.594C31.3065 183.455 32.1995 183.539 33.6466 184.296C35.0284 185.018 35.5978 185.769 36.8961 186.674C37.2817 186.928 37.6913 187.164 38.034 187.33C38.3768 187.496 38.6403 187.584 38.8235 187.498" stroke="black" stroke-width="1.75648" stroke-linecap="round"/>
<path d="M32.88 184.017C38.2692 181.786 40.1074 180.728 40.9436 179.723C41.7836 178.714 42.2505 176.423 43.4878 174.949C44.4053 173.856 45.2248 173.312 46.0276 172.617C46.2112 172.459 46.3541 172.308 46.5325 172.218C46.7108 172.129 46.9161 172.1 47.1679 172.232C47.4197 172.365 47.7119 172.659 48.1102 173.236C48.5086 173.813 49.0042 174.664 49.5148 175.542" stroke="black" stroke-width="1.75648" stroke-linecap="round"/>
<path d="M63.1024 204.715L53.512 204.153" stroke="black" stroke-width="1.75648" stroke-linecap="round"/>
<g filter="url(#filter0_d_2077_3139)">
<path d="M403.479 198.029C403.725 198.036 411.08 195.713 410.879 196.066C411.076 196.05 411.298 194.982 411.425 193.895C414.717 148.81 410.785 104.29 412.064 57.3139C412.347 46.938 413.771 15.6959 411.2 15.0403C392.045 10.155 369.013 8.7718 343.459 9.84446C330.758 10.3776 315.813 17.2189 303.199 14.8297C297.594 13.768 290.37 12.1432 285.13 11.4188C267.521 8.98462 250.157 4.6242 232.397 5.56895C225.775 5.92127 216.734 5.67612 204.382 5.84931C200.067 5.9098 199.483 6.25112 186.388 6.054C173.294 5.85688 148.451 4.60301 135.616 4.95901C117.406 5.46409 99.3955 10.2054 81.2368 9.90215C65.4479 9.63849 62.4783 9.98899 60.1487 12.5625C57.7505 15.2119 53.037 14.1955 52.2855 20.6758C51.3877 28.4194 50.6494 35.6 50.1427 41.584C49.6996 46.8178 48.4008 67.8178 47.4816 93.8533C46.9682 108.395 45.9667 135.592 45.8738 149.924C45.7336 171.557 42.6363 186.818 46.1536 190.846C47.2763 192.131 48.5882 192.796 49.7615 193.109C52.066 193.723 55.4812 195.347 62.3283 195.64C75.0652 196.185 84.233 197.235 86.8602 197.43C90.8088 197.722 93.6586 198.632 97.1872 198.812C105.29 199.223 111.218 200.135 122.318 200.25C132.652 200.357 151.98 200.674 162.74 199.778C177.623 198.538 192.222 197.938 207.058 198.713C214.676 199.11 220.643 198.65 222.975 198.443C235.135 197.361 246.885 197.711 259.004 199.12C275.099 200.991 291.071 202.181 307.246 201.949C311.399 201.889 315.468 201.365 318.568 201.189C346.953 199.574 375.096 197.213 403.479 198.029Z" fill="white"/>
<path d="M403.479 198.029C403.725 198.036 411.08 195.713 410.879 196.066C411.076 196.05 411.298 194.982 411.425 193.895C414.717 148.81 410.785 104.29 412.064 57.3139C412.347 46.938 413.771 15.6959 411.2 15.0403C392.045 10.155 369.013 8.7718 343.459 9.84446C330.758 10.3776 315.813 17.2189 303.199 14.8297C297.594 13.768 290.37 12.1432 285.13 11.4188C267.521 8.98462 250.157 4.6242 232.397 5.56895C225.775 5.92127 216.734 5.67612 204.382 5.84931C200.067 5.9098 199.483 6.25112 186.388 6.054C173.294 5.85688 148.451 4.60301 135.616 4.95901C117.406 5.46409 99.3955 10.2054 81.2368 9.90215C65.4479 9.63849 62.4783 9.98899 60.1487 12.5625C57.7505 15.2119 53.037 14.1955 52.2855 20.6758C51.3877 28.4194 50.6494 35.6 50.1427 41.584C49.6996 46.8178 48.4008 67.8178 47.4816 93.8533C46.9682 108.395 45.9667 135.592 45.8738 149.924C45.7336 171.557 42.6363 186.818 46.1536 190.846C47.2763 192.131 48.5882 192.796 49.7615 193.109C52.066 193.723 55.4812 195.347 62.3283 195.64C75.0652 196.185 84.233 197.235 86.8602 197.43C90.8088 197.722 93.6586 198.632 97.1872 198.812C105.29 199.223 111.218 200.135 122.318 200.25C132.652 200.357 151.98 200.674 162.74 199.778C177.623 198.538 192.222 197.938 207.058 198.713C214.676 199.11 220.643 198.65 222.975 198.443C235.135 197.361 246.885 197.711 259.004 199.12C275.099 200.991 291.071 202.181 307.246 201.949C311.399 201.889 315.468 201.365 318.568 201.189C346.953 199.574 375.096 197.213 403.479 198.029Z" stroke="#1A2375" stroke-width="3" stroke-linecap="round"/>
</g>
<path d="M426.596 178.129C425.387 176.674 427.11 176.751 427.484 175.389C428.332 172.292 425.536 170.304 423.176 168.992C418.174 166.208 411.977 165.068 406.331 164.65C406.334 164.641 406.335 164.635 406.338 164.626C405.96 164.64 405.583 164.632 405.203 164.62C404.56 164.604 403.921 164.665 403.281 164.663C402.139 164.66 400.997 164.529 399.858 164.669C398.874 164.789 397.858 165.077 397.244 165.911C397.098 166.111 396.965 166.32 396.842 166.539C396.667 167.335 396.662 168.302 396.385 169.394C396.138 170.366 395.609 171.079 395.367 171.94C393.618 178.158 392.145 184.462 390.474 190.701C390.521 190.795 390.539 190.906 390.503 191.032C390.486 191.093 390.47 191.155 390.451 191.215C390.322 192.691 389.939 194.122 389.508 195.538C389.188 196.782 388.852 198.022 388.514 199.264L388.393 199.724L388.39 199.723C388.23 200.308 388.073 200.893 387.917 201.475C387.923 201.477 387.926 201.478 387.932 201.479L387.607 202.713C387.428 203.502 387.231 204.287 387.002 205.063C386.927 205.397 386.852 205.728 386.765 206.059C386.756 206.094 386.741 206.128 386.721 206.157C386.656 206.438 386.594 206.722 386.527 207.002C386.529 207.053 386.527 207.109 386.509 207.166C386.483 207.251 386.454 207.337 386.429 207.421C386.39 207.583 386.353 207.746 386.314 207.908C386.298 207.966 386.268 208.021 386.226 208.063C385.968 208.879 385.708 209.694 385.444 210.508C385.476 210.526 385.512 210.544 385.545 210.56L381.458 226.112C381.248 227.304 380.858 228.445 380.482 229.593C380.558 229.647 380.493 229.702 380.425 229.763C380.381 229.892 380.341 230.02 380.301 230.15C380.011 232.022 379.125 233.12 380.601 234.896C385.565 240.868 398.66 244.293 406.115 242.86C409.665 242.179 409.248 241.728 410.588 238.441L411.176 236.205C411.36 235.254 411.619 234.317 411.914 233.395C411.916 233.389 411.917 233.383 411.919 233.378L415.237 220.749C415.5 219.227 415.944 217.752 416.388 216.274C416.645 215.261 416.938 214.254 417.207 213.241C417.209 213.235 417.211 213.227 417.212 213.221L417.4 212.509C417.574 211.655 417.775 210.809 418.013 209.973C418.31 208.356 418.69 206.755 419.184 205.184C419.219 205.074 419.279 205.002 419.351 204.952C419.452 204.578 419.562 204.209 419.678 203.839L419.903 202.983L419.957 202.988C420.135 202.468 420.315 201.948 420.503 201.433C420.712 200.52 420.95 199.615 421.308 198.748L426.586 178.12L426.596 178.129ZM399.016 166.512C400.564 166.414 402.125 166.74 403.668 166.741C410.169 166.748 418.263 168.011 424.01 171.967C425.723 173.147 427.003 174.969 424.196 175.675C419.01 176.981 404.223 172.591 400.067 169.203C399.198 168.495 398.428 167.717 399.018 166.515L399.016 166.512ZM405.021 240.969C399.218 241.827 391.544 240.162 386.727 236.872C385.738 236.409 384.635 235.784 383.755 235.152C383.022 234.624 381.484 233.775 381.555 232.854L382.097 232.53L388.628 236.745C389.304 237.026 390.214 237.416 390.881 237.65C393.173 238.472 395.613 238.734 397.946 239.194C398.292 239.263 398.727 239.797 399.139 239.84C399.791 238.77 400.441 240.11 401.517 239.819L408.166 239.377C408.657 240.236 405.536 240.894 405.021 240.972L405.021 240.969ZM417.239 206.048C416.726 208.025 416.203 211.032 415.468 212.787C415.334 213.109 413.869 214.312 414.193 215.271C414.202 215.305 414.605 215.301 414.688 215.461L409.287 235.988C408.504 237.323 407.083 237.009 405.876 237.243C403 237.8 400.848 237.92 397.825 237.283C396.752 237.057 395.691 236.684 394.622 236.441C396.262 233.185 398.156 230.052 399.938 226.874C401.671 223.784 403.303 220.607 405.176 217.601C404.689 217.535 404.209 217.303 403.72 217.218C403.58 217.635 402.14 219.299 401.786 219.842C401.103 221.577 400.299 223.818 398.867 225.027C398.062 226.516 393.74 235.169 392.984 235.531C391.359 236.316 386.052 233.177 384.568 232.07C384.04 231.674 382.348 230.331 382.364 229.774C382.526 229.087 382.75 228.41 382.903 227.723C383.933 223.067 385.392 218.297 386.599 213.659C386.855 212.683 387.115 211.705 387.369 210.729C387.698 209.462 388.034 208.184 388.37 206.919C388.472 206.53 388.575 206.137 388.678 205.747C389.068 204.287 389.442 202.813 389.833 201.352L390.602 198.422C390.654 198.226 390.705 198.032 390.756 197.836C390.808 197.64 390.859 197.446 390.91 197.25C390.962 197.054 391.013 196.86 391.064 196.664C391.25 195.983 391.418 195.294 391.603 194.613C391.655 194.417 391.706 194.223 391.757 194.027C391.783 193.93 391.809 193.831 391.834 193.734L392.142 192.562C392.219 192.269 392.294 191.975 392.373 191.683L397.994 170.293C404.236 174.317 411.519 176.406 418.788 177.637L414.218 191.472L413.338 197.192C413.455 196.806 413.523 196.404 413.646 196.02C415.259 191.006 417.673 186.202 419.305 181.2C419.661 180.106 419.676 178.616 420.403 177.447C421.724 178.011 423.319 177.437 424.566 177.595C425.178 177.672 424.933 177.717 424.882 178.136L419.623 196.964C418.481 199.937 418.021 203.024 417.236 206.047L417.239 206.048Z" fill="#050302"/>
<path d="M392.163 191.39C392.177 191.339 392.59 191.025 392.733 190.505C394.512 184.071 396.02 177.555 397.803 171.128C403.928 174.882 410.949 176.899 417.976 178.264L413.625 191.214C411.79 191.39 411.814 195.816 411.076 197.27C406.296 195.79 403.34 203.17 408.244 204.501L407.271 207.003C405.411 206.544 404.131 206.667 402.619 207.924C401.023 206.941 399.397 206.425 397.51 206.643C395.931 206.825 395.653 207.512 394.615 208.431C394.319 208.693 393.579 208.86 393.545 208.906C391.842 207.812 390.266 207.588 388.988 205.871C388.867 205.707 388.863 205.293 388.549 205.143C388.931 203.715 389.297 202.273 389.679 200.845C390.32 200.395 390.769 198.746 390.432 197.98C390.482 197.788 390.532 197.599 390.582 197.407L390.986 197.057L390.733 196.834C390.783 196.642 390.833 196.453 390.883 196.261C391.464 196.028 391.802 194.744 391.41 194.255C391.461 194.063 391.511 193.874 391.561 193.682L391.887 193.615L391.636 193.396L391.862 192.536L392.189 192.469L391.937 192.25C392.013 191.963 392.085 191.676 392.163 191.39ZM395.168 195.549C396.061 195.916 397.123 201.858 398.398 199.871C399.262 198.527 397.491 196.132 397.26 194.721C397.489 193.837 400.586 193.573 400.887 190.485C401.188 187.397 396.09 185.999 394.548 188.559L392.551 197.633L393.206 198.976L394.118 198.958L395.165 195.548L395.168 195.549ZM402.747 193.93C399.856 193.81 397.849 199.577 400.063 201.197C401.495 202.244 404.821 202.616 404.52 200.141C403.576 199.309 403.198 200.713 401.713 200.035C400.706 199.574 400.982 198.719 402.03 198.504C402.978 198.312 404.826 199.07 405.477 198.044C406.608 196.258 404.875 194.017 402.744 193.929L402.747 193.93Z" fill="#2256B4"/>
<path d="M393.669 208.921C393.276 209.473 392.96 211.353 393.769 211.797C394.558 212.233 395.358 211.325 396.003 211.475C396.648 211.625 397.456 212.859 398.448 213.088C399.33 213.291 399.865 212.641 400.502 212.702C401.433 212.79 402.509 214.139 403.788 213.829C403.449 214.987 404.155 216.21 403.967 216.768C403.823 217.196 402.353 218.904 401.991 219.461C400.749 221.365 400.066 222.82 399.008 224.782C398.185 226.31 393.766 235.188 392.996 235.561C391.338 236.369 385.936 233.16 384.427 232.027C383.89 231.623 382.168 230.248 382.185 229.678C382.774 229.428 383.127 228.081 382.738 227.574C383.796 222.798 385.291 217.906 386.528 213.149L387.121 213.305C387.345 212.274 388.027 211.063 387.318 210.144C387.656 208.845 388 207.534 388.345 206.237L389.096 205.792C390.367 207.575 391.955 207.793 393.663 208.92L393.669 208.921Z" fill="#A1B5BF"/>
<path d="M414.47 215.389C414.48 215.423 414.891 215.421 414.977 215.581L409.591 236.054C408.798 237.383 407.343 237.06 406.111 237.286C403.174 237.823 400.974 237.929 397.879 237.272L394.975 236.193C396.688 233.676 398.257 231.004 399.703 228.329C399.919 227.933 400.453 227.308 399.971 226.887C401.723 223.811 403.37 220.648 405.266 217.656C406.432 217.816 408.215 217.766 408.487 216.316C410.527 217.058 412.598 216.275 414.47 215.389Z" fill="#2256B4"/>
<path d="M413.609 195.808C415.235 190.752 417.664 185.907 419.309 180.862C419.667 179.76 419.687 178.258 420.416 177.079C421.742 177.645 423.345 177.065 424.597 177.224C425.212 177.3 424.965 177.346 424.914 177.768L419.612 196.754L420.342 193.453C420.068 192.698 418.613 192.787 418.049 193.185C417.485 193.583 417.105 194.639 417.506 195.253L416.729 198.208C416.163 198.387 416.142 199.254 416.005 199.751C415.599 201.224 414.536 204.296 414.788 205.594C414.872 206.024 415.373 206.759 415.842 206.771L417.205 205.913C416.688 207.906 416.159 210.939 415.419 212.709C415.203 209.822 412.047 209.258 409.668 209.618C408.544 209.399 409.639 208.287 408.302 207.68L409.37 204.802C410.396 204.838 410.337 205.322 411.358 204.377C411.457 204.283 411.701 204.356 411.435 204.081L411.746 202.9C412.79 200.912 413.542 198.052 413.609 195.808Z" fill="#A7A4A4"/>
<path d="M398.829 166.183C400.385 166.1 401.957 166.431 403.509 166.444C410.046 166.503 418.195 167.801 424.004 171.714C425.736 172.881 427.038 174.671 424.222 175.339C419.017 176.574 404.113 172.166 399.908 168.822C399.028 168.123 398.248 167.356 398.832 166.187L398.829 166.183ZM411.205 167.666C405.265 166.863 405.39 171.057 410.677 172.935C412.194 173.474 418.24 174.626 419.188 173.131C421.108 170.095 413.31 167.951 411.205 167.666Z" fill="#A1B5BF"/>
<path d="M415.695 212.848C415.567 213.135 414.092 214.172 414.463 215.053C412.592 215.8 410.515 216.449 408.423 215.714C408.193 215.634 406.294 214.626 406.208 214.505C405.492 213.485 407.049 211.627 406.942 211.402C405.458 210.925 403.723 209.489 405.88 208.895C406.757 208.932 407.152 210.556 408.861 210.353C409.231 210.31 409.56 209.862 409.634 209.854C412.078 209.619 415.358 210.245 415.691 212.85L415.695 212.848Z" fill="#D73A0C"/>
<path d="M414.079 190.983L413.086 196.873C412.49 198.856 412.021 200.925 411.494 202.93L411.097 204.444C410.15 205.438 410.219 204.945 409.302 204.943C408.974 204.945 408.441 205.044 408.185 204.974C403.868 203.794 406.824 195.95 411.025 197.29C411.748 195.738 411.919 191.112 413.561 190.847C413.697 190.824 413.911 190.978 414.079 190.983ZM410.478 199.422C407.815 197.919 406.551 202.634 409.181 203.293L410.478 199.422Z" fill="#D73A0C"/>
<path d="M406.847 207.567C407.207 207.655 407.706 207.733 408.011 207.873C409.342 208.476 408.253 209.578 409.371 209.797C409.297 209.809 408.964 210.316 408.606 210.379C406.949 210.67 406.632 208.895 405.789 208.887C403.684 209.628 405.301 211.146 406.714 211.614C406.808 211.858 405.23 213.972 405.883 215.071C405.961 215.201 407.75 216.238 407.972 216.318C407.696 217.771 405.953 217.833 404.815 217.681C404.328 217.616 403.848 217.383 403.36 217.299C403.544 216.755 402.85 215.561 403.181 214.432C403.357 213.833 403.998 213.216 404.176 212.608C404.763 210.613 403.79 209.521 402.24 208.546C403.746 207.25 405.014 207.114 406.851 207.565L406.847 207.567Z" fill="#F8C60B"/>
<path d="M419.806 197.205C418.613 200.133 418.218 203.205 417.442 206.199L415.907 206.99C415.365 206.956 414.754 206.203 414.637 205.772L417.839 193.586C418.473 193.216 420.148 193.194 420.499 193.956L419.806 197.205Z" fill="#D73A0C"/>
<path d="M392.248 191.062L397.746 170.141C404.185 174.165 411.667 176.302 419.124 177.597L414.612 191.117C414.421 191.104 414.168 190.945 414.014 190.96L418.379 178.011C411.248 176.618 404.122 174.574 397.897 170.793C396.111 177.224 394.606 183.743 392.826 190.175C392.683 190.698 392.265 191.008 392.252 191.06L392.248 191.062Z" fill="#266AC1"/>
<path d="M401.932 239.755L408.675 239.136C409.153 240.059 405.98 240.839 405.456 240.934C399.562 241.988 391.827 240.338 387.018 236.865C389.82 238.227 394.389 239.76 397.549 240.31C399.541 240.659 401.865 240.5 403.898 240.614L401.931 239.758L401.932 239.755ZM405.911 240.12C405.549 239.864 403.952 240.084 404.282 240.369L405.829 240.434L405.911 240.12Z" fill="#F6DCC0"/>
<path d="M388.562 236.615C389.249 236.882 390.174 237.252 390.849 237.479C392.798 238.137 394.7 238.829 396.826 239.314C397.396 239.442 397.938 239.878 397.97 239.087C398.319 239.16 398.776 239.633 399.189 239.687C399.796 238.802 400.5 239.971 401.563 239.767L403.554 240.551C401.539 240.349 399.253 240.339 397.265 239.951C394.114 239.337 389.51 237.874 386.668 236.644C385.661 236.208 384.534 235.63 383.629 235.054C383.698 234.266 384.088 234.645 384.627 234.905C386.164 235.647 386.96 235.99 388.562 236.615Z" fill="#F6DCC0"/>
<path d="M399.998 226.16C400.382 226.574 399.894 227.261 399.689 227.689C398.31 230.586 396.828 233.478 395.232 236.221L397.63 237.187C396.713 237.006 395.814 236.67 394.902 236.47C396.49 232.97 398.291 229.586 399.998 226.16Z" fill="#266AC1"/>
<path d="M388.961 236.873C387.261 236.145 386.42 235.738 384.8 234.844C384.23 234.53 383.834 234.042 383.7 235.125C382.915 234.528 381.262 233.571 381.358 232.503L381.954 232.115L388.961 236.873Z" fill="#F6DCC0"/>
<path d="M398.914 224.903C400.062 223.064 400.792 221.693 402.167 219.923C401.44 221.608 400.598 223.791 398.914 224.903Z" fill="#F6DCC0"/>
<path d="M411.575 202.947C412.102 200.94 412.462 198.84 413.168 196.883C413.307 196.489 413.334 196.061 413.487 195.67C414.023 198.132 413.252 201.067 411.575 202.947Z" fill="#A1B5BF"/>
<path d="M387.229 210.163C388.367 211.127 387.558 212.176 387.38 213.12L386.511 212.892C386.75 211.984 386.99 211.071 387.229 210.163Z" fill="#F6DCC0"/>
<path d="M389.619 201.067L390.336 198.338C391.408 199.265 390.958 200.83 389.619 201.067Z" fill="#266AC1"/>
<path d="M390.818 196.52C390.992 195.919 391.122 195.303 391.296 194.701C392.417 195.346 392.111 196.51 390.818 196.52Z" fill="#266AC1"/>
<path d="M382.22 229.267C382.335 228.65 382.605 228.068 382.698 227.448C383.81 228.091 383.504 229.255 382.22 229.267Z" fill="#F6DCC0"/>
<path d="M389.213 206.309L388.184 206.525C388.264 206.222 388.344 205.918 388.423 205.615C388.92 205.799 389.003 206.149 389.213 206.309Z" fill="#F6DCC0"/>
<path d="M391.77 192.881L392.009 191.971L392.799 192.665L391.77 192.881Z" fill="#266AC1"/>
<path d="M402.382 207.8C403.911 208.774 404.867 209.873 404.277 211.884C404.098 212.495 403.457 213.121 403.282 213.73C402.039 214.039 401.002 212.713 400.098 212.633C399.479 212.578 398.958 213.219 398.103 213.02C397.141 212.799 396.36 211.588 395.737 211.443C395.114 211.299 394.332 212.194 393.568 211.768C392.785 211.335 393.099 209.485 393.482 208.94C393.516 208.892 394.244 208.707 394.536 208.436C395.567 207.473 395.848 206.766 397.396 206.556C399.251 206.303 400.834 206.814 402.381 207.803L402.382 207.8Z" fill="#D73A0C"/>
<path d="M395.382 195.746L394.362 199.059L393.463 199.073L392.813 197.765L394.749 188.943C396.259 186.458 401.281 187.9 401.002 190.84C400.724 193.779 397.663 194.088 397.443 194.948C397.676 196.322 399.429 198.658 398.583 199.963C397.334 201.892 396.263 196.105 395.385 195.747L395.382 195.746ZM396.114 192.961C398.362 192.965 400.385 189.996 397.601 189.204L397.058 189.532L396.114 192.961Z" fill="#D73A0C"/>
<path d="M402.89 193.938C405.142 194.034 406.982 196.399 405.789 198.272C405.103 199.348 403.146 198.547 402.142 198.75C401.033 198.971 400.743 199.874 401.809 200.361C403.382 201.077 403.783 199.6 404.78 200.478C405.1 203.081 401.582 202.684 400.064 201.58C397.715 199.871 399.829 193.807 402.893 193.939L402.89 193.938ZM404.154 197.098C404.34 195.183 402.194 195.099 401.894 196.827L404.154 197.098Z" fill="#D73A0C"/>
<path d="M409.198 204.267L408.06 207.858C407.878 207.736 407.558 207.718 407.332 207.667L408.375 204.44C408.555 204.487 408.958 204.309 409.198 204.267Z" fill="#050302"/>
<path d="M411.161 167.93C413.272 168.201 421.077 170.355 419.104 173.573C418.132 175.159 412.079 174.03 410.559 173.482C405.272 171.577 405.207 167.165 411.161 167.93ZM417.449 171.75C414.769 170.733 411.597 169.461 408.682 169.734C408.224 169.778 408.212 169.513 408.107 170.26C410.377 171.26 412.642 172.4 415.142 172.754C416.077 172.887 417.363 173.044 417.449 171.75Z" fill="#050302"/>
<path d="M410.374 199.793L409.11 203.272C405.833 202.44 406.985 198.176 410.374 199.793Z" fill="#2256B4"/>
<path d="M395.647 192.927L396.759 188.909L397.444 188.537C401.026 189.548 398.522 192.995 395.647 192.927Z" fill="#2256B4"/>
<path d="M404.313 196.953L401.545 196.422C401.641 195.344 404.239 195.732 404.313 196.953Z" fill="#2256B4"/>
<path d="M417.689 171.835C417.619 173.062 416.345 172.894 415.419 172.757C412.942 172.393 410.685 171.282 408.43 170.312C408.525 169.607 408.541 169.854 408.992 169.821C411.87 169.597 415.025 170.843 417.689 171.835Z" fill="#A1B5BF"/>
<defs>
<filter id="filter0_d_2077_3139" x="42.98" y="3.39615" width="372.294" height="207.081" filterUnits="userSpaceOnUse" color-interpolation-filters="sRGB">
<feFlood flood-opacity="0" result="BackgroundImageFix"/>
<feColorMatrix in="SourceAlpha" type="matrix" values="0 0 0 0 0 0 0 0 0 0 0 0 0 0 0 0 0 0 127 0" result="hardAlpha"/>
<feOffset dx="1" dy="7"/>
<feComposite in2="hardAlpha" operator="out"/>
<feColorMatrix type="matrix" values="0 0 0 0 0 0 0 0 0 0 0 0 0 0 0 0 0 0 0.25 0"/>
<feBlend mode="normal" in2="BackgroundImageFix" result="effect1_dropShadow_2077_3139"/>
<feBlend mode="normal" in="SourceGraphic" in2="effect1_dropShadow_2077_3139" result="shape"/>
</filter>
</defs>
</svg>
