<svg width="393" height="852" viewBox="0 0 393 852" fill="none" xmlns="http://www.w3.org/2000/svg">
<g clip-path="url(#clip0_2076_2922)">
<rect width="393" height="852" fill="#5AA6E2"/>
<path d="M-21 60.8865L312.382 56H338.037L415 60.8865V1238H-21V60.8865Z" fill="#706D74"/>
<rect x="-22" y="-109" width="427" height="248" fill="#F969E5"/>
<path d="M824 139.832C821.962 139.455 817.854 139.207 800.055 139.017C795.676 138.97 785.71 138.703 771.242 138.641C765.504 138.616 761.022 138.327 754.867 138.265C751.948 138.235 745.443 137.951 736.209 137.889C732.247 137.862 723.705 137.574 711.392 137.512C707.004 137.49 706.395 137.326 696.733 137.262C687.071 137.198 668.376 137.198 658.338 137.136C644.406 137.05 638.657 136.574 632.613 136.508C627.357 136.451 620.799 136.574 617.926 136.384C612.999 136.058 608.495 135.822 599.985 135.632C596.783 135.56 591.475 135.317 585.012 135.38C581.989 135.409 574.263 135.694 563.08 135.756C554.905 135.801 547.938 136.318 540.453 136.508C535.195 136.641 528.639 137.07 524.328 137.511C522.503 137.697 520.83 137.699 509.946 137.887C499.878 138.061 480.569 137.951 470.116 137.889C458.644 137.82 455.162 137.574 450.857 137.512C442.438 137.391 432.981 137.447 428.368 137.637C426.397 137.718 419.889 137.951 410.658 138.013C400.971 138.078 391.525 138.575 387.313 138.765C384.947 138.872 374.153 139.079 359.377 139.141C353.535 139.166 348.647 139.455 341.673 139.517C333.028 139.594 323.984 139.583 318.658 139.393C313.499 139.209 309.821 138.831 289.161 138.641C283.347 138.587 275.189 138.327 264.314 138.389C260.347 138.412 259.535 138.575 251.293 138.639C243.05 138.703 227.403 138.703 219.037 138.765C210.671 138.827 210.062 138.951 199.181 139.015C188.299 139.079 167.165 139.079 155.668 139.141C141.078 139.22 138.629 139.704 133.814 139.894C127.953 140.125 120.993 140.456 116.464 140.646C114.398 140.733 104.428 140.96 90.2706 140.898C83.8285 140.87 78.1086 140.584 70.522 140.522C65.771 140.483 60.8539 140.208 55.6227 140.146C53.0159 140.115 44.8863 139.832 33.1892 139.769C25.3182 139.728 18.3516 139.207 11.6855 139.017C10.129 138.973 9.11458 138.831 0.66583 138.767C-7.78292 138.703 -23.6335 138.703 -32.307 138.765C-40.9805 138.827 -110.907 139.945 -112.629 139.769C-120.018 139.017 -317.64 139.143 -320.153 138.767M-320.768 139.079C-320.768 140.458 -320.768 143.292 -320.768 143.593C-320.768 143.969 -322 146.226 -322 147.355C-322 148.483 -322 151.869 -322 152.245" stroke="black" stroke-width="2.3012" stroke-linecap="round"/>
<path d="M-322 117.587C-319.962 117.21 -315.854 116.962 -298.055 116.772C-293.676 116.725 -283.71 116.458 -269.242 116.396C-263.504 116.371 -259.022 116.082 -252.867 116.02C-249.948 115.99 -243.443 115.706 -234.209 115.644C-230.247 115.617 -221.705 115.33 -209.392 115.267C-205.004 115.245 -204.395 115.081 -194.733 115.017C-185.071 114.953 -166.376 114.953 -156.338 114.891C-142.406 114.805 -136.657 114.329 -130.613 114.263C-125.357 114.206 -118.799 114.329 -115.926 114.139C-110.999 113.813 -106.495 113.577 -97.985 113.387C-94.7828 113.315 -89.4747 113.073 -83.0119 113.135C-79.9887 113.164 -72.2632 113.449 -61.0803 113.511C-52.9051 113.556 -45.9378 114.073 -38.4528 114.263C-33.1948 114.397 -26.6387 114.825 -22.3281 115.266C-20.503 115.452 -18.8304 115.454 -7.94613 115.642C2.12176 115.816 21.4305 115.706 31.8837 115.644C43.3564 115.576 46.8383 115.33 51.1428 115.267C59.5618 115.146 69.0194 115.202 73.6317 115.392C75.6029 115.473 82.1112 115.706 91.342 115.768C101.029 115.833 110.475 116.33 114.687 116.52C117.053 116.627 127.847 116.834 142.623 116.896C148.465 116.921 153.353 117.21 160.327 117.272C168.972 117.349 178.016 117.338 183.342 117.148C188.501 116.964 192.179 116.586 212.839 116.396C218.653 116.343 226.811 116.082 237.686 116.144C241.653 116.167 242.465 116.33 250.707 116.394C258.95 116.458 274.597 116.458 282.963 116.52C291.329 116.582 291.938 116.706 302.819 116.77C313.701 116.834 334.835 116.834 346.332 116.896C360.922 116.975 363.371 117.459 368.186 117.649C374.047 117.88 381.007 118.211 385.536 118.401C387.602 118.488 397.572 118.715 411.729 118.653C418.172 118.625 423.891 118.339 431.478 118.277C436.229 118.238 441.146 117.963 446.377 117.901C448.984 117.87 457.114 117.587 468.811 117.524C476.682 117.483 483.648 116.962 490.314 116.772C491.871 116.728 492.885 116.586 501.334 116.522C509.783 116.458 525.634 116.458 534.307 116.52C542.981 116.582 612.907 117.7 614.629 117.524C622.018 116.772 819.64 116.898 822.153 116.522M822.768 116.834C822.768 118.213 822.768 121.047 822.768 121.348C822.768 121.724 824 123.981 824 125.11C824 126.238 824 129.624 824 130" stroke="black" stroke-width="2.3012" stroke-linecap="round"/>
<path d="M158.185 60.1968L152.048 63.2651" stroke="black" stroke-width="1.91767" stroke-linecap="round"/>
<path d="M36.5 822.5L30.5 828.5" stroke="black" stroke-width="2.5" stroke-linecap="round"/>
<path d="M367.5 678L376.5 687.5" stroke="black" stroke-width="2.5" stroke-linecap="round"/>
<path d="M16 334.5C16.495 334.83 16.99 335.16 17.4925 335.495C17.995 335.83 18.49 336.16 18.9925 336.66C19.495 337.16 19.99 337.82 20.5 338.5" stroke="black" stroke-width="2.5" stroke-linecap="round"/>
<path d="M379 455.5C377.35 456.985 375.7 458.47 374.19 459.895C372.68 461.32 371.36 462.64 370 464" stroke="black" stroke-width="2.5" stroke-linecap="round"/>
<path d="M176.5 493C178.48 493.165 180.46 493.33 181.81 493.498C183.16 493.665 183.82 493.83 185.5 494" stroke="black" stroke-width="2.5" stroke-linecap="round"/>
<path d="M23.5 75L29.5 79.5" stroke="black" stroke-width="2.5" stroke-linecap="round"/>
<path d="M23 66.5C24.155 66.995 25.31 67.49 26.1525 67.91C26.995 68.33 27.49 68.66 28.5 69.5" stroke="black" stroke-width="2" stroke-linecap="round"/>
<path d="M338.5 246C339.82 247.155 341.14 248.31 342.15 249.235C343.16 250.16 343.82 250.82 344.5 251.5" stroke="black" stroke-width="2" stroke-linecap="round"/>
<path d="M353.5 252.5L355.5 254.5" stroke="black" stroke-width="2" stroke-linecap="round"/>
</g>
<defs>
<clipPath id="clip0_2076_2922">
<rect width="393" height="852" fill="white"/>
</clipPath>
</defs>
</svg>
