<svg width="43" height="43" viewBox="0 0 43 43" fill="none" xmlns="http://www.w3.org/2000/svg">
<g clip-path="url(#clip0_205_14252)">
<rect width="43" height="43" rx="21.5" fill="#FFE38F"/>
<path d="M32.8042 27.6826C32.5046 27.6826 32.3332 27.7397 31.9939 27.9025C31.8297 27.9814 31.733 28.145 31.526 28.506C31.4055 28.7159 31.3975 29.0003 31.3929 29.4846C31.391 29.6825 31.4938 29.9259 31.5383 30.1077C31.5946 30.3381 31.8103 30.6567 31.9483 30.8797C32.0289 31.0099 32.1554 31.1177 32.2613 31.2456C32.3709 31.378 32.5517 31.5321 32.7374 31.6427C32.8855 31.731 33.0021 31.7443 33.0906 31.7578C33.2569 31.7831 32.9587 31.3834 32.9014 31.2554C32.8534 31.1482 32.8089 31.0044 32.7383 30.718C32.6923 30.5317 32.6412 30.4308 32.6278 30.3248C32.613 30.2069 32.5793 29.7899 32.6056 29.5222C32.6205 29.3704 32.6671 29.2665 32.7158 29.1605C32.7711 29.0402 32.8523 28.9225 32.9274 28.8165C33.0087 28.7015 33.108 28.5875 33.1876 28.4725C33.267 28.3578 33.3726 28.1821 33.4259 28.0491C33.4466 27.9975 33.4612 27.9431 33.4744 27.8904C33.4873 27.839 33.4615 27.7844 33.4219 27.736C33.3452 27.642 33.2149 27.6343 32.9551 27.6297C32.9268 27.6341 32.9019 27.64 32.8809 27.6465C32.8395 27.6591 32.8131 27.6738 32.8042 27.6826Z" fill="#84DC00"/>
<path d="M20.393 27.9316C20.0935 27.9316 19.922 27.9886 19.5828 28.1515C19.4185 28.2303 19.3219 28.394 19.1148 28.7549C18.9944 28.9649 18.9864 29.2492 18.9817 29.7336C18.9798 29.9314 19.0827 30.1748 19.1271 30.3566C19.1835 30.5871 19.3992 30.9057 19.5372 31.1286C19.6178 31.2588 19.7442 31.3666 19.8502 31.4946C19.9598 31.6269 20.1406 31.781 20.3262 31.8916C20.4744 31.9799 20.591 31.9932 20.6795 32.0067C20.8458 32.0321 20.5476 31.6323 20.4903 31.5044C20.4423 31.3972 20.3978 31.2534 20.3272 30.9669C20.2812 30.7806 20.23 30.6797 20.2167 30.5737C20.2018 30.4559 20.1681 30.0388 20.1945 29.7712C20.2094 29.6194 20.256 29.5154 20.3047 29.4094C20.3599 29.2891 20.4412 29.1714 20.5162 29.0654C20.5976 28.9505 20.6968 28.8364 20.7765 28.7214C20.8559 28.6068 20.9614 28.431 21.0148 28.2981C21.0355 28.2464 21.0501 28.1921 21.0633 28.1393C21.0762 28.0879 21.0503 28.0333 21.0108 27.9849C20.9341 27.891 20.8037 27.8833 20.544 27.8786C20.5156 27.8831 20.4908 27.889 20.4698 27.8954C20.4284 27.9081 20.402 27.9227 20.393 27.9316Z" fill="#84DC00"/>
<path d="M85.0979 78.7291L84.0553 78.312L82.5957 78.8333L79.0509 79.7717L79.1551 80.3972L80.6148 82.3781C81.7964 82.7257 84.1804 83.4416 84.2638 83.525C84.3681 83.6292 85.3064 84.1505 85.4106 84.359C85.4941 84.5259 86.488 85.9577 86.9745 86.6527C86.627 86.8613 85.9111 87.2991 85.8277 87.3825C85.7234 87.4868 83.3255 87.174 83.2212 87.2783C83.117 87.3825 79.7807 86.8613 79.6764 86.8613C79.5722 86.8613 76.7572 85.9229 76.5487 85.8187C76.3819 85.7353 75.2976 85.2974 74.7763 85.0889L74.0465 84.2548L71.5443 81.0228C71.0925 80.9185 70.168 80.7309 70.0846 80.8143C69.9804 80.9185 63.8291 79.5632 63.6206 79.4589C63.4538 79.3755 61.1184 78.7986 59.9716 78.5206L56.9481 77.6865C55.975 77.3737 54.008 76.7273 53.9246 76.6439C53.8203 76.5397 52.5692 75.6013 52.4649 75.4971C52.3607 75.3928 51.2138 73.7247 51.1096 73.6204C51.0262 73.537 50.6578 73.0296 50.484 72.7864L47.8776 72.5778L44.7498 71.014C43.881 70.2494 42.1225 68.7203 42.0391 68.7203C41.9348 68.7203 41.1008 66.9479 41.1008 66.8436C41.1008 66.7394 40.6837 65.801 40.5795 65.801C40.4961 65.801 39.8497 66.4961 39.5369 66.8436L39.6411 68.9288L39.1199 72.5778L37.6602 74.9758C37.1389 75.2538 36.0546 75.8098 35.8878 75.8098C35.721 75.8098 35.4708 76.0184 35.3665 76.1226C35.5056 76.9914 35.7627 78.7499 35.6793 78.8333C35.5959 78.9168 34.88 80.8143 34.5325 81.7526L34.9495 84.0463C35.1233 83.8378 35.1997 84.0254 34.1154 86.4442C33.0312 88.863 29.1458 89.8847 27.3386 90.0933V88.3209L27.5471 84.0463L27.3386 81.7526C27.1301 81.4051 26.6922 80.71 26.6088 80.71C26.5254 80.71 24.9059 80.154 24.1066 79.8759L22.23 79.7717C20.9094 79.9107 18.2473 80.1887 18.1639 80.1887C18.0596 80.1887 15.7659 80.8143 15.6617 80.71C15.5783 80.6266 15.3489 82.2739 15.2446 83.1079L15.0361 85.0889C14.9666 85.4364 14.8068 86.1523 14.7234 86.2357C14.6399 86.3191 13.9935 87.5216 13.6808 88.1124L15.2446 90.0933L17.2256 92.0742C17.3298 92.1784 19.3107 93.1168 19.415 93.1168C19.4984 93.1168 21.1874 94.3679 22.0214 94.9934L22.9598 95.9317C23.0432 96.0152 23.064 96.592 23.064 96.8701C22.786 97.2176 22.2091 97.9335 22.1257 98.0169C22.0423 98.1003 21.3264 98.2602 20.9789 98.3297L21.7087 99.1638L23.2726 100.102V100.519L22.647 101.353C22.3342 101.562 21.6878 101.979 21.6044 101.979C21.5002 101.979 20.0405 102.604 20.0405 102.709C20.0405 102.792 19.554 102.813 19.3107 102.813C19.554 103.091 20.0405 103.668 20.0405 103.751C20.0405 103.835 20.3186 104.342 20.4576 104.585C20.3881 104.863 20.2282 105.44 20.1448 105.524C20.0405 105.628 19.3107 105.732 19.2065 105.732C19.1022 105.732 16.3915 105.941 16.183 105.941C15.9744 105.941 14.6191 105.628 14.5148 105.628C14.4106 105.628 11.3871 104.377 11.2828 104.377C11.1786 104.377 10.0317 103.647 9.92745 103.647C9.84405 103.647 9.05863 103.021 8.67635 102.709L7.63377 101.353L6.7997 99.7893L4.29749 97.8084C3.91521 97.5999 3.1298 97.1828 3.04639 97.1828C2.94213 97.1828 2.62936 96.7658 2.5251 96.7658C2.44169 96.7658 0.127151 96.6963 -1.01969 96.6616C-2.2708 96.2793 -4.79385 95.5147 -4.87726 95.5147C-4.96066 95.5147 -5.88509 95.1672 -6.33688 94.9934C-6.6149 94.8544 -7.1918 94.5555 -7.27521 94.4721C-7.35861 94.3887 -10.3682 93.1863 -11.8626 92.5955L-14.7818 91.2401L-16.5542 90.1975C-16.867 89.85 -17.5134 89.1549 -17.5968 89.1549C-17.7011 89.1549 -19.1607 88.0081 -19.3692 87.9038C-19.5777 87.7996 -20.7239 86.6534 -21.0371 86.3402L-21.0373 86.34C-21.3501 86.0272 -21.9757 84.4633 -22.0799 84.2548C-22.1842 84.0463 -23.0182 82.0654 -23.0182 81.8568C-23.0182 81.6483 -23.4353 80.3972 -23.4353 80.293C-23.4353 80.1887 -23.6438 78.6248 -23.6438 78.5206C-23.6438 78.4163 -24.2693 77.6865 -24.3736 77.5822C-24.4779 77.478 -25.5205 75.8098 -25.6247 75.7056C-25.729 75.6013 -26.3545 73.3076 -26.4588 73.0991C-26.563 72.8906 -26.8758 69.6586 -26.9801 69.4501C-27.0843 69.2416 -26.4588 65.1755 -26.4588 64.8627C-26.4588 64.5499 -25.9375 60.5881 -25.9375 60.4838C-25.9375 60.3796 -25.5205 58.6072 -25.5205 58.3987C-25.5205 58.1902 -25.4162 57.4603 -25.4162 57.3561C-25.4162 57.2518 -26.146 55.688 -26.146 55.4794C-26.146 55.2709 -26.0417 52.1432 -26.146 51.9346C-26.2503 51.7261 -25.2077 48.2856 -25.2077 48.0771C-25.2077 47.8686 -23.8523 45.4706 -23.7481 45.2621C-23.6438 45.0536 -21.3501 42.0301 -21.3501 41.8216C-21.3501 41.613 -18.5351 39.7364 -18.3266 39.5279C-18.1181 39.3194 -14.469 37.6512 -14.3648 37.6512C-14.2605 37.6512 -13.3222 37.2342 -13.2179 37.1299C-13.1137 37.0257 -11.237 34.5235 -11.1328 34.4192C-11.0494 34.3358 -9.6384 33.3419 -8.94334 32.8553L-6.0241 31.917L-3.62616 31.3957H-2.79209L-1.7495 30.7702C-0.428894 30.5269 2.23318 30.0404 2.31658 30.0404C2.42084 30.0404 6.2784 30.1446 6.38267 30.1446C6.46607 30.1446 8.98913 30.5616 10.2402 30.7702C10.7963 30.9092 11.9292 31.208 12.0126 31.2915C12.096 31.3749 14.8971 31.8823 16.2872 32.1255C17.9206 32.5426 21.2082 33.3766 21.2916 33.3766C21.3959 33.3766 25.2535 34.732 25.3577 34.732C25.4411 34.732 28.3812 35.9831 29.8408 36.6086C30.6402 36.9909 32.2596 37.7763 32.343 37.8597C32.4265 37.9431 34.5325 38.7286 35.5751 39.1108L38.2858 39.3194L41.9348 39.0066L44.2285 39.1108L46.0009 39.5279L48.2946 40.6747L50.1713 42.4471L51.5266 44.011L52.3607 45.6791C52.6735 46.6522 53.299 48.6401 53.299 48.8069C53.299 48.9737 53.5075 50.475 53.6118 51.2048L53.8203 52.0389C54.5154 52.5254 55.9263 53.5194 56.0097 53.6028C56.114 53.707 57.4694 55.1667 57.5736 55.2709C57.657 55.3543 58.79 56.7653 59.346 57.4603L60.5971 60.5881L60.8056 61.8392V63.2988C60.8056 63.4031 60.7014 64.1329 60.5971 64.2371C60.5137 64.3206 61.744 64.6194 62.3695 64.7584C63.3426 65.0712 65.2887 65.7176 65.2887 65.801C65.2887 65.9053 67.9995 66.7394 68.208 66.8436C68.3748 66.927 70.1541 67.7124 71.023 68.0947C71.718 68.6508 73.129 69.7629 73.2124 69.7629C73.3167 69.7629 74.8805 71.6395 74.8805 71.7438C74.8805 71.848 76.4444 72.6821 76.5487 72.6821C76.6529 72.6821 77.487 72.4736 77.5913 72.4736C77.6747 72.4736 79.3637 72.0565 80.1977 71.848C80.6843 71.709 81.6782 71.431 81.7616 71.431C81.845 71.431 82.9084 71.2225 83.4297 71.1182C84.1943 71.0487 85.7651 70.9097 85.9319 70.9097C86.1405 70.9097 88.4341 70.9097 88.5384 71.014C88.6218 71.0974 89.8938 71.2572 90.5193 71.3267C90.8668 71.5352 91.5828 71.9523 91.6662 71.9523C91.7496 71.9523 92.1875 73.1339 92.396 73.7247L92.9173 74.663L93.9598 75.1843L95.4195 76.6439C95.7322 77.1305 96.3786 78.1035 96.4621 78.1035C96.5663 78.1035 97.0876 79.3546 97.0876 79.4589C97.0876 79.5423 97.3656 80.3277 97.5046 80.71V81.5441C97.5046 81.6275 97.2266 81.6483 97.0876 81.6483V82.5867L95.0024 83.4207C94.6202 83.4555 93.8347 83.5458 93.7513 83.6292C93.6679 83.7126 92.8825 83.5945 92.5002 83.525L91.0406 82.8994L90.6236 82.0654C90.4498 81.7526 90.1023 81.1062 90.1023 81.0228C90.1023 80.9185 89.4768 80.2931 89.3725 80.1887L89.3725 80.1887C89.2891 80.1053 88.5037 79.8759 88.1214 79.7717L86.766 79.2504L85.0979 78.7291Z" fill="#FEBC13"/>
<path d="M33.3595 37.1291C33.3595 37.0114 33.2418 36.8937 33.2418 36.776L31.241 35.7167L21.3546 37.1291C19.1576 37.5998 14.6931 38.5414 14.4106 38.5414C14.0575 38.5414 12.9982 39.6006 12.8805 40.0714C12.7864 40.4481 10.6443 41.4053 9.58509 41.8369L5.46576 42.4253L3.70034 43.0138C2.87647 43.72 1.15812 45.1323 0.875656 45.1323C0.593189 45.1323 -0.183598 45.6031 -0.536682 45.8385L-1.94902 46.427L-1.00747 49.9578L-2.89058 48.4278L-2.06672 51.6055L-2.18441 52.3117C-2.34134 53.0963 -2.67873 54.6656 -2.77289 54.6656C-2.86705 54.6656 -3.75368 56.9411 -4.18523 58.0788C-4.22446 58.5103 -4.30293 59.397 -4.30293 59.4911C-4.30293 59.5853 -4.06754 60.9427 -3.94984 61.6096L-3.47906 64.4343C-3.2829 65.3366 -2.89058 67.1884 -2.89058 67.3767C-2.89058 67.565 -3.12597 70.0444 -3.24367 71.2606L-3.94984 73.6145C-4.22446 74.203 -4.7737 75.4035 -4.7737 75.4976C-4.7737 75.5918 -5.16602 76.0076 -5.36218 76.2038C-4.93063 76.3607 -4.06754 76.6981 -4.06754 76.7923C-4.06754 76.8864 -2.65519 78.0085 -1.94902 78.5577L-0.0659027 81.5001L1.93491 84.0894C2.64108 84.6778 4.07696 85.8783 4.17112 85.9725C4.28881 86.0902 6.28963 87.1494 6.40732 87.1494C6.52502 87.1494 8.40814 87.7379 8.40814 87.6202C8.40814 87.5025 11.4682 86.561 11.5859 86.561C11.6801 86.561 12.8805 86.0117 13.469 85.7371L14.7637 85.8548C14.9206 84.7563 15.2344 82.5358 15.2344 82.4416C15.2344 82.3239 15.5875 81.147 15.7052 81.0293C15.8229 80.9116 17.353 80.2054 17.5883 80.2054C17.7767 80.2054 21.1977 79.8916 22.8846 79.7347C23.9831 79.97 26.1801 80.4644 26.1801 80.5585C26.1801 80.6527 26.8078 81.0685 27.1216 81.2647L27.5924 83.5009L27.4747 87.2671L27.357 90.2095C27.9455 90.1311 29.146 89.9506 29.2402 89.8564C29.3343 89.7623 30.6133 89.3464 31.241 89.1503L33.2418 87.7379C33.5164 87.3064 34.0421 86.4433 33.948 86.4433C33.8303 86.4433 34.7718 85.2663 34.7718 85.1486C34.7718 85.0545 34.8503 84.0894 34.8895 83.6186C34.7326 83.1086 34.4187 82.065 34.4187 81.9709C34.4187 81.8532 35.2426 79.97 35.3603 79.7347C35.4545 79.5463 35.5565 78.5577 35.5957 78.0869C35.5172 77.5377 35.3603 76.3921 35.3603 76.2038C35.3603 76.0155 36.6157 75.5761 37.2434 75.3799C37.5965 74.9092 38.3262 73.9676 38.4204 73.9676C38.5145 73.9676 39.0873 72.3199 39.3619 71.496L39.715 68.3182L39.4796 66.9059L39.9504 66.6705L41.5981 65.0228C41.7158 64.9051 42.7751 62.9043 42.7751 62.6689C42.7751 62.4335 43.8343 60.315 43.8343 60.1973C43.8343 60.1031 44.1482 58.118 44.3051 57.1372L44.1874 51.3702L43.5989 49.2516C43.8736 49.0947 44.3757 48.7102 44.1874 48.4278C43.952 48.0747 43.2459 47.2508 43.3636 47.0154C43.4577 46.8271 43.952 45.6816 44.1874 45.1323H42.7751L41.7158 42.8961C42.6966 42.9746 44.6582 43.108 44.6582 43.0138C44.6582 42.9196 42.8535 41.013 41.9512 40.0714L40.1858 39.6006L40.7743 39.1299H39.715C39.6209 39.1299 38.3419 39.2083 37.7142 39.2476C37.1257 39.2083 35.9252 39.1299 35.8311 39.1299C35.7134 39.1299 34.5364 38.5414 34.4187 38.5414C34.301 38.5414 33.5949 38.306 33.4772 38.1883C33.3595 38.0706 33.3595 37.2467 33.3595 37.1291Z" fill="#EEDAAE"/>
<path d="M35.7051 40.68C35.9413 40.4141 36.1558 40.1608 36.7145 39.4843C36.774 39.4349 36.7148 39.1801 36.7444 39.1704C36.774 39.1607 36.8031 39.1607 36.8327 39.1657C37.0305 39.1901 37.3044 39.2003 37.4753 39.2245C37.6473 39.249 37.8261 39.2411 38.0982 39.2834C38.2552 39.3078 38.4115 39.3294 38.5442 39.3422C38.7966 39.3667 39.1267 39.391 39.2945 39.4206C39.4921 39.4555 39.749 39.4954 40.109 39.5482C40.2754 39.5726 40.411 39.6004 40.5992 39.6316C40.7756 39.6609 40.89 39.6973 41.0354 39.7149C41.1581 39.7297 41.3134 39.7842 41.4573 39.9116C41.6289 40.0634 42.0523 39.7447 42.1872 39.8374C42.3295 39.9352 42.1551 40.3753 42.3252 40.4802C42.6228 40.6637 43.0699 40.9172 43.1932 40.9853C43.3355 41.0638 43.4816 41.1059 43.5707 41.2061C43.6885 41.3386 43.8039 41.4576 43.8992 41.5739C44.0122 41.7117 44.1085 41.8599 44.164 42.0108C44.267 42.2908 45.4287 42.6 45.4827 42.7798C45.5268 42.9269 44.5278 43.0371 44.8346 43.651C45.0491 44.0803 45.4278 44.8571 45.6321 45.2655C45.8365 45.6739 45.8656 45.7128 45.9352 45.8672C46.0048 46.0217 46.1116 46.2839 46.225 46.6701C46.3384 47.0563 46.455 47.5515 46.5733 48.6844C46.6915 49.8174 46.8081 51.536 46.8363 52.6805C46.8645 53.8249 46.8063 54.3784 46.7221 54.8402C46.638 55.302 46.5312 55.6612 46.4177 55.9609C46.3043 56.2606 46.194 56.4973 46.0795 56.6852C45.8741 57.0224 45.716 57.257 45.55 57.4146C45.3542 57.6006 45.1767 57.7662 45.0159 57.8355C44.766 57.943 44.4079 58.0776 44.3154 57.9229C44.2861 57.8739 44.2721 57.812 44.2419 57.7561C44.1782 57.6382 44.1107 57.524 44.0703 57.403C44.031 57.2851 43.9957 57.1659 43.9231 57.0253C43.8545 56.8926 43.7859 56.7404 43.7221 56.584C43.6679 56.4513 43.5897 56.3144 43.5111 56.1966C43.4326 56.0788 43.1925 55.788 42.8559 55.4681C42.3607 54.9974 41.9524 54.6454 41.7686 54.479C41.5091 54.2439 41.319 54.0829 41.1802 53.9542C40.9106 53.7043 40.6736 53.5308 40.6719 53.4452C40.6673 53.2241 40.7341 52.7685 40.9626 52.3402C41.2758 51.7529 41.5487 51.4466 41.5842 51.224C41.5889 51.1944 41.5824 51.1634 41.5643 51.1357C41.4806 51.0079 41.3457 50.7904 41.2009 50.6105C40.9998 50.3605 40.8278 50.0424 40.2785 49.5314C40.1371 49.3999 39.9513 49.1817 39.5906 48.9176C39.2432 48.6634 39.0591 48.5153 39.0734 48.4581C39.0881 48.3994 39.078 48.257 39.1579 47.84C39.2179 47.5264 39.31 47.0134 39.4327 46.684C39.6963 45.9764 40.0065 45.7189 39.8626 45.6189C39.8134 45.5848 39.4579 45.4744 38.7133 45.4327C38.2828 45.4085 37.7481 45.4074 37.4267 45.4331C36.9979 45.4674 36.8277 45.4681 36.5786 45.5218C35.6935 45.7128 35.5244 45.7921 35.2067 45.8847C34.6543 46.0458 34.4687 46.1612 34.3065 46.0603C34.2824 46.0453 34.2944 46.0168 34.3019 45.9866C34.3312 45.8687 34.3523 45.7058 34.4738 45.3731C34.5472 45.172 34.6561 44.8927 35.058 44.142C35.3628 43.5725 35.9257 42.5084 36.2521 41.9449C36.6268 41.298 36.7554 41.158 36.7684 41.0434C36.7728 41.0044 36.7439 40.9921 36.7091 40.9898C36.6357 40.985 36.4966 40.992 36.3314 41.0194C36.1843 41.0438 36.024 41.0674 35.8556 41.1127C35.6741 41.1615 35.2155 41.304 35.3272 41.1459C35.4208 41.0135 35.5715 40.8304 35.7051 40.68Z" fill="#FEBC13"/>
<path d="M43.3046 38.9437C44.6594 39.0479 45.2803 39.2199 45.7103 39.4037C46.0584 39.5524 46.4834 39.7423 46.969 39.9333C47.332 40.0762 48.2141 40.6587 48.7773 41.0716C49.2568 41.423 49.8895 42.1225 50.2018 42.5044C50.3984 42.7448 50.5672 42.9566 50.8706 43.3035C51.2685 43.7585 51.4701 44.1024 51.7917 44.4767C52.0705 44.8011 52.1999 45.1106 52.3399 45.3806C52.4323 45.5589 52.6685 46.2876 52.9724 47.2604C53.1457 47.8148 53.2435 48.1507 53.3045 48.4304C53.3603 48.6861 53.3999 49.0036 53.4262 49.4978C53.4472 49.8921 53.5042 50.0983 53.5305 50.4541C53.5441 50.6376 53.574 51.0689 53.5998 51.6246C53.6261 52.1902 54.578 52.5994 54.9719 52.8442C55.1965 52.9838 55.5184 53.2427 55.8231 53.5042C56.1824 53.8124 56.4401 54.1122 56.7781 54.407C57.5705 55.098 57.9508 55.7616 58.3855 56.3178C58.8363 56.8946 59.0465 57.2045 59.3247 57.6218C59.553 57.9644 59.8285 58.5766 59.9854 58.8649C60.1711 59.206 60.3498 59.8788 60.5846 60.6701C60.7392 61.1908 60.7679 61.6189 60.8111 62.0255C60.82 62.723 60.8028 63.2354 60.7767 63.3394C60.7679 63.3918 60.7679 63.4434 60.7679 63.4966" stroke="black" stroke-width="0.904754" stroke-linecap="round"/>
<path d="M-2.9361 31.541C-1.94617 31.0025 -1.66936 30.8988 -1.42514 30.7682C-1.18051 30.6374 -0.645543 30.5339 0.647263 30.3254C1.21114 30.2344 1.97552 30.2378 2.62192 30.1945C3.59491 30.1294 4.35574 30.1335 4.89945 30.1768C5.24754 30.2045 5.6965 30.2378 6.28791 30.281C7.38236 30.3611 7.7994 30.342 8.21826 30.3853C8.56535 30.4212 8.87847 30.4807 9.20011 30.507C9.48734 30.5506 9.73027 30.585 10.1371 30.6457C10.3532 30.6887 10.7145 30.7747 11.0867 30.8633" stroke="black" stroke-width="0.904754" stroke-linecap="round"/>
<path d="M43.3562 39.0485C41.8424 39.0829 40.7013 39.1351 40.0679 39.2044C39.621 39.2533 39.2917 39.3092 39.0141 39.3178C38.8038 39.3243 37.9426 39.3441 36.6837 39.3008C36.1984 39.2841 36.0268 39.2404 35.4823 39.042C34.9378 38.8437 34.0261 38.4824 33.522 38.2705C32.9407 38.0261 32.7922 37.9194 32.4555 37.7555C32.2017 37.6319 31.7918 37.4023 30.8308 37.0032C29.8698 36.6042 28.3732 36.0365 27.5592 35.7182C26.653 35.3639 26.0373 35.0544 25.1863 34.6809C24.871 34.5425 24.7825 34.531 24.3168 34.3931C23.0057 34.005 22.0708 33.6969 21.8461 33.6104C21.4591 33.4613 21.1325 33.3842 20.7788 33.2546C19.4036 32.751 18.9618 32.7242 18.4405 32.5764C17.9291 32.4314 17.5887 32.3416 16.7562 32.1422C16.3044 32.0339 15.8184 31.9423 15.416 31.8982C15.1327 31.8672 14.8259 31.8026 14.4951 31.7593C14.269 31.7297 13.9918 31.6983 13.7043 31.6464C13.4632 31.6029 13.1921 31.5075 12.9656 31.4812C12.7496 31.4561 12.48 31.3855 12.2272 31.3336C11.9748 31.2819 11.7669 31.2469 11.5581 31.1773C11.4541 31.1426 11.2977 31.1249 11.1156 31.1163C11.0366 31.1077 10.985 31.0905 10.9839 30.9685" stroke="black" stroke-width="0.904754" stroke-linecap="round"/>
<path d="M34.7419 24.9317C34.7419 25.0359 34.4292 26.287 34.4292 26.3913L34.3249 27.3296L33.6994 30.1446L33.3866 31.917L32.9695 34.4192V35.2533C32.9695 35.3575 33.2823 36.6086 33.2823 36.7129V37.3384C33.0738 38.103 32.5734 39.6321 32.2397 39.6321C31.8227 39.6321 17.1223 43.6982 16.3924 43.6982C15.6626 43.6982 -13.3212 46.3047 -13.3212 46.2004C-13.3212 46.0962 -12.5914 44.8451 -12.4872 44.7408L-10.402 42.6556C-10.2977 42.5514 -7.58702 40.9875 -7.58702 40.8832C-7.58702 40.779 -6.96147 39.7364 -6.85721 39.6321C-6.75295 39.5279 -4.66778 38.1725 -4.66778 38.0683C-4.66778 37.9848 -0.775467 35.6008 1.17069 34.4192L2.00476 34.2107C2.38705 33.2029 3.17246 31.1663 3.25587 31.0829C3.36012 30.9787 4.81974 28.3722 4.924 28.1637C5.00741 27.9969 6.20986 25.6615 6.80066 24.5146L8.99009 20.7613C9.68514 19.8578 11.0753 18.0298 11.0753 17.9464C11.0753 17.8629 11.9788 16.313 12.4306 15.5484C12.5001 15.0619 12.6391 14.0679 12.6391 13.9845C12.6391 13.9011 12.7086 11.3781 12.7434 10.127L13.1604 8.35457L14.0988 7.20773L15.1413 7.10347L16.3924 7.93754C16.8095 8.45883 17.6644 9.54312 17.7478 9.70993C17.8312 9.87674 18.6861 11.2391 19.1032 11.8994L20.667 11.7951L25.5672 11.8994L26.297 10.8568L29.112 8.25031L29.7375 8.04179L30.1546 8.87586L29.7375 10.544C29.668 11.0305 29.5082 12.0245 29.4248 12.1079C29.3205 12.2121 29.7375 12.5249 29.7375 12.6292C29.7375 12.7334 30.1546 13.5675 30.1546 13.6718C30.1546 13.776 31.7184 15.0271 31.7184 15.1314C31.7184 15.2148 32.8305 16.1392 33.3866 16.591L33.9079 18.0506L34.2207 20.3443L34.6377 23.055C34.6724 23.6458 34.7419 24.8483 34.7419 24.9317Z" fill="#FEBC13"/>
<path d="M13.8133 25.284L15.0212 24.8591L15.5186 25.1424L18.645 26.2047L22.624 25.709L25.0399 24.8591C26.2952 24.6466 28.82 24.2075 28.8768 24.1509C28.9479 24.0801 30.6532 24.0092 30.7242 24.0092C30.7811 24.0092 32.4532 23.8204 33.2822 23.726L33.7796 23.9384L34.5999 25.3342L34.4926 26.4064C34.469 26.666 34.2691 26.8865 34.2782 26.9424C34.4565 28.0382 34.1822 28.231 34.0638 28.4435C33.8506 28.8212 33.7421 29.8878 33.7421 29.9445C33.7421 30.0011 33.4067 31.9403 33.0988 32.6249C32.9094 32.9318 32.9412 34.7186 32.8844 34.662C32.8133 34.5912 32.9916 35.6633 32.9916 35.7341C32.9916 35.7908 33.5139 37.2135 33.206 37.4496L32.7772 36.9135C32.7061 37.126 31.0114 37.5568 30.9545 37.5568C30.8977 37.5568 29.7614 37.8696 29.4535 38.2001L27.8452 39.7011L26.237 39.8084L25.2721 38.8434L24.8432 38.8109C24.559 38.8346 23.399 39.0578 23.3422 39.0578C23.2711 39.0578 22.9844 39.1651 22.9133 39.1651C22.8423 39.1651 22.624 39.0234 22.4819 39.0234C22.3682 39.0234 21.5768 39.6175 21.1979 39.5939L20.3401 39.8084L19.4824 40.0228L17.8742 40.3444C17.4242 40.2264 16.5372 40.3444 16.4804 40.3444C16.4235 40.3444 13.8547 39.7336 13.0494 39.3795L13.9554 36.9696C13.4343 36.6155 12.378 35.8931 12.3211 35.8364C12.2643 35.7798 12.0606 35.624 11.9659 35.5532C11.8711 35.4587 11.6674 35.2699 11.6106 35.2699C11.5395 35.2699 11.3974 34.9866 11.3974 34.9158C11.3974 34.8591 11.208 34.7033 11.1132 34.6325L10.7579 34.2784C10.6395 34.1839 10.3885 33.9809 10.3316 33.9243C10.2606 33.8534 10.1184 33.5702 10.1184 33.4993C10.1184 33.4427 10.0711 33.2869 10.0474 33.216L12.7475 26.9837L13.8133 25.284Z" fill="#EEDAAE"/>
<path d="M13.198 30.4305C13.1783 30.0677 13.1583 29.8037 12.8252 27.1962C12.9229 27.1385 12.9035 27.1271 12.9038 27.1962C12.9235 27.3431 12.9829 27.4808 13.1012 27.5682C13.2972 27.5973 13.4728 27.5745 13.5911 27.5381C13.8468 27.4596 14.1319 27.2848 14.4544 27.3719C14.7095 27.4408 14.9688 27.4818 15.3274 27.745C15.6923 28.0128 16.0737 28.7229 16.4058 29.2562C16.6327 29.6205 17.2124 29.9329 17.6519 30.8162C17.7684 31.0505 17.7528 31.2292 17.6993 31.4439C17.5719 31.9544 17.298 32.3231 17.4942 33.4167C17.6119 34.0729 17.7147 34.4205 17.7687 34.8664C17.8273 35.3499 17.6036 35.964 17.8084 36.6613C17.8484 36.7975 17.9265 36.8156 17.995 36.8366C18.1221 36.8758 18.9809 36.9118 20.2259 36.8852C20.6943 36.8752 20.8497 36.8558 22.0278 36.8461C23.2059 36.8364 25.3428 36.8055 26.4502 36.8464C27.7737 36.8952 28.0121 37.0435 29.3652 36.944C30.0299 36.8952 30.3052 36.8769 30.7949 36.8263C31.268 36.7775 31.8403 36.7623 32.0692 36.9055C32.3049 37.0529 32.8125 36.4617 33.0787 36.8263C33.265 37.0815 33.2996 38.0023 33.2944 38.3396C33.2841 39.0149 33.2136 39.2838 33.1862 39.5442C33.1276 40.1 32.9703 41.0002 33.0788 42.2927C33.1082 42.6434 33.2266 43.2685 33.1176 44.0878C33.0488 44.6054 33.0685 44.9482 32.8719 45.1247C32.7739 45.2127 32.6666 45.3155 32.5383 45.3598C32.2826 45.4481 31.8876 45.4732 31.5867 45.5461C31.2621 45.6246 30.914 45.6902 30.6348 45.9195C30.2029 46.2743 29.9201 46.729 29.6839 46.979C29.5173 47.1553 29.1464 47.3417 28.7314 47.2324C27.9808 47.0346 27.1026 46.5813 26.0986 46.5753C24.5735 46.5662 24.2824 46.5242 23.7385 46.6842C23.0035 46.9005 22.6239 47.1134 22.3085 47.3021C22.0631 47.4489 21.8376 47.6192 21.5926 47.7826C21.3569 47.9397 21.1045 48.1753 20.7193 48.3613C20.4154 48.5082 20.1343 48.5492 19.876 48.6159C19.5315 48.7047 19.1386 48.7747 18.7382 48.8907C18.4334 48.9789 18.1285 49.0814 17.7269 49.1949C16.9587 49.4121 16.0383 49.907 15.4707 50.2948C14.7248 50.8044 14.1737 51.0652 13.7753 51.0086C13.4314 50.9598 12.9777 51.0071 12.6366 50.8709C11.8189 50.5443 10.8935 49.979 10.6078 49.5954C10.3513 49.2508 10.216 48.6817 8.97777 47.6322C8.52818 47.2512 8.28202 47.0716 8.05769 46.8987C7.802 46.7015 7.56197 46.4228 7.10348 46.1119C6.03422 45.3869 5.13419 45.2227 4.85079 44.8779C4.80195 44.8184 4.77198 44.7399 4.78283 44.6719C4.82196 44.4265 4.86627 44.1931 4.93995 43.936C5.09854 43.3825 5.26088 42.7149 5.35188 42.2883C5.41043 42.0138 5.14925 41.1055 5.69614 40.906C5.88239 40.838 6.14364 41.0675 6.96166 40.8568C7.11701 40.8168 7.11443 40.7387 7.12702 40.6703C7.17586 40.4049 7.19417 39.9563 7.35358 39.5101C7.70667 38.5217 8.49154 37.9184 8.06799 37.7182C7.82083 37.6014 7.39581 37.6425 7.08671 37.4634C7.01815 37.4236 6.96247 37.3657 6.96989 37.3062C6.99932 37.0706 7.05412 36.7107 7.33622 35.7559C7.516 35.1474 7.84958 34.0804 8.0212 33.5053C8.2157 32.8536 8.255 32.2796 8.64793 31.8926C8.70707 31.8343 8.76541 31.8339 8.82447 31.8443C9.10018 31.8932 9.53418 31.9559 9.8649 32.0309C10.296 32.1285 11.0529 32.6999 11.2375 32.0473C11.354 31.6354 11.374 31.2235 11.4132 30.9495C11.4329 30.8115 11.4452 30.6319 11.7321 30.6076C12.5363 30.5397 13.2044 30.5484 13.198 30.4305Z" fill="#EEDAAE"/>
<path d="M31.9201 30.9091C31.7056 31.1236 31.2339 31.5524 31.0623 31.5524L30.8479 31.7668L29.7757 32.1957L29.1324 32.6246C28.5606 32.8033 27.3955 33.1821 27.3098 33.2679C27.2025 33.3751 26.3448 32.839 26.2376 32.839C26.1304 32.839 25.2727 32.6246 25.1654 32.6246C25.0582 32.6246 23.8789 32.3029 23.7716 32.3029C23.6644 32.3029 22.485 31.8741 22.3778 31.7668C22.2706 31.6596 21.7345 31.338 21.6273 31.338C21.5201 31.338 20.7696 30.6947 20.6624 30.5875C20.5552 30.4803 20.2335 29.9442 20.1263 29.837C20.0191 29.7297 19.8046 29.1937 19.6974 29.0864C19.5902 28.9792 19.8046 28.4432 19.6974 28.4432C19.5902 28.4432 19.483 27.4782 19.483 27.1566C19.483 26.8992 19.7689 26.692 19.9119 26.6205L20.7696 26.7277H21.7345C22.0919 26.8707 22.8067 27.178 22.8067 27.2638C22.8067 27.3495 23.8789 27.5854 24.4149 27.6926L26.2376 28.1215L27.9531 27.9071C28.3819 27.7999 29.2611 27.5854 29.3469 27.5854C29.4326 27.5854 29.8829 27.4425 30.0974 27.371L30.7407 27.4782C31.0623 27.514 31.7271 27.564 31.8128 27.4782C31.9201 27.371 32.1345 27.4782 32.1345 27.5854C32.1345 27.6927 32.2417 28.336 32.1345 28.336C32.0273 28.336 32.2417 29.3009 32.2417 29.4081C32.2417 29.5153 32.1345 30.1586 32.1345 30.2658C32.1345 30.3516 31.9915 30.7304 31.9201 30.9091Z" fill="white"/>
<path d="M13.4759 28.2523C13.207 27.7376 12.9702 27.3711 12.8067 27.0591L12.8067 27.0591C12.8129 27.0839 12.819 27.1079 12.8189 27.1106C12.8127 27.0953 12.7942 27.0588 12.7698 27.0225C12.7208 26.9435 12.6661 26.8652 12.6046 26.8013C12.5374 26.7315 12.4766 26.5954 12.3261 26.5287C12.2922 26.5137 12.2524 26.5074 12.2315 26.523C12.195 26.5502 12.1794 26.6204 12.1153 26.6838C12.0112 26.7868 11.8838 26.8556 11.736 27.0324C11.6321 27.1566 11.5648 27.2333 11.5034 27.4033C11.3386 27.8598 11.285 28.0205 11.2134 28.1594C11.1489 28.2845 11.0483 28.531 10.9809 28.6504C10.9107 28.7747 10.8371 28.9749 10.6796 29.2715C10.5831 29.4535 10.4029 29.7843 10.3044 29.9578C10.1952 30.15 10.1533 30.2445 10.1034 30.3381C10.0484 30.4411 10.0197 30.5106 10.0057 30.632C9.99338 30.7385 9.97927 30.8601 9.95981 30.9957C9.94458 31.1018 9.94254 31.2359 9.92312 31.4019C9.90789 31.5319 9.90028 31.6294 9.88642 31.7291C9.86496 31.8836 9.83467 31.9912 9.83753 32.0804C9.84074 32.1806 9.80671 32.385 9.88972 32.6413C9.93871 32.7926 9.98935 32.8761 10.0518 32.9834C10.1101 33.0835 10.0948 33.1414 10.0518 33.2766C10.0037 33.428 10.3758 33.7234 10.4411 33.7862C10.5423 33.8835 10.6385 33.9412 10.6796 34.0226C10.7164 34.0954 10.9107 34.2589 10.9809 34.3233C11.0603 34.3961 11.1699 34.397 11.2134 34.4801C11.2593 34.568 11.3177 34.7639 11.3177 34.622C11.3177 34.5352 11.4828 34.819 11.4828 34.819C11.4828 34.819 11.5398 34.8789 11.6112 34.8767C11.6204 34.8765 11.6259 34.8582 11.6357 34.8402C11.6754 34.7674 11.7124 34.6973 11.7212 34.622C11.7305 34.543 11.6197 34.1067 11.7826 34.1071C11.8161 34.1072 11.8542 34.1065 11.8927 34.1163C12.0002 34.1438 12.1943 34.1988 12.2964 34.1464C12.3851 34.1009 12.4747 34.0506 12.4887 33.9675C12.501 33.8947 12.5019 33.723 12.5316 33.5704C12.5488 33.482 12.5659 33.4139 12.5834 33.344L12.5866 33.3312C12.6049 33.2584 12.5814 33.1389 12.6479 33.1072C12.6603 33.1013 12.6781 33.1084 12.7 33.1134C12.8074 33.1377 13.0396 33.1753 13.4029 33.3756C13.5703 33.4678 13.8286 33.6214 13.9701 33.6959C14.1647 33.7983 14.4712 34.0128 14.4702 33.8676C14.47 33.8403 14.4352 33.7847 14.3719 33.6793C14.2682 33.5067 14.1922 33.3922 14.1489 33.2766C14.0965 33.1362 13.9408 32.7515 13.8394 32.4473C13.7233 32.099 13.6349 31.8471 13.6106 31.7671C13.5464 31.5552 13.3496 31.2009 13.4398 30.9404C13.4492 30.9134 13.4677 30.912 13.4858 30.9165C13.5224 30.9256 13.5605 30.9246 13.599 30.9347C13.7501 30.9745 14.0935 31.0848 14.0788 30.9981C14.0664 30.9251 14.0446 30.7981 13.9654 30.6221C13.9134 30.5065 13.7499 30.2529 13.8618 30.2376C13.9262 30.2287 14.0031 30.2415 14.116 30.2834C14.2627 30.3378 14.572 30.4294 14.5496 30.3102C14.5434 30.2769 14.5167 30.2415 14.3104 29.8487C14.1141 29.475 13.7448 28.767 13.4759 28.2523Z" fill="#FEBC13"/>
<path d="M33.635 23.5826V25.441L33.4213 26.6561C33.445 26.394 33.2931 25.6411 32.4952 24.7262C31.6974 23.8113 30.3582 24.1068 29.7883 24.3688L27.0814 24.7977C26.2741 25.0598 24.6451 25.5554 24.5882 25.441C24.5169 25.298 20.1004 27.7283 17.251 26.6561C14.9714 25.7984 13.2143 26.4893 12.6207 26.942C12.6207 26.2987 12.8486 24.5976 13.7604 22.9393C14.9002 20.8664 17.5359 22.5819 19.3168 24.3688C21.0976 26.1558 24.0895 24.9407 24.8731 24.2259C25.6567 23.5111 28.2924 24.0829 30.287 23.8685C31.8826 23.6969 31.7117 21.4144 31.4267 20.2946H32.2103L33.0651 21.9386L33.635 23.5826Z" fill="#FDF1E0"/>
<path d="M19.103 11.9248C18.7342 11.2999 18.4467 10.8069 18.2973 10.5698C18.1574 10.3479 18.0049 10.1285 17.7023 9.62626C17.4708 9.24196 17.1434 8.8258 16.9314 8.55682C16.7401 8.31403 16.3737 7.96309 16.1405 7.70428C15.9824 7.52882 15.8068 7.41651 15.6323 7.26261C15.5182 7.162 15.3755 7.12873 15.2214 7.06203C15.0759 6.99903 14.9034 7.00549 14.6006 7.0001C14.3846 6.99625 14.2046 7.10778 14.0812 7.17957C13.9549 7.25307 13.8454 7.39494 13.7166 7.54391C13.611 7.66609 13.5163 7.81582 13.429 7.95477C13.3146 8.1368 13.2285 8.31927 13.1618 8.52955C13.1025 8.7165 13.0745 8.88372 13.0384 9.02807C13.0006 9.17943 12.9716 9.36684 12.9204 9.56695C12.8831 9.71296 12.8588 9.96149 12.8177 10.1883C12.7696 10.4532 12.7766 10.5891 12.7662 11.0525C12.7661 11.4651 12.7762 12.2378 12.7459 13.0172C12.7155 13.7965 12.6444 14.5591 12.571 15.3448" stroke="black" stroke-width="0.930418" stroke-linecap="round"/>
<path d="M19.656 11.8325C20.3271 11.8224 20.9981 11.8122 21.9285 11.8324C22.8588 11.8526 24.0281 11.9034 24.6609 11.9347C25.3552 11.969 25.56 11.9866 25.7808 11.9713C25.8592 11.9561 25.8693 11.9256 25.8797 11.8794C25.89 11.8332 25.9001 11.7722 25.9106 11.7093" stroke="black" stroke-width="0.930418" stroke-linecap="round"/>
<path d="M25.571 11.7706C25.8252 11.486 26.0794 11.2013 26.4188 10.8309C26.7582 10.4606 27.1751 10.0132 27.6898 9.5387C28.2045 9.06422 28.8043 8.57617 29.1286 8.3095C29.5606 7.95429 29.6994 7.90912 29.7609 7.90388C29.9031 7.89176 29.9764 8.21568 30.0385 8.49298C30.0654 8.61307 30.059 8.81896 30.054 9.06098C30.0491 9.303 30.0288 9.57753 29.9166 10.1511C29.8045 10.7246 29.6011 11.5889 29.4811 12.0748C29.289 12.7665 29.2582 12.8999 29.2377 12.9921C29.2274 13.0336 29.2172 13.0641 29.2067 13.0955" stroke="black" stroke-width="0.930418" stroke-linecap="round"/>
<path d="M29.762 12.6333C30.006 13.1214 30.25 13.6094 30.5028 13.9625C30.7556 14.3156 31.0098 14.519 31.3543 14.7813C31.6987 15.0437 32.1258 15.3589 32.3915 15.567C32.7586 15.8545 32.9854 16.1338 33.2367 16.4516C33.5912 16.9 33.7458 17.4676 33.8288 17.7678C33.8793 17.9502 33.911 18.1787 33.9265 18.3532C33.9386 18.489 33.9726 18.6507 33.9881 18.7951C34.0016 18.9204 34.0342 19.0821 34.0703 19.4356C34.1303 20.0245 34.1063 20.2122 34.2442 20.6727C34.4223 21.2674 34.4656 21.383 34.5016 21.792C34.5775 22.6532 34.5377 22.8619 34.5632 23.0057C34.603 23.229 34.6196 23.4159 34.6352 23.5707C34.654 23.7577 34.6917 24.4697 34.7173 25.0278C34.7336 25.3844 34.7124 25.6861 34.6919 25.8246C34.6787 25.9136 34.5287 26.4419 34.3284 27.212C34.2296 27.5919 34.2295 27.7609 34.204 27.9404C34.1611 28.241 34.1476 28.4079 34.132 28.5313C34.1135 28.6783 34.0145 28.9206 33.9217 29.1115C33.8808 29.1782 33.7988 29.3926 33.6149 30.28C33.4919 30.9843 33.3089 32.2044 33.1204 33.4615" stroke="black" stroke-width="0.930418" stroke-linecap="round"/>
<path d="M33.1811 32.8146C33.1099 33.4755 33.0387 34.1364 33.0071 34.5683C32.9623 35.1821 33.0267 35.5447 33.0729 35.8321C33.1456 36.2842 33.2735 36.8194 33.2991 36.953C33.3043 37.0449 33.3145 37.1278 33.3299 37.1994C33.3351 37.2406 33.3299 38.1369 33.3299 38.1893" stroke="black" stroke-width="0.930418" stroke-linecap="round"/>
<path d="M12.7239 14.9439C12.4392 15.493 12.1545 16.042 11.9265 16.4825C11.5355 17.2379 11.3377 17.6035 11.1899 17.8177C10.8625 18.2917 10.5478 18.7324 10.3325 18.9885C10.1149 19.2474 9.97221 19.503 9.81862 19.7128C9.4839 20.1701 9.35568 20.366 9.20717 20.5504C8.82831 21.0209 8.72899 21.3212 8.63163 21.5213C8.51013 21.771 8.32845 22.0813 8.06378 22.5345C7.82639 22.941 7.35174 23.6893 7.0803 24.143C6.73444 24.7211 6.67483 24.9057 6.59841 25.0792C6.30813 25.7382 6.12115 26.0032 5.96664 26.2557C5.85706 26.4348 5.70028 26.763 5.50016 27.0914C5.39705 27.2607 5.12627 27.6956 4.76178 28.3219C4.60152 28.5972 4.44751 28.909 4.22166 29.3195C4.10996 29.5226 3.86302 29.9858 3.50361 30.6224C3.28932 31.0019 3.21384 31.2626 3.09599 31.5806C3.01617 31.7959 2.81453 32.3885 2.65939 32.8287C2.58219 33.0479 2.50519 33.2961 2.30553 33.8392C2.22321 34.0631 2.1256 34.2815 2.02777 34.462C1.91709 34.6663 1.8483 34.8774 1.75556 35.1396C1.72024 35.2394 1.56145 35.7062 1.34593 36.3837C1.21333 36.8005 1.03735 37.0538 0.746037 37.6771C0.550935 38.0946 0.281871 38.7275 0.120114 39.0878C-0.0416434 39.4482 -0.0823138 39.5193 -0.133768 39.5967C-0.185222 39.674 -0.246228 39.7553 -0.309082 39.8391" stroke="black" stroke-width="0.930418" stroke-linecap="round"/>
<path d="M28.2683 22.9092C28.5784 22.8126 28.8885 22.716 29.1678 22.6485C29.447 22.5809 29.6859 22.5453 29.9819 22.5219C30.2778 22.4985 30.6235 22.4883 30.9388 22.4983C31.2542 22.5083 31.5287 22.5388 31.7134 22.5622C31.898 22.5855 31.9844 22.6008 32.1027 22.6315C32.569 22.7527 32.674 22.8525 32.7075 22.909C32.7434 22.9693 32.7716 23.0423 32.8025 23.1194C32.8272 23.181 32.8437 23.2783 32.8361 23.3911C32.8173 23.6693 32.5513 23.9358 32.4719 24.0511C32.4286 24.1048 32.3523 24.1912 32.3054 24.2408C32.2585 24.2904 32.2432 24.3006 32.2275 24.3111" stroke="black" stroke-width="0.930418" stroke-linecap="round"/>
<path d="M28.5296 23.0011C28.3771 23.6213 28.3189 23.9662 28.3624 24.0149C28.4576 24.0998 28.5903 24.2122 28.8598 24.346C28.9296 24.372 28.9906 24.3873 29.0688 24.403" stroke="black" stroke-width="0.930418" stroke-linecap="round"/>
<path d="M28.9907 24.8352C29.2449 25.0741 29.4991 25.3131 29.7063 25.4921C29.9135 25.6711 30.066 25.7829 30.1903 25.8533C30.3959 25.9695 30.5615 25.9752 30.6844 25.9701C30.9035 25.961 31.0592 25.8475 31.2945 25.666C31.4374 25.5558 31.6112 25.3879 31.7461 25.2558C31.9734 25.0332 32.0869 24.8717 32.1433 24.759C32.1895 24.6463 32.2155 24.5429 32.2232 24.4457C32.2259 24.3941 32.2259 24.3382 32.2259 24.2806" stroke="black" stroke-width="0.930418" stroke-linecap="round"/>
<path d="M30.7023 25.9745C30.499 26.6252 30.3891 26.9808 30.3611 27.0446C30.265 27.2634 30.1431 27.34 30.007 27.4172C29.9628 27.4423 29.8966 27.4687 29.8094 27.4968C29.7512 27.5157 29.5233 27.566 29.1974 27.6199C29.0191 27.6494 28.8956 27.6638 28.7847 27.6716C28.6202 27.6832 28.357 27.8173 28.2249 27.8718C28.1899 27.8863 27.942 27.9561 27.5444 28.0459C27.3814 28.0827 27.2943 28.09 27.0566 28.0977C26.8189 28.1055 26.4325 28.1106 26.1903 28.1081C25.8614 28.1048 25.7472 28.085 25.6248 28.0698C25.5273 28.0576 25.36 28.024 25.1923 27.9854C24.8599 27.909 24.6688 27.8438 24.5947 27.8207C24.3844 27.7554 24.1975 27.7156 24.0476 27.6718C24.0217 27.6642 23.9963 27.6589 23.6909 27.5419C23.3855 27.4249 22.8009 27.1961 22.4463 27.0452C22.0918 26.8943 21.985 26.8282 21.875 26.7602" stroke="black" stroke-width="0.930418" stroke-linecap="round"/>
<path d="M30.1155 27.3616C30.329 27.3413 30.4542 27.3308 30.5307 27.3384C30.6994 27.3553 30.9816 27.4228 31.2511 27.4921C31.4213 27.5359 31.558 27.5311 31.8039 27.4698C31.9843 27.3824 31.8183 27.7507 31.9899 27.5972C32.1613 27.4437 31.9846 27.3773 31.9899 27.3616" stroke="black" stroke-width="0.930418" stroke-linecap="round"/>
<path d="M21.8308 26.8881C21.1344 26.8168 20.9205 26.7809 20.697 26.7364C20.5635 26.7273 20.3845 26.7096 20.1617 26.6828C20.0451 26.6737 19.9213 26.6737 19.7937 26.6737" stroke="black" stroke-width="0.930418" stroke-linecap="round"/>
<path d="M19.4753 27.5969C20.1717 28.3646 19.1502 28.0673 19.7918 29.1357C20.2841 29.9552 20.3478 30.2116 20.9447 30.7646C21.1994 31.0006 21.4553 31.0876 21.759 31.3553C21.9693 31.5408 22.3656 31.659 22.7057 31.8469C23.5145 32.2937 24.3855 32.4106 24.7428 32.464C25.1537 32.5253 25.4041 32.5532 25.6903 32.6248C25.9812 32.6975 26.2618 32.8213 26.4947 32.8928C26.711 32.9593 26.9233 33.0003 27.138 33.0448C27.3499 33.0887 27.8143 33.1075 28.1743 33.063C28.4968 33.0232 28.746 32.9113 28.9518 32.7331C29.1485 32.5628 29.3357 32.4288 29.5504 32.3484C29.779 32.2628 29.979 32.1254 30.3178 31.9914C31.0355 31.7075 31.4082 31.4467 31.7923 30.9747C32.4247 30.1976 32.1244 29.6241 32.1689 29.2941C32.1957 28.6414 32.2316 28.16 32.1873 27.7674C32.1431 27.6047 32.0547 27.5162 31.9635 27.4251" stroke="black" stroke-width="0.930418" stroke-linecap="round"/>
<path d="M19.8186 26.7735C19.5002 27.0212 19.3637 26.9589 19.3814 27.28C19.4061 27.7276 19.6489 27.9957 19.8188 28.2286C19.8839 28.3178 19.8639 28.4433 19.9261 28.5591C19.9706 28.6219 20.0413 28.6926 20.1397 28.7291C20.2381 28.7655 19.9341 29.2451 20.0617 29.2451" stroke="black" stroke-width="0.930418" stroke-linecap="round"/>
<path d="M20.009 29.248C20.6518 29.5155 21.078 29.871 21.7135 30.2655C22.0274 30.3379 22.5962 30.2677 23.1346 30.2218C23.225 30.2307 23.278 30.2484 23.4399 30.3202" stroke="black" stroke-width="0.479519" stroke-linecap="round"/>
<path d="M23.8167 30.1593C24.1195 30.2483 24.4053 30.3201 24.7792 30.3646C24.9923 30.3737 25.3638 30.3737 25.5994 30.3649C25.835 30.356 25.9234 30.3383 26.0146 30.2665" stroke="black" stroke-width="0.479519" stroke-linecap="round"/>
<path d="M26.4404 30.373C26.5112 30.2845 26.582 30.1961 26.6361 30.124C26.6902 30.0519 26.7256 29.9988 26.7527 29.9272C26.7798 29.8557 26.7975 29.7672 26.8157 29.6225" stroke="black" stroke-width="0.479519" stroke-linecap="round"/>
<path d="M28.5854 29.9443C29.2636 30.1587 29.5493 30.1941 29.942 30.2035C30.0323 30.1947 30.0854 30.177 30.1658 30.1148C30.2462 30.0526 30.3524 29.9464 30.4617 29.8371" stroke="black" stroke-width="0.479519" stroke-linecap="round"/>
<path d="M30.9468 29.8372C31.106 29.8372 31.2652 29.8372 31.3649 29.8019C31.4646 29.7665 31.5 29.6957 31.5365 29.5692" stroke="black" stroke-width="0.479519" stroke-linecap="round"/>
<path d="M23.0659 27.2104C23.0659 27.6173 23.0659 28.0242 23.0748 28.2604C23.0836 28.4965 23.1013 28.5496 23.1731 28.6579" stroke="black" stroke-width="0.479519" stroke-linecap="round"/>
<path d="M21.4568 26.6737C21.1351 28.6566 21.2766 29.1536 21.5096 29.5674C21.6729 29.8577 21.8138 29.9968 21.8497 30.1038C21.7607 30.3538 21.7248 30.6926 21.7336 30.9604C21.7425 31.069 21.7602 31.122 21.8856 31.1231" stroke="black" stroke-width="0.479519" stroke-linecap="round"/>
<path d="M22.9031 30.1589L23.0103 29.5692" stroke="black" stroke-width="0.479519" stroke-linecap="round"/>
<path d="M30.8904 27.8528C30.9611 28.3835 31.0319 28.9142 31.0595 29.223C31.0871 29.5318 31.0694 29.6025 31.0515 29.6744C31.0335 29.7462 31.0158 29.817 30.944 29.8899" stroke="black" stroke-width="0.479519" stroke-linecap="round"/>
<path d="M31.0532 30.2658V31.2844" stroke="black" stroke-width="0.479519" stroke-linecap="round"/>
<path d="M30.0316 15.4695C29.0313 16.2189 28.9241 16.6467 28.7458 17.183C28.692 17.2916 28.6389 17.3447 28.5673 17.3632C28.4957 17.3817 28.4073 17.364 28.3162 17.3457" stroke="black" stroke-width="0.479519" stroke-linecap="round"/>
<path d="M31.1066 18.1244C30.9026 18.0068 30.8258 17.9674 30.7053 17.9306C30.6712 17.9182 30.5713 17.8628 30.5147 17.8271C30.462 17.7938 30.4075 17.8271 30.3533 17.8149C30.3001 17.8029 30.234 17.8265 30.1528 17.8209C30.0425 17.8133 29.8961 17.8126 29.852 17.8271C29.7356 17.8653 29.5896 17.9042 29.536 17.9243C29.4752 17.9472 29.4173 17.9852 29.3567 18.0033C29.3111 18.017 29.2694 18.0237 29.223 18.052C29.1804 18.0779 29.1384 18.1088 29.0999 18.1341C29.0465 18.1691 28.9834 18.201 28.9465 18.2252C28.9068 18.2512 28.8638 18.2867 28.8264 18.318C28.7792 18.3575 28.7318 18.3957 28.6836 18.4243C28.6424 18.4486 28.5932 18.4561 28.5147 18.5141C28.451 18.5612 28.4058 18.6008 28.3567 18.6509C28.2777 18.7315 28.2325 18.784 28.2004 18.8331C28.1714 18.8774 28.1485 18.9264 28.1275 18.9699C28.1076 19.011 28.0861 19.0549 28.0469 19.1204C28.0195 19.166 28.003 19.2089 27.9877 19.2541C27.9679 19.3121 27.9615 19.3856 27.9512 19.4319C27.9313 19.5221 27.9135 19.6979 27.9148 19.8493C27.9163 20.027 27.922 20.1536 27.9239 20.1903C27.9285 20.2784 27.9314 20.4188 27.9422 20.5184C27.9468 20.561 27.9798 20.6235 28.0061 20.6871C28.0319 20.7496 28.0608 20.8023 28.1094 20.941C28.1415 21.0326 28.1994 21.1447 28.333 21.3027C28.3662 21.3419 28.4082 21.403 28.485 21.4606C28.5456 21.5061 28.5902 21.5392 28.6399 21.573C28.7161 21.6248 28.8311 21.6921 28.8996 21.7325C28.9594 21.7676 29.0327 21.8221 29.1323 21.8571C29.2145 21.886 29.2923 21.9128 29.3587 21.9346C29.4519 21.9651 29.5539 22.0034 29.6292 22.0257C29.7006 22.047 29.7552 22.0589 29.7962 22.0637C29.862 22.0712 29.9411 22.0714 30.0151 22.0819C30.0684 22.0895 30.1283 22.1072 30.2099 22.1062C30.3418 22.1046 30.3901 22.0961 30.4512 22.091C30.5059 22.0864 30.554 22.0756 30.6063 22.0727C30.6913 22.0681 30.743 22.0713 30.804 22.0452C30.9284 21.9921 30.9741 21.9665 31.018 21.9542C31.0776 21.9374 31.1438 21.9124 31.1928 21.8964C31.2628 21.8736 31.3154 21.8451 31.3629 21.8265C31.4457 21.7942 31.5724 21.7274 31.6182 21.6897C31.6609 21.6546 31.7233 21.6145 31.7673 21.5648C31.8768 21.4414 31.9603 21.2796 31.9904 21.2034C32.0103 21.1531 32.0643 21.0288 32.0968 20.9541C32.1226 20.8949 32.1412 20.8525 32.1576 20.8098C32.1773 20.7581 32.193 20.7085 32.2123 20.6654C32.232 20.6214 32.3017 20.4912 32.3095 20.3934C32.3141 20.3354 32.3275 20.2752 32.3384 20.2018C32.3505 20.1197 32.3532 20.0166 32.3489 19.9206C32.3443 19.8159 32.3388 19.7673 32.3292 19.7187C32.3201 19.6731 32.2567 19.5233 32.206 19.3433C32.1893 19.284 32.1768 19.227 32.1466 19.1653C32.0829 19.0347 32.0572 18.9777 32.0343 18.9422C32.0039 18.895 31.979 18.8471 31.9401 18.7994C31.9065 18.7583 31.8562 18.6996 31.7953 18.6394C31.6512 18.497 31.6088 18.4545 31.5723 18.4226C31.5358 18.3907 31.4996 18.36 31.4277 18.3069C31.3106 18.2203 31.2295 18.1953 31.1066 18.1244Z" fill="white"/>
<path d="M30.6789 17.9227C30.8156 17.9622 30.8881 17.9984 31.1066 18.1244C31.2295 18.1953 31.3106 18.2203 31.4277 18.3069C31.4996 18.36 31.5358 18.3907 31.5723 18.4226C31.6088 18.4545 31.6512 18.497 31.7953 18.6394C31.8562 18.6996 31.9065 18.7583 31.9401 18.7994C31.979 18.8471 32.0039 18.895 32.0343 18.9422C32.0572 18.9777 32.0829 19.0347 32.1466 19.1653C32.1768 19.227 32.1893 19.284 32.206 19.3433C32.2567 19.5233 32.3201 19.6731 32.3292 19.7187C32.3388 19.7673 32.3443 19.8159 32.3489 19.9206C32.3532 20.0166 32.3505 20.1197 32.3384 20.2018C32.3275 20.2752 32.3141 20.3354 32.3095 20.3934C32.3017 20.4912 32.232 20.6214 32.2123 20.6654C32.193 20.7085 32.1773 20.7581 32.1576 20.8098C32.1412 20.8525 32.1226 20.8949 32.0968 20.9541C32.0643 21.0288 32.0103 21.1531 31.9904 21.2034C31.9603 21.2796 31.8768 21.4414 31.7673 21.5648C31.7233 21.6145 31.6609 21.6546 31.6182 21.6897C31.5724 21.7274 31.4457 21.7942 31.3629 21.8265C31.3154 21.8451 31.2628 21.8736 31.1928 21.8964C31.1438 21.9124 31.0776 21.9374 31.018 21.9542C30.9741 21.9665 30.9284 21.9921 30.804 22.0452C30.743 22.0713 30.6913 22.0681 30.6063 22.0727C30.554 22.0756 30.5059 22.0864 30.4512 22.091C30.3901 22.0961 30.3418 22.1046 30.2099 22.1062C30.1283 22.1072 30.0684 22.0895 30.0151 22.0819C29.9411 22.0714 29.862 22.0712 29.7962 22.0637C29.7552 22.0589 29.7006 22.047 29.6292 22.0257C29.5539 22.0034 29.4519 21.9651 29.3587 21.9346C29.2923 21.9128 29.2145 21.886 29.1323 21.8571C29.0327 21.8221 28.9594 21.7676 28.8996 21.7325C28.8311 21.6921 28.7161 21.6248 28.6399 21.573C28.5902 21.5392 28.5456 21.5061 28.485 21.4606C28.4082 21.403 28.3662 21.3419 28.333 21.3027C28.1994 21.1447 28.1415 21.0326 28.1094 20.941C28.0608 20.8023 28.0319 20.7496 28.0061 20.6871C27.9798 20.6235 27.9468 20.561 27.9422 20.5184C27.9314 20.4188 27.9285 20.2784 27.9239 20.1903C27.922 20.1536 27.9163 20.027 27.9148 19.8493C27.9135 19.6979 27.9313 19.5221 27.9512 19.4319C27.9615 19.3856 27.9679 19.3121 27.9877 19.2541C28.003 19.2089 28.0195 19.166 28.0469 19.1204C28.0861 19.0549 28.1076 19.011 28.1275 18.9699C28.1485 18.9264 28.1714 18.8774 28.2004 18.8331C28.2325 18.784 28.2777 18.7315 28.3567 18.6509C28.4058 18.6008 28.451 18.5612 28.5147 18.5141C28.5932 18.4561 28.6424 18.4486 28.6836 18.4243C28.7318 18.3957 28.7792 18.3575 28.8264 18.318C28.8638 18.2867 28.9068 18.2512 28.9465 18.2252C28.9834 18.201 29.0465 18.1691 29.0999 18.1341C29.1384 18.1088 29.1804 18.0779 29.223 18.052C29.2694 18.0237 29.3111 18.017 29.3567 18.0033C29.4173 17.9852 29.4752 17.9472 29.536 17.9243C29.5896 17.9042 29.7356 17.8653 29.852 17.8271C29.8961 17.8126 30.0425 17.8133 30.1528 17.8209C30.234 17.8265 30.3001 17.8029 30.3533 17.8149C30.4075 17.8271 30.462 17.7938 30.5147 17.8271C30.5713 17.8628 30.6712 17.9182 30.7053 17.9306" stroke="black" stroke-width="0.485291" stroke-linecap="round"/>
<path d="M31.7778 19.2551C31.9716 19.3067 32.0324 19.3371 32.1811 19.5193C32.3286 19.999 32.411 21.0827 31.5611 21.5799C31.5336 21.6043 31.5246 21.6103 31.5092 21.6165C31.4728 21.6286 31.4238 21.6346 31.3786 21.633C31.333 21.6255 31.2973 21.6164 31.251 21.6072C31.2054 21.5981 31.1696 21.5909 31.1325 21.5722C31.0929 21.5524 31.0399 21.5217 30.982 21.4718C30.9379 21.4338 30.8603 21.3913 30.8134 21.3503C30.7769 21.3184 30.7388 21.2946 30.7131 21.256C30.6735 21.1966 30.6378 21.1419 30.6173 21.0994C30.5732 21.0079 30.5259 20.9263 30.4989 20.806C30.4822 20.7318 30.4704 20.677 30.4655 20.6269C30.4579 20.5491 30.4595 20.4639 30.4686 20.3928C30.4793 20.3091 30.4566 20.2188 30.5905 19.9972C30.6831 19.8441 30.7705 19.7375 30.8609 19.639C30.9291 19.5647 30.9733 19.5157 31.0524 19.4659C31.0933 19.4402 31.2103 19.3789 31.3704 19.3261C31.5132 19.279 31.6332 19.2166 31.7778 19.2551Z" fill="black" stroke="black" stroke-width="0.485291" stroke-linecap="round"/>
<path d="M23.2302 18.7011C23.1985 18.6986 23.1056 18.6982 22.9442 18.6981C22.9191 18.6937 22.896 18.69 22.8758 18.6873C22.7865 18.6798 22.7229 18.6859 22.6544 18.6905C22.5734 18.698 22.4884 18.7002 22.4356 18.7087C22.3885 18.7163 22.3455 18.7189 22.3065 18.727C22.27 18.7345 22.1776 18.7555 22.0952 18.7817C22.0329 18.8014 21.9968 18.8082 21.9402 18.8258C21.8717 18.847 21.799 18.8597 21.7152 18.8713L21.713 18.8716C21.6491 18.8805 21.6125 18.8856 21.5695 18.9078C21.5284 18.9291 21.4793 18.9523 21.4357 18.9747C21.3765 19.0051 21.3318 19.0247 21.2929 19.0461C21.2457 19.0721 21.1224 19.1229 21.0021 19.2397C20.8989 19.3399 20.8352 19.4118 20.8157 19.4307C20.7656 19.4792 20.7168 19.5215 20.6745 19.5567C20.6286 19.5949 20.5745 19.6324 20.5086 19.7166C20.4158 19.8352 20.3253 19.9402 20.2762 20.0128C20.2094 20.1116 20.1758 20.1712 20.1378 20.3135C20.1146 20.3999 20.0727 20.5467 20.0544 20.6319C20.021 20.7865 20.008 20.8833 19.9999 20.9366C19.9908 20.9959 19.9836 21.032 19.9709 21.0978C19.9543 21.1846 19.9652 21.2504 19.971 21.3104C19.9756 21.3576 19.9942 21.4055 19.9984 21.4932C20.0061 21.6527 20.0267 21.7364 20.0897 21.9033C20.1248 21.9962 20.1829 22.1827 20.2416 22.2936C20.2707 22.3485 20.3287 22.4315 20.3616 22.4972C20.3923 22.5584 20.4359 22.6425 20.4605 22.7088C20.5107 22.8438 20.5656 22.89 20.608 22.9288C20.681 22.9957 20.7486 23.0705 20.807 23.1035C20.891 23.1509 20.9823 23.2278 21.1293 23.2995C21.1916 23.33 21.2693 23.3711 21.3374 23.3861C21.4133 23.4027 21.4614 23.4112 21.5091 23.421C21.5683 23.4332 21.6057 23.4342 21.664 23.4483C21.7144 23.4605 21.7992 23.4853 21.854 23.4954C21.9118 23.5061 21.9972 23.5148 22.0866 23.503C22.1549 23.4939 22.2038 23.4797 22.2644 23.4863C22.3342 23.4939 22.3893 23.4967 22.4406 23.5046C22.5105 23.5152 22.6138 23.5195 22.6837 23.5136C22.7384 23.509 22.7817 23.5041 22.8478 23.4923C22.8903 23.4848 22.9285 23.4968 23.0638 23.4741C23.1274 23.4634 23.1638 23.4513 23.2095 23.4391C23.255 23.427 23.29 23.4045 23.3295 23.3935L23.3334 23.3925C23.3758 23.3808 23.4124 23.3707 23.4709 23.3495C23.5257 23.3296 23.594 23.3037 23.6639 23.275C23.7231 23.2506 23.7743 23.2383 23.8496 23.2003C24.0027 23.123 24.0482 23.0975 24.1137 23.053C24.1943 22.9983 24.2481 22.967 24.3173 22.9239C24.3735 22.8889 24.4218 22.8357 24.4644 22.7889L24.4647 22.7886C24.5255 22.7216 24.5862 22.6527 24.641 22.5605C24.6987 22.4632 24.7383 22.4104 24.7654 22.3494C24.7837 22.3084 24.8077 22.2449 24.8369 22.1852C24.8718 22.1139 24.9127 22.0217 24.9479 21.9542C24.9996 21.8551 25.0468 21.7744 25.0678 21.6974C25.0937 21.6029 25.1034 21.5179 25.1149 21.4589C25.1271 21.3967 25.1419 21.349 25.159 21.2964C25.1789 21.2353 25.2208 21.1694 25.2228 21.0162C25.2243 20.897 25.2243 20.6774 25.2227 20.5567C25.2212 20.436 25.2185 20.415 25.2166 20.3951C25.2089 20.3113 25.2019 20.2158 25.1648 20.1428C25.1209 20.0564 25.0493 19.8879 24.9885 19.7736C24.9385 19.6795 24.9139 19.6153 24.8807 19.5654C24.8227 19.4787 24.7717 19.421 24.7424 19.3893C24.7073 19.3512 24.6638 19.3011 24.5114 19.2092C24.4219 19.1552 24.2712 19.0684 24.1916 19.0212C24.1027 18.9685 23.994 18.915 23.8347 18.8619C23.7623 18.8378 23.6757 18.7975 23.5366 18.7601C23.4184 18.7283 23.3118 18.7073 23.2302 18.7011Z" fill="white"/>
<path d="M22.8172 18.698C23.0579 18.698 23.191 18.698 23.2302 18.7011C23.3118 18.7073 23.4184 18.7283 23.5366 18.7601C23.6757 18.7975 23.7623 18.8378 23.8347 18.8619C23.994 18.915 24.1027 18.9685 24.1916 19.0212C24.2712 19.0684 24.4219 19.1552 24.5114 19.2092C24.6638 19.3011 24.7073 19.3512 24.7424 19.3893C24.7717 19.421 24.8227 19.4787 24.8807 19.5654C24.9139 19.6153 24.9385 19.6795 24.9885 19.7736C25.0493 19.8879 25.1209 20.0564 25.1648 20.1428C25.2019 20.2158 25.2089 20.3113 25.2166 20.3951C25.2185 20.415 25.2212 20.436 25.2227 20.5567C25.2243 20.6774 25.2243 20.897 25.2228 21.0162C25.2208 21.1694 25.1789 21.2353 25.159 21.2964C25.1419 21.349 25.1271 21.3967 25.1149 21.4589C25.1034 21.5179 25.0937 21.6029 25.0678 21.6974C25.0468 21.7744 24.9996 21.8551 24.9479 21.9542C24.9127 22.0217 24.8718 22.1139 24.8369 22.1852C24.8077 22.2449 24.7837 22.3084 24.7654 22.3494C24.7383 22.4104 24.6987 22.4632 24.641 22.5605C24.5862 22.6527 24.5255 22.7216 24.4647 22.7886C24.422 22.8355 24.3736 22.8888 24.3173 22.9239C24.2481 22.967 24.1943 22.9983 24.1137 23.053C24.0482 23.0975 24.0027 23.123 23.8496 23.2003C23.7743 23.2384 23.7231 23.2506 23.6639 23.275C23.594 23.3037 23.5257 23.3296 23.4709 23.3495C23.4107 23.3713 23.3736 23.3814 23.3295 23.3935C23.29 23.4045 23.255 23.427 23.2095 23.4391C23.1638 23.4513 23.1274 23.4634 23.0638 23.4741C22.9285 23.4968 22.8903 23.4848 22.8478 23.4923C22.7817 23.5041 22.7384 23.509 22.6837 23.5136C22.6138 23.5195 22.5105 23.5152 22.4406 23.5046C22.3893 23.4967 22.3342 23.4939 22.2644 23.4863C22.2038 23.4797 22.1549 23.4939 22.0866 23.503C21.9972 23.5148 21.9118 23.5061 21.854 23.4954C21.7992 23.4853 21.7144 23.4605 21.664 23.4483C21.6057 23.4342 21.5683 23.4332 21.5091 23.421C21.4614 23.4112 21.4133 23.4027 21.3374 23.3861C21.2693 23.3711 21.1916 23.33 21.1293 23.2995C20.9823 23.2278 20.891 23.1509 20.807 23.1035C20.7486 23.0705 20.681 22.9957 20.608 22.9288C20.5656 22.89 20.5107 22.8438 20.4605 22.7088C20.4359 22.6425 20.3923 22.5584 20.3616 22.4972C20.3287 22.4315 20.2707 22.3485 20.2416 22.2936C20.1829 22.1827 20.1248 21.9962 20.0897 21.9033C20.0267 21.7364 20.0061 21.6527 19.9984 21.4932C19.9942 21.4055 19.9756 21.3576 19.971 21.3104C19.9652 21.2504 19.9543 21.1846 19.9709 21.0978C19.9836 21.032 19.9908 20.9959 19.9999 20.9366C20.008 20.8833 20.021 20.7865 20.0544 20.6319C20.0727 20.5467 20.1146 20.3999 20.1378 20.3135C20.1758 20.1712 20.2094 20.1116 20.2762 20.0128C20.3253 19.9402 20.4158 19.8352 20.5086 19.7166C20.5745 19.6324 20.6286 19.5949 20.6745 19.5567C20.7168 19.5215 20.7656 19.4792 20.8157 19.4307C20.8352 19.4118 20.8989 19.3399 21.0021 19.2397C21.1224 19.1229 21.2457 19.0721 21.2929 19.0461C21.3318 19.0247 21.3765 19.0051 21.4357 18.9747C21.4793 18.9523 21.5284 18.9291 21.5695 18.9078C21.613 18.8853 21.65 18.8804 21.7152 18.8713C21.799 18.8597 21.8717 18.847 21.9402 18.8258C21.9968 18.8082 22.0329 18.8014 22.0952 18.7817C22.1776 18.7555 22.27 18.7345 22.3065 18.727C22.3455 18.7189 22.3885 18.7163 22.4356 18.7087C22.4884 18.7002 22.5734 18.698 22.6544 18.6905C22.7229 18.6859 22.7865 18.6798 22.8758 18.6873C22.9319 18.6949 23.0102 18.7099 23.0907 18.7254" stroke="black" stroke-width="0.485291" stroke-linecap="round"/>
<path d="M25.1435 20.4858C25.247 20.6124 25.2179 20.9332 25.2178 20.7658C25.2179 20.9707 25.1881 21.4402 25.0688 21.6788C24.9196 21.9771 24.692 22.6932 24.4396 22.6187C24.4272 22.6218 24.4152 22.6248 24.3983 22.6279C24.3021 22.6369 24.2116 22.6308 24.1507 22.6232C24.1021 22.5943 24.0652 22.5649 24.0292 22.5442C23.9896 22.5213 23.9317 22.4804 23.8726 22.4453C23.8164 22.4119 23.7622 22.3932 23.6979 22.3222C23.6553 22.2752 23.5934 22.2317 23.5566 22.1733C23.5308 22.1322 23.4948 22.0713 23.4548 21.9832C23.4245 21.9165 23.3927 21.8639 23.3804 21.8069C23.3607 21.7157 23.3549 21.6603 23.344 21.6095C23.3394 21.5883 23.3281 21.4334 23.338 21.2106C23.3425 21.108 23.3502 21.0587 23.3639 21.0076C23.376 20.9621 23.3987 20.8694 23.4476 20.7658C23.4854 20.6856 23.4892 20.6149 23.6272 20.4588C23.6954 20.3815 23.7554 20.3197 23.8108 20.292C23.8809 20.2571 23.9494 20.205 24.1873 20.172C24.2746 20.1599 24.3799 20.1539 24.4682 20.1602C24.5565 20.1664 24.6257 20.1845 24.7146 20.2214C24.8034 20.2583 24.9121 20.3075 24.9753 20.3535C25.069 20.4216 25.1029 20.4362 25.1435 20.4858Z" fill="black" stroke="black" stroke-width="0.485291" stroke-linecap="round"/>
<path d="M32.8845 23.19C32.8845 23.2758 32.7416 23.5832 32.6701 23.7261L32.2412 24.155C32.2055 24.3694 32.134 24.8197 32.134 24.9055C32.134 24.9913 31.7766 25.2986 31.5979 25.4416L30.9546 25.9776C30.7402 25.9776 30.3113 25.9562 30.3113 25.8704C30.3113 25.7632 29.7753 25.5488 29.668 25.4416C29.5608 25.3344 29.132 24.9055 29.0247 24.9055C28.9175 24.9055 28.9175 24.3694 28.8103 24.3694C28.7031 24.3694 28.4887 23.9405 28.3815 23.9405C28.2742 23.9405 28.4887 22.9756 28.5959 22.8684C28.7031 22.7612 29.132 22.5467 29.2392 22.5467H31.7051L32.5629 22.7612C32.6701 22.8684 32.8845 23.1043 32.8845 23.19Z" fill="black"/>
<path d="M-0.946701 41.3076C0.509775 41.7154 1.96625 42.1232 2.7651 42.343C3.56396 42.5628 3.66106 42.5823 4.44903 42.6408C5.237 42.6994 6.71289 42.7965 7.51204 42.8562C8.62556 42.9394 9.2504 42.9942 10.1622 43.0239C10.7258 43.0423 11.1924 43.1119 11.5378 43.1807C11.8376 43.2405 12.3105 43.2884 12.9001 43.3181C13.3343 43.34 13.8028 43.4061 14.3416 43.475C14.8401 43.5387 15.2728 43.5827 15.7442 43.6221C16.5338 43.6881 16.7652 43.7592 17.2151 43.8378C18.0705 43.9871 18.9755 43.9169 19.7656 43.7895C20.7901 43.6243 22.218 43.798 22.542 43.9843C22.9278 44.2061 23.0807 44.8926 23.1905 45.3961C23.2196 45.64 23.259 45.8383 23.2885 45.9945C23.2985 46.0925 23.2985 46.2285 23.2396 46.4274" stroke="black" stroke-width="0.678565" stroke-linecap="round"/>
<path d="M40.4189 39.5425C38.5547 40.0863 37.4972 40.4052 37.1656 40.5126C35.9466 40.9074 35.3204 41.3068 35.1135 41.5522C35.0062 41.6987 34.9267 41.8564 34.8779 42.0032C34.8484 42.0724 34.8096 42.1306 34.7107 42.2495" stroke="black" stroke-width="0.678565" stroke-linecap="round"/>
<path d="M32.8298 42.6614C31.8006 42.875 30.7713 43.0886 30.0081 43.2278C29.2448 43.367 28.7788 43.4252 28.2377 43.5426C26.347 43.9529 26.0247 44.2303 25.769 44.4162C25.5353 44.5862 25.2985 44.8953 25.1702 45.2984C25.1408 45.3872 25.102 45.4649 25.0626 45.534C25.0231 45.6032 24.9843 45.6615 24.8854 45.7215" stroke="black" stroke-width="0.678565" stroke-linecap="round"/>
<path d="M33.3089 61.3487L33.5844 60.6598L33.4466 58.7311V55.9155C33.4466 55.838 33.1711 54.7358 33.1711 54.5981C33.1711 54.4878 33.0793 54.2766 33.0333 54.1848L32.2067 53.9092L30.0025 53.7715C29.0381 53.9092 27.1094 54.1572 27.1094 54.047C27.1094 53.9092 27.2471 53.3582 27.3849 53.3582C27.4951 53.3582 28.0737 53.0826 28.3493 52.9449L29.7269 51.8427C29.8188 51.6131 30.0025 51.1814 30.0025 51.2917C30.0025 51.4019 30.3698 51.3375 30.5535 51.2916L31.8265 50.1343L31.7934 50.1895L32.069 49.9139L31.8265 50.1343L33.0333 48.123C33.0793 48.2148 33.1987 48.3985 33.3089 48.3985C33.4466 48.3985 33.9977 47.9852 34.1355 47.9852C34.2457 47.9852 34.9162 46.6075 35.2376 45.9187L35.5131 45.2298L35.3754 44.6788L35.0998 44.541L34.411 44.6788L34.6865 44.1277L35.0998 42.75L34.9621 41.6479L35.6509 41.9234L36.0642 41.3724V40.5458C36.0642 40.4355 35.9724 38.5711 35.9264 37.6527L35.5131 37.2394L35.2403 37.0127L35.2036 36.9194C35.2156 36.8953 35.2255 36.8776 35.2336 36.8652L35.2819 36.8935C35.294 36.9468 35.311 37.0232 35.3754 37.0327L35.283 36.8941L35.2819 36.8935C35.2714 36.8472 35.2646 36.8183 35.2336 36.8652L35.1668 36.8261L35.2036 36.9194C35.2036 36.9194 35.2036 36.9194 35.2036 36.9195C35.0934 37.1399 35.1686 36.8481 35.1226 36.894C35.1226 36.894 34.9621 36.7159 34.9621 36.8261L34.8243 37.2394L34.6865 37.6527V38.066C34.6865 38.2956 34.7141 38.7548 34.8243 38.7548C34.9621 38.7548 34.9621 38.8926 34.9621 39.0304C34.9621 39.1406 34.8702 39.8111 34.8243 40.1325V40.8213H34.5488L33.7222 40.9591L33.4466 40.8213L33.3089 40.2703L33.0333 38.4793V37.9282V37.5149L32.3445 37.9282C32.2067 38.2038 31.9312 38.7824 31.9312 38.8926C31.9312 39.0028 31.8394 39.3059 31.7934 39.4437L31.9312 41.0969L32.069 41.6479L32.4823 41.9235C32.5282 42.0153 32.6476 42.199 32.7578 42.199H33.1711L33.3089 42.6123L33.1711 43.5767L32.8956 44.5411L33.1711 45.0921H33.5844H33.9977L33.5844 45.9187C33.4466 46.0565 33.1711 46.3596 33.1711 46.4698C33.1711 46.58 33.0793 46.5157 33.0333 46.4698L32.7578 46.0565L33.0333 45.3677C32.9415 45.0921 32.7578 44.5686 32.7578 44.6788C32.7578 44.789 32.2986 44.9084 32.069 44.9544L31.5179 45.0921L30.9668 45.9187L30.6913 46.8831C30.7221 47.0064 30.7861 47.2125 30.8581 47.3347C30.7299 47.2728 30.5535 47.2185 30.5535 47.2964C30.5535 47.4342 30.1402 47.7097 30.1402 47.8475C30.1402 47.9577 29.2218 48.9037 28.7626 49.3629L26.9716 51.1539L26.5583 51.8427L25.7317 51.4294L24.6295 51.2916L23.5274 51.1539H22.563L21.8742 50.6028L17.879 48.9496H16.9146C16.8227 49.1333 16.6391 49.4731 16.6391 49.3629C16.6391 49.2527 16.3635 48.7659 16.2258 48.5363L15.5369 48.2608L14.7103 48.123L14.297 47.4342C13.8378 47.1127 12.9973 46.41 12.9193 46.332C12.506 45.9187 11.7254 45.3677 11.1284 44.9544L9.88847 44.5411C9.65886 44.3114 9.19964 43.8247 9.19964 43.7145C9.19964 43.5767 8.0975 43.4389 8.0975 43.3011C8.0975 43.1909 7.54643 42.796 7.2709 42.6123C7.13313 42.5664 6.83004 42.447 6.71983 42.3368C6.60962 42.2266 6.21469 41.4643 6.031 41.0969L5.06663 40.1325L4.24002 39.7192L4.10226 39.0304C3.34548 38.3181 1.88101 36.9154 1.89242 36.8302C1.90895 36.8275 1.9119 36.8261 1.89799 36.8261C1.89461 36.8261 1.89278 36.8275 1.89242 36.8302C1.74519 36.8539 0.520313 36.9778 0.520313 37.1016C0.520313 37.2394 1.07138 38.4793 1.07138 38.6171C1.07138 38.7548 1.76022 39.4437 1.89799 39.5814L2.86235 40.5458C2.86235 40.7295 2.8899 41.0969 3.00012 41.0969C3.13789 41.0969 3.55119 41.6479 3.55119 41.7857C3.55119 41.9235 4.51556 42.4745 4.51556 42.6123C4.51556 42.7225 5.34216 43.3011 5.75546 43.5767L6.031 43.8522L6.4443 44.6788L8.37304 46.1943C8.32711 46.5157 8.26282 47.1586 8.37304 47.1586C8.48325 47.1586 8.78634 47.7097 8.9241 47.9852L10.5773 49.0874L12.506 50.3273L12.9193 50.465H13.746L14.4348 50.8783L15.5369 51.4294L15.8125 52.1182L17.0524 53.0826L18.43 53.7714L19.5322 54.047L21.0476 53.4959C21.3691 53.5878 22.0395 53.7714 22.1497 53.7714C22.26 53.7714 23.8489 53.8633 24.6295 53.9092L25.3184 53.3581L25.4561 54.047C25.0888 54.1388 24.3265 54.3225 24.2162 54.3225H23.3896L22.7008 54.598C22.2416 54.644 21.2956 54.7358 21.1854 54.7358C21.0476 54.7358 19.3944 54.8736 19.3944 55.0113C19.3944 55.1491 18.43 55.1491 18.43 55.2869C18.43 55.3971 17.879 55.792 17.6034 55.9757L17.3279 56.8023L17.1901 58.4555C17.282 59.0066 17.4657 60.1363 17.4657 60.2465C17.4657 60.3843 17.6034 62.4508 17.7412 62.5885C17.8514 62.6987 18.1545 63.1855 18.2923 63.4151C18.4025 63.4151 19.1648 63.507 19.5322 63.5529H20.221C21.1854 63.4151 23.1417 63.1396 23.2519 63.1396C23.3896 63.1396 26.4205 62.8641 26.5583 62.8641C26.6961 62.8641 29.7269 62.5885 29.8647 62.5885C29.9749 62.5885 31.9312 62.1293 32.8956 61.8997L33.3089 61.3487Z" fill="#FFEF3F"/>
<path d="M2.75507 30.539L3.10815 31.0098C3.02969 31.2452 2.87276 31.6925 2.87276 31.5983C2.87276 31.5041 2.48045 31.7945 2.28429 31.9514L1.69581 32.3045C1.57812 32.5399 1.34273 33.0342 1.34273 33.1283C1.34273 33.246 1.22503 33.7168 1.10734 33.8934C1.01318 34.0346 0.91118 34.5407 0.871949 34.7761L0.636559 35.3645L1.10734 36.0707L0.871949 36.6592L0.518864 37.3654C0.361937 37.2477 0.0245445 36.9887 -0.0696115 36.8946C-0.187307 36.7769 -0.305002 36.4238 -0.305002 36.3061C-0.305002 36.1884 -0.422697 35.3645 -0.305002 35.1292C-0.187307 34.8938 -0.0696115 34.423 -0.0696115 34.3053C-0.0696115 34.1876 0.0480833 33.4814 0.0480833 33.3637C0.0480833 33.2696 0.20501 32.5399 0.283473 32.1868L1.10734 31.2452L1.57812 30.6567L2.75507 30.539Z" fill="#FFEF3F"/>
<path d="M33.8285 37.6001C33.7108 37.6001 33.4754 37.3647 33.4754 37.247L33.24 37.0116C33.1223 36.8939 33.1223 36.3054 33.0046 36.0701C32.9105 35.8817 32.9654 35.3639 33.0046 35.1285C33.24 35.2854 33.7108 35.6228 33.7108 35.717C33.7108 35.8111 34.1816 36.227 34.417 36.4231L34.6523 36.8939L34.2993 37.3647C34.1816 37.4432 33.9226 37.6001 33.8285 37.6001Z" fill="#F5C707"/>
<path d="M6.05127 42.4261L5.89358 42.4343V42.572L5.81588 42.6614L4.87432 41.8376L3.96484 40.7783L3.69737 40.4252L3.96484 40.3678L4.16815 39.8368C4.76514 40.2041 5.46279 41.2566 5.46279 41.3668C5.46279 41.477 5.9135 42.2883 6.05127 42.4261Z" fill="#FEBC13"/>
<path d="M6.58765 42.3985C7.08458 43.0269 7.43557 43.4457 7.59413 43.6116C7.69608 43.7182 7.74627 43.8007 7.81248 43.8742C7.89997 43.9713 8.12849 44.2345 8.42368 44.5444C8.58406 44.7128 8.65421 44.7897 8.82361 44.9702C8.94025 45.0946 9.06743 45.2179 9.15612 45.2954C9.24253 45.371 9.35531 45.4172 9.56148 45.5865C9.79493 45.7782 10.0697 45.9695 10.2779 46.1661C10.4952 46.3713 10.529 46.5094 10.592 46.6093C10.623 46.6585 10.618 46.7457 10.6107 46.8342C10.5998 46.9659 10.3904 47.1437 10.264 47.2259C10.1799 47.2807 10.0502 47.2703 9.94304 47.2373C9.75792 47.1803 9.64408 47.0639 9.50025 46.9864C9.33558 46.8977 9.13475 46.7685 9.0093 46.6838C8.8902 46.6034 8.73614 46.5249 8.44527 46.2895C8.29978 46.1718 8.18252 46.0674 8.013 45.9422C7.84452 45.8177 7.63731 45.5962 7.40413 45.3997C7.19978 45.2276 7.11957 45.1449 7.03088 45.0819C6.85783 44.9589 6.59562 44.702 6.47382 44.6061C6.23752 44.42 6.15272 44.2817 6.09326 44.1704C6.04101 44.0726 5.98265 43.9933 5.94556 43.8863C5.90271 43.7626 5.90869 43.5801 5.90481 42.8406C5.904 42.6865 5.91577 42.6646 5.9305 42.6424C6.00297 42.5329 6.19568 42.5167 6.36919 42.4651C6.46851 42.4357 6.54314 42.406 6.58001 42.3729C6.59495 42.3544 6.60226 42.3325 6.60979 42.3099" stroke="black" stroke-width="0.814278" stroke-linecap="round"/>
<path d="M9.62108 44.613C9.63569 44.6203 9.65031 44.6277 9.65784 44.6095C9.71289 44.4767 9.61399 44.3331 9.54014 44.2185C9.47391 44.1158 9.30485 43.8473 9.14541 43.6465C9.06554 43.546 8.94256 43.4619 8.83903 43.3989C8.70826 43.3194 8.52934 43.314 8.40721 43.3028C8.38119 43.2992 8.35926 43.2919 8.33335 43.2881C8.30744 43.2843 8.27821 43.2843 8.22595 43.2401" stroke="black" stroke-width="0.814278" stroke-linecap="round"/>
<path d="M5.96727 42.8192C5.14083 42.0592 5.03763 41.9852 4.93056 41.8968C4.83924 41.8215 4.73513 41.7345 4.65364 41.6422C4.56154 41.5378 4.46231 41.3443 4.35468 41.2029C4.2675 41.0884 3.98353 40.8133 3.8159 40.675C3.70757 40.5856 3.51008 40.5312 3.34012 40.4793C3.29013 40.4641 3.22264 40.4718 3.17414 40.4864C3.12564 40.501 3.09641 40.5303 3.0777 40.5599C2.99982 40.6834 3.022 40.8478 3.04404 40.9806C3.07538 41.1694 3.19872 41.3718 3.2543 41.479C3.34244 41.6489 3.46446 41.7704 3.5568 41.8666C3.65643 41.9704 3.78157 42.095 4.01022 42.2612C4.20484 42.4027 4.37904 42.5379 4.58255 42.6784C4.7419 42.7884 4.93311 42.9219 5.0662 43.0218C5.21384 43.1326 5.32463 43.1806 5.4317 43.2397C5.54551 43.3025 5.71526 43.4312 5.89287 43.5385C5.9593 43.5646 6.03326 43.5794 6.11066 43.5759C6.14421 43.565 6.16613 43.5358 6.18872 43.5057" stroke="black" stroke-width="0.814278" stroke-linecap="round"/>
<path d="M34.5113 41.303C34.8268 41.6185 34.8843 41.6988 34.9329 41.7961C35.0398 42.0101 35.0393 42.1121 35.048 42.1839C35.0615 42.2957 35.051 42.4334 35.0423 42.5596C35.0253 42.8054 35.0165 43.1281 35.0078 43.1971C34.9975 43.2792 34.9649 43.3805 34.9247 43.5068C34.8861 43.6282 34.8502 43.7532 34.807 43.8515C34.7744 43.9257 34.7296 44.0177 34.6979 44.0954C34.6634 44.18 34.6263 44.2702 34.5975 44.3509C34.5735 44.4178 34.5574 44.4885 34.5257 44.5575C34.493 44.6288 34.4541 44.6952 34.391 44.7613C34.3566 44.7871 34.322 44.8045 34.2877 44.8132C34.2703 44.8161 34.2533 44.8161 34.2357 44.8161" stroke="black" stroke-width="0.814278" stroke-linecap="round"/>
<path d="M34.1168 44.9015C33.8414 45.0105 33.6818 45.0447 33.5231 45.0593C33.4443 45.0665 33.3539 45.085 33.216 45.0852C33.1283 45.0853 33.0666 45.0165 32.9977 44.9677C32.9261 44.917 32.9285 44.742 32.9456 44.6005C32.9615 44.47 32.9802 44.3797 32.9973 44.2876C33.0207 44.1621 33.026 44.0924 33.0461 43.9806C33.06 43.9036 33.0776 43.8114 33.0863 43.7278C33.0964 43.6316 33.1179 43.53 33.1522 43.4095C33.2041 43.2273 33.2326 43.0881 33.2556 42.9645C33.2702 42.8862 33.2843 42.7953 33.3044 42.6947C33.3243 42.5956 33.3246 42.4912 33.3103 42.4047C33.299 42.3361 33.2901 42.2329 33.2759 42.1264C33.2624 42.0263 33.2557 41.8434 33.2871 41.6987C33.3063 41.6107 33.3473 41.5437 33.3905 41.4719C33.4364 41.3955 33.4565 41.3199 33.4966 41.2509C33.54 41.1764 33.6056 41.1132 33.6659 41.0299C33.7188 40.9568 33.7892 40.9121 33.8582 40.8891C33.9328 40.8718 34.0472 40.8604 34.4966 40.8745C34.6041 40.8831 34.6609 40.8945 34.7195 40.9062" stroke="black" stroke-width="0.814278" stroke-linecap="round"/>
<path d="M8.09717 43.2482C7.92668 43.0664 7.77066 42.9272 7.58493 42.8129C7.30867 42.6428 7.08165 42.5424 6.98427 42.508C6.83987 42.4571 6.74877 42.4447 6.66809 42.436C6.65066 42.4341 6.63374 42.4275 6.61359 42.4246C6.59344 42.4216 6.57071 42.4216 6.559 42.4444C6.54729 42.4671 6.54729 42.5126 6.54729 42.5422" stroke="black" stroke-width="0.814278" stroke-linecap="round"/>
<path d="M6.71826 42.4573C6.46615 41.8897 6.36248 41.7171 6.31667 41.6253C6.3017 41.5953 6.27672 41.5625 6.18829 41.4085C6.09986 41.2546 5.94642 40.9818 5.85885 40.8299C5.73088 40.6079 5.59408 40.4893 5.49584 40.3939C5.43273 40.3326 5.35816 40.2592 5.26344 40.1701C5.19503 40.1057 5.12292 40.0522 5.0338 40.032C4.95622 40.0178 4.89302 39.989 4.85582 39.9719C4.83567 39.9604 4.81294 39.9434 4.75508 39.8913" stroke="black" stroke-width="0.814278" stroke-linecap="round"/>
<path d="M4.37648 39.8032C4.43951 40.0671 4.51941 40.1701 4.60009 40.2364C4.67086 40.2947 4.7946 40.4108 4.86426 40.509C4.92597 40.5961 5.04155 40.778 5.13394 40.9336C5.25614 41.1395 5.44968 41.433 5.56679 41.5817C5.76637 41.8352 5.92601 42.0416 5.99188 42.1132C6.10849 42.2398 6.24667 42.4308 6.35946 42.5469C6.37961 42.5641 6.40234 42.5868 6.41974 42.6071C6.43713 42.6273 6.44849 42.6443 6.46021 42.6791" stroke="black" stroke-width="0.814278" stroke-linecap="round"/>
<path d="M4.16846 39.5118C4.03207 39.9778 3.89929 40.2576 3.79606 40.3207C3.69021 40.3854 3.56607 40.4128 3.48858 40.4302C3.3635 40.4582 3.20512 40.4761 3.10102 40.4961C3.06199 40.5036 3.03205 40.5335 2.99485 40.5364C2.90386 40.5436 2.84279 40.4421 2.7653 40.3789C2.64714 40.2825 2.6017 40.2123 2.40409 40.0234C2.28197 39.9067 2.16532 39.7704 2.0738 39.6817C1.84701 39.4617 1.76408 39.3289 1.66893 39.2195C1.51828 39.0462 1.43068 38.9497 1.36455 38.8749C1.27982 38.779 1.16651 38.6511 1.06913 38.505C0.956259 38.3358 0.931276 38.2209 0.896576 38.1287C0.861219 38.0347 0.850682 37.9509 0.81624 37.8332C0.794166 37.7577 0.770433 37.6412 0.741588 37.5317C0.717447 37.4401 0.684328 37.3481 0.649801 37.2676C0.598052 37.1699 0.586514 37.1126 0.589355 37.0696C0.592197 37.0494 0.59788 37.0323 0.603735 37.0148" stroke="black" stroke-width="0.814278" stroke-linecap="round"/>
<path d="M35.0126 38.7889C34.9609 39.632 34.9495 39.8386 34.9408 39.9737C34.9369 40.0344 34.9265 40.1257 34.9236 40.2432C34.9212 40.3439 34.9092 40.5836 34.9064 40.8906C34.9046 41.0801 34.8634 41.1591 34.8433 41.288C34.8191 41.4428 34.8517 41.5612 34.8746 41.5956C34.9199 41.6636 34.995 41.7047 35.064 41.7507C35.1395 41.801 35.2302 41.8483 35.3765 41.8513C35.4625 41.8531 35.5402 41.8084 35.6293 41.7997C35.7036 41.7924 35.7699 41.7453 35.8389 41.6994C35.9069 41.654 35.948 41.5449 35.9768 41.4555C36.0081 41.3586 36.0055 41.2291 36.0257 40.9888C36.0518 40.6767 36.0343 40.4424 36.0429 40.3652C36.0533 40.2714 36.0515 40.1784 36.0601 39.8624C36.0676 39.5863 36.063 39.0747 36.0602 38.7999C36.0567 38.4615 36.0345 38.3704 36.0258 38.1754C36.0213 38.0763 36 37.9743 35.9599 37.8565C35.9197 37.7385 35.8967 37.6698 35.8566 37.598C35.8049 37.5147 35.7362 37.4346 35.6815 37.3541C35.6671 37.3311 35.6501 37.3027 35.6325 37.2734" stroke="black" stroke-width="0.814278" stroke-linecap="round"/>
<path d="M34.8746 38.7369C34.783 38.175 34.7255 37.9912 34.7053 37.8708C34.6608 37.6042 34.731 37.4977 34.754 37.4054C34.7837 37.2864 34.7999 37.1701 34.82 37.0869C34.8288 37.0505 34.8343 37.015 34.8572 36.9806C34.8688 36.9633 34.8801 36.9462 34.9172 36.9375C35.0935 36.8958 35.167 36.9573 35.2587 37.0001C35.2988 37.0258 35.3613 37.0713 35.4162 37.1203C35.4712 37.1693 35.5166 37.2204 35.5979 37.2903" stroke="black" stroke-width="0.814278" stroke-linecap="round"/>
<path d="M33.5122 40.9074C33.4952 40.8845 33.4037 40.8162 33.2888 40.6527C33.1508 40.4565 33.1736 40.3054 33.1649 40.0473C33.1591 39.8745 33.1392 39.6679 33.1305 39.5703C33.1227 39.4833 33.1048 39.3923 33.0961 39.2376C33.088 39.0938 33.0703 38.8988 33.0616 38.7125C33.0537 38.5424 33.0359 38.3939 33.0272 38.3073C33.0128 38.1986 33.0014 38.0491 33.0041 37.557C33.0126 37.4576 33.0297 37.4519 33.0472 37.446" stroke="black" stroke-width="0.814278" stroke-linecap="round"/>
<path d="M33.2039 42.1299C32.8827 42.1988 32.7 42.1533 32.5613 42.0928C32.4282 42.0346 32.3318 41.9408 32.2456 41.8548C32.1088 41.7182 32.0394 41.4944 31.9813 41.3495C31.9372 41.2397 31.9295 41.1314 31.9124 41.0453C31.8928 40.9469 31.8665 40.8331 31.8463 40.7182C31.8274 40.6102 31.8148 40.506 31.8061 40.3481C31.7974 40.1899 31.7804 40.0065 31.7774 39.64C31.7763 39.506 31.8031 39.4038 31.8118 39.3231C31.8319 39.2428 31.8491 39.1624 31.8634 39.1166C31.872 39.0935 31.8834 39.0708 31.9295 39.0129" stroke="black" stroke-width="0.814278" stroke-linecap="round"/>
<path d="M4.09406 39.572C4.23 39.339 4.30003 39.1947 4.29517 39.1409C4.28442 39.0217 4.21676 38.9837 4.03941 38.8063C3.87417 38.641 3.54649 38.3327 3.3595 38.1581C3.1372 37.9505 3.07423 37.9049 2.95014 37.7953C2.66063 37.5398 2.44648 37.3702 2.39043 37.3216C2.14831 37.1112 2.02498 36.9489 1.90001 36.8213C1.83245 36.7524 1.75517 36.7132 1.68896 36.6715C1.573 36.5985 1.4268 36.5661 1.31168 36.5439C1.08249 36.4997 1.01957 36.5658 0.960653 36.6025C0.891293 36.6457 0.877163 36.7323 0.855095 36.7937C0.826498 36.8732 0.779182 36.9383 0.754539 36.9972C0.749611 37.012 0.744756 37.0266 0.742255 37.0462C0.739754 37.0659 0.739754 37.0901 0.754466 37.1299" stroke="black" stroke-width="0.723803" stroke-linecap="round"/>
<path d="M2.33057 33.3921C1.70811 33.2008 1.58085 33.2105 1.50207 33.2277C1.45909 33.2371 1.40887 33.24 1.36238 33.2692C1.14305 33.4074 1.18304 33.882 1.16597 33.9509C1.14987 34.016 1.10477 34.088 1.09234 34.1617C1.07592 34.2592 1.07035 34.3675 1.06292 34.4657C1.05581 34.5596 1.04092 34.6276 1.03349 34.7353C1.02872 34.8047 0.967364 34.8483 0.935513 34.9072C0.90558 34.9626 0.893804 35.0248 0.874164 35.0837C0.854524 35.1426 0.844667 35.2013 0.832456 35.3258C0.81039 35.5507 0.83481 35.7164 0.851876 35.7579C0.966628 35.9462 1.10933 36.1235 1.14354 36.1455C1.16318 36.1578 1.18745 36.1723 1.22718 36.202" stroke="black" stroke-width="0.723803" stroke-linecap="round"/>
<path d="M0.460547 37.3655C0.0915733 36.9868 -0.108214 36.7771 -0.142346 36.7162C-0.271156 36.4864 -0.275047 36.3801 -0.301896 36.2626C-0.317398 36.1948 -0.319182 36.1397 -0.32161 36.1005C-0.324074 36.0608 -0.333894 35.7792 -0.331467 35.3723C-0.330163 35.1538 -0.309472 35.0269 -0.270339 34.8822C-0.235295 34.7526 -0.143228 34.6349 -0.0912953 34.5191C-0.0218265 34.3641 0.0386106 34.2077 0.0681079 34.1414C0.109924 34.0473 0.210151 34.0014 0.276355 33.9842C0.325964 33.9713 0.372129 33.9866 0.399052 34.0012C0.421119 34.0256 0.450543 34.0891 0.499387 34.4443C0.52881 34.7509 0.56765 35.314 0.607666 35.8943" stroke="black" stroke-width="0.723803" stroke-linecap="round"/>
<path d="M1.28304 33.319C1.48695 32.9015 1.61627 32.6475 1.71616 32.5207C1.9027 32.2839 2.10147 32.1179 2.2018 32.0493C2.28342 31.9936 2.53149 31.9414 2.85744 31.8752C3.01575 31.8431 3.06789 31.799 3.1046 31.7574C3.19097 31.6596 3.19559 31.4079 3.16388 31.1914C3.14302 31.0488 3.11232 30.956 3.10489 30.877C3.09782 30.8019 3.07789 30.7056 3.06326 30.6416C3.05635 30.6115 3.03391 30.5876 2.9997 30.5704C2.95893 30.55 2.91621 30.5531 2.77034 30.5701C2.63883 30.5855 2.39144 30.6211 2.17892 30.6435C1.79725 30.6836 1.56801 30.7001 1.47982 30.727C1.37989 30.7575 1.29805 30.8324 1.24649 30.8986C1.20602 30.9505 1.17035 30.9944 1.12408 31.0747C1.02039 31.2547 0.915689 31.4353 0.842203 31.5357C0.745853 31.6673 0.636016 31.7837 0.560103 31.8938C0.487381 31.9994 0.386061 32.1363 0.30772 32.2953C0.196378 32.5214 0.145816 32.7532 0.118378 32.8921C0.103945 32.9652 0.0866743 33.1121 0.0669604 33.2253C0.0322397 33.4247 0.00811286 33.5294 0.00553828 33.6716C0.00345833 33.7864 0.0569563 33.9219 0.0643858 33.9808C0.0668133 33.9956 0.0716682 34.0101 0.0765967 34.0249C0.0815252 34.0397 0.0863802 34.0543 0.106094 34.0399" stroke="black" stroke-width="0.723803" stroke-linecap="round"/>
<path d="M33.1775 35.1733C33.4105 35.387 33.6436 35.6006 33.8049 35.747C34.0477 35.9675 34.1969 36.1142 34.2974 36.2318C34.3829 36.3319 34.5251 36.5304 34.624 36.7591C34.6661 36.8565 34.6096 36.9238 34.5875 37.0071C34.5692 37.0762 34.5263 37.1297 34.4553 37.1935C34.3686 37.2714 34.3106 37.3016 34.1809 37.3675C34.0429 37.4378 33.987 37.5075 33.8988 37.5247C33.7494 37.5539 33.6683 37.4931 33.5629 37.449C33.467 37.3851 33.4033 37.3411 33.3617 37.2971C33.3443 37.2773 33.3346 37.2627 33.3246 37.2477" stroke="black" stroke-width="0.723803" stroke-linecap="round"/>
<path d="M32.9458 37.2765C32.4703 37.5069 32.4018 37.546 32.1865 37.7343C32.1007 37.8093 32.0731 37.8988 32.024 37.9799C31.981 38.0512 31.9945 38.1589 31.9871 38.2178C31.9794 38.2787 31.9601 38.3355 31.9357 38.4432C31.9171 38.5252 31.9063 38.615 31.889 38.7496C31.8781 38.8354 31.8621 38.9431 31.8449 39.0416C31.8424 39.0613 31.8424 39.0808 31.84 39.098C31.8376 39.1153 31.8327 39.1299 31.8277 39.1449" stroke="black" stroke-width="0.723803" stroke-linecap="round"/>
<path d="M32.8996 34.909C32.8996 35.4137 32.9093 35.5511 32.9167 35.6394C32.9226 35.71 32.9631 36.0098 32.9975 36.2594C33.0301 36.4957 33.027 36.5565 33.0344 36.6154C33.0421 36.6763 33.0614 36.7427 33.0736 36.8431C33.097 37.0358 33.0908 37.1544 33.1152 37.2943C33.1202 37.3216 33.1202 37.3362 33.1251 37.3583C33.1299 37.3803 33.1397 37.4095 33.1497 37.4395" stroke="black" stroke-width="0.723803" stroke-linecap="round"/>
<path d="M30.4128 35.6589C29.403 37.1348 28.8245 37.9145 28.6974 37.944C28.6297 37.9597 28.5509 37.954 28.4915 37.9248C28.3734 37.867 28.3532 37.6998 28.3338 37.6112C28.1384 37.7963 27.7082 38.187 27.2563 38.5121C27.1574 38.5619 27.0797 38.5813 26.9408 38.6013" stroke="black" stroke-width="0.723803" stroke-linecap="round"/>
<path d="M26.647 38.1298L25.7643 38.6595" stroke="black" stroke-width="0.904754" stroke-linecap="round"/>
<path d="M22.9417 38.6593L20.9997 37.9531" stroke="black" stroke-width="0.904754" stroke-linecap="round"/>
<path d="M20.7627 37.4254C20.2966 38.0468 19.9983 38.3864 19.8809 38.3964C19.5877 38.4214 19.2739 37.9762 19.0179 37.6914C18.8289 37.4812 18.6448 37.3277 18.5177 37.2883C18.373 37.2434 18.2328 37.4054 18.1154 37.4643C18.009 37.5176 17.8798 37.4648 17.7332 37.3674C17.5284 37.1535 17.2919 36.761 17.1056 36.3494" stroke="black" stroke-width="0.678565" stroke-linecap="round"/>
<path d="M31.8023 19.5831C31.7901 19.5489 31.7452 19.5143 31.6676 19.4755C31.6231 19.4805 31.5497 19.4854 31.5349 19.4903C31.5056 19.5001 31.476 19.5149 31.4517 19.537C31.437 19.5639 31.4134 19.6413 31.4372 19.7359C31.4519 19.7945 31.4746 19.8454 31.5207 19.8655C31.5599 19.8826 31.6067 19.8994 31.6482 19.8849C31.712 19.8627 31.8167 19.816 31.8245 19.7326C31.8294 19.6812 31.8182 19.6275 31.8023 19.5831Z" fill="white" stroke="white" stroke-width="0.452377" stroke-linecap="round"/>
<path d="M24.5042 20.7602C24.492 20.726 24.4471 20.6914 24.3695 20.6526C24.325 20.6576 24.2516 20.6624 24.2368 20.6674C24.2075 20.6771 24.1779 20.692 24.1536 20.7141C24.1389 20.741 24.1153 20.8184 24.1391 20.913C24.1538 20.9715 24.1765 21.0225 24.2226 21.0426C24.2618 21.0596 24.3086 21.0765 24.3501 21.062C24.4139 21.0398 24.5186 20.993 24.5264 20.9097C24.5313 20.8582 24.5201 20.8046 24.5042 20.7602Z" fill="white" stroke="white" stroke-width="0.452377" stroke-linecap="round"/>
<path d="M17.5832 12.9286L17.5832 12.9286C17.5832 12.9275 17.5827 12.9268 17.5817 12.9263C17.2569 12.4513 16.9322 11.9764 16.6534 11.6033C16.3742 11.2295 16.1509 10.9722 15.9557 10.762C15.7606 10.5517 15.6003 10.3964 15.4863 10.2921C15.3135 10.1342 15.2197 10.0649 15.1587 10.0087C14.9669 9.83215 14.803 9.70196 14.7416 9.67725C14.7251 9.67058 14.705 9.70138 14.6901 9.72109C14.6753 9.7408 14.6655 9.76022 14.5829 10.2994C14.5002 10.8386 14.3448 11.897 14.2648 12.4568C14.1848 13.0166 14.1848 13.0457 14.1751 13.1335C14.1492 13.3674 14.1259 13.5996 14.1235 13.7392C14.1202 13.9286 14.1209 14.1635 14.1283 14.3916C14.1323 14.5129 14.1503 14.6004 14.187 14.6571C14.1949 14.6692 14.2139 14.6646 14.2311 14.6573C14.3095 14.6241 14.3901 14.5328 14.486 14.4198C14.6336 14.2459 14.7874 14.0573 14.8759 13.9709C14.9469 13.9017 15.0472 13.846 15.153 13.7821C15.2329 13.7338 15.2879 13.6889 15.3638 13.6862C15.5131 13.6808 15.6648 14.0064 15.7709 14.1419C15.7966 14.1747 15.8366 14.2126 15.8639 14.2229C15.8912 14.2332 15.9058 14.2138 15.9157 14.1941C15.959 14.1081 15.9599 14.0028 15.9771 13.8951C15.9919 13.8028 15.9943 13.5385 16.0089 13.259C16.0139 13.163 16.0526 13.164 16.1089 13.1785C16.3534 13.2418 16.4545 13.3205 16.5579 13.3649C16.7337 13.4403 16.8812 13.4873 16.9944 13.517C17.0812 13.5397 17.1416 13.5415 17.7011 13.544C17.8185 13.5446 17.833 13.5368 17.8357 13.5221C17.8504 13.4405 17.7795 13.3849 17.7305 13.304C17.6919 13.24 17.6373 13.1937 17.5859 13.147C17.5441 13.0906 17.5049 13.0319 17.4827 12.9729C17.4804 12.9592 17.5689 12.9204 17.5817 12.9263C17.5822 12.9271 17.5827 12.9278 17.5832 12.9286Z" fill="#785C12" stroke="black" stroke-width="0.226188" stroke-linecap="round"/>
<path d="M24.4973 16.9749C23.9536 16.6544 23.4098 16.334 22.9112 16.1447C22.4126 15.9553 21.9757 15.9068 21.6147 15.8963C20.9818 15.878 20.5754 15.9742 20.2579 16.0911C20.0667 16.179 19.8142 16.3246 19.6114 16.4773C19.4085 16.63 19.2628 16.7854 19.0833 16.9749" stroke="black" stroke-width="0.452377" stroke-linecap="round"/>
<path d="M19.9644 15.1509C19.1293 15.5004 18.67 15.729 18.6064 15.8657C18.4419 16.2197 18.4737 16.3761 18.4589 16.5283C18.4555 16.5631 18.4443 16.592 18.4393 16.5828C18.4343 16.5735 18.4343 16.525 18.4343 16.5242C18.4343 16.5235 18.4343 16.572 18.4343 16.6221" stroke="black" stroke-width="0.452377" stroke-linecap="round"/>
<path d="M32.5254 23.242C32.491 23.0979 32.459 23.0602 32.4334 23.0299L32.4325 23.0289C32.4021 22.993 32.3566 22.9701 32.2771 22.9211C32.2143 22.8824 32.163 22.8671 32.1224 22.8499C32.0739 22.8293 32.0355 22.818 31.9595 22.7886C31.8999 22.7656 31.8492 22.7568 31.7975 22.742C31.7535 22.7293 31.6752 22.7101 31.6027 22.6868C31.5369 22.6657 31.4226 22.6414 31.3648 22.6267C31.306 22.6118 31.2213 22.6022 31.1894 22.5961C31.1483 22.5882 31.1038 22.5826 31.0363 22.5728C30.9757 22.564 30.8976 22.5507 30.8183 22.5446C30.7055 22.5359 30.6181 22.5409 30.5087 22.5372C30.4138 22.534 30.239 22.536 30.1417 22.5372C29.9807 22.5392 29.8972 22.5482 29.8568 22.5519C29.8014 22.557 29.7285 22.5677 29.6741 22.5801C29.6323 22.5895 29.5933 22.5997 29.5344 22.6144C29.5002 22.6229 29.4706 22.6364 29.4399 22.6548C29.4005 22.6784 29.3676 22.7001 29.3198 22.7259C29.3009 22.7361 29.2721 22.7638 29.2377 22.8017C29.2178 22.8238 29.2203 22.8521 29.2228 22.8778C29.2263 22.915 29.2595 22.9404 29.2877 22.9772C29.3168 23.0152 29.3575 23.0287 29.4016 23.0569C29.4345 23.0779 29.4752 23.09 29.5083 23.1023C29.5604 23.1217 29.6321 23.1049 29.6677 23.1012C29.7012 23.0977 29.7351 23.0902 29.8525 23.0864C29.9338 23.0839 30.0073 23.0754 30.1234 23.0717C30.2059 23.0691 30.2942 23.0607 30.4738 23.057C30.5149 23.0562 30.5294 23.0534 30.6498 23.0521C30.7702 23.0509 30.9959 23.0509 31.1171 23.0521C31.2775 23.0537 31.3556 23.0631 31.4342 23.0668C31.4717 23.0686 31.5005 23.0778 31.5495 23.0815C31.5897 23.0846 31.6328 23.0999 31.6893 23.1146C31.7373 23.1271 31.8166 23.1464 31.8732 23.1685C31.9121 23.1837 31.9493 23.2077 32.0129 23.242C32.0682 23.2718 32.1109 23.2983 32.154 23.3242C32.2015 23.3527 32.2435 23.416 32.2729 23.4553C32.3004 23.4919 32.3293 23.5264 32.3466 23.5583C32.3611 23.585 32.3588 23.6099 32.3698 23.6197C32.3748 23.6241 32.3833 23.6198 32.3894 23.6149C32.4151 23.5946 32.4225 23.5586 32.4349 23.5291C32.4397 23.5144 32.4422 23.4487 32.4338 23.341C32.4258 23.2948 32.528 23.2834 32.5272 23.2495C32.5271 23.2471 32.5265 23.2446 32.5254 23.242Z" fill="#466067"/>
</g>
<rect x="1" y="1" width="41" height="41" rx="20.5" stroke="black" stroke-width="2"/>
<defs>
<clipPath id="clip0_205_14252">
<rect width="43" height="43" rx="21.5" fill="white"/>
</clipPath>
</defs>
</svg>
