<svg width="60" height="60" viewBox="0 0 60 60" fill="none" xmlns="http://www.w3.org/2000/svg">
<g clip-path="url(#clip0_205_12051)">
<g clip-path="url(#clip1_205_12051)">
<g clip-path="url(#clip2_205_12051)">
<mask id="mask0_205_12051" style="mask-type:luminance" maskUnits="userSpaceOnUse" x="1" y="0" width="60" height="60">
<path d="M1.27783 0.111328H60.2411V59.0746H1.27783V0.111328Z" fill="white"/>
</mask>
<g mask="url(#mask0_205_12051)">
<path d="M60.1241 4.81454C60.0779 4.59694 59.9742 4.39571 59.8238 4.23175C59.6735 4.06779 59.482 3.94708 59.2692 3.88218C58.4945 3.72769 57.6924 3.78498 56.9475 4.04802C56.9475 4.04802 5.28458 22.6141 2.33273 24.6704C1.69887 25.1163 1.48513 25.3706 1.37826 25.6728C0.869703 27.1469 2.45803 27.7844 2.45803 27.7844L15.7727 32.1219C15.9972 32.1637 16.2284 32.151 16.4471 32.0851C19.4763 30.1688 46.9237 12.8372 48.5084 12.2587C48.759 12.185 48.9432 12.2587 48.8769 12.4355C48.243 14.6467 24.5324 35.7261 24.4071 35.8513C24.3438 35.9037 24.294 35.9706 24.2619 36.0463C24.2298 36.122 24.2164 36.2043 24.2229 36.2862L22.9809 49.2876C22.9809 49.2876 22.4576 53.3413 26.504 49.2876C28.7472 47.0555 31.0833 44.9187 33.5059 42.8827C38.0829 46.0446 43.0137 49.5382 45.1364 51.3587C45.4924 51.7056 45.9149 51.9769 46.3785 52.1561C46.8421 52.3354 47.3372 52.4189 47.834 52.4016C48.4454 52.3255 49.0194 52.0657 49.48 51.6564C49.9406 51.2471 50.2662 50.7077 50.4136 50.1094C50.4136 50.1094 59.8514 12.2439 60.1684 7.14727C60.1942 6.64977 60.2421 6.34758 60.2421 5.97906C60.2553 5.58735 60.2156 5.19565 60.1241 4.81454Z" fill="white"/>
</g>
</g>
</g>
</g>
<defs>
<clipPath id="clip0_205_12051">
<rect width="58.9633" height="58.9633" fill="white" transform="translate(0.466553 0.111328)"/>
</clipPath>
<clipPath id="clip1_205_12051">
<rect width="58.9633" height="58.9633" fill="white" transform="translate(1.27783 0.111328)"/>
</clipPath>
<clipPath id="clip2_205_12051">
<rect width="58.9633" height="58.9633" fill="white" transform="translate(1.27783 0.111328)"/>
</clipPath>
</defs>
</svg>
