<svg width="22" height="22" viewBox="0 0 22 22" fill="none" xmlns="http://www.w3.org/2000/svg">
<mask id="mask0_600_1212" style="mask-type:luminance" maskUnits="userSpaceOnUse" x="0" y="0" width="23" height="22">
<path d="M0.302246 0.00019455H22.2656V21.9635H0.302246V0.00019455Z" fill="white"/>
</mask>
<g mask="url(#mask0_600_1212)">
<path d="M22.222 1.75216C22.2047 1.6711 22.1661 1.59615 22.1101 1.53507C22.0541 1.474 21.9828 1.42904 21.9035 1.40486C21.6149 1.34732 21.3162 1.36866 21.0387 1.46663C21.0387 1.46663 1.79472 8.38233 0.695186 9.1483C0.459081 9.3144 0.379464 9.40912 0.339655 9.52168C0.150222 10.0708 0.741858 10.3082 0.741858 10.3082L5.70145 11.9239C5.78508 11.9395 5.87122 11.9348 5.95265 11.9102C7.08102 11.1964 17.3049 4.74054 17.8952 4.52502C17.9885 4.49757 18.0572 4.52502 18.0325 4.59091C17.7964 5.41454 8.96437 13.2664 8.9177 13.3131C8.8941 13.3326 8.87555 13.3575 8.8636 13.3857C8.85166 13.4139 8.84667 13.4445 8.84907 13.4751L8.38646 18.318C8.38646 18.318 8.19154 19.828 9.69877 18.318C10.5344 17.4866 11.4045 16.6906 12.3069 15.9322C14.0118 17.11 15.8485 18.4113 16.6392 19.0894C16.7718 19.2187 16.9292 19.3197 17.1018 19.3865C17.2745 19.4532 17.459 19.4844 17.644 19.4779C17.8718 19.4496 18.0856 19.3528 18.2571 19.2003C18.4287 19.0479 18.55 18.8469 18.6049 18.6241C18.6049 18.6241 22.1204 4.51953 22.2384 2.62108C22.2481 2.43576 22.2659 2.3232 22.2659 2.18593C22.2708 2.04002 22.2561 1.89412 22.222 1.75216Z" fill="black"/>
</g>
</svg>
