<svg width="100" height="100" viewBox="0 0 100 100" fill="none" xmlns="http://www.w3.org/2000/svg">
<rect width="100" height="100" rx="29.2969" fill="#5860FF"/>
<path d="M20.9961 62.3796C20.9961 54.3742 20.9961 50.3715 22.6385 47.0782C23.3768 45.5979 24.3454 44.2443 25.5081 43.0679C28.0951 40.4504 31.8836 39.1586 39.4607 36.575L54.3761 31.4891C65.2326 27.7872 70.6608 25.9362 74.7101 28.0043C75.6616 28.4902 76.5352 29.1153 77.3022 29.859C80.5664 33.0242 80.5664 38.7594 80.5664 50.2297C80.5664 58.1719 80.5664 62.1429 78.734 65.316C78.2897 66.0852 77.7716 66.8093 77.1869 67.478C74.7751 70.2365 71.0165 71.5181 63.4993 74.0813L45.789 80.1202C36.2304 83.3796 31.4511 85.0092 27.7659 83.5425C23.0439 81.6632 20.9961 77.2949 20.9961 73.5352C20.9961 70.9961 20.9961 66.3183 20.9961 62.3796Z" fill="url(#paint0_linear_22_13305)"/>
<path fill-rule="evenodd" clip-rule="evenodd" d="M20.9961 43.4982C20.9961 37.0864 20.9961 31.8297 22.062 29.0938C23.0034 26.6775 24.5314 24.5335 26.5082 22.8551C28.7465 20.9546 31.7769 19.9084 37.8377 17.816L39.9268 17.0948C46.9649 14.665 50.4839 13.4501 53.309 13.9964C56.3664 14.5876 59.0168 16.4765 60.5734 19.1736C62.0117 21.6657 62.0117 27.3417 62.0117 34.7873C62.0117 40.6621 62.0117 43.5995 61.1142 46.1321C60.1384 48.8853 58.4105 51.3098 56.1264 53.1306C54.0254 54.8055 51.2488 55.764 45.6956 57.6811C45.6956 57.6811 36.1328 60.9482 30.1758 63.0299C24.2188 65.1115 20.9961 69.2871 20.9961 73.6304V43.4982Z" fill="white"/>
<defs>
<linearGradient id="paint0_linear_22_13305" x1="78.4668" y1="64.5996" x2="23.4292" y2="32.9729" gradientUnits="userSpaceOnUse">
<stop stop-color="white"/>
<stop offset="1" stop-color="white" stop-opacity="0.12"/>
</linearGradient>
</defs>
</svg>
